%
M48
M72
T01C0.0130
T02C0.0236
T03C0.0300
T04C0.0315
T05C0.0350
T06C0.1495
%
T01
X4654Y1881
X7054Y2081
X4104Y3731
X2954Y4331
X3904Y4731
X3804Y5231
X3804Y6231
X9804Y7481
X11204Y5981
X11704Y5781
X11504Y4981
X10654Y3881
X10854Y3431
X11304Y2481
X10904Y1931
X12804Y1981
X13154Y2431
X13154Y3281
X13604Y1531
X13554Y6531
X14004Y7431
X13654Y10431
X12854Y11781
X13254Y12381
X14954Y12281
X15854Y12331
X8704Y14781
X9904Y15181
X10854Y15631
X7504Y16781
X21304Y17981
X23804Y16631
X28154Y4031
X26554Y2381
T02
X4304Y10575
X4304Y18386
T03
X6398Y11780
X6398Y12682
X7257Y13075
X6824Y13477
X7257Y13879
X6824Y14280
X7257Y14682
X6824Y15083
X7257Y15485
X6824Y15886
X6398Y16280
X6398Y17182
T04
X12517Y13481
X13304Y13481
X14091Y13481
X30304Y10768
X30304Y9981
X30304Y9194
T05
X22404Y1731
X23404Y1731
X24404Y1731
X24404Y2731
X23404Y2731
X22404Y2731
X29954Y2431
X30954Y2431
X30954Y3431
X29954Y3431
X29954Y4431
X30954Y4431
X17304Y17981
X16304Y17981
X15304Y17981
X14304Y17981
X13304Y17981
X12304Y17981
X10304Y17981
X9304Y17981
X8304Y17981
T06
X10304Y13481
X30304Y12981
X30304Y6981
M30
