G75*
%MOIN*%
%OFA0B0*%
%FSLAX24Y24*%
%IPPOS*%
%LPD*%
%AMOC8*
5,1,8,0,0,1.08239X$1,22.5*
%
%ADD10C,0.0000*%
%ADD11R,0.1181X0.0315*%
%ADD12R,0.0260X0.0800*%
%ADD13R,0.0472X0.1260*%
%ADD14R,0.0591X0.0512*%
%ADD15C,0.0004*%
%ADD16R,0.0591X0.0197*%
%ADD17R,0.0197X0.0591*%
%ADD18R,0.0512X0.0591*%
%ADD19R,0.0472X0.0472*%
%ADD20R,0.0236X0.0866*%
%ADD21R,0.0800X0.0260*%
D10*
X000487Y001704D02*
X000487Y031200D01*
X039357Y031200D01*
X039357Y001704D01*
X000487Y001704D01*
X001597Y003204D02*
X001599Y003254D01*
X001605Y003304D01*
X001615Y003353D01*
X001628Y003402D01*
X001646Y003449D01*
X001667Y003495D01*
X001691Y003538D01*
X001719Y003580D01*
X001750Y003620D01*
X001784Y003657D01*
X001821Y003691D01*
X001861Y003722D01*
X001903Y003750D01*
X001946Y003774D01*
X001992Y003795D01*
X002039Y003813D01*
X002088Y003826D01*
X002137Y003836D01*
X002187Y003842D01*
X002237Y003844D01*
X002287Y003842D01*
X002337Y003836D01*
X002386Y003826D01*
X002435Y003813D01*
X002482Y003795D01*
X002528Y003774D01*
X002571Y003750D01*
X002613Y003722D01*
X002653Y003691D01*
X002690Y003657D01*
X002724Y003620D01*
X002755Y003580D01*
X002783Y003538D01*
X002807Y003495D01*
X002828Y003449D01*
X002846Y003402D01*
X002859Y003353D01*
X002869Y003304D01*
X002875Y003254D01*
X002877Y003204D01*
X002875Y003154D01*
X002869Y003104D01*
X002859Y003055D01*
X002846Y003006D01*
X002828Y002959D01*
X002807Y002913D01*
X002783Y002870D01*
X002755Y002828D01*
X002724Y002788D01*
X002690Y002751D01*
X002653Y002717D01*
X002613Y002686D01*
X002571Y002658D01*
X002528Y002634D01*
X002482Y002613D01*
X002435Y002595D01*
X002386Y002582D01*
X002337Y002572D01*
X002287Y002566D01*
X002237Y002564D01*
X002187Y002566D01*
X002137Y002572D01*
X002088Y002582D01*
X002039Y002595D01*
X001992Y002613D01*
X001946Y002634D01*
X001903Y002658D01*
X001861Y002686D01*
X001821Y002717D01*
X001784Y002751D01*
X001750Y002788D01*
X001719Y002828D01*
X001691Y002870D01*
X001667Y002913D01*
X001646Y002959D01*
X001628Y003006D01*
X001615Y003055D01*
X001605Y003104D01*
X001599Y003154D01*
X001597Y003204D01*
X006097Y003204D02*
X006099Y003254D01*
X006105Y003304D01*
X006115Y003353D01*
X006128Y003402D01*
X006146Y003449D01*
X006167Y003495D01*
X006191Y003538D01*
X006219Y003580D01*
X006250Y003620D01*
X006284Y003657D01*
X006321Y003691D01*
X006361Y003722D01*
X006403Y003750D01*
X006446Y003774D01*
X006492Y003795D01*
X006539Y003813D01*
X006588Y003826D01*
X006637Y003836D01*
X006687Y003842D01*
X006737Y003844D01*
X006787Y003842D01*
X006837Y003836D01*
X006886Y003826D01*
X006935Y003813D01*
X006982Y003795D01*
X007028Y003774D01*
X007071Y003750D01*
X007113Y003722D01*
X007153Y003691D01*
X007190Y003657D01*
X007224Y003620D01*
X007255Y003580D01*
X007283Y003538D01*
X007307Y003495D01*
X007328Y003449D01*
X007346Y003402D01*
X007359Y003353D01*
X007369Y003304D01*
X007375Y003254D01*
X007377Y003204D01*
X007375Y003154D01*
X007369Y003104D01*
X007359Y003055D01*
X007346Y003006D01*
X007328Y002959D01*
X007307Y002913D01*
X007283Y002870D01*
X007255Y002828D01*
X007224Y002788D01*
X007190Y002751D01*
X007153Y002717D01*
X007113Y002686D01*
X007071Y002658D01*
X007028Y002634D01*
X006982Y002613D01*
X006935Y002595D01*
X006886Y002582D01*
X006837Y002572D01*
X006787Y002566D01*
X006737Y002564D01*
X006687Y002566D01*
X006637Y002572D01*
X006588Y002582D01*
X006539Y002595D01*
X006492Y002613D01*
X006446Y002634D01*
X006403Y002658D01*
X006361Y002686D01*
X006321Y002717D01*
X006284Y002751D01*
X006250Y002788D01*
X006219Y002828D01*
X006191Y002870D01*
X006167Y002913D01*
X006146Y002959D01*
X006128Y003006D01*
X006115Y003055D01*
X006105Y003104D01*
X006099Y003154D01*
X006097Y003204D01*
X009097Y003204D02*
X009099Y003254D01*
X009105Y003304D01*
X009115Y003353D01*
X009128Y003402D01*
X009146Y003449D01*
X009167Y003495D01*
X009191Y003538D01*
X009219Y003580D01*
X009250Y003620D01*
X009284Y003657D01*
X009321Y003691D01*
X009361Y003722D01*
X009403Y003750D01*
X009446Y003774D01*
X009492Y003795D01*
X009539Y003813D01*
X009588Y003826D01*
X009637Y003836D01*
X009687Y003842D01*
X009737Y003844D01*
X009787Y003842D01*
X009837Y003836D01*
X009886Y003826D01*
X009935Y003813D01*
X009982Y003795D01*
X010028Y003774D01*
X010071Y003750D01*
X010113Y003722D01*
X010153Y003691D01*
X010190Y003657D01*
X010224Y003620D01*
X010255Y003580D01*
X010283Y003538D01*
X010307Y003495D01*
X010328Y003449D01*
X010346Y003402D01*
X010359Y003353D01*
X010369Y003304D01*
X010375Y003254D01*
X010377Y003204D01*
X010375Y003154D01*
X010369Y003104D01*
X010359Y003055D01*
X010346Y003006D01*
X010328Y002959D01*
X010307Y002913D01*
X010283Y002870D01*
X010255Y002828D01*
X010224Y002788D01*
X010190Y002751D01*
X010153Y002717D01*
X010113Y002686D01*
X010071Y002658D01*
X010028Y002634D01*
X009982Y002613D01*
X009935Y002595D01*
X009886Y002582D01*
X009837Y002572D01*
X009787Y002566D01*
X009737Y002564D01*
X009687Y002566D01*
X009637Y002572D01*
X009588Y002582D01*
X009539Y002595D01*
X009492Y002613D01*
X009446Y002634D01*
X009403Y002658D01*
X009361Y002686D01*
X009321Y002717D01*
X009284Y002751D01*
X009250Y002788D01*
X009219Y002828D01*
X009191Y002870D01*
X009167Y002913D01*
X009146Y002959D01*
X009128Y003006D01*
X009115Y003055D01*
X009105Y003104D01*
X009099Y003154D01*
X009097Y003204D01*
X013597Y003204D02*
X013599Y003254D01*
X013605Y003304D01*
X013615Y003353D01*
X013628Y003402D01*
X013646Y003449D01*
X013667Y003495D01*
X013691Y003538D01*
X013719Y003580D01*
X013750Y003620D01*
X013784Y003657D01*
X013821Y003691D01*
X013861Y003722D01*
X013903Y003750D01*
X013946Y003774D01*
X013992Y003795D01*
X014039Y003813D01*
X014088Y003826D01*
X014137Y003836D01*
X014187Y003842D01*
X014237Y003844D01*
X014287Y003842D01*
X014337Y003836D01*
X014386Y003826D01*
X014435Y003813D01*
X014482Y003795D01*
X014528Y003774D01*
X014571Y003750D01*
X014613Y003722D01*
X014653Y003691D01*
X014690Y003657D01*
X014724Y003620D01*
X014755Y003580D01*
X014783Y003538D01*
X014807Y003495D01*
X014828Y003449D01*
X014846Y003402D01*
X014859Y003353D01*
X014869Y003304D01*
X014875Y003254D01*
X014877Y003204D01*
X014875Y003154D01*
X014869Y003104D01*
X014859Y003055D01*
X014846Y003006D01*
X014828Y002959D01*
X014807Y002913D01*
X014783Y002870D01*
X014755Y002828D01*
X014724Y002788D01*
X014690Y002751D01*
X014653Y002717D01*
X014613Y002686D01*
X014571Y002658D01*
X014528Y002634D01*
X014482Y002613D01*
X014435Y002595D01*
X014386Y002582D01*
X014337Y002572D01*
X014287Y002566D01*
X014237Y002564D01*
X014187Y002566D01*
X014137Y002572D01*
X014088Y002582D01*
X014039Y002595D01*
X013992Y002613D01*
X013946Y002634D01*
X013903Y002658D01*
X013861Y002686D01*
X013821Y002717D01*
X013784Y002751D01*
X013750Y002788D01*
X013719Y002828D01*
X013691Y002870D01*
X013667Y002913D01*
X013646Y002959D01*
X013628Y003006D01*
X013615Y003055D01*
X013605Y003104D01*
X013599Y003154D01*
X013597Y003204D01*
X016597Y003204D02*
X016599Y003254D01*
X016605Y003304D01*
X016615Y003353D01*
X016628Y003402D01*
X016646Y003449D01*
X016667Y003495D01*
X016691Y003538D01*
X016719Y003580D01*
X016750Y003620D01*
X016784Y003657D01*
X016821Y003691D01*
X016861Y003722D01*
X016903Y003750D01*
X016946Y003774D01*
X016992Y003795D01*
X017039Y003813D01*
X017088Y003826D01*
X017137Y003836D01*
X017187Y003842D01*
X017237Y003844D01*
X017287Y003842D01*
X017337Y003836D01*
X017386Y003826D01*
X017435Y003813D01*
X017482Y003795D01*
X017528Y003774D01*
X017571Y003750D01*
X017613Y003722D01*
X017653Y003691D01*
X017690Y003657D01*
X017724Y003620D01*
X017755Y003580D01*
X017783Y003538D01*
X017807Y003495D01*
X017828Y003449D01*
X017846Y003402D01*
X017859Y003353D01*
X017869Y003304D01*
X017875Y003254D01*
X017877Y003204D01*
X017875Y003154D01*
X017869Y003104D01*
X017859Y003055D01*
X017846Y003006D01*
X017828Y002959D01*
X017807Y002913D01*
X017783Y002870D01*
X017755Y002828D01*
X017724Y002788D01*
X017690Y002751D01*
X017653Y002717D01*
X017613Y002686D01*
X017571Y002658D01*
X017528Y002634D01*
X017482Y002613D01*
X017435Y002595D01*
X017386Y002582D01*
X017337Y002572D01*
X017287Y002566D01*
X017237Y002564D01*
X017187Y002566D01*
X017137Y002572D01*
X017088Y002582D01*
X017039Y002595D01*
X016992Y002613D01*
X016946Y002634D01*
X016903Y002658D01*
X016861Y002686D01*
X016821Y002717D01*
X016784Y002751D01*
X016750Y002788D01*
X016719Y002828D01*
X016691Y002870D01*
X016667Y002913D01*
X016646Y002959D01*
X016628Y003006D01*
X016615Y003055D01*
X016605Y003104D01*
X016599Y003154D01*
X016597Y003204D01*
X021097Y003204D02*
X021099Y003254D01*
X021105Y003304D01*
X021115Y003353D01*
X021128Y003402D01*
X021146Y003449D01*
X021167Y003495D01*
X021191Y003538D01*
X021219Y003580D01*
X021250Y003620D01*
X021284Y003657D01*
X021321Y003691D01*
X021361Y003722D01*
X021403Y003750D01*
X021446Y003774D01*
X021492Y003795D01*
X021539Y003813D01*
X021588Y003826D01*
X021637Y003836D01*
X021687Y003842D01*
X021737Y003844D01*
X021787Y003842D01*
X021837Y003836D01*
X021886Y003826D01*
X021935Y003813D01*
X021982Y003795D01*
X022028Y003774D01*
X022071Y003750D01*
X022113Y003722D01*
X022153Y003691D01*
X022190Y003657D01*
X022224Y003620D01*
X022255Y003580D01*
X022283Y003538D01*
X022307Y003495D01*
X022328Y003449D01*
X022346Y003402D01*
X022359Y003353D01*
X022369Y003304D01*
X022375Y003254D01*
X022377Y003204D01*
X022375Y003154D01*
X022369Y003104D01*
X022359Y003055D01*
X022346Y003006D01*
X022328Y002959D01*
X022307Y002913D01*
X022283Y002870D01*
X022255Y002828D01*
X022224Y002788D01*
X022190Y002751D01*
X022153Y002717D01*
X022113Y002686D01*
X022071Y002658D01*
X022028Y002634D01*
X021982Y002613D01*
X021935Y002595D01*
X021886Y002582D01*
X021837Y002572D01*
X021787Y002566D01*
X021737Y002564D01*
X021687Y002566D01*
X021637Y002572D01*
X021588Y002582D01*
X021539Y002595D01*
X021492Y002613D01*
X021446Y002634D01*
X021403Y002658D01*
X021361Y002686D01*
X021321Y002717D01*
X021284Y002751D01*
X021250Y002788D01*
X021219Y002828D01*
X021191Y002870D01*
X021167Y002913D01*
X021146Y002959D01*
X021128Y003006D01*
X021115Y003055D01*
X021105Y003104D01*
X021099Y003154D01*
X021097Y003204D01*
X024097Y003204D02*
X024099Y003254D01*
X024105Y003304D01*
X024115Y003353D01*
X024128Y003402D01*
X024146Y003449D01*
X024167Y003495D01*
X024191Y003538D01*
X024219Y003580D01*
X024250Y003620D01*
X024284Y003657D01*
X024321Y003691D01*
X024361Y003722D01*
X024403Y003750D01*
X024446Y003774D01*
X024492Y003795D01*
X024539Y003813D01*
X024588Y003826D01*
X024637Y003836D01*
X024687Y003842D01*
X024737Y003844D01*
X024787Y003842D01*
X024837Y003836D01*
X024886Y003826D01*
X024935Y003813D01*
X024982Y003795D01*
X025028Y003774D01*
X025071Y003750D01*
X025113Y003722D01*
X025153Y003691D01*
X025190Y003657D01*
X025224Y003620D01*
X025255Y003580D01*
X025283Y003538D01*
X025307Y003495D01*
X025328Y003449D01*
X025346Y003402D01*
X025359Y003353D01*
X025369Y003304D01*
X025375Y003254D01*
X025377Y003204D01*
X025375Y003154D01*
X025369Y003104D01*
X025359Y003055D01*
X025346Y003006D01*
X025328Y002959D01*
X025307Y002913D01*
X025283Y002870D01*
X025255Y002828D01*
X025224Y002788D01*
X025190Y002751D01*
X025153Y002717D01*
X025113Y002686D01*
X025071Y002658D01*
X025028Y002634D01*
X024982Y002613D01*
X024935Y002595D01*
X024886Y002582D01*
X024837Y002572D01*
X024787Y002566D01*
X024737Y002564D01*
X024687Y002566D01*
X024637Y002572D01*
X024588Y002582D01*
X024539Y002595D01*
X024492Y002613D01*
X024446Y002634D01*
X024403Y002658D01*
X024361Y002686D01*
X024321Y002717D01*
X024284Y002751D01*
X024250Y002788D01*
X024219Y002828D01*
X024191Y002870D01*
X024167Y002913D01*
X024146Y002959D01*
X024128Y003006D01*
X024115Y003055D01*
X024105Y003104D01*
X024099Y003154D01*
X024097Y003204D01*
X028597Y003204D02*
X028599Y003254D01*
X028605Y003304D01*
X028615Y003353D01*
X028628Y003402D01*
X028646Y003449D01*
X028667Y003495D01*
X028691Y003538D01*
X028719Y003580D01*
X028750Y003620D01*
X028784Y003657D01*
X028821Y003691D01*
X028861Y003722D01*
X028903Y003750D01*
X028946Y003774D01*
X028992Y003795D01*
X029039Y003813D01*
X029088Y003826D01*
X029137Y003836D01*
X029187Y003842D01*
X029237Y003844D01*
X029287Y003842D01*
X029337Y003836D01*
X029386Y003826D01*
X029435Y003813D01*
X029482Y003795D01*
X029528Y003774D01*
X029571Y003750D01*
X029613Y003722D01*
X029653Y003691D01*
X029690Y003657D01*
X029724Y003620D01*
X029755Y003580D01*
X029783Y003538D01*
X029807Y003495D01*
X029828Y003449D01*
X029846Y003402D01*
X029859Y003353D01*
X029869Y003304D01*
X029875Y003254D01*
X029877Y003204D01*
X029875Y003154D01*
X029869Y003104D01*
X029859Y003055D01*
X029846Y003006D01*
X029828Y002959D01*
X029807Y002913D01*
X029783Y002870D01*
X029755Y002828D01*
X029724Y002788D01*
X029690Y002751D01*
X029653Y002717D01*
X029613Y002686D01*
X029571Y002658D01*
X029528Y002634D01*
X029482Y002613D01*
X029435Y002595D01*
X029386Y002582D01*
X029337Y002572D01*
X029287Y002566D01*
X029237Y002564D01*
X029187Y002566D01*
X029137Y002572D01*
X029088Y002582D01*
X029039Y002595D01*
X028992Y002613D01*
X028946Y002634D01*
X028903Y002658D01*
X028861Y002686D01*
X028821Y002717D01*
X028784Y002751D01*
X028750Y002788D01*
X028719Y002828D01*
X028691Y002870D01*
X028667Y002913D01*
X028646Y002959D01*
X028628Y003006D01*
X028615Y003055D01*
X028605Y003104D01*
X028599Y003154D01*
X028597Y003204D01*
X031597Y003204D02*
X031599Y003254D01*
X031605Y003304D01*
X031615Y003353D01*
X031628Y003402D01*
X031646Y003449D01*
X031667Y003495D01*
X031691Y003538D01*
X031719Y003580D01*
X031750Y003620D01*
X031784Y003657D01*
X031821Y003691D01*
X031861Y003722D01*
X031903Y003750D01*
X031946Y003774D01*
X031992Y003795D01*
X032039Y003813D01*
X032088Y003826D01*
X032137Y003836D01*
X032187Y003842D01*
X032237Y003844D01*
X032287Y003842D01*
X032337Y003836D01*
X032386Y003826D01*
X032435Y003813D01*
X032482Y003795D01*
X032528Y003774D01*
X032571Y003750D01*
X032613Y003722D01*
X032653Y003691D01*
X032690Y003657D01*
X032724Y003620D01*
X032755Y003580D01*
X032783Y003538D01*
X032807Y003495D01*
X032828Y003449D01*
X032846Y003402D01*
X032859Y003353D01*
X032869Y003304D01*
X032875Y003254D01*
X032877Y003204D01*
X032875Y003154D01*
X032869Y003104D01*
X032859Y003055D01*
X032846Y003006D01*
X032828Y002959D01*
X032807Y002913D01*
X032783Y002870D01*
X032755Y002828D01*
X032724Y002788D01*
X032690Y002751D01*
X032653Y002717D01*
X032613Y002686D01*
X032571Y002658D01*
X032528Y002634D01*
X032482Y002613D01*
X032435Y002595D01*
X032386Y002582D01*
X032337Y002572D01*
X032287Y002566D01*
X032237Y002564D01*
X032187Y002566D01*
X032137Y002572D01*
X032088Y002582D01*
X032039Y002595D01*
X031992Y002613D01*
X031946Y002634D01*
X031903Y002658D01*
X031861Y002686D01*
X031821Y002717D01*
X031784Y002751D01*
X031750Y002788D01*
X031719Y002828D01*
X031691Y002870D01*
X031667Y002913D01*
X031646Y002959D01*
X031628Y003006D01*
X031615Y003055D01*
X031605Y003104D01*
X031599Y003154D01*
X031597Y003204D01*
X036097Y003204D02*
X036099Y003254D01*
X036105Y003304D01*
X036115Y003353D01*
X036128Y003402D01*
X036146Y003449D01*
X036167Y003495D01*
X036191Y003538D01*
X036219Y003580D01*
X036250Y003620D01*
X036284Y003657D01*
X036321Y003691D01*
X036361Y003722D01*
X036403Y003750D01*
X036446Y003774D01*
X036492Y003795D01*
X036539Y003813D01*
X036588Y003826D01*
X036637Y003836D01*
X036687Y003842D01*
X036737Y003844D01*
X036787Y003842D01*
X036837Y003836D01*
X036886Y003826D01*
X036935Y003813D01*
X036982Y003795D01*
X037028Y003774D01*
X037071Y003750D01*
X037113Y003722D01*
X037153Y003691D01*
X037190Y003657D01*
X037224Y003620D01*
X037255Y003580D01*
X037283Y003538D01*
X037307Y003495D01*
X037328Y003449D01*
X037346Y003402D01*
X037359Y003353D01*
X037369Y003304D01*
X037375Y003254D01*
X037377Y003204D01*
X037375Y003154D01*
X037369Y003104D01*
X037359Y003055D01*
X037346Y003006D01*
X037328Y002959D01*
X037307Y002913D01*
X037283Y002870D01*
X037255Y002828D01*
X037224Y002788D01*
X037190Y002751D01*
X037153Y002717D01*
X037113Y002686D01*
X037071Y002658D01*
X037028Y002634D01*
X036982Y002613D01*
X036935Y002595D01*
X036886Y002582D01*
X036837Y002572D01*
X036787Y002566D01*
X036737Y002564D01*
X036687Y002566D01*
X036637Y002572D01*
X036588Y002582D01*
X036539Y002595D01*
X036492Y002613D01*
X036446Y002634D01*
X036403Y002658D01*
X036361Y002686D01*
X036321Y002717D01*
X036284Y002751D01*
X036250Y002788D01*
X036219Y002828D01*
X036191Y002870D01*
X036167Y002913D01*
X036146Y002959D01*
X036128Y003006D01*
X036115Y003055D01*
X036105Y003104D01*
X036099Y003154D01*
X036097Y003204D01*
X037347Y013954D02*
X037349Y014004D01*
X037355Y014054D01*
X037365Y014103D01*
X037378Y014152D01*
X037396Y014199D01*
X037417Y014245D01*
X037441Y014288D01*
X037469Y014330D01*
X037500Y014370D01*
X037534Y014407D01*
X037571Y014441D01*
X037611Y014472D01*
X037653Y014500D01*
X037696Y014524D01*
X037742Y014545D01*
X037789Y014563D01*
X037838Y014576D01*
X037887Y014586D01*
X037937Y014592D01*
X037987Y014594D01*
X038037Y014592D01*
X038087Y014586D01*
X038136Y014576D01*
X038185Y014563D01*
X038232Y014545D01*
X038278Y014524D01*
X038321Y014500D01*
X038363Y014472D01*
X038403Y014441D01*
X038440Y014407D01*
X038474Y014370D01*
X038505Y014330D01*
X038533Y014288D01*
X038557Y014245D01*
X038578Y014199D01*
X038596Y014152D01*
X038609Y014103D01*
X038619Y014054D01*
X038625Y014004D01*
X038627Y013954D01*
X038625Y013904D01*
X038619Y013854D01*
X038609Y013805D01*
X038596Y013756D01*
X038578Y013709D01*
X038557Y013663D01*
X038533Y013620D01*
X038505Y013578D01*
X038474Y013538D01*
X038440Y013501D01*
X038403Y013467D01*
X038363Y013436D01*
X038321Y013408D01*
X038278Y013384D01*
X038232Y013363D01*
X038185Y013345D01*
X038136Y013332D01*
X038087Y013322D01*
X038037Y013316D01*
X037987Y013314D01*
X037937Y013316D01*
X037887Y013322D01*
X037838Y013332D01*
X037789Y013345D01*
X037742Y013363D01*
X037696Y013384D01*
X037653Y013408D01*
X037611Y013436D01*
X037571Y013467D01*
X037534Y013501D01*
X037500Y013538D01*
X037469Y013578D01*
X037441Y013620D01*
X037417Y013663D01*
X037396Y013709D01*
X037378Y013756D01*
X037365Y013805D01*
X037355Y013854D01*
X037349Y013904D01*
X037347Y013954D01*
X037347Y018454D02*
X037349Y018504D01*
X037355Y018554D01*
X037365Y018603D01*
X037378Y018652D01*
X037396Y018699D01*
X037417Y018745D01*
X037441Y018788D01*
X037469Y018830D01*
X037500Y018870D01*
X037534Y018907D01*
X037571Y018941D01*
X037611Y018972D01*
X037653Y019000D01*
X037696Y019024D01*
X037742Y019045D01*
X037789Y019063D01*
X037838Y019076D01*
X037887Y019086D01*
X037937Y019092D01*
X037987Y019094D01*
X038037Y019092D01*
X038087Y019086D01*
X038136Y019076D01*
X038185Y019063D01*
X038232Y019045D01*
X038278Y019024D01*
X038321Y019000D01*
X038363Y018972D01*
X038403Y018941D01*
X038440Y018907D01*
X038474Y018870D01*
X038505Y018830D01*
X038533Y018788D01*
X038557Y018745D01*
X038578Y018699D01*
X038596Y018652D01*
X038609Y018603D01*
X038619Y018554D01*
X038625Y018504D01*
X038627Y018454D01*
X038625Y018404D01*
X038619Y018354D01*
X038609Y018305D01*
X038596Y018256D01*
X038578Y018209D01*
X038557Y018163D01*
X038533Y018120D01*
X038505Y018078D01*
X038474Y018038D01*
X038440Y018001D01*
X038403Y017967D01*
X038363Y017936D01*
X038321Y017908D01*
X038278Y017884D01*
X038232Y017863D01*
X038185Y017845D01*
X038136Y017832D01*
X038087Y017822D01*
X038037Y017816D01*
X037987Y017814D01*
X037937Y017816D01*
X037887Y017822D01*
X037838Y017832D01*
X037789Y017845D01*
X037742Y017863D01*
X037696Y017884D01*
X037653Y017908D01*
X037611Y017936D01*
X037571Y017967D01*
X037534Y018001D01*
X037500Y018038D01*
X037469Y018078D01*
X037441Y018120D01*
X037417Y018163D01*
X037396Y018209D01*
X037378Y018256D01*
X037365Y018305D01*
X037355Y018354D01*
X037349Y018404D01*
X037347Y018454D01*
X034495Y022204D02*
X034497Y022248D01*
X034503Y022292D01*
X034513Y022335D01*
X034526Y022377D01*
X034544Y022417D01*
X034565Y022456D01*
X034589Y022493D01*
X034616Y022528D01*
X034647Y022560D01*
X034680Y022589D01*
X034716Y022615D01*
X034754Y022637D01*
X034794Y022656D01*
X034835Y022672D01*
X034878Y022684D01*
X034921Y022692D01*
X034965Y022696D01*
X035009Y022696D01*
X035053Y022692D01*
X035096Y022684D01*
X035139Y022672D01*
X035180Y022656D01*
X035220Y022637D01*
X035258Y022615D01*
X035294Y022589D01*
X035327Y022560D01*
X035358Y022528D01*
X035385Y022493D01*
X035409Y022456D01*
X035430Y022417D01*
X035448Y022377D01*
X035461Y022335D01*
X035471Y022292D01*
X035477Y022248D01*
X035479Y022204D01*
X035477Y022160D01*
X035471Y022116D01*
X035461Y022073D01*
X035448Y022031D01*
X035430Y021991D01*
X035409Y021952D01*
X035385Y021915D01*
X035358Y021880D01*
X035327Y021848D01*
X035294Y021819D01*
X035258Y021793D01*
X035220Y021771D01*
X035180Y021752D01*
X035139Y021736D01*
X035096Y021724D01*
X035053Y021716D01*
X035009Y021712D01*
X034965Y021712D01*
X034921Y021716D01*
X034878Y021724D01*
X034835Y021736D01*
X034794Y021752D01*
X034754Y021771D01*
X034716Y021793D01*
X034680Y021819D01*
X034647Y021848D01*
X034616Y021880D01*
X034589Y021915D01*
X034565Y021952D01*
X034544Y021991D01*
X034526Y022031D01*
X034513Y022073D01*
X034503Y022116D01*
X034497Y022160D01*
X034495Y022204D01*
X037200Y024204D02*
X037202Y024260D01*
X037208Y024315D01*
X037218Y024369D01*
X037231Y024423D01*
X037249Y024476D01*
X037270Y024527D01*
X037294Y024577D01*
X037322Y024625D01*
X037354Y024671D01*
X037388Y024715D01*
X037426Y024756D01*
X037466Y024794D01*
X037509Y024829D01*
X037554Y024861D01*
X037602Y024890D01*
X037651Y024916D01*
X037702Y024938D01*
X037754Y024956D01*
X037808Y024970D01*
X037863Y024981D01*
X037918Y024988D01*
X037973Y024991D01*
X038029Y024990D01*
X038084Y024985D01*
X038139Y024976D01*
X038193Y024964D01*
X038246Y024947D01*
X038298Y024927D01*
X038348Y024903D01*
X038396Y024876D01*
X038443Y024846D01*
X038487Y024812D01*
X038529Y024775D01*
X038567Y024735D01*
X038604Y024693D01*
X038637Y024648D01*
X038666Y024602D01*
X038693Y024553D01*
X038715Y024502D01*
X038735Y024450D01*
X038750Y024396D01*
X038762Y024342D01*
X038770Y024287D01*
X038774Y024232D01*
X038774Y024176D01*
X038770Y024121D01*
X038762Y024066D01*
X038750Y024012D01*
X038735Y023958D01*
X038715Y023906D01*
X038693Y023855D01*
X038666Y023806D01*
X038637Y023760D01*
X038604Y023715D01*
X038567Y023673D01*
X038529Y023633D01*
X038487Y023596D01*
X038443Y023562D01*
X038396Y023532D01*
X038348Y023505D01*
X038298Y023481D01*
X038246Y023461D01*
X038193Y023444D01*
X038139Y023432D01*
X038084Y023423D01*
X038029Y023418D01*
X037973Y023417D01*
X037918Y023420D01*
X037863Y023427D01*
X037808Y023438D01*
X037754Y023452D01*
X037702Y023470D01*
X037651Y023492D01*
X037602Y023518D01*
X037554Y023547D01*
X037509Y023579D01*
X037466Y023614D01*
X037426Y023652D01*
X037388Y023693D01*
X037354Y023737D01*
X037322Y023783D01*
X037294Y023831D01*
X037270Y023881D01*
X037249Y023932D01*
X037231Y023985D01*
X037218Y024039D01*
X037208Y024093D01*
X037202Y024148D01*
X037200Y024204D01*
X037200Y028204D02*
X037202Y028260D01*
X037208Y028315D01*
X037218Y028369D01*
X037231Y028423D01*
X037249Y028476D01*
X037270Y028527D01*
X037294Y028577D01*
X037322Y028625D01*
X037354Y028671D01*
X037388Y028715D01*
X037426Y028756D01*
X037466Y028794D01*
X037509Y028829D01*
X037554Y028861D01*
X037602Y028890D01*
X037651Y028916D01*
X037702Y028938D01*
X037754Y028956D01*
X037808Y028970D01*
X037863Y028981D01*
X037918Y028988D01*
X037973Y028991D01*
X038029Y028990D01*
X038084Y028985D01*
X038139Y028976D01*
X038193Y028964D01*
X038246Y028947D01*
X038298Y028927D01*
X038348Y028903D01*
X038396Y028876D01*
X038443Y028846D01*
X038487Y028812D01*
X038529Y028775D01*
X038567Y028735D01*
X038604Y028693D01*
X038637Y028648D01*
X038666Y028602D01*
X038693Y028553D01*
X038715Y028502D01*
X038735Y028450D01*
X038750Y028396D01*
X038762Y028342D01*
X038770Y028287D01*
X038774Y028232D01*
X038774Y028176D01*
X038770Y028121D01*
X038762Y028066D01*
X038750Y028012D01*
X038735Y027958D01*
X038715Y027906D01*
X038693Y027855D01*
X038666Y027806D01*
X038637Y027760D01*
X038604Y027715D01*
X038567Y027673D01*
X038529Y027633D01*
X038487Y027596D01*
X038443Y027562D01*
X038396Y027532D01*
X038348Y027505D01*
X038298Y027481D01*
X038246Y027461D01*
X038193Y027444D01*
X038139Y027432D01*
X038084Y027423D01*
X038029Y027418D01*
X037973Y027417D01*
X037918Y027420D01*
X037863Y027427D01*
X037808Y027438D01*
X037754Y027452D01*
X037702Y027470D01*
X037651Y027492D01*
X037602Y027518D01*
X037554Y027547D01*
X037509Y027579D01*
X037466Y027614D01*
X037426Y027652D01*
X037388Y027693D01*
X037354Y027737D01*
X037322Y027783D01*
X037294Y027831D01*
X037270Y027881D01*
X037249Y027932D01*
X037231Y027985D01*
X037218Y028039D01*
X037208Y028093D01*
X037202Y028148D01*
X037200Y028204D01*
X034495Y030204D02*
X034497Y030248D01*
X034503Y030292D01*
X034513Y030335D01*
X034526Y030377D01*
X034544Y030417D01*
X034565Y030456D01*
X034589Y030493D01*
X034616Y030528D01*
X034647Y030560D01*
X034680Y030589D01*
X034716Y030615D01*
X034754Y030637D01*
X034794Y030656D01*
X034835Y030672D01*
X034878Y030684D01*
X034921Y030692D01*
X034965Y030696D01*
X035009Y030696D01*
X035053Y030692D01*
X035096Y030684D01*
X035139Y030672D01*
X035180Y030656D01*
X035220Y030637D01*
X035258Y030615D01*
X035294Y030589D01*
X035327Y030560D01*
X035358Y030528D01*
X035385Y030493D01*
X035409Y030456D01*
X035430Y030417D01*
X035448Y030377D01*
X035461Y030335D01*
X035471Y030292D01*
X035477Y030248D01*
X035479Y030204D01*
X035477Y030160D01*
X035471Y030116D01*
X035461Y030073D01*
X035448Y030031D01*
X035430Y029991D01*
X035409Y029952D01*
X035385Y029915D01*
X035358Y029880D01*
X035327Y029848D01*
X035294Y029819D01*
X035258Y029793D01*
X035220Y029771D01*
X035180Y029752D01*
X035139Y029736D01*
X035096Y029724D01*
X035053Y029716D01*
X035009Y029712D01*
X034965Y029712D01*
X034921Y029716D01*
X034878Y029724D01*
X034835Y029736D01*
X034794Y029752D01*
X034754Y029771D01*
X034716Y029793D01*
X034680Y029819D01*
X034647Y029848D01*
X034616Y029880D01*
X034589Y029915D01*
X034565Y029952D01*
X034544Y029991D01*
X034526Y030031D01*
X034513Y030073D01*
X034503Y030116D01*
X034497Y030160D01*
X034495Y030204D01*
X021097Y029704D02*
X021099Y029754D01*
X021105Y029804D01*
X021115Y029853D01*
X021128Y029902D01*
X021146Y029949D01*
X021167Y029995D01*
X021191Y030038D01*
X021219Y030080D01*
X021250Y030120D01*
X021284Y030157D01*
X021321Y030191D01*
X021361Y030222D01*
X021403Y030250D01*
X021446Y030274D01*
X021492Y030295D01*
X021539Y030313D01*
X021588Y030326D01*
X021637Y030336D01*
X021687Y030342D01*
X021737Y030344D01*
X021787Y030342D01*
X021837Y030336D01*
X021886Y030326D01*
X021935Y030313D01*
X021982Y030295D01*
X022028Y030274D01*
X022071Y030250D01*
X022113Y030222D01*
X022153Y030191D01*
X022190Y030157D01*
X022224Y030120D01*
X022255Y030080D01*
X022283Y030038D01*
X022307Y029995D01*
X022328Y029949D01*
X022346Y029902D01*
X022359Y029853D01*
X022369Y029804D01*
X022375Y029754D01*
X022377Y029704D01*
X022375Y029654D01*
X022369Y029604D01*
X022359Y029555D01*
X022346Y029506D01*
X022328Y029459D01*
X022307Y029413D01*
X022283Y029370D01*
X022255Y029328D01*
X022224Y029288D01*
X022190Y029251D01*
X022153Y029217D01*
X022113Y029186D01*
X022071Y029158D01*
X022028Y029134D01*
X021982Y029113D01*
X021935Y029095D01*
X021886Y029082D01*
X021837Y029072D01*
X021787Y029066D01*
X021737Y029064D01*
X021687Y029066D01*
X021637Y029072D01*
X021588Y029082D01*
X021539Y029095D01*
X021492Y029113D01*
X021446Y029134D01*
X021403Y029158D01*
X021361Y029186D01*
X021321Y029217D01*
X021284Y029251D01*
X021250Y029288D01*
X021219Y029328D01*
X021191Y029370D01*
X021167Y029413D01*
X021146Y029459D01*
X021128Y029506D01*
X021115Y029555D01*
X021105Y029604D01*
X021099Y029654D01*
X021097Y029704D01*
X016597Y029704D02*
X016599Y029754D01*
X016605Y029804D01*
X016615Y029853D01*
X016628Y029902D01*
X016646Y029949D01*
X016667Y029995D01*
X016691Y030038D01*
X016719Y030080D01*
X016750Y030120D01*
X016784Y030157D01*
X016821Y030191D01*
X016861Y030222D01*
X016903Y030250D01*
X016946Y030274D01*
X016992Y030295D01*
X017039Y030313D01*
X017088Y030326D01*
X017137Y030336D01*
X017187Y030342D01*
X017237Y030344D01*
X017287Y030342D01*
X017337Y030336D01*
X017386Y030326D01*
X017435Y030313D01*
X017482Y030295D01*
X017528Y030274D01*
X017571Y030250D01*
X017613Y030222D01*
X017653Y030191D01*
X017690Y030157D01*
X017724Y030120D01*
X017755Y030080D01*
X017783Y030038D01*
X017807Y029995D01*
X017828Y029949D01*
X017846Y029902D01*
X017859Y029853D01*
X017869Y029804D01*
X017875Y029754D01*
X017877Y029704D01*
X017875Y029654D01*
X017869Y029604D01*
X017859Y029555D01*
X017846Y029506D01*
X017828Y029459D01*
X017807Y029413D01*
X017783Y029370D01*
X017755Y029328D01*
X017724Y029288D01*
X017690Y029251D01*
X017653Y029217D01*
X017613Y029186D01*
X017571Y029158D01*
X017528Y029134D01*
X017482Y029113D01*
X017435Y029095D01*
X017386Y029082D01*
X017337Y029072D01*
X017287Y029066D01*
X017237Y029064D01*
X017187Y029066D01*
X017137Y029072D01*
X017088Y029082D01*
X017039Y029095D01*
X016992Y029113D01*
X016946Y029134D01*
X016903Y029158D01*
X016861Y029186D01*
X016821Y029217D01*
X016784Y029251D01*
X016750Y029288D01*
X016719Y029328D01*
X016691Y029370D01*
X016667Y029413D01*
X016646Y029459D01*
X016628Y029506D01*
X016615Y029555D01*
X016605Y029604D01*
X016599Y029654D01*
X016597Y029704D01*
X013597Y029704D02*
X013599Y029754D01*
X013605Y029804D01*
X013615Y029853D01*
X013628Y029902D01*
X013646Y029949D01*
X013667Y029995D01*
X013691Y030038D01*
X013719Y030080D01*
X013750Y030120D01*
X013784Y030157D01*
X013821Y030191D01*
X013861Y030222D01*
X013903Y030250D01*
X013946Y030274D01*
X013992Y030295D01*
X014039Y030313D01*
X014088Y030326D01*
X014137Y030336D01*
X014187Y030342D01*
X014237Y030344D01*
X014287Y030342D01*
X014337Y030336D01*
X014386Y030326D01*
X014435Y030313D01*
X014482Y030295D01*
X014528Y030274D01*
X014571Y030250D01*
X014613Y030222D01*
X014653Y030191D01*
X014690Y030157D01*
X014724Y030120D01*
X014755Y030080D01*
X014783Y030038D01*
X014807Y029995D01*
X014828Y029949D01*
X014846Y029902D01*
X014859Y029853D01*
X014869Y029804D01*
X014875Y029754D01*
X014877Y029704D01*
X014875Y029654D01*
X014869Y029604D01*
X014859Y029555D01*
X014846Y029506D01*
X014828Y029459D01*
X014807Y029413D01*
X014783Y029370D01*
X014755Y029328D01*
X014724Y029288D01*
X014690Y029251D01*
X014653Y029217D01*
X014613Y029186D01*
X014571Y029158D01*
X014528Y029134D01*
X014482Y029113D01*
X014435Y029095D01*
X014386Y029082D01*
X014337Y029072D01*
X014287Y029066D01*
X014237Y029064D01*
X014187Y029066D01*
X014137Y029072D01*
X014088Y029082D01*
X014039Y029095D01*
X013992Y029113D01*
X013946Y029134D01*
X013903Y029158D01*
X013861Y029186D01*
X013821Y029217D01*
X013784Y029251D01*
X013750Y029288D01*
X013719Y029328D01*
X013691Y029370D01*
X013667Y029413D01*
X013646Y029459D01*
X013628Y029506D01*
X013615Y029555D01*
X013605Y029604D01*
X013599Y029654D01*
X013597Y029704D01*
X009097Y029704D02*
X009099Y029754D01*
X009105Y029804D01*
X009115Y029853D01*
X009128Y029902D01*
X009146Y029949D01*
X009167Y029995D01*
X009191Y030038D01*
X009219Y030080D01*
X009250Y030120D01*
X009284Y030157D01*
X009321Y030191D01*
X009361Y030222D01*
X009403Y030250D01*
X009446Y030274D01*
X009492Y030295D01*
X009539Y030313D01*
X009588Y030326D01*
X009637Y030336D01*
X009687Y030342D01*
X009737Y030344D01*
X009787Y030342D01*
X009837Y030336D01*
X009886Y030326D01*
X009935Y030313D01*
X009982Y030295D01*
X010028Y030274D01*
X010071Y030250D01*
X010113Y030222D01*
X010153Y030191D01*
X010190Y030157D01*
X010224Y030120D01*
X010255Y030080D01*
X010283Y030038D01*
X010307Y029995D01*
X010328Y029949D01*
X010346Y029902D01*
X010359Y029853D01*
X010369Y029804D01*
X010375Y029754D01*
X010377Y029704D01*
X010375Y029654D01*
X010369Y029604D01*
X010359Y029555D01*
X010346Y029506D01*
X010328Y029459D01*
X010307Y029413D01*
X010283Y029370D01*
X010255Y029328D01*
X010224Y029288D01*
X010190Y029251D01*
X010153Y029217D01*
X010113Y029186D01*
X010071Y029158D01*
X010028Y029134D01*
X009982Y029113D01*
X009935Y029095D01*
X009886Y029082D01*
X009837Y029072D01*
X009787Y029066D01*
X009737Y029064D01*
X009687Y029066D01*
X009637Y029072D01*
X009588Y029082D01*
X009539Y029095D01*
X009492Y029113D01*
X009446Y029134D01*
X009403Y029158D01*
X009361Y029186D01*
X009321Y029217D01*
X009284Y029251D01*
X009250Y029288D01*
X009219Y029328D01*
X009191Y029370D01*
X009167Y029413D01*
X009146Y029459D01*
X009128Y029506D01*
X009115Y029555D01*
X009105Y029604D01*
X009099Y029654D01*
X009097Y029704D01*
X006097Y029704D02*
X006099Y029754D01*
X006105Y029804D01*
X006115Y029853D01*
X006128Y029902D01*
X006146Y029949D01*
X006167Y029995D01*
X006191Y030038D01*
X006219Y030080D01*
X006250Y030120D01*
X006284Y030157D01*
X006321Y030191D01*
X006361Y030222D01*
X006403Y030250D01*
X006446Y030274D01*
X006492Y030295D01*
X006539Y030313D01*
X006588Y030326D01*
X006637Y030336D01*
X006687Y030342D01*
X006737Y030344D01*
X006787Y030342D01*
X006837Y030336D01*
X006886Y030326D01*
X006935Y030313D01*
X006982Y030295D01*
X007028Y030274D01*
X007071Y030250D01*
X007113Y030222D01*
X007153Y030191D01*
X007190Y030157D01*
X007224Y030120D01*
X007255Y030080D01*
X007283Y030038D01*
X007307Y029995D01*
X007328Y029949D01*
X007346Y029902D01*
X007359Y029853D01*
X007369Y029804D01*
X007375Y029754D01*
X007377Y029704D01*
X007375Y029654D01*
X007369Y029604D01*
X007359Y029555D01*
X007346Y029506D01*
X007328Y029459D01*
X007307Y029413D01*
X007283Y029370D01*
X007255Y029328D01*
X007224Y029288D01*
X007190Y029251D01*
X007153Y029217D01*
X007113Y029186D01*
X007071Y029158D01*
X007028Y029134D01*
X006982Y029113D01*
X006935Y029095D01*
X006886Y029082D01*
X006837Y029072D01*
X006787Y029066D01*
X006737Y029064D01*
X006687Y029066D01*
X006637Y029072D01*
X006588Y029082D01*
X006539Y029095D01*
X006492Y029113D01*
X006446Y029134D01*
X006403Y029158D01*
X006361Y029186D01*
X006321Y029217D01*
X006284Y029251D01*
X006250Y029288D01*
X006219Y029328D01*
X006191Y029370D01*
X006167Y029413D01*
X006146Y029459D01*
X006128Y029506D01*
X006115Y029555D01*
X006105Y029604D01*
X006099Y029654D01*
X006097Y029704D01*
X001597Y029704D02*
X001599Y029754D01*
X001605Y029804D01*
X001615Y029853D01*
X001628Y029902D01*
X001646Y029949D01*
X001667Y029995D01*
X001691Y030038D01*
X001719Y030080D01*
X001750Y030120D01*
X001784Y030157D01*
X001821Y030191D01*
X001861Y030222D01*
X001903Y030250D01*
X001946Y030274D01*
X001992Y030295D01*
X002039Y030313D01*
X002088Y030326D01*
X002137Y030336D01*
X002187Y030342D01*
X002237Y030344D01*
X002287Y030342D01*
X002337Y030336D01*
X002386Y030326D01*
X002435Y030313D01*
X002482Y030295D01*
X002528Y030274D01*
X002571Y030250D01*
X002613Y030222D01*
X002653Y030191D01*
X002690Y030157D01*
X002724Y030120D01*
X002755Y030080D01*
X002783Y030038D01*
X002807Y029995D01*
X002828Y029949D01*
X002846Y029902D01*
X002859Y029853D01*
X002869Y029804D01*
X002875Y029754D01*
X002877Y029704D01*
X002875Y029654D01*
X002869Y029604D01*
X002859Y029555D01*
X002846Y029506D01*
X002828Y029459D01*
X002807Y029413D01*
X002783Y029370D01*
X002755Y029328D01*
X002724Y029288D01*
X002690Y029251D01*
X002653Y029217D01*
X002613Y029186D01*
X002571Y029158D01*
X002528Y029134D01*
X002482Y029113D01*
X002435Y029095D01*
X002386Y029082D01*
X002337Y029072D01*
X002287Y029066D01*
X002237Y029064D01*
X002187Y029066D01*
X002137Y029072D01*
X002088Y029082D01*
X002039Y029095D01*
X001992Y029113D01*
X001946Y029134D01*
X001903Y029158D01*
X001861Y029186D01*
X001821Y029217D01*
X001784Y029251D01*
X001750Y029288D01*
X001719Y029328D01*
X001691Y029370D01*
X001667Y029413D01*
X001646Y029459D01*
X001628Y029506D01*
X001615Y029555D01*
X001605Y029604D01*
X001599Y029654D01*
X001597Y029704D01*
D11*
G36*
X022763Y014314D02*
X023597Y013480D01*
X023375Y013258D01*
X022541Y014092D01*
X022763Y014314D01*
G37*
G36*
X023181Y014732D02*
X024015Y013898D01*
X023793Y013676D01*
X022959Y014510D01*
X023181Y014732D01*
G37*
G36*
X023598Y015149D02*
X024432Y014315D01*
X024210Y014093D01*
X023376Y014927D01*
X023598Y015149D01*
G37*
D12*
X012737Y011914D03*
X012237Y011914D03*
X011737Y011914D03*
X011237Y011914D03*
X010737Y011914D03*
X010237Y011914D03*
X009737Y011914D03*
X009237Y011914D03*
X009237Y009494D03*
X009737Y009494D03*
X010237Y009494D03*
X010737Y009494D03*
X011237Y009494D03*
X011737Y009494D03*
X012237Y009494D03*
X012737Y009494D03*
D13*
X025699Y014565D03*
X027274Y014565D03*
X027274Y017242D03*
X025699Y017242D03*
D14*
X015987Y014078D03*
X015987Y013330D03*
X007487Y010078D03*
X007487Y009330D03*
D15*
X007812Y001034D02*
X001162Y001034D01*
X008662Y001034D02*
X015312Y001034D01*
X016162Y001034D02*
X022812Y001034D01*
X023662Y001034D02*
X030312Y001034D01*
X031162Y001034D02*
X037812Y001034D01*
X040157Y012879D02*
X040157Y019529D01*
X022812Y031874D02*
X016162Y031874D01*
X015312Y031874D02*
X008662Y031874D01*
X007812Y031874D02*
X001162Y031874D01*
D16*
G36*
X017788Y018150D02*
X018204Y017734D01*
X018066Y017596D01*
X017650Y018012D01*
X017788Y018150D01*
G37*
G36*
X018010Y018373D02*
X018426Y017957D01*
X018288Y017819D01*
X017872Y018235D01*
X018010Y018373D01*
G37*
G36*
X018233Y018595D02*
X018649Y018179D01*
X018511Y018041D01*
X018095Y018457D01*
X018233Y018595D01*
G37*
G36*
X018456Y018818D02*
X018872Y018402D01*
X018734Y018264D01*
X018318Y018680D01*
X018456Y018818D01*
G37*
G36*
X018678Y019041D02*
X019094Y018625D01*
X018956Y018487D01*
X018540Y018903D01*
X018678Y019041D01*
G37*
G36*
X018901Y019264D02*
X019317Y018848D01*
X019179Y018710D01*
X018763Y019126D01*
X018901Y019264D01*
G37*
G36*
X019124Y019486D02*
X019540Y019070D01*
X019402Y018932D01*
X018986Y019348D01*
X019124Y019486D01*
G37*
G36*
X019347Y019709D02*
X019763Y019293D01*
X019625Y019155D01*
X019209Y019571D01*
X019347Y019709D01*
G37*
G36*
X017565Y017927D02*
X017981Y017511D01*
X017843Y017373D01*
X017427Y017789D01*
X017565Y017927D01*
G37*
G36*
X017342Y017705D02*
X017758Y017289D01*
X017620Y017151D01*
X017204Y017567D01*
X017342Y017705D01*
G37*
G36*
X017119Y017482D02*
X017535Y017066D01*
X017397Y016928D01*
X016981Y017344D01*
X017119Y017482D01*
G37*
G36*
X020571Y014475D02*
X020987Y014059D01*
X020849Y013921D01*
X020433Y014337D01*
X020571Y014475D01*
G37*
G36*
X020794Y014698D02*
X021210Y014282D01*
X021072Y014144D01*
X020656Y014560D01*
X020794Y014698D01*
G37*
G36*
X021017Y014921D02*
X021433Y014505D01*
X021295Y014367D01*
X020879Y014783D01*
X021017Y014921D01*
G37*
G36*
X021240Y015143D02*
X021656Y014727D01*
X021518Y014589D01*
X021102Y015005D01*
X021240Y015143D01*
G37*
G36*
X021462Y015366D02*
X021878Y014950D01*
X021740Y014812D01*
X021324Y015228D01*
X021462Y015366D01*
G37*
G36*
X021685Y015589D02*
X022101Y015173D01*
X021963Y015035D01*
X021547Y015451D01*
X021685Y015589D01*
G37*
G36*
X021908Y015812D02*
X022324Y015396D01*
X022186Y015258D01*
X021770Y015674D01*
X021908Y015812D01*
G37*
G36*
X022130Y016034D02*
X022546Y015618D01*
X022408Y015480D01*
X021992Y015896D01*
X022130Y016034D01*
G37*
G36*
X022353Y016257D02*
X022769Y015841D01*
X022631Y015703D01*
X022215Y016119D01*
X022353Y016257D01*
G37*
G36*
X022576Y016480D02*
X022992Y016064D01*
X022854Y015926D01*
X022438Y016342D01*
X022576Y016480D01*
G37*
G36*
X020349Y014253D02*
X020765Y013837D01*
X020627Y013699D01*
X020211Y014115D01*
X020349Y014253D01*
G37*
D17*
G36*
X019625Y014253D02*
X019763Y014115D01*
X019347Y013699D01*
X019209Y013837D01*
X019625Y014253D01*
G37*
G36*
X019402Y014475D02*
X019540Y014337D01*
X019124Y013921D01*
X018986Y014059D01*
X019402Y014475D01*
G37*
G36*
X019179Y014698D02*
X019317Y014560D01*
X018901Y014144D01*
X018763Y014282D01*
X019179Y014698D01*
G37*
G36*
X018956Y014921D02*
X019094Y014783D01*
X018678Y014367D01*
X018540Y014505D01*
X018956Y014921D01*
G37*
G36*
X018734Y015143D02*
X018872Y015005D01*
X018456Y014589D01*
X018318Y014727D01*
X018734Y015143D01*
G37*
G36*
X018511Y015366D02*
X018649Y015228D01*
X018233Y014812D01*
X018095Y014950D01*
X018511Y015366D01*
G37*
G36*
X018288Y015589D02*
X018426Y015451D01*
X018010Y015035D01*
X017872Y015173D01*
X018288Y015589D01*
G37*
G36*
X018066Y015812D02*
X018204Y015674D01*
X017788Y015258D01*
X017650Y015396D01*
X018066Y015812D01*
G37*
G36*
X017843Y016034D02*
X017981Y015896D01*
X017565Y015480D01*
X017427Y015618D01*
X017843Y016034D01*
G37*
G36*
X017620Y016257D02*
X017758Y016119D01*
X017342Y015703D01*
X017204Y015841D01*
X017620Y016257D01*
G37*
G36*
X017397Y016480D02*
X017535Y016342D01*
X017119Y015926D01*
X016981Y016064D01*
X017397Y016480D01*
G37*
G36*
X020849Y019486D02*
X020987Y019348D01*
X020571Y018932D01*
X020433Y019070D01*
X020849Y019486D01*
G37*
G36*
X020627Y019709D02*
X020765Y019571D01*
X020349Y019155D01*
X020211Y019293D01*
X020627Y019709D01*
G37*
G36*
X021072Y019264D02*
X021210Y019126D01*
X020794Y018710D01*
X020656Y018848D01*
X021072Y019264D01*
G37*
G36*
X021295Y019041D02*
X021433Y018903D01*
X021017Y018487D01*
X020879Y018625D01*
X021295Y019041D01*
G37*
G36*
X021518Y018818D02*
X021656Y018680D01*
X021240Y018264D01*
X021102Y018402D01*
X021518Y018818D01*
G37*
G36*
X021740Y018595D02*
X021878Y018457D01*
X021462Y018041D01*
X021324Y018179D01*
X021740Y018595D01*
G37*
G36*
X021963Y018373D02*
X022101Y018235D01*
X021685Y017819D01*
X021547Y017957D01*
X021963Y018373D01*
G37*
G36*
X022186Y018150D02*
X022324Y018012D01*
X021908Y017596D01*
X021770Y017734D01*
X022186Y018150D01*
G37*
G36*
X022408Y017927D02*
X022546Y017789D01*
X022130Y017373D01*
X021992Y017511D01*
X022408Y017927D01*
G37*
G36*
X022631Y017705D02*
X022769Y017567D01*
X022353Y017151D01*
X022215Y017289D01*
X022631Y017705D01*
G37*
G36*
X022854Y017482D02*
X022992Y017344D01*
X022576Y016928D01*
X022438Y017066D01*
X022854Y017482D01*
G37*
D18*
G36*
X017140Y019441D02*
X016778Y019079D01*
X016362Y019495D01*
X016724Y019857D01*
X017140Y019441D01*
G37*
G36*
X016611Y018912D02*
X016249Y018550D01*
X015833Y018966D01*
X016195Y019328D01*
X016611Y018912D01*
G37*
X032713Y020304D03*
X033461Y020304D03*
D19*
X033500Y021104D03*
X032673Y021104D03*
D20*
X017737Y022180D03*
X017237Y022180D03*
X016737Y022180D03*
X016237Y022180D03*
X015737Y022180D03*
X015237Y022180D03*
X014737Y022180D03*
X014237Y022180D03*
X014237Y024227D03*
X014737Y024227D03*
X015237Y024227D03*
X015737Y024227D03*
X016237Y024227D03*
X016737Y024227D03*
X017237Y024227D03*
X017737Y024227D03*
D21*
X007197Y021954D03*
X007197Y021454D03*
X007197Y020954D03*
X007197Y020454D03*
X007197Y019954D03*
X007197Y019454D03*
X007197Y018954D03*
X007197Y018454D03*
X004777Y018454D03*
X004777Y018954D03*
X004777Y019454D03*
X004777Y019954D03*
X004777Y020454D03*
X004777Y020954D03*
X004777Y021454D03*
X004777Y021954D03*
X004777Y014954D03*
X004777Y014454D03*
X004777Y013954D03*
X004777Y013454D03*
X004777Y012954D03*
X004777Y012454D03*
X004777Y011954D03*
X004777Y011454D03*
X007197Y011454D03*
X007197Y011954D03*
X007197Y012454D03*
X007197Y012954D03*
X007197Y013454D03*
X007197Y013954D03*
X007197Y014454D03*
X007197Y014954D03*
M02*
