%
M48
M72
T01C0.0130
T02C0.0157
T03C0.0236
T04C0.0320
T05C0.0354
T06C0.0400
T07C0.0630
T08C0.0984
T09C0.1280
T10C0.1575
%
T01
X6187Y8804
X8837Y9104
X8837Y11154
X10737Y12604
X14137Y10154
X14437Y10454
X16287Y12604
X16587Y12904
X17337Y12604
X17737Y12554
X18687Y13104
X18137Y13504
X17937Y14204
X16987Y13754
X19487Y16404
X20087Y17504
X21037Y16954
X23087Y17054
X23587Y17204
X24187Y17504
X23887Y17804
X24187Y18104
X23237Y17804
X23237Y19154
X22487Y19454
X22487Y20054
X21687Y20954
X20737Y21154
X21387Y21954
X19887Y23254
X21987Y23954
X20187Y19654
X18937Y19654
X17187Y16704
X20837Y13554
X21337Y14004
X21637Y13704
X20387Y12404
X22137Y11704
X26187Y14354
X23237Y15954
X26187Y17904
X10837Y27954
X8987Y20954
X8637Y20454
T02
X8387Y10204
X8387Y11204
X15037Y7354
X15487Y7404
X17987Y14654
X17637Y14954
X17687Y19454
X18087Y20154
X18937Y21154
X19387Y22304
X18137Y24254
X18487Y24954
X15187Y25454
X13787Y22904
X13787Y21204
X14937Y20904
X15237Y21204
X16487Y21504
X11837Y19754
X23637Y16704
X24887Y17754
X26637Y17604
X26637Y18654
X27337Y20204
X28237Y6354
T03
X28787Y17204
T04
X29987Y18204
X29987Y19204
X29987Y21704
X29987Y22704
T05
X35737Y5704
X34737Y5704
X33737Y5704
X32737Y5704
X33237Y6704
X34237Y6704
X35237Y6704
X36237Y6704
X28237Y5704
X27237Y5704
X26237Y5704
X25237Y5704
X25737Y6704
X26737Y6704
X27737Y6704
X28737Y6704
X20737Y5704
X19737Y5704
X18737Y5704
X17737Y5704
X18237Y6704
X19237Y6704
X20237Y6704
X21237Y6704
X13237Y5704
X12237Y5704
X11237Y5704
X10237Y5704
X10737Y6704
X11737Y6704
X12737Y6704
X13737Y6704
X5737Y5704
X4737Y5704
X3737Y5704
X2737Y5704
X3237Y6704
X4237Y6704
X5237Y6704
X6237Y6704
X2737Y26204
X3737Y26204
X4737Y26204
X5737Y26204
X6237Y27204
X5237Y27204
X4237Y27204
X3237Y27204
X10737Y27204
X11737Y27204
X12737Y27204
X13737Y27204
X13237Y26204
X12237Y26204
X11237Y26204
X10237Y26204
X18237Y27204
X19237Y27204
X20237Y27204
X21237Y27204
X20737Y26204
X19737Y26204
X18737Y26204
X17737Y26204
X35487Y17454
X35487Y16454
X34487Y16954
X34487Y17954
X34487Y15954
X34487Y14954
X35487Y15454
X35487Y14454
T06
X1437Y7704
X1537Y8704
X2437Y8704
X2537Y9704
X2437Y10704
X1537Y10704
X1437Y11704
X1537Y12704
X2437Y12704
X2537Y13704
X2437Y14704
X1537Y14704
X1437Y15704
X1537Y16704
X2437Y16704
X2537Y17704
X2437Y18704
X1537Y18704
X1437Y19704
X1537Y20704
X2437Y20704
X2537Y21704
X1437Y21704
X1537Y22704
X1487Y23704
X1487Y24704
X23987Y30204
X23987Y29204
X23987Y28204
X25487Y28204
X25487Y29204
X25487Y30204
X26987Y30204
X26987Y29204
X26987Y28204
X28487Y28204
X28487Y29204
X28487Y30204
X29987Y30204
X29987Y29204
X29987Y28204
X31487Y28204
X31487Y29204
X31487Y30204
X31487Y13704
X31487Y12704
X31487Y11704
X31487Y10704
X31487Y9704
X31487Y8704
X19987Y10204
X18987Y10204
X18987Y11204
X19987Y11204
X17987Y11204
X16987Y11204
X16987Y10204
X17987Y10204
X15987Y10204
X15987Y11204
X25987Y19704
X26987Y19704
X26987Y20704
X25987Y20704
X25987Y21704
X26987Y21704
X2537Y19704
X1437Y17704
X2537Y15704
X1437Y13704
X2537Y11704
X1437Y9704
T07
X33987Y23204
X33987Y25204
X33987Y27204
X33987Y29204
T08
X34987Y30204
X34987Y22204
T09
X36737Y3204
X32237Y3204
X29237Y3204
X24737Y3204
X21737Y3204
X17237Y3204
X14237Y3204
X9737Y3204
X6737Y3204
X2237Y3204
X2237Y29704
X6737Y29704
X9737Y29704
X14237Y29704
X17237Y29704
X21737Y29704
X37987Y18454
X37987Y13954
T10
X37987Y28204
X37987Y24204
M30
