G75*
%MOIN*%
%OFA0B0*%
%FSLAX24Y24*%
%IPPOS*%
%LPD*%
%AMOC8*
5,1,8,0,0,1.08239X$1,22.5*
%
%ADD10C,0.0000*%
%ADD11R,0.1181X0.0315*%
%ADD12R,0.0260X0.0800*%
%ADD13R,0.0591X0.0512*%
%ADD14R,0.0512X0.0591*%
%ADD15OC8,0.0600*%
%ADD16C,0.1024*%
%ADD17R,0.0800X0.0260*%
%ADD18R,0.1260X0.0472*%
%ADD19C,0.0004*%
%ADD20C,0.0554*%
%ADD21C,0.2000*%
%ADD22C,0.0600*%
%ADD23OC8,0.0630*%
%ADD24C,0.0630*%
%ADD25R,0.0591X0.0197*%
%ADD26R,0.0197X0.0591*%
%ADD27OC8,0.0520*%
%ADD28R,0.0866X0.0236*%
%ADD29R,0.0472X0.0472*%
%ADD30C,0.0160*%
%ADD31C,0.0396*%
%ADD32C,0.0100*%
%ADD33C,0.0357*%
D10*
X000150Y001204D02*
X000150Y030700D01*
X039020Y030700D01*
X039020Y001204D01*
X000150Y001204D01*
X001260Y003204D02*
X001262Y003254D01*
X001268Y003304D01*
X001278Y003353D01*
X001291Y003402D01*
X001309Y003449D01*
X001330Y003495D01*
X001354Y003538D01*
X001382Y003580D01*
X001413Y003620D01*
X001447Y003657D01*
X001484Y003691D01*
X001524Y003722D01*
X001566Y003750D01*
X001609Y003774D01*
X001655Y003795D01*
X001702Y003813D01*
X001751Y003826D01*
X001800Y003836D01*
X001850Y003842D01*
X001900Y003844D01*
X001950Y003842D01*
X002000Y003836D01*
X002049Y003826D01*
X002098Y003813D01*
X002145Y003795D01*
X002191Y003774D01*
X002234Y003750D01*
X002276Y003722D01*
X002316Y003691D01*
X002353Y003657D01*
X002387Y003620D01*
X002418Y003580D01*
X002446Y003538D01*
X002470Y003495D01*
X002491Y003449D01*
X002509Y003402D01*
X002522Y003353D01*
X002532Y003304D01*
X002538Y003254D01*
X002540Y003204D01*
X002538Y003154D01*
X002532Y003104D01*
X002522Y003055D01*
X002509Y003006D01*
X002491Y002959D01*
X002470Y002913D01*
X002446Y002870D01*
X002418Y002828D01*
X002387Y002788D01*
X002353Y002751D01*
X002316Y002717D01*
X002276Y002686D01*
X002234Y002658D01*
X002191Y002634D01*
X002145Y002613D01*
X002098Y002595D01*
X002049Y002582D01*
X002000Y002572D01*
X001950Y002566D01*
X001900Y002564D01*
X001850Y002566D01*
X001800Y002572D01*
X001751Y002582D01*
X001702Y002595D01*
X001655Y002613D01*
X001609Y002634D01*
X001566Y002658D01*
X001524Y002686D01*
X001484Y002717D01*
X001447Y002751D01*
X001413Y002788D01*
X001382Y002828D01*
X001354Y002870D01*
X001330Y002913D01*
X001309Y002959D01*
X001291Y003006D01*
X001278Y003055D01*
X001268Y003104D01*
X001262Y003154D01*
X001260Y003204D01*
X005760Y003204D02*
X005762Y003254D01*
X005768Y003304D01*
X005778Y003353D01*
X005791Y003402D01*
X005809Y003449D01*
X005830Y003495D01*
X005854Y003538D01*
X005882Y003580D01*
X005913Y003620D01*
X005947Y003657D01*
X005984Y003691D01*
X006024Y003722D01*
X006066Y003750D01*
X006109Y003774D01*
X006155Y003795D01*
X006202Y003813D01*
X006251Y003826D01*
X006300Y003836D01*
X006350Y003842D01*
X006400Y003844D01*
X006450Y003842D01*
X006500Y003836D01*
X006549Y003826D01*
X006598Y003813D01*
X006645Y003795D01*
X006691Y003774D01*
X006734Y003750D01*
X006776Y003722D01*
X006816Y003691D01*
X006853Y003657D01*
X006887Y003620D01*
X006918Y003580D01*
X006946Y003538D01*
X006970Y003495D01*
X006991Y003449D01*
X007009Y003402D01*
X007022Y003353D01*
X007032Y003304D01*
X007038Y003254D01*
X007040Y003204D01*
X007038Y003154D01*
X007032Y003104D01*
X007022Y003055D01*
X007009Y003006D01*
X006991Y002959D01*
X006970Y002913D01*
X006946Y002870D01*
X006918Y002828D01*
X006887Y002788D01*
X006853Y002751D01*
X006816Y002717D01*
X006776Y002686D01*
X006734Y002658D01*
X006691Y002634D01*
X006645Y002613D01*
X006598Y002595D01*
X006549Y002582D01*
X006500Y002572D01*
X006450Y002566D01*
X006400Y002564D01*
X006350Y002566D01*
X006300Y002572D01*
X006251Y002582D01*
X006202Y002595D01*
X006155Y002613D01*
X006109Y002634D01*
X006066Y002658D01*
X006024Y002686D01*
X005984Y002717D01*
X005947Y002751D01*
X005913Y002788D01*
X005882Y002828D01*
X005854Y002870D01*
X005830Y002913D01*
X005809Y002959D01*
X005791Y003006D01*
X005778Y003055D01*
X005768Y003104D01*
X005762Y003154D01*
X005760Y003204D01*
X008760Y003204D02*
X008762Y003254D01*
X008768Y003304D01*
X008778Y003353D01*
X008791Y003402D01*
X008809Y003449D01*
X008830Y003495D01*
X008854Y003538D01*
X008882Y003580D01*
X008913Y003620D01*
X008947Y003657D01*
X008984Y003691D01*
X009024Y003722D01*
X009066Y003750D01*
X009109Y003774D01*
X009155Y003795D01*
X009202Y003813D01*
X009251Y003826D01*
X009300Y003836D01*
X009350Y003842D01*
X009400Y003844D01*
X009450Y003842D01*
X009500Y003836D01*
X009549Y003826D01*
X009598Y003813D01*
X009645Y003795D01*
X009691Y003774D01*
X009734Y003750D01*
X009776Y003722D01*
X009816Y003691D01*
X009853Y003657D01*
X009887Y003620D01*
X009918Y003580D01*
X009946Y003538D01*
X009970Y003495D01*
X009991Y003449D01*
X010009Y003402D01*
X010022Y003353D01*
X010032Y003304D01*
X010038Y003254D01*
X010040Y003204D01*
X010038Y003154D01*
X010032Y003104D01*
X010022Y003055D01*
X010009Y003006D01*
X009991Y002959D01*
X009970Y002913D01*
X009946Y002870D01*
X009918Y002828D01*
X009887Y002788D01*
X009853Y002751D01*
X009816Y002717D01*
X009776Y002686D01*
X009734Y002658D01*
X009691Y002634D01*
X009645Y002613D01*
X009598Y002595D01*
X009549Y002582D01*
X009500Y002572D01*
X009450Y002566D01*
X009400Y002564D01*
X009350Y002566D01*
X009300Y002572D01*
X009251Y002582D01*
X009202Y002595D01*
X009155Y002613D01*
X009109Y002634D01*
X009066Y002658D01*
X009024Y002686D01*
X008984Y002717D01*
X008947Y002751D01*
X008913Y002788D01*
X008882Y002828D01*
X008854Y002870D01*
X008830Y002913D01*
X008809Y002959D01*
X008791Y003006D01*
X008778Y003055D01*
X008768Y003104D01*
X008762Y003154D01*
X008760Y003204D01*
X013260Y003204D02*
X013262Y003254D01*
X013268Y003304D01*
X013278Y003353D01*
X013291Y003402D01*
X013309Y003449D01*
X013330Y003495D01*
X013354Y003538D01*
X013382Y003580D01*
X013413Y003620D01*
X013447Y003657D01*
X013484Y003691D01*
X013524Y003722D01*
X013566Y003750D01*
X013609Y003774D01*
X013655Y003795D01*
X013702Y003813D01*
X013751Y003826D01*
X013800Y003836D01*
X013850Y003842D01*
X013900Y003844D01*
X013950Y003842D01*
X014000Y003836D01*
X014049Y003826D01*
X014098Y003813D01*
X014145Y003795D01*
X014191Y003774D01*
X014234Y003750D01*
X014276Y003722D01*
X014316Y003691D01*
X014353Y003657D01*
X014387Y003620D01*
X014418Y003580D01*
X014446Y003538D01*
X014470Y003495D01*
X014491Y003449D01*
X014509Y003402D01*
X014522Y003353D01*
X014532Y003304D01*
X014538Y003254D01*
X014540Y003204D01*
X014538Y003154D01*
X014532Y003104D01*
X014522Y003055D01*
X014509Y003006D01*
X014491Y002959D01*
X014470Y002913D01*
X014446Y002870D01*
X014418Y002828D01*
X014387Y002788D01*
X014353Y002751D01*
X014316Y002717D01*
X014276Y002686D01*
X014234Y002658D01*
X014191Y002634D01*
X014145Y002613D01*
X014098Y002595D01*
X014049Y002582D01*
X014000Y002572D01*
X013950Y002566D01*
X013900Y002564D01*
X013850Y002566D01*
X013800Y002572D01*
X013751Y002582D01*
X013702Y002595D01*
X013655Y002613D01*
X013609Y002634D01*
X013566Y002658D01*
X013524Y002686D01*
X013484Y002717D01*
X013447Y002751D01*
X013413Y002788D01*
X013382Y002828D01*
X013354Y002870D01*
X013330Y002913D01*
X013309Y002959D01*
X013291Y003006D01*
X013278Y003055D01*
X013268Y003104D01*
X013262Y003154D01*
X013260Y003204D01*
X016260Y003204D02*
X016262Y003254D01*
X016268Y003304D01*
X016278Y003353D01*
X016291Y003402D01*
X016309Y003449D01*
X016330Y003495D01*
X016354Y003538D01*
X016382Y003580D01*
X016413Y003620D01*
X016447Y003657D01*
X016484Y003691D01*
X016524Y003722D01*
X016566Y003750D01*
X016609Y003774D01*
X016655Y003795D01*
X016702Y003813D01*
X016751Y003826D01*
X016800Y003836D01*
X016850Y003842D01*
X016900Y003844D01*
X016950Y003842D01*
X017000Y003836D01*
X017049Y003826D01*
X017098Y003813D01*
X017145Y003795D01*
X017191Y003774D01*
X017234Y003750D01*
X017276Y003722D01*
X017316Y003691D01*
X017353Y003657D01*
X017387Y003620D01*
X017418Y003580D01*
X017446Y003538D01*
X017470Y003495D01*
X017491Y003449D01*
X017509Y003402D01*
X017522Y003353D01*
X017532Y003304D01*
X017538Y003254D01*
X017540Y003204D01*
X017538Y003154D01*
X017532Y003104D01*
X017522Y003055D01*
X017509Y003006D01*
X017491Y002959D01*
X017470Y002913D01*
X017446Y002870D01*
X017418Y002828D01*
X017387Y002788D01*
X017353Y002751D01*
X017316Y002717D01*
X017276Y002686D01*
X017234Y002658D01*
X017191Y002634D01*
X017145Y002613D01*
X017098Y002595D01*
X017049Y002582D01*
X017000Y002572D01*
X016950Y002566D01*
X016900Y002564D01*
X016850Y002566D01*
X016800Y002572D01*
X016751Y002582D01*
X016702Y002595D01*
X016655Y002613D01*
X016609Y002634D01*
X016566Y002658D01*
X016524Y002686D01*
X016484Y002717D01*
X016447Y002751D01*
X016413Y002788D01*
X016382Y002828D01*
X016354Y002870D01*
X016330Y002913D01*
X016309Y002959D01*
X016291Y003006D01*
X016278Y003055D01*
X016268Y003104D01*
X016262Y003154D01*
X016260Y003204D01*
X020760Y003204D02*
X020762Y003254D01*
X020768Y003304D01*
X020778Y003353D01*
X020791Y003402D01*
X020809Y003449D01*
X020830Y003495D01*
X020854Y003538D01*
X020882Y003580D01*
X020913Y003620D01*
X020947Y003657D01*
X020984Y003691D01*
X021024Y003722D01*
X021066Y003750D01*
X021109Y003774D01*
X021155Y003795D01*
X021202Y003813D01*
X021251Y003826D01*
X021300Y003836D01*
X021350Y003842D01*
X021400Y003844D01*
X021450Y003842D01*
X021500Y003836D01*
X021549Y003826D01*
X021598Y003813D01*
X021645Y003795D01*
X021691Y003774D01*
X021734Y003750D01*
X021776Y003722D01*
X021816Y003691D01*
X021853Y003657D01*
X021887Y003620D01*
X021918Y003580D01*
X021946Y003538D01*
X021970Y003495D01*
X021991Y003449D01*
X022009Y003402D01*
X022022Y003353D01*
X022032Y003304D01*
X022038Y003254D01*
X022040Y003204D01*
X022038Y003154D01*
X022032Y003104D01*
X022022Y003055D01*
X022009Y003006D01*
X021991Y002959D01*
X021970Y002913D01*
X021946Y002870D01*
X021918Y002828D01*
X021887Y002788D01*
X021853Y002751D01*
X021816Y002717D01*
X021776Y002686D01*
X021734Y002658D01*
X021691Y002634D01*
X021645Y002613D01*
X021598Y002595D01*
X021549Y002582D01*
X021500Y002572D01*
X021450Y002566D01*
X021400Y002564D01*
X021350Y002566D01*
X021300Y002572D01*
X021251Y002582D01*
X021202Y002595D01*
X021155Y002613D01*
X021109Y002634D01*
X021066Y002658D01*
X021024Y002686D01*
X020984Y002717D01*
X020947Y002751D01*
X020913Y002788D01*
X020882Y002828D01*
X020854Y002870D01*
X020830Y002913D01*
X020809Y002959D01*
X020791Y003006D01*
X020778Y003055D01*
X020768Y003104D01*
X020762Y003154D01*
X020760Y003204D01*
X023760Y003204D02*
X023762Y003254D01*
X023768Y003304D01*
X023778Y003353D01*
X023791Y003402D01*
X023809Y003449D01*
X023830Y003495D01*
X023854Y003538D01*
X023882Y003580D01*
X023913Y003620D01*
X023947Y003657D01*
X023984Y003691D01*
X024024Y003722D01*
X024066Y003750D01*
X024109Y003774D01*
X024155Y003795D01*
X024202Y003813D01*
X024251Y003826D01*
X024300Y003836D01*
X024350Y003842D01*
X024400Y003844D01*
X024450Y003842D01*
X024500Y003836D01*
X024549Y003826D01*
X024598Y003813D01*
X024645Y003795D01*
X024691Y003774D01*
X024734Y003750D01*
X024776Y003722D01*
X024816Y003691D01*
X024853Y003657D01*
X024887Y003620D01*
X024918Y003580D01*
X024946Y003538D01*
X024970Y003495D01*
X024991Y003449D01*
X025009Y003402D01*
X025022Y003353D01*
X025032Y003304D01*
X025038Y003254D01*
X025040Y003204D01*
X025038Y003154D01*
X025032Y003104D01*
X025022Y003055D01*
X025009Y003006D01*
X024991Y002959D01*
X024970Y002913D01*
X024946Y002870D01*
X024918Y002828D01*
X024887Y002788D01*
X024853Y002751D01*
X024816Y002717D01*
X024776Y002686D01*
X024734Y002658D01*
X024691Y002634D01*
X024645Y002613D01*
X024598Y002595D01*
X024549Y002582D01*
X024500Y002572D01*
X024450Y002566D01*
X024400Y002564D01*
X024350Y002566D01*
X024300Y002572D01*
X024251Y002582D01*
X024202Y002595D01*
X024155Y002613D01*
X024109Y002634D01*
X024066Y002658D01*
X024024Y002686D01*
X023984Y002717D01*
X023947Y002751D01*
X023913Y002788D01*
X023882Y002828D01*
X023854Y002870D01*
X023830Y002913D01*
X023809Y002959D01*
X023791Y003006D01*
X023778Y003055D01*
X023768Y003104D01*
X023762Y003154D01*
X023760Y003204D01*
X028260Y003204D02*
X028262Y003254D01*
X028268Y003304D01*
X028278Y003353D01*
X028291Y003402D01*
X028309Y003449D01*
X028330Y003495D01*
X028354Y003538D01*
X028382Y003580D01*
X028413Y003620D01*
X028447Y003657D01*
X028484Y003691D01*
X028524Y003722D01*
X028566Y003750D01*
X028609Y003774D01*
X028655Y003795D01*
X028702Y003813D01*
X028751Y003826D01*
X028800Y003836D01*
X028850Y003842D01*
X028900Y003844D01*
X028950Y003842D01*
X029000Y003836D01*
X029049Y003826D01*
X029098Y003813D01*
X029145Y003795D01*
X029191Y003774D01*
X029234Y003750D01*
X029276Y003722D01*
X029316Y003691D01*
X029353Y003657D01*
X029387Y003620D01*
X029418Y003580D01*
X029446Y003538D01*
X029470Y003495D01*
X029491Y003449D01*
X029509Y003402D01*
X029522Y003353D01*
X029532Y003304D01*
X029538Y003254D01*
X029540Y003204D01*
X029538Y003154D01*
X029532Y003104D01*
X029522Y003055D01*
X029509Y003006D01*
X029491Y002959D01*
X029470Y002913D01*
X029446Y002870D01*
X029418Y002828D01*
X029387Y002788D01*
X029353Y002751D01*
X029316Y002717D01*
X029276Y002686D01*
X029234Y002658D01*
X029191Y002634D01*
X029145Y002613D01*
X029098Y002595D01*
X029049Y002582D01*
X029000Y002572D01*
X028950Y002566D01*
X028900Y002564D01*
X028850Y002566D01*
X028800Y002572D01*
X028751Y002582D01*
X028702Y002595D01*
X028655Y002613D01*
X028609Y002634D01*
X028566Y002658D01*
X028524Y002686D01*
X028484Y002717D01*
X028447Y002751D01*
X028413Y002788D01*
X028382Y002828D01*
X028354Y002870D01*
X028330Y002913D01*
X028309Y002959D01*
X028291Y003006D01*
X028278Y003055D01*
X028268Y003104D01*
X028262Y003154D01*
X028260Y003204D01*
X031260Y003204D02*
X031262Y003254D01*
X031268Y003304D01*
X031278Y003353D01*
X031291Y003402D01*
X031309Y003449D01*
X031330Y003495D01*
X031354Y003538D01*
X031382Y003580D01*
X031413Y003620D01*
X031447Y003657D01*
X031484Y003691D01*
X031524Y003722D01*
X031566Y003750D01*
X031609Y003774D01*
X031655Y003795D01*
X031702Y003813D01*
X031751Y003826D01*
X031800Y003836D01*
X031850Y003842D01*
X031900Y003844D01*
X031950Y003842D01*
X032000Y003836D01*
X032049Y003826D01*
X032098Y003813D01*
X032145Y003795D01*
X032191Y003774D01*
X032234Y003750D01*
X032276Y003722D01*
X032316Y003691D01*
X032353Y003657D01*
X032387Y003620D01*
X032418Y003580D01*
X032446Y003538D01*
X032470Y003495D01*
X032491Y003449D01*
X032509Y003402D01*
X032522Y003353D01*
X032532Y003304D01*
X032538Y003254D01*
X032540Y003204D01*
X032538Y003154D01*
X032532Y003104D01*
X032522Y003055D01*
X032509Y003006D01*
X032491Y002959D01*
X032470Y002913D01*
X032446Y002870D01*
X032418Y002828D01*
X032387Y002788D01*
X032353Y002751D01*
X032316Y002717D01*
X032276Y002686D01*
X032234Y002658D01*
X032191Y002634D01*
X032145Y002613D01*
X032098Y002595D01*
X032049Y002582D01*
X032000Y002572D01*
X031950Y002566D01*
X031900Y002564D01*
X031850Y002566D01*
X031800Y002572D01*
X031751Y002582D01*
X031702Y002595D01*
X031655Y002613D01*
X031609Y002634D01*
X031566Y002658D01*
X031524Y002686D01*
X031484Y002717D01*
X031447Y002751D01*
X031413Y002788D01*
X031382Y002828D01*
X031354Y002870D01*
X031330Y002913D01*
X031309Y002959D01*
X031291Y003006D01*
X031278Y003055D01*
X031268Y003104D01*
X031262Y003154D01*
X031260Y003204D01*
X035760Y003204D02*
X035762Y003254D01*
X035768Y003304D01*
X035778Y003353D01*
X035791Y003402D01*
X035809Y003449D01*
X035830Y003495D01*
X035854Y003538D01*
X035882Y003580D01*
X035913Y003620D01*
X035947Y003657D01*
X035984Y003691D01*
X036024Y003722D01*
X036066Y003750D01*
X036109Y003774D01*
X036155Y003795D01*
X036202Y003813D01*
X036251Y003826D01*
X036300Y003836D01*
X036350Y003842D01*
X036400Y003844D01*
X036450Y003842D01*
X036500Y003836D01*
X036549Y003826D01*
X036598Y003813D01*
X036645Y003795D01*
X036691Y003774D01*
X036734Y003750D01*
X036776Y003722D01*
X036816Y003691D01*
X036853Y003657D01*
X036887Y003620D01*
X036918Y003580D01*
X036946Y003538D01*
X036970Y003495D01*
X036991Y003449D01*
X037009Y003402D01*
X037022Y003353D01*
X037032Y003304D01*
X037038Y003254D01*
X037040Y003204D01*
X037038Y003154D01*
X037032Y003104D01*
X037022Y003055D01*
X037009Y003006D01*
X036991Y002959D01*
X036970Y002913D01*
X036946Y002870D01*
X036918Y002828D01*
X036887Y002788D01*
X036853Y002751D01*
X036816Y002717D01*
X036776Y002686D01*
X036734Y002658D01*
X036691Y002634D01*
X036645Y002613D01*
X036598Y002595D01*
X036549Y002582D01*
X036500Y002572D01*
X036450Y002566D01*
X036400Y002564D01*
X036350Y002566D01*
X036300Y002572D01*
X036251Y002582D01*
X036202Y002595D01*
X036155Y002613D01*
X036109Y002634D01*
X036066Y002658D01*
X036024Y002686D01*
X035984Y002717D01*
X035947Y002751D01*
X035913Y002788D01*
X035882Y002828D01*
X035854Y002870D01*
X035830Y002913D01*
X035809Y002959D01*
X035791Y003006D01*
X035778Y003055D01*
X035768Y003104D01*
X035762Y003154D01*
X035760Y003204D01*
X034158Y021704D02*
X034160Y021748D01*
X034166Y021792D01*
X034176Y021835D01*
X034189Y021877D01*
X034207Y021917D01*
X034228Y021956D01*
X034252Y021993D01*
X034279Y022028D01*
X034310Y022060D01*
X034343Y022089D01*
X034379Y022115D01*
X034417Y022137D01*
X034457Y022156D01*
X034498Y022172D01*
X034541Y022184D01*
X034584Y022192D01*
X034628Y022196D01*
X034672Y022196D01*
X034716Y022192D01*
X034759Y022184D01*
X034802Y022172D01*
X034843Y022156D01*
X034883Y022137D01*
X034921Y022115D01*
X034957Y022089D01*
X034990Y022060D01*
X035021Y022028D01*
X035048Y021993D01*
X035072Y021956D01*
X035093Y021917D01*
X035111Y021877D01*
X035124Y021835D01*
X035134Y021792D01*
X035140Y021748D01*
X035142Y021704D01*
X035140Y021660D01*
X035134Y021616D01*
X035124Y021573D01*
X035111Y021531D01*
X035093Y021491D01*
X035072Y021452D01*
X035048Y021415D01*
X035021Y021380D01*
X034990Y021348D01*
X034957Y021319D01*
X034921Y021293D01*
X034883Y021271D01*
X034843Y021252D01*
X034802Y021236D01*
X034759Y021224D01*
X034716Y021216D01*
X034672Y021212D01*
X034628Y021212D01*
X034584Y021216D01*
X034541Y021224D01*
X034498Y021236D01*
X034457Y021252D01*
X034417Y021271D01*
X034379Y021293D01*
X034343Y021319D01*
X034310Y021348D01*
X034279Y021380D01*
X034252Y021415D01*
X034228Y021452D01*
X034207Y021491D01*
X034189Y021531D01*
X034176Y021573D01*
X034166Y021616D01*
X034160Y021660D01*
X034158Y021704D01*
X036863Y023704D02*
X036865Y023760D01*
X036871Y023815D01*
X036881Y023869D01*
X036894Y023923D01*
X036912Y023976D01*
X036933Y024027D01*
X036957Y024077D01*
X036985Y024125D01*
X037017Y024171D01*
X037051Y024215D01*
X037089Y024256D01*
X037129Y024294D01*
X037172Y024329D01*
X037217Y024361D01*
X037265Y024390D01*
X037314Y024416D01*
X037365Y024438D01*
X037417Y024456D01*
X037471Y024470D01*
X037526Y024481D01*
X037581Y024488D01*
X037636Y024491D01*
X037692Y024490D01*
X037747Y024485D01*
X037802Y024476D01*
X037856Y024464D01*
X037909Y024447D01*
X037961Y024427D01*
X038011Y024403D01*
X038059Y024376D01*
X038106Y024346D01*
X038150Y024312D01*
X038192Y024275D01*
X038230Y024235D01*
X038267Y024193D01*
X038300Y024148D01*
X038329Y024102D01*
X038356Y024053D01*
X038378Y024002D01*
X038398Y023950D01*
X038413Y023896D01*
X038425Y023842D01*
X038433Y023787D01*
X038437Y023732D01*
X038437Y023676D01*
X038433Y023621D01*
X038425Y023566D01*
X038413Y023512D01*
X038398Y023458D01*
X038378Y023406D01*
X038356Y023355D01*
X038329Y023306D01*
X038300Y023260D01*
X038267Y023215D01*
X038230Y023173D01*
X038192Y023133D01*
X038150Y023096D01*
X038106Y023062D01*
X038059Y023032D01*
X038011Y023005D01*
X037961Y022981D01*
X037909Y022961D01*
X037856Y022944D01*
X037802Y022932D01*
X037747Y022923D01*
X037692Y022918D01*
X037636Y022917D01*
X037581Y022920D01*
X037526Y022927D01*
X037471Y022938D01*
X037417Y022952D01*
X037365Y022970D01*
X037314Y022992D01*
X037265Y023018D01*
X037217Y023047D01*
X037172Y023079D01*
X037129Y023114D01*
X037089Y023152D01*
X037051Y023193D01*
X037017Y023237D01*
X036985Y023283D01*
X036957Y023331D01*
X036933Y023381D01*
X036912Y023432D01*
X036894Y023485D01*
X036881Y023539D01*
X036871Y023593D01*
X036865Y023648D01*
X036863Y023704D01*
X036863Y027704D02*
X036865Y027760D01*
X036871Y027815D01*
X036881Y027869D01*
X036894Y027923D01*
X036912Y027976D01*
X036933Y028027D01*
X036957Y028077D01*
X036985Y028125D01*
X037017Y028171D01*
X037051Y028215D01*
X037089Y028256D01*
X037129Y028294D01*
X037172Y028329D01*
X037217Y028361D01*
X037265Y028390D01*
X037314Y028416D01*
X037365Y028438D01*
X037417Y028456D01*
X037471Y028470D01*
X037526Y028481D01*
X037581Y028488D01*
X037636Y028491D01*
X037692Y028490D01*
X037747Y028485D01*
X037802Y028476D01*
X037856Y028464D01*
X037909Y028447D01*
X037961Y028427D01*
X038011Y028403D01*
X038059Y028376D01*
X038106Y028346D01*
X038150Y028312D01*
X038192Y028275D01*
X038230Y028235D01*
X038267Y028193D01*
X038300Y028148D01*
X038329Y028102D01*
X038356Y028053D01*
X038378Y028002D01*
X038398Y027950D01*
X038413Y027896D01*
X038425Y027842D01*
X038433Y027787D01*
X038437Y027732D01*
X038437Y027676D01*
X038433Y027621D01*
X038425Y027566D01*
X038413Y027512D01*
X038398Y027458D01*
X038378Y027406D01*
X038356Y027355D01*
X038329Y027306D01*
X038300Y027260D01*
X038267Y027215D01*
X038230Y027173D01*
X038192Y027133D01*
X038150Y027096D01*
X038106Y027062D01*
X038059Y027032D01*
X038011Y027005D01*
X037961Y026981D01*
X037909Y026961D01*
X037856Y026944D01*
X037802Y026932D01*
X037747Y026923D01*
X037692Y026918D01*
X037636Y026917D01*
X037581Y026920D01*
X037526Y026927D01*
X037471Y026938D01*
X037417Y026952D01*
X037365Y026970D01*
X037314Y026992D01*
X037265Y027018D01*
X037217Y027047D01*
X037172Y027079D01*
X037129Y027114D01*
X037089Y027152D01*
X037051Y027193D01*
X037017Y027237D01*
X036985Y027283D01*
X036957Y027331D01*
X036933Y027381D01*
X036912Y027432D01*
X036894Y027485D01*
X036881Y027539D01*
X036871Y027593D01*
X036865Y027648D01*
X036863Y027704D01*
X034158Y029704D02*
X034160Y029748D01*
X034166Y029792D01*
X034176Y029835D01*
X034189Y029877D01*
X034207Y029917D01*
X034228Y029956D01*
X034252Y029993D01*
X034279Y030028D01*
X034310Y030060D01*
X034343Y030089D01*
X034379Y030115D01*
X034417Y030137D01*
X034457Y030156D01*
X034498Y030172D01*
X034541Y030184D01*
X034584Y030192D01*
X034628Y030196D01*
X034672Y030196D01*
X034716Y030192D01*
X034759Y030184D01*
X034802Y030172D01*
X034843Y030156D01*
X034883Y030137D01*
X034921Y030115D01*
X034957Y030089D01*
X034990Y030060D01*
X035021Y030028D01*
X035048Y029993D01*
X035072Y029956D01*
X035093Y029917D01*
X035111Y029877D01*
X035124Y029835D01*
X035134Y029792D01*
X035140Y029748D01*
X035142Y029704D01*
X035140Y029660D01*
X035134Y029616D01*
X035124Y029573D01*
X035111Y029531D01*
X035093Y029491D01*
X035072Y029452D01*
X035048Y029415D01*
X035021Y029380D01*
X034990Y029348D01*
X034957Y029319D01*
X034921Y029293D01*
X034883Y029271D01*
X034843Y029252D01*
X034802Y029236D01*
X034759Y029224D01*
X034716Y029216D01*
X034672Y029212D01*
X034628Y029212D01*
X034584Y029216D01*
X034541Y029224D01*
X034498Y029236D01*
X034457Y029252D01*
X034417Y029271D01*
X034379Y029293D01*
X034343Y029319D01*
X034310Y029348D01*
X034279Y029380D01*
X034252Y029415D01*
X034228Y029452D01*
X034207Y029491D01*
X034189Y029531D01*
X034176Y029573D01*
X034166Y029616D01*
X034160Y029660D01*
X034158Y029704D01*
X020760Y028704D02*
X020762Y028754D01*
X020768Y028804D01*
X020778Y028853D01*
X020791Y028902D01*
X020809Y028949D01*
X020830Y028995D01*
X020854Y029038D01*
X020882Y029080D01*
X020913Y029120D01*
X020947Y029157D01*
X020984Y029191D01*
X021024Y029222D01*
X021066Y029250D01*
X021109Y029274D01*
X021155Y029295D01*
X021202Y029313D01*
X021251Y029326D01*
X021300Y029336D01*
X021350Y029342D01*
X021400Y029344D01*
X021450Y029342D01*
X021500Y029336D01*
X021549Y029326D01*
X021598Y029313D01*
X021645Y029295D01*
X021691Y029274D01*
X021734Y029250D01*
X021776Y029222D01*
X021816Y029191D01*
X021853Y029157D01*
X021887Y029120D01*
X021918Y029080D01*
X021946Y029038D01*
X021970Y028995D01*
X021991Y028949D01*
X022009Y028902D01*
X022022Y028853D01*
X022032Y028804D01*
X022038Y028754D01*
X022040Y028704D01*
X022038Y028654D01*
X022032Y028604D01*
X022022Y028555D01*
X022009Y028506D01*
X021991Y028459D01*
X021970Y028413D01*
X021946Y028370D01*
X021918Y028328D01*
X021887Y028288D01*
X021853Y028251D01*
X021816Y028217D01*
X021776Y028186D01*
X021734Y028158D01*
X021691Y028134D01*
X021645Y028113D01*
X021598Y028095D01*
X021549Y028082D01*
X021500Y028072D01*
X021450Y028066D01*
X021400Y028064D01*
X021350Y028066D01*
X021300Y028072D01*
X021251Y028082D01*
X021202Y028095D01*
X021155Y028113D01*
X021109Y028134D01*
X021066Y028158D01*
X021024Y028186D01*
X020984Y028217D01*
X020947Y028251D01*
X020913Y028288D01*
X020882Y028328D01*
X020854Y028370D01*
X020830Y028413D01*
X020809Y028459D01*
X020791Y028506D01*
X020778Y028555D01*
X020768Y028604D01*
X020762Y028654D01*
X020760Y028704D01*
X016260Y028704D02*
X016262Y028754D01*
X016268Y028804D01*
X016278Y028853D01*
X016291Y028902D01*
X016309Y028949D01*
X016330Y028995D01*
X016354Y029038D01*
X016382Y029080D01*
X016413Y029120D01*
X016447Y029157D01*
X016484Y029191D01*
X016524Y029222D01*
X016566Y029250D01*
X016609Y029274D01*
X016655Y029295D01*
X016702Y029313D01*
X016751Y029326D01*
X016800Y029336D01*
X016850Y029342D01*
X016900Y029344D01*
X016950Y029342D01*
X017000Y029336D01*
X017049Y029326D01*
X017098Y029313D01*
X017145Y029295D01*
X017191Y029274D01*
X017234Y029250D01*
X017276Y029222D01*
X017316Y029191D01*
X017353Y029157D01*
X017387Y029120D01*
X017418Y029080D01*
X017446Y029038D01*
X017470Y028995D01*
X017491Y028949D01*
X017509Y028902D01*
X017522Y028853D01*
X017532Y028804D01*
X017538Y028754D01*
X017540Y028704D01*
X017538Y028654D01*
X017532Y028604D01*
X017522Y028555D01*
X017509Y028506D01*
X017491Y028459D01*
X017470Y028413D01*
X017446Y028370D01*
X017418Y028328D01*
X017387Y028288D01*
X017353Y028251D01*
X017316Y028217D01*
X017276Y028186D01*
X017234Y028158D01*
X017191Y028134D01*
X017145Y028113D01*
X017098Y028095D01*
X017049Y028082D01*
X017000Y028072D01*
X016950Y028066D01*
X016900Y028064D01*
X016850Y028066D01*
X016800Y028072D01*
X016751Y028082D01*
X016702Y028095D01*
X016655Y028113D01*
X016609Y028134D01*
X016566Y028158D01*
X016524Y028186D01*
X016484Y028217D01*
X016447Y028251D01*
X016413Y028288D01*
X016382Y028328D01*
X016354Y028370D01*
X016330Y028413D01*
X016309Y028459D01*
X016291Y028506D01*
X016278Y028555D01*
X016268Y028604D01*
X016262Y028654D01*
X016260Y028704D01*
X013260Y028704D02*
X013262Y028754D01*
X013268Y028804D01*
X013278Y028853D01*
X013291Y028902D01*
X013309Y028949D01*
X013330Y028995D01*
X013354Y029038D01*
X013382Y029080D01*
X013413Y029120D01*
X013447Y029157D01*
X013484Y029191D01*
X013524Y029222D01*
X013566Y029250D01*
X013609Y029274D01*
X013655Y029295D01*
X013702Y029313D01*
X013751Y029326D01*
X013800Y029336D01*
X013850Y029342D01*
X013900Y029344D01*
X013950Y029342D01*
X014000Y029336D01*
X014049Y029326D01*
X014098Y029313D01*
X014145Y029295D01*
X014191Y029274D01*
X014234Y029250D01*
X014276Y029222D01*
X014316Y029191D01*
X014353Y029157D01*
X014387Y029120D01*
X014418Y029080D01*
X014446Y029038D01*
X014470Y028995D01*
X014491Y028949D01*
X014509Y028902D01*
X014522Y028853D01*
X014532Y028804D01*
X014538Y028754D01*
X014540Y028704D01*
X014538Y028654D01*
X014532Y028604D01*
X014522Y028555D01*
X014509Y028506D01*
X014491Y028459D01*
X014470Y028413D01*
X014446Y028370D01*
X014418Y028328D01*
X014387Y028288D01*
X014353Y028251D01*
X014316Y028217D01*
X014276Y028186D01*
X014234Y028158D01*
X014191Y028134D01*
X014145Y028113D01*
X014098Y028095D01*
X014049Y028082D01*
X014000Y028072D01*
X013950Y028066D01*
X013900Y028064D01*
X013850Y028066D01*
X013800Y028072D01*
X013751Y028082D01*
X013702Y028095D01*
X013655Y028113D01*
X013609Y028134D01*
X013566Y028158D01*
X013524Y028186D01*
X013484Y028217D01*
X013447Y028251D01*
X013413Y028288D01*
X013382Y028328D01*
X013354Y028370D01*
X013330Y028413D01*
X013309Y028459D01*
X013291Y028506D01*
X013278Y028555D01*
X013268Y028604D01*
X013262Y028654D01*
X013260Y028704D01*
X008760Y028704D02*
X008762Y028754D01*
X008768Y028804D01*
X008778Y028853D01*
X008791Y028902D01*
X008809Y028949D01*
X008830Y028995D01*
X008854Y029038D01*
X008882Y029080D01*
X008913Y029120D01*
X008947Y029157D01*
X008984Y029191D01*
X009024Y029222D01*
X009066Y029250D01*
X009109Y029274D01*
X009155Y029295D01*
X009202Y029313D01*
X009251Y029326D01*
X009300Y029336D01*
X009350Y029342D01*
X009400Y029344D01*
X009450Y029342D01*
X009500Y029336D01*
X009549Y029326D01*
X009598Y029313D01*
X009645Y029295D01*
X009691Y029274D01*
X009734Y029250D01*
X009776Y029222D01*
X009816Y029191D01*
X009853Y029157D01*
X009887Y029120D01*
X009918Y029080D01*
X009946Y029038D01*
X009970Y028995D01*
X009991Y028949D01*
X010009Y028902D01*
X010022Y028853D01*
X010032Y028804D01*
X010038Y028754D01*
X010040Y028704D01*
X010038Y028654D01*
X010032Y028604D01*
X010022Y028555D01*
X010009Y028506D01*
X009991Y028459D01*
X009970Y028413D01*
X009946Y028370D01*
X009918Y028328D01*
X009887Y028288D01*
X009853Y028251D01*
X009816Y028217D01*
X009776Y028186D01*
X009734Y028158D01*
X009691Y028134D01*
X009645Y028113D01*
X009598Y028095D01*
X009549Y028082D01*
X009500Y028072D01*
X009450Y028066D01*
X009400Y028064D01*
X009350Y028066D01*
X009300Y028072D01*
X009251Y028082D01*
X009202Y028095D01*
X009155Y028113D01*
X009109Y028134D01*
X009066Y028158D01*
X009024Y028186D01*
X008984Y028217D01*
X008947Y028251D01*
X008913Y028288D01*
X008882Y028328D01*
X008854Y028370D01*
X008830Y028413D01*
X008809Y028459D01*
X008791Y028506D01*
X008778Y028555D01*
X008768Y028604D01*
X008762Y028654D01*
X008760Y028704D01*
X005760Y028704D02*
X005762Y028754D01*
X005768Y028804D01*
X005778Y028853D01*
X005791Y028902D01*
X005809Y028949D01*
X005830Y028995D01*
X005854Y029038D01*
X005882Y029080D01*
X005913Y029120D01*
X005947Y029157D01*
X005984Y029191D01*
X006024Y029222D01*
X006066Y029250D01*
X006109Y029274D01*
X006155Y029295D01*
X006202Y029313D01*
X006251Y029326D01*
X006300Y029336D01*
X006350Y029342D01*
X006400Y029344D01*
X006450Y029342D01*
X006500Y029336D01*
X006549Y029326D01*
X006598Y029313D01*
X006645Y029295D01*
X006691Y029274D01*
X006734Y029250D01*
X006776Y029222D01*
X006816Y029191D01*
X006853Y029157D01*
X006887Y029120D01*
X006918Y029080D01*
X006946Y029038D01*
X006970Y028995D01*
X006991Y028949D01*
X007009Y028902D01*
X007022Y028853D01*
X007032Y028804D01*
X007038Y028754D01*
X007040Y028704D01*
X007038Y028654D01*
X007032Y028604D01*
X007022Y028555D01*
X007009Y028506D01*
X006991Y028459D01*
X006970Y028413D01*
X006946Y028370D01*
X006918Y028328D01*
X006887Y028288D01*
X006853Y028251D01*
X006816Y028217D01*
X006776Y028186D01*
X006734Y028158D01*
X006691Y028134D01*
X006645Y028113D01*
X006598Y028095D01*
X006549Y028082D01*
X006500Y028072D01*
X006450Y028066D01*
X006400Y028064D01*
X006350Y028066D01*
X006300Y028072D01*
X006251Y028082D01*
X006202Y028095D01*
X006155Y028113D01*
X006109Y028134D01*
X006066Y028158D01*
X006024Y028186D01*
X005984Y028217D01*
X005947Y028251D01*
X005913Y028288D01*
X005882Y028328D01*
X005854Y028370D01*
X005830Y028413D01*
X005809Y028459D01*
X005791Y028506D01*
X005778Y028555D01*
X005768Y028604D01*
X005762Y028654D01*
X005760Y028704D01*
X001260Y028704D02*
X001262Y028754D01*
X001268Y028804D01*
X001278Y028853D01*
X001291Y028902D01*
X001309Y028949D01*
X001330Y028995D01*
X001354Y029038D01*
X001382Y029080D01*
X001413Y029120D01*
X001447Y029157D01*
X001484Y029191D01*
X001524Y029222D01*
X001566Y029250D01*
X001609Y029274D01*
X001655Y029295D01*
X001702Y029313D01*
X001751Y029326D01*
X001800Y029336D01*
X001850Y029342D01*
X001900Y029344D01*
X001950Y029342D01*
X002000Y029336D01*
X002049Y029326D01*
X002098Y029313D01*
X002145Y029295D01*
X002191Y029274D01*
X002234Y029250D01*
X002276Y029222D01*
X002316Y029191D01*
X002353Y029157D01*
X002387Y029120D01*
X002418Y029080D01*
X002446Y029038D01*
X002470Y028995D01*
X002491Y028949D01*
X002509Y028902D01*
X002522Y028853D01*
X002532Y028804D01*
X002538Y028754D01*
X002540Y028704D01*
X002538Y028654D01*
X002532Y028604D01*
X002522Y028555D01*
X002509Y028506D01*
X002491Y028459D01*
X002470Y028413D01*
X002446Y028370D01*
X002418Y028328D01*
X002387Y028288D01*
X002353Y028251D01*
X002316Y028217D01*
X002276Y028186D01*
X002234Y028158D01*
X002191Y028134D01*
X002145Y028113D01*
X002098Y028095D01*
X002049Y028082D01*
X002000Y028072D01*
X001950Y028066D01*
X001900Y028064D01*
X001850Y028066D01*
X001800Y028072D01*
X001751Y028082D01*
X001702Y028095D01*
X001655Y028113D01*
X001609Y028134D01*
X001566Y028158D01*
X001524Y028186D01*
X001484Y028217D01*
X001447Y028251D01*
X001413Y028288D01*
X001382Y028328D01*
X001354Y028370D01*
X001330Y028413D01*
X001309Y028459D01*
X001291Y028506D01*
X001278Y028555D01*
X001268Y028604D01*
X001262Y028654D01*
X001260Y028704D01*
D11*
G36*
X022426Y013314D02*
X023260Y012480D01*
X023038Y012258D01*
X022204Y013092D01*
X022426Y013314D01*
G37*
G36*
X022844Y013732D02*
X023678Y012898D01*
X023456Y012676D01*
X022622Y013510D01*
X022844Y013732D01*
G37*
G36*
X023262Y014149D02*
X024096Y013315D01*
X023874Y013093D01*
X023040Y013927D01*
X023262Y014149D01*
G37*
D12*
X026900Y014134D03*
X027400Y014134D03*
X027900Y014134D03*
X028400Y014134D03*
X028900Y014134D03*
X029400Y014134D03*
X029900Y014134D03*
X030400Y014134D03*
X030400Y010274D03*
X029900Y010274D03*
X029400Y010274D03*
X028900Y010274D03*
X028400Y010274D03*
X027900Y010274D03*
X027400Y010274D03*
X026900Y010274D03*
D13*
X025650Y012330D03*
X025650Y013078D03*
X031650Y013078D03*
X031650Y012330D03*
X031650Y011078D03*
X031650Y010330D03*
X015650Y012830D03*
X015650Y013578D03*
D14*
X008524Y009204D03*
X007776Y009204D03*
X006024Y017704D03*
X005276Y017704D03*
X005276Y019704D03*
X006024Y019704D03*
X006024Y021704D03*
X005276Y021704D03*
X005276Y023704D03*
X006024Y023704D03*
X014276Y023204D03*
X015024Y023204D03*
X019276Y020704D03*
X020024Y020704D03*
X026876Y022804D03*
X027624Y022804D03*
X028026Y015704D03*
X028774Y015704D03*
X029776Y015704D03*
X030524Y015704D03*
D15*
X034150Y015784D03*
X034150Y016864D03*
X035150Y016324D03*
X035150Y015244D03*
X035150Y014164D03*
X035150Y013084D03*
X034150Y013624D03*
X034150Y012544D03*
X034150Y014704D03*
X026650Y019204D03*
X025650Y019204D03*
X025650Y020204D03*
X026650Y020204D03*
X026650Y021204D03*
X025650Y021204D03*
X017650Y011204D03*
X016650Y011204D03*
X015650Y011204D03*
X014650Y011204D03*
X013650Y011204D03*
X013650Y010204D03*
X014650Y010204D03*
X015650Y010204D03*
X016650Y010204D03*
X017650Y010204D03*
D16*
X033138Y022704D02*
X034162Y022704D01*
X034162Y024704D02*
X033138Y024704D01*
X033138Y026704D02*
X034162Y026704D01*
X034162Y028704D02*
X033138Y028704D01*
D17*
X015860Y022454D03*
X015860Y021954D03*
X015860Y021454D03*
X015860Y020954D03*
X015860Y020454D03*
X015860Y019954D03*
X015860Y019454D03*
X015860Y018954D03*
X013440Y018954D03*
X013440Y019454D03*
X013440Y019954D03*
X013440Y020454D03*
X013440Y020954D03*
X013440Y021454D03*
X013440Y021954D03*
X013440Y022454D03*
D18*
X010489Y011991D03*
X010489Y010416D03*
X007811Y010416D03*
X007811Y011991D03*
D19*
X007475Y001034D02*
X000825Y001034D01*
X008325Y001034D02*
X014975Y001034D01*
X015825Y001034D02*
X022475Y001034D01*
X023325Y001034D02*
X029975Y001034D01*
X030825Y001034D02*
X037475Y001034D01*
X022475Y030874D02*
X015825Y030874D01*
X014975Y030874D02*
X008325Y030874D01*
X007475Y030874D02*
X000825Y030874D01*
D20*
X002900Y026204D03*
X003900Y026204D03*
X004900Y026204D03*
X005900Y026204D03*
X005400Y025204D03*
X004400Y025204D03*
X003400Y025204D03*
X002400Y025204D03*
X009900Y025204D03*
X010900Y025204D03*
X011900Y025204D03*
X012900Y025204D03*
X012400Y026204D03*
X011400Y026204D03*
X010400Y026204D03*
X013400Y026204D03*
X017400Y025204D03*
X018400Y025204D03*
X019400Y025204D03*
X020400Y025204D03*
X019900Y026204D03*
X018900Y026204D03*
X017900Y026204D03*
X020900Y026204D03*
X020900Y006704D03*
X019900Y006704D03*
X018900Y006704D03*
X017900Y006704D03*
X017400Y005704D03*
X018400Y005704D03*
X019400Y005704D03*
X020400Y005704D03*
X024900Y005704D03*
X025900Y005704D03*
X026900Y005704D03*
X027900Y005704D03*
X027400Y006704D03*
X026400Y006704D03*
X025400Y006704D03*
X028400Y006704D03*
X032400Y005704D03*
X033400Y005704D03*
X034400Y005704D03*
X035400Y005704D03*
X034900Y006704D03*
X033900Y006704D03*
X032900Y006704D03*
X035900Y006704D03*
X013400Y006704D03*
X012400Y006704D03*
X011400Y006704D03*
X010400Y006704D03*
X009900Y005704D03*
X010900Y005704D03*
X011900Y005704D03*
X012900Y005704D03*
X005900Y006704D03*
X004900Y006704D03*
X003900Y006704D03*
X002900Y006704D03*
X002400Y005704D03*
X003400Y005704D03*
X004400Y005704D03*
X005400Y005704D03*
D21*
X034650Y009774D03*
X034650Y019634D03*
D22*
X031450Y027704D02*
X030850Y027704D01*
X029950Y027704D02*
X029350Y027704D01*
X028450Y027704D02*
X027850Y027704D01*
X026950Y027704D02*
X026350Y027704D01*
X025450Y027704D02*
X024850Y027704D01*
X023950Y027704D02*
X023350Y027704D01*
X023350Y028704D02*
X023950Y028704D01*
X024850Y028704D02*
X025450Y028704D01*
X026350Y028704D02*
X026950Y028704D01*
X027850Y028704D02*
X028450Y028704D01*
X029350Y028704D02*
X029950Y028704D01*
X030850Y028704D02*
X031450Y028704D01*
X031450Y029704D02*
X030850Y029704D01*
X029950Y029704D02*
X029350Y029704D01*
X028450Y029704D02*
X027850Y029704D01*
X026950Y029704D02*
X026350Y029704D01*
X025450Y029704D02*
X024850Y029704D01*
X023950Y029704D02*
X023350Y029704D01*
X001450Y023704D02*
X000850Y023704D01*
X000850Y022704D02*
X001450Y022704D01*
X001450Y021704D02*
X000850Y021704D01*
X000850Y020704D02*
X001450Y020704D01*
X001450Y019704D02*
X000850Y019704D01*
X000850Y018704D02*
X001450Y018704D01*
X001450Y017704D02*
X000850Y017704D01*
X000850Y016704D02*
X001450Y016704D01*
X001450Y015204D02*
X000850Y015204D01*
X000850Y014204D02*
X001450Y014204D01*
X001450Y013204D02*
X000850Y013204D01*
X000850Y012204D02*
X001450Y012204D01*
X001450Y011204D02*
X000850Y011204D01*
X000850Y010204D02*
X001450Y010204D01*
X001450Y009204D02*
X000850Y009204D01*
X000850Y008204D02*
X001450Y008204D01*
X020650Y008904D02*
X020650Y009504D01*
X021650Y009504D02*
X021650Y008904D01*
X022650Y008904D02*
X022650Y009504D01*
X023650Y009504D02*
X023650Y008904D01*
X024650Y008904D02*
X024650Y009504D01*
X025650Y009504D02*
X025650Y008904D01*
D23*
X029650Y020704D03*
X029650Y023204D03*
D24*
X029650Y024204D03*
X029650Y019704D03*
D25*
G36*
X022239Y015980D02*
X022655Y015564D01*
X022517Y015426D01*
X022101Y015842D01*
X022239Y015980D01*
G37*
G36*
X022016Y015757D02*
X022432Y015341D01*
X022294Y015203D01*
X021878Y015619D01*
X022016Y015757D01*
G37*
G36*
X021794Y015534D02*
X022210Y015118D01*
X022072Y014980D01*
X021656Y015396D01*
X021794Y015534D01*
G37*
G36*
X021571Y015312D02*
X021987Y014896D01*
X021849Y014758D01*
X021433Y015174D01*
X021571Y015312D01*
G37*
G36*
X021348Y015089D02*
X021764Y014673D01*
X021626Y014535D01*
X021210Y014951D01*
X021348Y015089D01*
G37*
G36*
X021126Y014866D02*
X021542Y014450D01*
X021404Y014312D01*
X020988Y014728D01*
X021126Y014866D01*
G37*
G36*
X020903Y014643D02*
X021319Y014227D01*
X021181Y014089D01*
X020765Y014505D01*
X020903Y014643D01*
G37*
G36*
X020680Y014421D02*
X021096Y014005D01*
X020958Y013867D01*
X020542Y014283D01*
X020680Y014421D01*
G37*
G36*
X020458Y014198D02*
X020874Y013782D01*
X020736Y013644D01*
X020320Y014060D01*
X020458Y014198D01*
G37*
G36*
X020235Y013975D02*
X020651Y013559D01*
X020513Y013421D01*
X020097Y013837D01*
X020235Y013975D01*
G37*
G36*
X020012Y013753D02*
X020428Y013337D01*
X020290Y013199D01*
X019874Y013615D01*
X020012Y013753D01*
G37*
G36*
X016783Y016982D02*
X017199Y016566D01*
X017061Y016428D01*
X016645Y016844D01*
X016783Y016982D01*
G37*
G36*
X017006Y017205D02*
X017422Y016789D01*
X017284Y016651D01*
X016868Y017067D01*
X017006Y017205D01*
G37*
G36*
X017228Y017427D02*
X017644Y017011D01*
X017506Y016873D01*
X017090Y017289D01*
X017228Y017427D01*
G37*
G36*
X017451Y017650D02*
X017867Y017234D01*
X017729Y017096D01*
X017313Y017512D01*
X017451Y017650D01*
G37*
G36*
X017674Y017873D02*
X018090Y017457D01*
X017952Y017319D01*
X017536Y017735D01*
X017674Y017873D01*
G37*
G36*
X017896Y018095D02*
X018312Y017679D01*
X018174Y017541D01*
X017758Y017957D01*
X017896Y018095D01*
G37*
G36*
X018119Y018318D02*
X018535Y017902D01*
X018397Y017764D01*
X017981Y018180D01*
X018119Y018318D01*
G37*
G36*
X018342Y018541D02*
X018758Y018125D01*
X018620Y017987D01*
X018204Y018403D01*
X018342Y018541D01*
G37*
G36*
X018564Y018764D02*
X018980Y018348D01*
X018842Y018210D01*
X018426Y018626D01*
X018564Y018764D01*
G37*
G36*
X018787Y018986D02*
X019203Y018570D01*
X019065Y018432D01*
X018649Y018848D01*
X018787Y018986D01*
G37*
G36*
X019010Y019209D02*
X019426Y018793D01*
X019288Y018655D01*
X018872Y019071D01*
X019010Y019209D01*
G37*
D26*
G36*
X020290Y019209D02*
X020428Y019071D01*
X020012Y018655D01*
X019874Y018793D01*
X020290Y019209D01*
G37*
G36*
X020513Y018986D02*
X020651Y018848D01*
X020235Y018432D01*
X020097Y018570D01*
X020513Y018986D01*
G37*
G36*
X020736Y018764D02*
X020874Y018626D01*
X020458Y018210D01*
X020320Y018348D01*
X020736Y018764D01*
G37*
G36*
X020958Y018541D02*
X021096Y018403D01*
X020680Y017987D01*
X020542Y018125D01*
X020958Y018541D01*
G37*
G36*
X021181Y018318D02*
X021319Y018180D01*
X020903Y017764D01*
X020765Y017902D01*
X021181Y018318D01*
G37*
G36*
X021404Y018095D02*
X021542Y017957D01*
X021126Y017541D01*
X020988Y017679D01*
X021404Y018095D01*
G37*
G36*
X021626Y017873D02*
X021764Y017735D01*
X021348Y017319D01*
X021210Y017457D01*
X021626Y017873D01*
G37*
G36*
X021849Y017650D02*
X021987Y017512D01*
X021571Y017096D01*
X021433Y017234D01*
X021849Y017650D01*
G37*
G36*
X022072Y017427D02*
X022210Y017289D01*
X021794Y016873D01*
X021656Y017011D01*
X022072Y017427D01*
G37*
G36*
X022294Y017205D02*
X022432Y017067D01*
X022016Y016651D01*
X021878Y016789D01*
X022294Y017205D01*
G37*
G36*
X022517Y016982D02*
X022655Y016844D01*
X022239Y016428D01*
X022101Y016566D01*
X022517Y016982D01*
G37*
G36*
X018620Y014421D02*
X018758Y014283D01*
X018342Y013867D01*
X018204Y014005D01*
X018620Y014421D01*
G37*
G36*
X018397Y014643D02*
X018535Y014505D01*
X018119Y014089D01*
X017981Y014227D01*
X018397Y014643D01*
G37*
G36*
X018174Y014866D02*
X018312Y014728D01*
X017896Y014312D01*
X017758Y014450D01*
X018174Y014866D01*
G37*
G36*
X017952Y015089D02*
X018090Y014951D01*
X017674Y014535D01*
X017536Y014673D01*
X017952Y015089D01*
G37*
G36*
X017729Y015312D02*
X017867Y015174D01*
X017451Y014758D01*
X017313Y014896D01*
X017729Y015312D01*
G37*
G36*
X017506Y015534D02*
X017644Y015396D01*
X017228Y014980D01*
X017090Y015118D01*
X017506Y015534D01*
G37*
G36*
X017284Y015757D02*
X017422Y015619D01*
X017006Y015203D01*
X016868Y015341D01*
X017284Y015757D01*
G37*
G36*
X017061Y015980D02*
X017199Y015842D01*
X016783Y015426D01*
X016645Y015564D01*
X017061Y015980D01*
G37*
G36*
X018842Y014198D02*
X018980Y014060D01*
X018564Y013644D01*
X018426Y013782D01*
X018842Y014198D01*
G37*
G36*
X019065Y013975D02*
X019203Y013837D01*
X018787Y013421D01*
X018649Y013559D01*
X019065Y013975D01*
G37*
G36*
X019288Y013753D02*
X019426Y013615D01*
X019010Y013199D01*
X018872Y013337D01*
X019288Y013753D01*
G37*
D27*
X004150Y017204D03*
X003150Y017204D03*
X003650Y017954D03*
X003150Y019204D03*
X003650Y019954D03*
X004150Y019204D03*
X004150Y021204D03*
X003650Y021954D03*
X003150Y021204D03*
X003150Y023204D03*
X004150Y023204D03*
X003650Y023954D03*
D28*
X008626Y022454D03*
X008626Y021954D03*
X008626Y021454D03*
X008626Y020954D03*
X008626Y020454D03*
X008626Y019954D03*
X008626Y019454D03*
X008626Y018954D03*
X010674Y018954D03*
X010674Y019454D03*
X010674Y019954D03*
X010674Y020454D03*
X010674Y020954D03*
X010674Y021454D03*
X010674Y021954D03*
X010674Y022454D03*
D29*
X026837Y023604D03*
X027663Y023604D03*
D30*
X027450Y024204D02*
X029650Y024204D01*
X029700Y023254D02*
X029650Y023204D01*
X029650Y021454D01*
X027200Y021454D01*
X027150Y021404D01*
X027150Y020754D01*
X026900Y020754D01*
X026850Y020704D01*
X020024Y020704D01*
X021600Y018554D02*
X026000Y018554D01*
X026650Y019204D01*
X027150Y019204D01*
X027150Y020404D01*
X026850Y020704D01*
X026650Y021204D02*
X026650Y021554D01*
X026400Y021804D01*
X026400Y023554D01*
X025250Y024704D01*
X018900Y024704D01*
X018400Y025204D01*
X017400Y025204D02*
X017350Y025204D01*
X015250Y023104D01*
X015024Y023204D01*
X015050Y023254D01*
X014200Y024104D01*
X012000Y024104D01*
X010900Y025204D01*
X009900Y025204D01*
X008600Y024004D02*
X008600Y022504D01*
X008626Y022454D01*
X008650Y022454D01*
X008650Y022004D01*
X008626Y021954D01*
X008650Y021954D01*
X008650Y021504D01*
X008626Y021454D01*
X008650Y021454D01*
X008650Y021004D01*
X008626Y020954D01*
X008650Y020954D01*
X008650Y020504D01*
X008626Y020454D01*
X008650Y020454D01*
X008650Y020004D01*
X008626Y019954D01*
X008650Y019954D01*
X008650Y019504D01*
X008626Y019454D01*
X008650Y019454D01*
X008650Y018954D01*
X008626Y018954D01*
X008700Y018904D01*
X008700Y018554D01*
X009200Y018054D01*
X010600Y018054D01*
X011300Y018754D01*
X013250Y018754D01*
X013400Y018904D01*
X013440Y018954D01*
X013450Y018954D01*
X013450Y019454D01*
X013440Y019454D01*
X017250Y018304D02*
X018000Y018304D01*
X018250Y018054D01*
X018258Y018041D01*
X018050Y017804D02*
X018035Y017818D01*
X018050Y017804D02*
X018300Y017554D01*
X020550Y017554D01*
X021000Y018004D01*
X021042Y018041D01*
X021100Y018054D01*
X021600Y018554D01*
X021265Y017818D02*
X020700Y017254D01*
X020400Y017254D01*
X020400Y015004D01*
X021000Y014404D01*
X021042Y014366D01*
X021100Y014354D01*
X021300Y014154D01*
X021300Y013204D01*
X020750Y012654D01*
X017800Y012654D01*
X017075Y013379D01*
X017100Y013404D01*
X017075Y013379D02*
X016250Y014204D01*
X015650Y013604D01*
X015650Y013578D01*
X015650Y012830D02*
X014476Y012830D01*
X013600Y011954D01*
X012850Y011954D01*
X012850Y010504D01*
X013150Y010204D01*
X013650Y010204D01*
X014150Y010704D01*
X017150Y010704D01*
X017650Y010204D01*
X020950Y010204D01*
X021000Y010154D01*
X022850Y012004D01*
X021750Y013104D01*
X021750Y014104D01*
X021265Y014589D01*
X021487Y014812D02*
X022050Y014249D01*
X022050Y013504D01*
X022732Y012821D01*
X022732Y012786D01*
X023150Y013204D02*
X023650Y012704D01*
X023650Y012404D01*
X023700Y012354D01*
X025650Y012354D01*
X025650Y012330D01*
X025700Y012404D01*
X031600Y012404D01*
X031650Y012330D01*
X031650Y012354D01*
X031800Y012504D01*
X034150Y012504D01*
X034150Y012544D01*
X033650Y010804D02*
X031900Y010804D01*
X031700Y011004D01*
X031650Y011078D01*
X031650Y011054D01*
X031450Y010854D01*
X030150Y010854D01*
X029900Y010604D01*
X029900Y010274D01*
X029900Y009954D01*
X029600Y009654D01*
X027400Y009654D01*
X027400Y010274D01*
X030400Y010304D02*
X030400Y010274D01*
X030400Y010304D02*
X031650Y010304D01*
X031650Y010330D01*
X031700Y010254D01*
X035200Y006754D01*
X035200Y006704D01*
X034900Y006704D01*
X034400Y006204D01*
X028900Y006204D01*
X028400Y006704D01*
X027400Y006704D01*
X026900Y006204D01*
X021400Y006204D01*
X020900Y006704D01*
X019900Y006704D01*
X019400Y006204D01*
X016650Y006204D01*
X016650Y006904D01*
X016650Y006204D02*
X013900Y006204D01*
X013400Y006704D01*
X012400Y006704D01*
X011900Y006204D01*
X006400Y006204D01*
X005900Y006704D01*
X004900Y006704D01*
X005400Y005704D02*
X005900Y005204D01*
X012400Y005204D01*
X012900Y005704D01*
X008524Y008078D02*
X008150Y007704D01*
X008524Y008078D02*
X008524Y009204D01*
X007811Y011991D02*
X007599Y012204D01*
X006650Y012204D01*
X007811Y011991D02*
X007850Y012004D01*
X010450Y012004D01*
X010489Y011991D01*
X010550Y011954D01*
X012850Y011954D01*
X015650Y012804D02*
X015650Y012830D01*
X016250Y014204D02*
X016600Y014554D01*
X017550Y014554D01*
X017800Y014804D01*
X017813Y014812D01*
X018035Y014589D02*
X018300Y014854D01*
X018300Y015854D01*
X017450Y015854D01*
X017100Y016204D01*
X005150Y016204D01*
X004150Y017204D01*
X001150Y020704D02*
X001150Y021704D01*
X001150Y022704D01*
X001150Y023704D01*
X001200Y023754D01*
X001200Y027004D01*
X031850Y027004D01*
X033450Y025404D01*
X034450Y025404D01*
X034900Y024954D01*
X034900Y022704D01*
X033650Y022704D01*
X032200Y023254D02*
X031100Y023254D01*
X031100Y023204D01*
X034650Y019654D01*
X034650Y019634D01*
X032200Y023254D02*
X033650Y024704D01*
X031100Y023254D02*
X029700Y023254D01*
X029650Y021454D02*
X029650Y020704D01*
X027150Y021404D02*
X026900Y021654D01*
X026900Y022804D01*
X026876Y022804D01*
X026800Y023554D02*
X026400Y023554D01*
X026800Y023554D02*
X026837Y023604D01*
X026850Y023604D01*
X027450Y024204D01*
X028150Y028704D02*
X026650Y028704D01*
X025150Y028704D01*
X023650Y028704D01*
X023650Y029704D02*
X025150Y029704D01*
X026650Y029704D01*
X028150Y029704D01*
X029650Y029704D01*
X031150Y029704D01*
X031150Y028704D02*
X029650Y028704D01*
X028150Y028704D01*
X031150Y028704D02*
X033650Y028704D01*
X017900Y026204D02*
X017400Y026704D01*
X010900Y026704D01*
X010400Y026204D01*
X011000Y023804D02*
X013650Y023804D01*
X014250Y023204D01*
X014276Y023204D01*
X015024Y023204D02*
X015050Y023204D01*
X015800Y022454D01*
X015860Y022454D01*
X021710Y015035D02*
X022441Y014304D01*
X022850Y014304D01*
X023532Y013621D01*
X023568Y013621D01*
X023650Y012404D02*
X023250Y012004D01*
X022850Y012004D01*
X021000Y010154D02*
X020650Y009804D01*
X020650Y009204D01*
X020400Y005704D02*
X020900Y005204D01*
X027400Y005204D01*
X027900Y005704D01*
X033650Y010804D02*
X034650Y009804D01*
X034650Y009774D01*
X035200Y006704D02*
X035900Y006704D01*
X003400Y025204D02*
X002400Y025204D01*
D31*
X008600Y024004D03*
X011000Y023804D03*
X017250Y018304D03*
X017100Y013404D03*
X016650Y006904D03*
X008150Y007704D03*
X006650Y012204D03*
D32*
X007811Y010416D02*
X007850Y010404D01*
X010450Y010404D01*
X010489Y010416D01*
X010500Y010404D01*
X011150Y009754D01*
X016050Y009754D01*
X016075Y009779D01*
X016100Y009754D01*
X019400Y009754D01*
X019450Y009804D01*
X020800Y011204D02*
X017650Y011204D01*
X017100Y011654D02*
X018400Y011654D01*
X018700Y012004D02*
X016450Y012004D01*
X015650Y011204D01*
X016650Y011204D02*
X017100Y011654D01*
X017600Y012304D02*
X017550Y012354D01*
X017600Y012304D02*
X021400Y012304D01*
X021900Y012304D02*
X020800Y011204D01*
X020600Y013054D02*
X020200Y013454D01*
X020151Y013476D01*
X020350Y013704D02*
X020374Y013698D01*
X020350Y013704D02*
X019950Y014104D01*
X019500Y014104D01*
X019300Y014304D01*
X019300Y017154D01*
X020000Y017154D01*
X018850Y017154D02*
X018250Y017154D01*
X017850Y017554D01*
X017813Y017596D01*
X017590Y017373D02*
X017550Y017404D01*
X017350Y017604D01*
X008000Y017604D01*
X008000Y021754D01*
X006050Y023704D01*
X006024Y023704D01*
X005276Y023704D02*
X005250Y023704D01*
X005000Y023954D01*
X003650Y023954D01*
X004200Y024754D02*
X003950Y025004D01*
X003950Y025754D01*
X004450Y025754D01*
X004900Y026204D01*
X004850Y025654D02*
X011450Y025654D01*
X011900Y025204D01*
X011900Y025254D01*
X012300Y025654D01*
X018950Y025654D01*
X019400Y025204D01*
X015950Y021904D02*
X023050Y021904D01*
X022750Y021554D02*
X016550Y021554D01*
X016350Y021254D02*
X016100Y021254D01*
X015900Y021454D01*
X015860Y021454D01*
X015650Y021154D02*
X015150Y021154D01*
X014800Y021504D01*
X014800Y022004D02*
X013950Y021154D01*
X013650Y021154D01*
X013450Y020954D01*
X013440Y020954D01*
X013440Y020454D02*
X014050Y020454D01*
X014450Y020854D01*
X015400Y020254D02*
X014000Y018854D01*
X014000Y018354D01*
X011250Y018354D01*
X010700Y017804D01*
X008900Y017804D01*
X008750Y017954D01*
X009350Y018454D02*
X009350Y019904D01*
X010200Y020754D01*
X010450Y020754D01*
X010650Y020954D01*
X010674Y020954D01*
X010900Y021254D02*
X012500Y021254D01*
X012750Y021654D02*
X013200Y021654D01*
X013400Y021454D01*
X013440Y021454D01*
X013440Y021954D02*
X013450Y021954D01*
X013650Y022154D01*
X014050Y022154D01*
X014500Y022604D01*
X013440Y022454D02*
X013400Y022454D01*
X013200Y022254D01*
X012750Y022254D01*
X011400Y022154D02*
X010900Y022154D01*
X010700Y021954D01*
X010674Y021954D01*
X010674Y021454D02*
X010700Y021454D01*
X010900Y021254D01*
X010700Y020454D02*
X010674Y020454D01*
X010700Y020454D02*
X010900Y020254D01*
X011400Y020254D01*
X011400Y019754D02*
X010900Y019754D01*
X010700Y019954D01*
X010674Y019954D01*
X010700Y019454D02*
X010674Y019454D01*
X010700Y019454D02*
X010900Y019254D01*
X011400Y019254D01*
X010674Y018954D02*
X009700Y018954D01*
X007300Y020454D02*
X007300Y017404D01*
X017100Y017404D01*
X017350Y017154D01*
X017367Y017150D01*
X017145Y016928D02*
X017100Y016954D01*
X016900Y017154D01*
X007050Y017154D01*
X007050Y017454D01*
X006350Y018154D01*
X006050Y018154D01*
X006050Y019704D01*
X006024Y019704D01*
X005276Y019704D02*
X005250Y019704D01*
X005000Y019954D01*
X003650Y019954D01*
X003150Y019204D02*
X001650Y017704D01*
X001150Y017704D01*
X001150Y016704D02*
X002650Y016704D01*
X003150Y017204D01*
X003650Y017954D02*
X005000Y017954D01*
X005250Y017704D01*
X005276Y017704D01*
X006024Y017704D02*
X006050Y017704D01*
X007000Y016754D01*
X016900Y016754D01*
X016922Y016705D01*
X017950Y016254D02*
X018550Y016254D01*
X018550Y014654D01*
X018300Y014404D01*
X018258Y014366D01*
X018481Y014144D02*
X018450Y014104D01*
X018250Y013904D01*
X018000Y013904D01*
X017750Y014154D01*
X016850Y014154D01*
X017350Y014804D02*
X007750Y014804D01*
X001150Y008204D01*
X001150Y009204D02*
X006950Y015004D01*
X017100Y015004D01*
X017350Y015254D01*
X017367Y015257D01*
X017550Y015004D02*
X017590Y015035D01*
X017550Y015004D02*
X017350Y014804D01*
X016850Y015204D02*
X006150Y015204D01*
X001150Y010204D01*
X001150Y011204D02*
X005500Y015554D01*
X016800Y015554D01*
X016900Y015654D01*
X016922Y015703D01*
X017100Y015454D02*
X017145Y015480D01*
X017100Y015454D02*
X016850Y015204D01*
X018500Y013704D02*
X018700Y013904D01*
X018703Y013921D01*
X018500Y013704D02*
X017700Y013704D01*
X018050Y013054D02*
X018700Y013054D01*
X019100Y013454D01*
X019149Y013476D01*
X018950Y013704D02*
X018926Y013698D01*
X018950Y013704D02*
X019200Y013954D01*
X019350Y013954D01*
X019700Y013604D01*
X019700Y013304D01*
X019750Y013304D01*
X020600Y013904D02*
X020597Y013921D01*
X020600Y013904D02*
X020900Y013604D01*
X020900Y013404D01*
X020819Y014144D02*
X020800Y014154D01*
X020500Y014454D01*
X019650Y014454D01*
X021000Y016454D02*
X022100Y016454D01*
X022350Y016704D01*
X022378Y016705D01*
X022200Y016954D02*
X022155Y016928D01*
X022200Y016954D02*
X022400Y017154D01*
X025250Y017154D01*
X024700Y017604D02*
X022400Y017604D01*
X021950Y017154D01*
X021933Y017150D01*
X021750Y017404D02*
X021710Y017373D01*
X021750Y017404D02*
X022300Y017954D01*
X026750Y017954D01*
X026450Y018154D02*
X028800Y020504D01*
X026650Y020204D02*
X026200Y019754D01*
X020400Y019754D01*
X020050Y019404D02*
X025450Y019404D01*
X025650Y019204D01*
X025650Y020204D02*
X021450Y020204D01*
X021350Y020104D01*
X020650Y021104D02*
X020750Y021204D01*
X025650Y021204D01*
X027624Y022804D02*
X027650Y022804D01*
X027650Y023604D01*
X027663Y023604D01*
X022050Y018954D02*
X020600Y018954D01*
X020400Y018754D01*
X020374Y018709D01*
X020151Y018932D02*
X020150Y018954D01*
X020050Y019054D01*
X019400Y019054D01*
X018950Y019504D01*
X018750Y019504D01*
X018900Y019154D02*
X018500Y019154D01*
X018200Y019454D01*
X017700Y019454D02*
X017200Y019954D01*
X015860Y019954D01*
X015650Y020254D02*
X015400Y020254D01*
X015650Y020254D02*
X015850Y020454D01*
X015860Y020454D01*
X015850Y020954D02*
X015860Y020954D01*
X015850Y020954D02*
X015650Y021154D01*
X016350Y021254D02*
X016550Y021054D01*
X015950Y021904D02*
X015900Y021954D01*
X015860Y021954D01*
X015860Y019454D02*
X016400Y019454D01*
X016550Y019304D01*
X015860Y018954D02*
X017700Y018954D01*
X017850Y018604D02*
X017450Y018604D01*
X017400Y018654D01*
X014600Y018654D01*
X013900Y017954D01*
X017850Y018604D02*
X018200Y018954D01*
X018700Y018954D01*
X018900Y018754D01*
X018926Y018709D01*
X019100Y018954D02*
X019149Y018932D01*
X019100Y018954D02*
X018900Y019154D01*
X019100Y020104D02*
X019100Y020704D01*
X019276Y020704D01*
X022050Y018154D02*
X026450Y018154D01*
X028026Y015704D02*
X028050Y015704D01*
X028050Y014704D01*
X028100Y014704D01*
X028400Y014404D01*
X028400Y014134D01*
X028800Y014154D02*
X028900Y014154D01*
X028900Y014134D01*
X028800Y014154D02*
X028800Y015704D01*
X028774Y015704D01*
X029750Y015704D02*
X029750Y014704D01*
X029700Y014704D01*
X029400Y014404D01*
X029400Y014134D01*
X029900Y014134D02*
X029900Y013854D01*
X030200Y013554D01*
X031200Y013554D01*
X031650Y013104D01*
X031650Y013078D01*
X030500Y014154D02*
X030400Y014154D01*
X030400Y014134D01*
X030500Y014154D02*
X030500Y015704D01*
X030524Y015704D01*
X029776Y015704D02*
X029750Y015704D01*
X027900Y014134D02*
X027900Y013854D01*
X027600Y013554D01*
X026100Y013554D01*
X025650Y013104D01*
X025650Y013078D01*
X024800Y012954D02*
X022700Y015054D01*
X022600Y015054D01*
X022200Y015454D01*
X022155Y015480D01*
X021950Y015254D02*
X021933Y015257D01*
X021950Y015254D02*
X022500Y014704D01*
X022550Y014704D01*
X022400Y015704D02*
X022378Y015703D01*
X022400Y015704D02*
X022600Y015904D01*
X022750Y015904D01*
X021500Y017604D02*
X021487Y017596D01*
X021500Y017604D02*
X022050Y018154D01*
X018700Y012004D02*
X018750Y011954D01*
X016075Y009779D02*
X015650Y010204D01*
X013200Y009404D02*
X015100Y007504D01*
X025250Y007504D01*
X025950Y007154D02*
X019350Y007154D01*
X018900Y006704D01*
X018900Y006754D01*
X018400Y007254D01*
X011900Y007254D01*
X011400Y006754D01*
X011400Y006704D01*
X010950Y007154D01*
X004350Y007154D01*
X003900Y006704D01*
X007776Y009204D02*
X007800Y009204D01*
X007800Y010404D01*
X007811Y010416D01*
X007300Y020454D02*
X006050Y021704D01*
X006024Y021704D01*
X005276Y021704D02*
X005250Y021704D01*
X005000Y021954D01*
X003650Y021954D01*
X004200Y024754D02*
X008350Y024754D01*
X010650Y022454D01*
X010674Y022454D01*
X004850Y025654D02*
X004400Y025204D01*
X023650Y009204D02*
X025500Y011054D01*
X028400Y011054D01*
X028400Y010274D01*
X027900Y010274D02*
X027900Y010854D01*
X026300Y010854D01*
X024650Y009204D01*
X025950Y007154D02*
X025975Y007129D01*
X026000Y007154D01*
X033450Y007154D01*
X033900Y006704D01*
X029400Y010274D02*
X029400Y011704D01*
X034450Y011704D01*
X035600Y012854D01*
X035600Y015754D01*
X034150Y015754D01*
X034150Y015784D01*
X034150Y014704D02*
X034600Y014704D01*
X034600Y012354D01*
X034150Y011904D01*
X028900Y011904D01*
X028900Y010274D01*
X025975Y007129D02*
X026400Y006704D01*
D33*
X025250Y007504D03*
X019450Y009804D03*
X018400Y011654D03*
X018750Y011954D03*
X017550Y012354D03*
X018050Y013054D03*
X017700Y013704D03*
X016850Y014154D03*
X017950Y016254D03*
X018850Y017154D03*
X020000Y017154D03*
X021000Y016454D03*
X022750Y015904D03*
X022550Y014704D03*
X020900Y013404D03*
X020600Y013054D03*
X019750Y013304D03*
X019650Y014454D03*
X021400Y012304D03*
X021900Y012304D03*
X024800Y012954D03*
X025250Y017154D03*
X024700Y017604D03*
X026750Y017954D03*
X028800Y020504D03*
X023050Y021904D03*
X022750Y021554D03*
X021350Y020104D03*
X020400Y019754D03*
X020050Y019404D03*
X019100Y020104D03*
X018750Y019504D03*
X018200Y019454D03*
X017700Y019454D03*
X017700Y018954D03*
X016550Y019304D03*
X016550Y021054D03*
X016550Y021554D03*
X014800Y021504D03*
X014800Y022004D03*
X014500Y022604D03*
X012750Y022254D03*
X012750Y021654D03*
X012500Y021254D03*
X011400Y022154D03*
X011400Y020254D03*
X011400Y019754D03*
X011400Y019254D03*
X009700Y018954D03*
X009350Y018454D03*
X008750Y017954D03*
X013900Y017954D03*
X014450Y020854D03*
X020650Y021104D03*
X022050Y018954D03*
X013200Y009404D03*
M02*
