%
M48
M72
T01C0.0197
T02C0.0236
T03C0.0320
T04C0.0354
T05C0.0400
T06C0.0630
T07C0.0984
T08C0.1280
T09C0.1300
T10C0.1575
%
T01
X13200Y9404
X17550Y12354
X18050Y13054
X17700Y13704
X16850Y14154
X17950Y16254
X18850Y17154
X20000Y17154
X21000Y16454
X22750Y15904
X22550Y14704
X20900Y13404
X20600Y13054
X19750Y13304
X19650Y14454
X21400Y12304
X21900Y12304
X24800Y12954
X25250Y17154
X24700Y17604
X26750Y17954
X28800Y20504
X23050Y21904
X22750Y21554
X21350Y20104
X20400Y19754
X20050Y19404
X19100Y20104
X18750Y19504
X18200Y19454
X17700Y19454
X17700Y18954
X16550Y19304
X16550Y21054
X16550Y21554
X14800Y21504
X14800Y22004
X14500Y22604
X12750Y22254
X12750Y21654
X12500Y21254
X11400Y22154
X11400Y20254
X11400Y19754
X11400Y19254
X9700Y18954
X9350Y18454
X8750Y17954
X13900Y17954
X14450Y20854
X20650Y21104
X22050Y18954
X18750Y11954
X18400Y11654
X19450Y9804
X25250Y7504
T02
X11000Y23804
X8600Y24004
X17250Y18304
X17100Y13404
X16650Y6904
X8150Y7704
X6650Y12204
T03
X29650Y24204
X29650Y23204
X29650Y20704
X29650Y19704
X4150Y23204
X3150Y23204
X3650Y23954
X3650Y21954
X3150Y21204
X4150Y21204
X3650Y19954
X3150Y19204
X4150Y19204
X3650Y17954
X3150Y17204
X4150Y17204
T04
X35400Y5704
X34400Y5704
X33400Y5704
X32400Y5704
X32900Y6704
X33900Y6704
X34900Y6704
X35900Y6704
X27900Y5704
X26900Y5704
X25900Y5704
X24900Y5704
X25400Y6704
X26400Y6704
X27400Y6704
X28400Y6704
X20400Y5704
X19400Y5704
X18400Y5704
X17400Y5704
X17900Y6704
X18900Y6704
X19900Y6704
X20900Y6704
X12900Y5704
X11900Y5704
X10900Y5704
X9900Y5704
X10400Y6704
X11400Y6704
X12400Y6704
X13400Y6704
X5400Y5704
X4400Y5704
X3400Y5704
X2400Y5704
X2900Y6704
X3900Y6704
X4900Y6704
X5900Y6704
X2400Y25204
X3400Y25204
X4400Y25204
X5400Y25204
X4900Y26204
X3900Y26204
X2900Y26204
X5900Y26204
X10400Y26204
X11400Y26204
X12400Y26204
X13400Y26204
X12900Y25204
X11900Y25204
X10900Y25204
X9900Y25204
X17900Y26204
X18900Y26204
X19900Y26204
X20900Y26204
X20400Y25204
X19400Y25204
X18400Y25204
X17400Y25204
T05
X23650Y28704
X23650Y27704
X25150Y27704
X25150Y28704
X26650Y28704
X26650Y27704
X28150Y27704
X28150Y28704
X29650Y28704
X29650Y27704
X31150Y27704
X31150Y28704
X31150Y29704
X29650Y29704
X28150Y29704
X26650Y29704
X25150Y29704
X23650Y29704
X34150Y16864
X34150Y15784
X34150Y14704
X35150Y15244
X35150Y14164
X35150Y13084
X34150Y13624
X34150Y12544
X35150Y16324
X26650Y19204
X25650Y19204
X25650Y20204
X26650Y20204
X26650Y21204
X25650Y21204
X17650Y11204
X16650Y11204
X15650Y11204
X14650Y11204
X13650Y11204
X13650Y10204
X14650Y10204
X15650Y10204
X16650Y10204
X17650Y10204
X20650Y9204
X21650Y9204
X22650Y9204
X23650Y9204
X24650Y9204
X25650Y9204
X1150Y8204
X1150Y9204
X1150Y10204
X1150Y11204
X1150Y12204
X1150Y13204
X1150Y14204
X1150Y15204
X1150Y16704
X1150Y17704
X1150Y18704
X1150Y19704
X1150Y20704
X1150Y21704
X1150Y22704
X1150Y23704
T06
X33650Y28704
X33650Y26704
X33650Y24704
X33650Y22704
T07
X34650Y29704
X34650Y21704
T08
X1900Y28704
X6400Y28704
X9400Y28704
X13900Y28704
X16900Y28704
X21400Y28704
X36400Y3204
X31900Y3204
X28900Y3204
X24400Y3204
X21400Y3204
X16900Y3204
X13900Y3204
X9400Y3204
X6400Y3204
X1900Y3204
T09
X34650Y19634
X34650Y9774
T10
X37650Y27704
X37650Y23704
M30
