G75*
%MOIN*%
%OFA0B0*%
%FSLAX24Y24*%
%IPPOS*%
%LPD*%
%AMOC8*
5,1,8,0,0,1.08239X$1,22.5*
%
%ADD10C,0.0000*%
%ADD11C,0.0160*%
%ADD12C,0.0110*%
%ADD13C,0.0140*%
%ADD14C,0.0150*%
%ADD15C,0.0050*%
%ADD16C,0.0040*%
%ADD17C,0.0060*%
%ADD18C,0.0080*%
%ADD19C,0.0020*%
%ADD20C,0.0004*%
%ADD21R,0.0502X0.0450*%
%ADD22R,0.0492X0.0450*%
%ADD23C,0.0100*%
%ADD24R,0.0079X0.0079*%
%ADD25R,0.0450X0.0502*%
%ADD26R,0.0450X0.0492*%
D10*
X000487Y001704D02*
X000487Y031200D01*
X039357Y031200D01*
X039357Y001704D01*
X000487Y001704D01*
X001597Y003204D02*
X001599Y003254D01*
X001605Y003304D01*
X001615Y003353D01*
X001628Y003402D01*
X001646Y003449D01*
X001667Y003495D01*
X001691Y003538D01*
X001719Y003580D01*
X001750Y003620D01*
X001784Y003657D01*
X001821Y003691D01*
X001861Y003722D01*
X001903Y003750D01*
X001946Y003774D01*
X001992Y003795D01*
X002039Y003813D01*
X002088Y003826D01*
X002137Y003836D01*
X002187Y003842D01*
X002237Y003844D01*
X002287Y003842D01*
X002337Y003836D01*
X002386Y003826D01*
X002435Y003813D01*
X002482Y003795D01*
X002528Y003774D01*
X002571Y003750D01*
X002613Y003722D01*
X002653Y003691D01*
X002690Y003657D01*
X002724Y003620D01*
X002755Y003580D01*
X002783Y003538D01*
X002807Y003495D01*
X002828Y003449D01*
X002846Y003402D01*
X002859Y003353D01*
X002869Y003304D01*
X002875Y003254D01*
X002877Y003204D01*
X002875Y003154D01*
X002869Y003104D01*
X002859Y003055D01*
X002846Y003006D01*
X002828Y002959D01*
X002807Y002913D01*
X002783Y002870D01*
X002755Y002828D01*
X002724Y002788D01*
X002690Y002751D01*
X002653Y002717D01*
X002613Y002686D01*
X002571Y002658D01*
X002528Y002634D01*
X002482Y002613D01*
X002435Y002595D01*
X002386Y002582D01*
X002337Y002572D01*
X002287Y002566D01*
X002237Y002564D01*
X002187Y002566D01*
X002137Y002572D01*
X002088Y002582D01*
X002039Y002595D01*
X001992Y002613D01*
X001946Y002634D01*
X001903Y002658D01*
X001861Y002686D01*
X001821Y002717D01*
X001784Y002751D01*
X001750Y002788D01*
X001719Y002828D01*
X001691Y002870D01*
X001667Y002913D01*
X001646Y002959D01*
X001628Y003006D01*
X001615Y003055D01*
X001605Y003104D01*
X001599Y003154D01*
X001597Y003204D01*
X006097Y003204D02*
X006099Y003254D01*
X006105Y003304D01*
X006115Y003353D01*
X006128Y003402D01*
X006146Y003449D01*
X006167Y003495D01*
X006191Y003538D01*
X006219Y003580D01*
X006250Y003620D01*
X006284Y003657D01*
X006321Y003691D01*
X006361Y003722D01*
X006403Y003750D01*
X006446Y003774D01*
X006492Y003795D01*
X006539Y003813D01*
X006588Y003826D01*
X006637Y003836D01*
X006687Y003842D01*
X006737Y003844D01*
X006787Y003842D01*
X006837Y003836D01*
X006886Y003826D01*
X006935Y003813D01*
X006982Y003795D01*
X007028Y003774D01*
X007071Y003750D01*
X007113Y003722D01*
X007153Y003691D01*
X007190Y003657D01*
X007224Y003620D01*
X007255Y003580D01*
X007283Y003538D01*
X007307Y003495D01*
X007328Y003449D01*
X007346Y003402D01*
X007359Y003353D01*
X007369Y003304D01*
X007375Y003254D01*
X007377Y003204D01*
X007375Y003154D01*
X007369Y003104D01*
X007359Y003055D01*
X007346Y003006D01*
X007328Y002959D01*
X007307Y002913D01*
X007283Y002870D01*
X007255Y002828D01*
X007224Y002788D01*
X007190Y002751D01*
X007153Y002717D01*
X007113Y002686D01*
X007071Y002658D01*
X007028Y002634D01*
X006982Y002613D01*
X006935Y002595D01*
X006886Y002582D01*
X006837Y002572D01*
X006787Y002566D01*
X006737Y002564D01*
X006687Y002566D01*
X006637Y002572D01*
X006588Y002582D01*
X006539Y002595D01*
X006492Y002613D01*
X006446Y002634D01*
X006403Y002658D01*
X006361Y002686D01*
X006321Y002717D01*
X006284Y002751D01*
X006250Y002788D01*
X006219Y002828D01*
X006191Y002870D01*
X006167Y002913D01*
X006146Y002959D01*
X006128Y003006D01*
X006115Y003055D01*
X006105Y003104D01*
X006099Y003154D01*
X006097Y003204D01*
X009097Y003204D02*
X009099Y003254D01*
X009105Y003304D01*
X009115Y003353D01*
X009128Y003402D01*
X009146Y003449D01*
X009167Y003495D01*
X009191Y003538D01*
X009219Y003580D01*
X009250Y003620D01*
X009284Y003657D01*
X009321Y003691D01*
X009361Y003722D01*
X009403Y003750D01*
X009446Y003774D01*
X009492Y003795D01*
X009539Y003813D01*
X009588Y003826D01*
X009637Y003836D01*
X009687Y003842D01*
X009737Y003844D01*
X009787Y003842D01*
X009837Y003836D01*
X009886Y003826D01*
X009935Y003813D01*
X009982Y003795D01*
X010028Y003774D01*
X010071Y003750D01*
X010113Y003722D01*
X010153Y003691D01*
X010190Y003657D01*
X010224Y003620D01*
X010255Y003580D01*
X010283Y003538D01*
X010307Y003495D01*
X010328Y003449D01*
X010346Y003402D01*
X010359Y003353D01*
X010369Y003304D01*
X010375Y003254D01*
X010377Y003204D01*
X010375Y003154D01*
X010369Y003104D01*
X010359Y003055D01*
X010346Y003006D01*
X010328Y002959D01*
X010307Y002913D01*
X010283Y002870D01*
X010255Y002828D01*
X010224Y002788D01*
X010190Y002751D01*
X010153Y002717D01*
X010113Y002686D01*
X010071Y002658D01*
X010028Y002634D01*
X009982Y002613D01*
X009935Y002595D01*
X009886Y002582D01*
X009837Y002572D01*
X009787Y002566D01*
X009737Y002564D01*
X009687Y002566D01*
X009637Y002572D01*
X009588Y002582D01*
X009539Y002595D01*
X009492Y002613D01*
X009446Y002634D01*
X009403Y002658D01*
X009361Y002686D01*
X009321Y002717D01*
X009284Y002751D01*
X009250Y002788D01*
X009219Y002828D01*
X009191Y002870D01*
X009167Y002913D01*
X009146Y002959D01*
X009128Y003006D01*
X009115Y003055D01*
X009105Y003104D01*
X009099Y003154D01*
X009097Y003204D01*
X013597Y003204D02*
X013599Y003254D01*
X013605Y003304D01*
X013615Y003353D01*
X013628Y003402D01*
X013646Y003449D01*
X013667Y003495D01*
X013691Y003538D01*
X013719Y003580D01*
X013750Y003620D01*
X013784Y003657D01*
X013821Y003691D01*
X013861Y003722D01*
X013903Y003750D01*
X013946Y003774D01*
X013992Y003795D01*
X014039Y003813D01*
X014088Y003826D01*
X014137Y003836D01*
X014187Y003842D01*
X014237Y003844D01*
X014287Y003842D01*
X014337Y003836D01*
X014386Y003826D01*
X014435Y003813D01*
X014482Y003795D01*
X014528Y003774D01*
X014571Y003750D01*
X014613Y003722D01*
X014653Y003691D01*
X014690Y003657D01*
X014724Y003620D01*
X014755Y003580D01*
X014783Y003538D01*
X014807Y003495D01*
X014828Y003449D01*
X014846Y003402D01*
X014859Y003353D01*
X014869Y003304D01*
X014875Y003254D01*
X014877Y003204D01*
X014875Y003154D01*
X014869Y003104D01*
X014859Y003055D01*
X014846Y003006D01*
X014828Y002959D01*
X014807Y002913D01*
X014783Y002870D01*
X014755Y002828D01*
X014724Y002788D01*
X014690Y002751D01*
X014653Y002717D01*
X014613Y002686D01*
X014571Y002658D01*
X014528Y002634D01*
X014482Y002613D01*
X014435Y002595D01*
X014386Y002582D01*
X014337Y002572D01*
X014287Y002566D01*
X014237Y002564D01*
X014187Y002566D01*
X014137Y002572D01*
X014088Y002582D01*
X014039Y002595D01*
X013992Y002613D01*
X013946Y002634D01*
X013903Y002658D01*
X013861Y002686D01*
X013821Y002717D01*
X013784Y002751D01*
X013750Y002788D01*
X013719Y002828D01*
X013691Y002870D01*
X013667Y002913D01*
X013646Y002959D01*
X013628Y003006D01*
X013615Y003055D01*
X013605Y003104D01*
X013599Y003154D01*
X013597Y003204D01*
X016597Y003204D02*
X016599Y003254D01*
X016605Y003304D01*
X016615Y003353D01*
X016628Y003402D01*
X016646Y003449D01*
X016667Y003495D01*
X016691Y003538D01*
X016719Y003580D01*
X016750Y003620D01*
X016784Y003657D01*
X016821Y003691D01*
X016861Y003722D01*
X016903Y003750D01*
X016946Y003774D01*
X016992Y003795D01*
X017039Y003813D01*
X017088Y003826D01*
X017137Y003836D01*
X017187Y003842D01*
X017237Y003844D01*
X017287Y003842D01*
X017337Y003836D01*
X017386Y003826D01*
X017435Y003813D01*
X017482Y003795D01*
X017528Y003774D01*
X017571Y003750D01*
X017613Y003722D01*
X017653Y003691D01*
X017690Y003657D01*
X017724Y003620D01*
X017755Y003580D01*
X017783Y003538D01*
X017807Y003495D01*
X017828Y003449D01*
X017846Y003402D01*
X017859Y003353D01*
X017869Y003304D01*
X017875Y003254D01*
X017877Y003204D01*
X017875Y003154D01*
X017869Y003104D01*
X017859Y003055D01*
X017846Y003006D01*
X017828Y002959D01*
X017807Y002913D01*
X017783Y002870D01*
X017755Y002828D01*
X017724Y002788D01*
X017690Y002751D01*
X017653Y002717D01*
X017613Y002686D01*
X017571Y002658D01*
X017528Y002634D01*
X017482Y002613D01*
X017435Y002595D01*
X017386Y002582D01*
X017337Y002572D01*
X017287Y002566D01*
X017237Y002564D01*
X017187Y002566D01*
X017137Y002572D01*
X017088Y002582D01*
X017039Y002595D01*
X016992Y002613D01*
X016946Y002634D01*
X016903Y002658D01*
X016861Y002686D01*
X016821Y002717D01*
X016784Y002751D01*
X016750Y002788D01*
X016719Y002828D01*
X016691Y002870D01*
X016667Y002913D01*
X016646Y002959D01*
X016628Y003006D01*
X016615Y003055D01*
X016605Y003104D01*
X016599Y003154D01*
X016597Y003204D01*
X021097Y003204D02*
X021099Y003254D01*
X021105Y003304D01*
X021115Y003353D01*
X021128Y003402D01*
X021146Y003449D01*
X021167Y003495D01*
X021191Y003538D01*
X021219Y003580D01*
X021250Y003620D01*
X021284Y003657D01*
X021321Y003691D01*
X021361Y003722D01*
X021403Y003750D01*
X021446Y003774D01*
X021492Y003795D01*
X021539Y003813D01*
X021588Y003826D01*
X021637Y003836D01*
X021687Y003842D01*
X021737Y003844D01*
X021787Y003842D01*
X021837Y003836D01*
X021886Y003826D01*
X021935Y003813D01*
X021982Y003795D01*
X022028Y003774D01*
X022071Y003750D01*
X022113Y003722D01*
X022153Y003691D01*
X022190Y003657D01*
X022224Y003620D01*
X022255Y003580D01*
X022283Y003538D01*
X022307Y003495D01*
X022328Y003449D01*
X022346Y003402D01*
X022359Y003353D01*
X022369Y003304D01*
X022375Y003254D01*
X022377Y003204D01*
X022375Y003154D01*
X022369Y003104D01*
X022359Y003055D01*
X022346Y003006D01*
X022328Y002959D01*
X022307Y002913D01*
X022283Y002870D01*
X022255Y002828D01*
X022224Y002788D01*
X022190Y002751D01*
X022153Y002717D01*
X022113Y002686D01*
X022071Y002658D01*
X022028Y002634D01*
X021982Y002613D01*
X021935Y002595D01*
X021886Y002582D01*
X021837Y002572D01*
X021787Y002566D01*
X021737Y002564D01*
X021687Y002566D01*
X021637Y002572D01*
X021588Y002582D01*
X021539Y002595D01*
X021492Y002613D01*
X021446Y002634D01*
X021403Y002658D01*
X021361Y002686D01*
X021321Y002717D01*
X021284Y002751D01*
X021250Y002788D01*
X021219Y002828D01*
X021191Y002870D01*
X021167Y002913D01*
X021146Y002959D01*
X021128Y003006D01*
X021115Y003055D01*
X021105Y003104D01*
X021099Y003154D01*
X021097Y003204D01*
X024097Y003204D02*
X024099Y003254D01*
X024105Y003304D01*
X024115Y003353D01*
X024128Y003402D01*
X024146Y003449D01*
X024167Y003495D01*
X024191Y003538D01*
X024219Y003580D01*
X024250Y003620D01*
X024284Y003657D01*
X024321Y003691D01*
X024361Y003722D01*
X024403Y003750D01*
X024446Y003774D01*
X024492Y003795D01*
X024539Y003813D01*
X024588Y003826D01*
X024637Y003836D01*
X024687Y003842D01*
X024737Y003844D01*
X024787Y003842D01*
X024837Y003836D01*
X024886Y003826D01*
X024935Y003813D01*
X024982Y003795D01*
X025028Y003774D01*
X025071Y003750D01*
X025113Y003722D01*
X025153Y003691D01*
X025190Y003657D01*
X025224Y003620D01*
X025255Y003580D01*
X025283Y003538D01*
X025307Y003495D01*
X025328Y003449D01*
X025346Y003402D01*
X025359Y003353D01*
X025369Y003304D01*
X025375Y003254D01*
X025377Y003204D01*
X025375Y003154D01*
X025369Y003104D01*
X025359Y003055D01*
X025346Y003006D01*
X025328Y002959D01*
X025307Y002913D01*
X025283Y002870D01*
X025255Y002828D01*
X025224Y002788D01*
X025190Y002751D01*
X025153Y002717D01*
X025113Y002686D01*
X025071Y002658D01*
X025028Y002634D01*
X024982Y002613D01*
X024935Y002595D01*
X024886Y002582D01*
X024837Y002572D01*
X024787Y002566D01*
X024737Y002564D01*
X024687Y002566D01*
X024637Y002572D01*
X024588Y002582D01*
X024539Y002595D01*
X024492Y002613D01*
X024446Y002634D01*
X024403Y002658D01*
X024361Y002686D01*
X024321Y002717D01*
X024284Y002751D01*
X024250Y002788D01*
X024219Y002828D01*
X024191Y002870D01*
X024167Y002913D01*
X024146Y002959D01*
X024128Y003006D01*
X024115Y003055D01*
X024105Y003104D01*
X024099Y003154D01*
X024097Y003204D01*
X028597Y003204D02*
X028599Y003254D01*
X028605Y003304D01*
X028615Y003353D01*
X028628Y003402D01*
X028646Y003449D01*
X028667Y003495D01*
X028691Y003538D01*
X028719Y003580D01*
X028750Y003620D01*
X028784Y003657D01*
X028821Y003691D01*
X028861Y003722D01*
X028903Y003750D01*
X028946Y003774D01*
X028992Y003795D01*
X029039Y003813D01*
X029088Y003826D01*
X029137Y003836D01*
X029187Y003842D01*
X029237Y003844D01*
X029287Y003842D01*
X029337Y003836D01*
X029386Y003826D01*
X029435Y003813D01*
X029482Y003795D01*
X029528Y003774D01*
X029571Y003750D01*
X029613Y003722D01*
X029653Y003691D01*
X029690Y003657D01*
X029724Y003620D01*
X029755Y003580D01*
X029783Y003538D01*
X029807Y003495D01*
X029828Y003449D01*
X029846Y003402D01*
X029859Y003353D01*
X029869Y003304D01*
X029875Y003254D01*
X029877Y003204D01*
X029875Y003154D01*
X029869Y003104D01*
X029859Y003055D01*
X029846Y003006D01*
X029828Y002959D01*
X029807Y002913D01*
X029783Y002870D01*
X029755Y002828D01*
X029724Y002788D01*
X029690Y002751D01*
X029653Y002717D01*
X029613Y002686D01*
X029571Y002658D01*
X029528Y002634D01*
X029482Y002613D01*
X029435Y002595D01*
X029386Y002582D01*
X029337Y002572D01*
X029287Y002566D01*
X029237Y002564D01*
X029187Y002566D01*
X029137Y002572D01*
X029088Y002582D01*
X029039Y002595D01*
X028992Y002613D01*
X028946Y002634D01*
X028903Y002658D01*
X028861Y002686D01*
X028821Y002717D01*
X028784Y002751D01*
X028750Y002788D01*
X028719Y002828D01*
X028691Y002870D01*
X028667Y002913D01*
X028646Y002959D01*
X028628Y003006D01*
X028615Y003055D01*
X028605Y003104D01*
X028599Y003154D01*
X028597Y003204D01*
X031597Y003204D02*
X031599Y003254D01*
X031605Y003304D01*
X031615Y003353D01*
X031628Y003402D01*
X031646Y003449D01*
X031667Y003495D01*
X031691Y003538D01*
X031719Y003580D01*
X031750Y003620D01*
X031784Y003657D01*
X031821Y003691D01*
X031861Y003722D01*
X031903Y003750D01*
X031946Y003774D01*
X031992Y003795D01*
X032039Y003813D01*
X032088Y003826D01*
X032137Y003836D01*
X032187Y003842D01*
X032237Y003844D01*
X032287Y003842D01*
X032337Y003836D01*
X032386Y003826D01*
X032435Y003813D01*
X032482Y003795D01*
X032528Y003774D01*
X032571Y003750D01*
X032613Y003722D01*
X032653Y003691D01*
X032690Y003657D01*
X032724Y003620D01*
X032755Y003580D01*
X032783Y003538D01*
X032807Y003495D01*
X032828Y003449D01*
X032846Y003402D01*
X032859Y003353D01*
X032869Y003304D01*
X032875Y003254D01*
X032877Y003204D01*
X032875Y003154D01*
X032869Y003104D01*
X032859Y003055D01*
X032846Y003006D01*
X032828Y002959D01*
X032807Y002913D01*
X032783Y002870D01*
X032755Y002828D01*
X032724Y002788D01*
X032690Y002751D01*
X032653Y002717D01*
X032613Y002686D01*
X032571Y002658D01*
X032528Y002634D01*
X032482Y002613D01*
X032435Y002595D01*
X032386Y002582D01*
X032337Y002572D01*
X032287Y002566D01*
X032237Y002564D01*
X032187Y002566D01*
X032137Y002572D01*
X032088Y002582D01*
X032039Y002595D01*
X031992Y002613D01*
X031946Y002634D01*
X031903Y002658D01*
X031861Y002686D01*
X031821Y002717D01*
X031784Y002751D01*
X031750Y002788D01*
X031719Y002828D01*
X031691Y002870D01*
X031667Y002913D01*
X031646Y002959D01*
X031628Y003006D01*
X031615Y003055D01*
X031605Y003104D01*
X031599Y003154D01*
X031597Y003204D01*
X036097Y003204D02*
X036099Y003254D01*
X036105Y003304D01*
X036115Y003353D01*
X036128Y003402D01*
X036146Y003449D01*
X036167Y003495D01*
X036191Y003538D01*
X036219Y003580D01*
X036250Y003620D01*
X036284Y003657D01*
X036321Y003691D01*
X036361Y003722D01*
X036403Y003750D01*
X036446Y003774D01*
X036492Y003795D01*
X036539Y003813D01*
X036588Y003826D01*
X036637Y003836D01*
X036687Y003842D01*
X036737Y003844D01*
X036787Y003842D01*
X036837Y003836D01*
X036886Y003826D01*
X036935Y003813D01*
X036982Y003795D01*
X037028Y003774D01*
X037071Y003750D01*
X037113Y003722D01*
X037153Y003691D01*
X037190Y003657D01*
X037224Y003620D01*
X037255Y003580D01*
X037283Y003538D01*
X037307Y003495D01*
X037328Y003449D01*
X037346Y003402D01*
X037359Y003353D01*
X037369Y003304D01*
X037375Y003254D01*
X037377Y003204D01*
X037375Y003154D01*
X037369Y003104D01*
X037359Y003055D01*
X037346Y003006D01*
X037328Y002959D01*
X037307Y002913D01*
X037283Y002870D01*
X037255Y002828D01*
X037224Y002788D01*
X037190Y002751D01*
X037153Y002717D01*
X037113Y002686D01*
X037071Y002658D01*
X037028Y002634D01*
X036982Y002613D01*
X036935Y002595D01*
X036886Y002582D01*
X036837Y002572D01*
X036787Y002566D01*
X036737Y002564D01*
X036687Y002566D01*
X036637Y002572D01*
X036588Y002582D01*
X036539Y002595D01*
X036492Y002613D01*
X036446Y002634D01*
X036403Y002658D01*
X036361Y002686D01*
X036321Y002717D01*
X036284Y002751D01*
X036250Y002788D01*
X036219Y002828D01*
X036191Y002870D01*
X036167Y002913D01*
X036146Y002959D01*
X036128Y003006D01*
X036115Y003055D01*
X036105Y003104D01*
X036099Y003154D01*
X036097Y003204D01*
X037347Y013954D02*
X037349Y014004D01*
X037355Y014054D01*
X037365Y014103D01*
X037378Y014152D01*
X037396Y014199D01*
X037417Y014245D01*
X037441Y014288D01*
X037469Y014330D01*
X037500Y014370D01*
X037534Y014407D01*
X037571Y014441D01*
X037611Y014472D01*
X037653Y014500D01*
X037696Y014524D01*
X037742Y014545D01*
X037789Y014563D01*
X037838Y014576D01*
X037887Y014586D01*
X037937Y014592D01*
X037987Y014594D01*
X038037Y014592D01*
X038087Y014586D01*
X038136Y014576D01*
X038185Y014563D01*
X038232Y014545D01*
X038278Y014524D01*
X038321Y014500D01*
X038363Y014472D01*
X038403Y014441D01*
X038440Y014407D01*
X038474Y014370D01*
X038505Y014330D01*
X038533Y014288D01*
X038557Y014245D01*
X038578Y014199D01*
X038596Y014152D01*
X038609Y014103D01*
X038619Y014054D01*
X038625Y014004D01*
X038627Y013954D01*
X038625Y013904D01*
X038619Y013854D01*
X038609Y013805D01*
X038596Y013756D01*
X038578Y013709D01*
X038557Y013663D01*
X038533Y013620D01*
X038505Y013578D01*
X038474Y013538D01*
X038440Y013501D01*
X038403Y013467D01*
X038363Y013436D01*
X038321Y013408D01*
X038278Y013384D01*
X038232Y013363D01*
X038185Y013345D01*
X038136Y013332D01*
X038087Y013322D01*
X038037Y013316D01*
X037987Y013314D01*
X037937Y013316D01*
X037887Y013322D01*
X037838Y013332D01*
X037789Y013345D01*
X037742Y013363D01*
X037696Y013384D01*
X037653Y013408D01*
X037611Y013436D01*
X037571Y013467D01*
X037534Y013501D01*
X037500Y013538D01*
X037469Y013578D01*
X037441Y013620D01*
X037417Y013663D01*
X037396Y013709D01*
X037378Y013756D01*
X037365Y013805D01*
X037355Y013854D01*
X037349Y013904D01*
X037347Y013954D01*
X037347Y018454D02*
X037349Y018504D01*
X037355Y018554D01*
X037365Y018603D01*
X037378Y018652D01*
X037396Y018699D01*
X037417Y018745D01*
X037441Y018788D01*
X037469Y018830D01*
X037500Y018870D01*
X037534Y018907D01*
X037571Y018941D01*
X037611Y018972D01*
X037653Y019000D01*
X037696Y019024D01*
X037742Y019045D01*
X037789Y019063D01*
X037838Y019076D01*
X037887Y019086D01*
X037937Y019092D01*
X037987Y019094D01*
X038037Y019092D01*
X038087Y019086D01*
X038136Y019076D01*
X038185Y019063D01*
X038232Y019045D01*
X038278Y019024D01*
X038321Y019000D01*
X038363Y018972D01*
X038403Y018941D01*
X038440Y018907D01*
X038474Y018870D01*
X038505Y018830D01*
X038533Y018788D01*
X038557Y018745D01*
X038578Y018699D01*
X038596Y018652D01*
X038609Y018603D01*
X038619Y018554D01*
X038625Y018504D01*
X038627Y018454D01*
X038625Y018404D01*
X038619Y018354D01*
X038609Y018305D01*
X038596Y018256D01*
X038578Y018209D01*
X038557Y018163D01*
X038533Y018120D01*
X038505Y018078D01*
X038474Y018038D01*
X038440Y018001D01*
X038403Y017967D01*
X038363Y017936D01*
X038321Y017908D01*
X038278Y017884D01*
X038232Y017863D01*
X038185Y017845D01*
X038136Y017832D01*
X038087Y017822D01*
X038037Y017816D01*
X037987Y017814D01*
X037937Y017816D01*
X037887Y017822D01*
X037838Y017832D01*
X037789Y017845D01*
X037742Y017863D01*
X037696Y017884D01*
X037653Y017908D01*
X037611Y017936D01*
X037571Y017967D01*
X037534Y018001D01*
X037500Y018038D01*
X037469Y018078D01*
X037441Y018120D01*
X037417Y018163D01*
X037396Y018209D01*
X037378Y018256D01*
X037365Y018305D01*
X037355Y018354D01*
X037349Y018404D01*
X037347Y018454D01*
X034495Y022204D02*
X034497Y022248D01*
X034503Y022292D01*
X034513Y022335D01*
X034526Y022377D01*
X034544Y022417D01*
X034565Y022456D01*
X034589Y022493D01*
X034616Y022528D01*
X034647Y022560D01*
X034680Y022589D01*
X034716Y022615D01*
X034754Y022637D01*
X034794Y022656D01*
X034835Y022672D01*
X034878Y022684D01*
X034921Y022692D01*
X034965Y022696D01*
X035009Y022696D01*
X035053Y022692D01*
X035096Y022684D01*
X035139Y022672D01*
X035180Y022656D01*
X035220Y022637D01*
X035258Y022615D01*
X035294Y022589D01*
X035327Y022560D01*
X035358Y022528D01*
X035385Y022493D01*
X035409Y022456D01*
X035430Y022417D01*
X035448Y022377D01*
X035461Y022335D01*
X035471Y022292D01*
X035477Y022248D01*
X035479Y022204D01*
X035477Y022160D01*
X035471Y022116D01*
X035461Y022073D01*
X035448Y022031D01*
X035430Y021991D01*
X035409Y021952D01*
X035385Y021915D01*
X035358Y021880D01*
X035327Y021848D01*
X035294Y021819D01*
X035258Y021793D01*
X035220Y021771D01*
X035180Y021752D01*
X035139Y021736D01*
X035096Y021724D01*
X035053Y021716D01*
X035009Y021712D01*
X034965Y021712D01*
X034921Y021716D01*
X034878Y021724D01*
X034835Y021736D01*
X034794Y021752D01*
X034754Y021771D01*
X034716Y021793D01*
X034680Y021819D01*
X034647Y021848D01*
X034616Y021880D01*
X034589Y021915D01*
X034565Y021952D01*
X034544Y021991D01*
X034526Y022031D01*
X034513Y022073D01*
X034503Y022116D01*
X034497Y022160D01*
X034495Y022204D01*
X037200Y024204D02*
X037202Y024260D01*
X037208Y024315D01*
X037218Y024369D01*
X037231Y024423D01*
X037249Y024476D01*
X037270Y024527D01*
X037294Y024577D01*
X037322Y024625D01*
X037354Y024671D01*
X037388Y024715D01*
X037426Y024756D01*
X037466Y024794D01*
X037509Y024829D01*
X037554Y024861D01*
X037602Y024890D01*
X037651Y024916D01*
X037702Y024938D01*
X037754Y024956D01*
X037808Y024970D01*
X037863Y024981D01*
X037918Y024988D01*
X037973Y024991D01*
X038029Y024990D01*
X038084Y024985D01*
X038139Y024976D01*
X038193Y024964D01*
X038246Y024947D01*
X038298Y024927D01*
X038348Y024903D01*
X038396Y024876D01*
X038443Y024846D01*
X038487Y024812D01*
X038529Y024775D01*
X038567Y024735D01*
X038604Y024693D01*
X038637Y024648D01*
X038666Y024602D01*
X038693Y024553D01*
X038715Y024502D01*
X038735Y024450D01*
X038750Y024396D01*
X038762Y024342D01*
X038770Y024287D01*
X038774Y024232D01*
X038774Y024176D01*
X038770Y024121D01*
X038762Y024066D01*
X038750Y024012D01*
X038735Y023958D01*
X038715Y023906D01*
X038693Y023855D01*
X038666Y023806D01*
X038637Y023760D01*
X038604Y023715D01*
X038567Y023673D01*
X038529Y023633D01*
X038487Y023596D01*
X038443Y023562D01*
X038396Y023532D01*
X038348Y023505D01*
X038298Y023481D01*
X038246Y023461D01*
X038193Y023444D01*
X038139Y023432D01*
X038084Y023423D01*
X038029Y023418D01*
X037973Y023417D01*
X037918Y023420D01*
X037863Y023427D01*
X037808Y023438D01*
X037754Y023452D01*
X037702Y023470D01*
X037651Y023492D01*
X037602Y023518D01*
X037554Y023547D01*
X037509Y023579D01*
X037466Y023614D01*
X037426Y023652D01*
X037388Y023693D01*
X037354Y023737D01*
X037322Y023783D01*
X037294Y023831D01*
X037270Y023881D01*
X037249Y023932D01*
X037231Y023985D01*
X037218Y024039D01*
X037208Y024093D01*
X037202Y024148D01*
X037200Y024204D01*
X037200Y028204D02*
X037202Y028260D01*
X037208Y028315D01*
X037218Y028369D01*
X037231Y028423D01*
X037249Y028476D01*
X037270Y028527D01*
X037294Y028577D01*
X037322Y028625D01*
X037354Y028671D01*
X037388Y028715D01*
X037426Y028756D01*
X037466Y028794D01*
X037509Y028829D01*
X037554Y028861D01*
X037602Y028890D01*
X037651Y028916D01*
X037702Y028938D01*
X037754Y028956D01*
X037808Y028970D01*
X037863Y028981D01*
X037918Y028988D01*
X037973Y028991D01*
X038029Y028990D01*
X038084Y028985D01*
X038139Y028976D01*
X038193Y028964D01*
X038246Y028947D01*
X038298Y028927D01*
X038348Y028903D01*
X038396Y028876D01*
X038443Y028846D01*
X038487Y028812D01*
X038529Y028775D01*
X038567Y028735D01*
X038604Y028693D01*
X038637Y028648D01*
X038666Y028602D01*
X038693Y028553D01*
X038715Y028502D01*
X038735Y028450D01*
X038750Y028396D01*
X038762Y028342D01*
X038770Y028287D01*
X038774Y028232D01*
X038774Y028176D01*
X038770Y028121D01*
X038762Y028066D01*
X038750Y028012D01*
X038735Y027958D01*
X038715Y027906D01*
X038693Y027855D01*
X038666Y027806D01*
X038637Y027760D01*
X038604Y027715D01*
X038567Y027673D01*
X038529Y027633D01*
X038487Y027596D01*
X038443Y027562D01*
X038396Y027532D01*
X038348Y027505D01*
X038298Y027481D01*
X038246Y027461D01*
X038193Y027444D01*
X038139Y027432D01*
X038084Y027423D01*
X038029Y027418D01*
X037973Y027417D01*
X037918Y027420D01*
X037863Y027427D01*
X037808Y027438D01*
X037754Y027452D01*
X037702Y027470D01*
X037651Y027492D01*
X037602Y027518D01*
X037554Y027547D01*
X037509Y027579D01*
X037466Y027614D01*
X037426Y027652D01*
X037388Y027693D01*
X037354Y027737D01*
X037322Y027783D01*
X037294Y027831D01*
X037270Y027881D01*
X037249Y027932D01*
X037231Y027985D01*
X037218Y028039D01*
X037208Y028093D01*
X037202Y028148D01*
X037200Y028204D01*
X034495Y030204D02*
X034497Y030248D01*
X034503Y030292D01*
X034513Y030335D01*
X034526Y030377D01*
X034544Y030417D01*
X034565Y030456D01*
X034589Y030493D01*
X034616Y030528D01*
X034647Y030560D01*
X034680Y030589D01*
X034716Y030615D01*
X034754Y030637D01*
X034794Y030656D01*
X034835Y030672D01*
X034878Y030684D01*
X034921Y030692D01*
X034965Y030696D01*
X035009Y030696D01*
X035053Y030692D01*
X035096Y030684D01*
X035139Y030672D01*
X035180Y030656D01*
X035220Y030637D01*
X035258Y030615D01*
X035294Y030589D01*
X035327Y030560D01*
X035358Y030528D01*
X035385Y030493D01*
X035409Y030456D01*
X035430Y030417D01*
X035448Y030377D01*
X035461Y030335D01*
X035471Y030292D01*
X035477Y030248D01*
X035479Y030204D01*
X035477Y030160D01*
X035471Y030116D01*
X035461Y030073D01*
X035448Y030031D01*
X035430Y029991D01*
X035409Y029952D01*
X035385Y029915D01*
X035358Y029880D01*
X035327Y029848D01*
X035294Y029819D01*
X035258Y029793D01*
X035220Y029771D01*
X035180Y029752D01*
X035139Y029736D01*
X035096Y029724D01*
X035053Y029716D01*
X035009Y029712D01*
X034965Y029712D01*
X034921Y029716D01*
X034878Y029724D01*
X034835Y029736D01*
X034794Y029752D01*
X034754Y029771D01*
X034716Y029793D01*
X034680Y029819D01*
X034647Y029848D01*
X034616Y029880D01*
X034589Y029915D01*
X034565Y029952D01*
X034544Y029991D01*
X034526Y030031D01*
X034513Y030073D01*
X034503Y030116D01*
X034497Y030160D01*
X034495Y030204D01*
X021097Y029704D02*
X021099Y029754D01*
X021105Y029804D01*
X021115Y029853D01*
X021128Y029902D01*
X021146Y029949D01*
X021167Y029995D01*
X021191Y030038D01*
X021219Y030080D01*
X021250Y030120D01*
X021284Y030157D01*
X021321Y030191D01*
X021361Y030222D01*
X021403Y030250D01*
X021446Y030274D01*
X021492Y030295D01*
X021539Y030313D01*
X021588Y030326D01*
X021637Y030336D01*
X021687Y030342D01*
X021737Y030344D01*
X021787Y030342D01*
X021837Y030336D01*
X021886Y030326D01*
X021935Y030313D01*
X021982Y030295D01*
X022028Y030274D01*
X022071Y030250D01*
X022113Y030222D01*
X022153Y030191D01*
X022190Y030157D01*
X022224Y030120D01*
X022255Y030080D01*
X022283Y030038D01*
X022307Y029995D01*
X022328Y029949D01*
X022346Y029902D01*
X022359Y029853D01*
X022369Y029804D01*
X022375Y029754D01*
X022377Y029704D01*
X022375Y029654D01*
X022369Y029604D01*
X022359Y029555D01*
X022346Y029506D01*
X022328Y029459D01*
X022307Y029413D01*
X022283Y029370D01*
X022255Y029328D01*
X022224Y029288D01*
X022190Y029251D01*
X022153Y029217D01*
X022113Y029186D01*
X022071Y029158D01*
X022028Y029134D01*
X021982Y029113D01*
X021935Y029095D01*
X021886Y029082D01*
X021837Y029072D01*
X021787Y029066D01*
X021737Y029064D01*
X021687Y029066D01*
X021637Y029072D01*
X021588Y029082D01*
X021539Y029095D01*
X021492Y029113D01*
X021446Y029134D01*
X021403Y029158D01*
X021361Y029186D01*
X021321Y029217D01*
X021284Y029251D01*
X021250Y029288D01*
X021219Y029328D01*
X021191Y029370D01*
X021167Y029413D01*
X021146Y029459D01*
X021128Y029506D01*
X021115Y029555D01*
X021105Y029604D01*
X021099Y029654D01*
X021097Y029704D01*
X016597Y029704D02*
X016599Y029754D01*
X016605Y029804D01*
X016615Y029853D01*
X016628Y029902D01*
X016646Y029949D01*
X016667Y029995D01*
X016691Y030038D01*
X016719Y030080D01*
X016750Y030120D01*
X016784Y030157D01*
X016821Y030191D01*
X016861Y030222D01*
X016903Y030250D01*
X016946Y030274D01*
X016992Y030295D01*
X017039Y030313D01*
X017088Y030326D01*
X017137Y030336D01*
X017187Y030342D01*
X017237Y030344D01*
X017287Y030342D01*
X017337Y030336D01*
X017386Y030326D01*
X017435Y030313D01*
X017482Y030295D01*
X017528Y030274D01*
X017571Y030250D01*
X017613Y030222D01*
X017653Y030191D01*
X017690Y030157D01*
X017724Y030120D01*
X017755Y030080D01*
X017783Y030038D01*
X017807Y029995D01*
X017828Y029949D01*
X017846Y029902D01*
X017859Y029853D01*
X017869Y029804D01*
X017875Y029754D01*
X017877Y029704D01*
X017875Y029654D01*
X017869Y029604D01*
X017859Y029555D01*
X017846Y029506D01*
X017828Y029459D01*
X017807Y029413D01*
X017783Y029370D01*
X017755Y029328D01*
X017724Y029288D01*
X017690Y029251D01*
X017653Y029217D01*
X017613Y029186D01*
X017571Y029158D01*
X017528Y029134D01*
X017482Y029113D01*
X017435Y029095D01*
X017386Y029082D01*
X017337Y029072D01*
X017287Y029066D01*
X017237Y029064D01*
X017187Y029066D01*
X017137Y029072D01*
X017088Y029082D01*
X017039Y029095D01*
X016992Y029113D01*
X016946Y029134D01*
X016903Y029158D01*
X016861Y029186D01*
X016821Y029217D01*
X016784Y029251D01*
X016750Y029288D01*
X016719Y029328D01*
X016691Y029370D01*
X016667Y029413D01*
X016646Y029459D01*
X016628Y029506D01*
X016615Y029555D01*
X016605Y029604D01*
X016599Y029654D01*
X016597Y029704D01*
X013597Y029704D02*
X013599Y029754D01*
X013605Y029804D01*
X013615Y029853D01*
X013628Y029902D01*
X013646Y029949D01*
X013667Y029995D01*
X013691Y030038D01*
X013719Y030080D01*
X013750Y030120D01*
X013784Y030157D01*
X013821Y030191D01*
X013861Y030222D01*
X013903Y030250D01*
X013946Y030274D01*
X013992Y030295D01*
X014039Y030313D01*
X014088Y030326D01*
X014137Y030336D01*
X014187Y030342D01*
X014237Y030344D01*
X014287Y030342D01*
X014337Y030336D01*
X014386Y030326D01*
X014435Y030313D01*
X014482Y030295D01*
X014528Y030274D01*
X014571Y030250D01*
X014613Y030222D01*
X014653Y030191D01*
X014690Y030157D01*
X014724Y030120D01*
X014755Y030080D01*
X014783Y030038D01*
X014807Y029995D01*
X014828Y029949D01*
X014846Y029902D01*
X014859Y029853D01*
X014869Y029804D01*
X014875Y029754D01*
X014877Y029704D01*
X014875Y029654D01*
X014869Y029604D01*
X014859Y029555D01*
X014846Y029506D01*
X014828Y029459D01*
X014807Y029413D01*
X014783Y029370D01*
X014755Y029328D01*
X014724Y029288D01*
X014690Y029251D01*
X014653Y029217D01*
X014613Y029186D01*
X014571Y029158D01*
X014528Y029134D01*
X014482Y029113D01*
X014435Y029095D01*
X014386Y029082D01*
X014337Y029072D01*
X014287Y029066D01*
X014237Y029064D01*
X014187Y029066D01*
X014137Y029072D01*
X014088Y029082D01*
X014039Y029095D01*
X013992Y029113D01*
X013946Y029134D01*
X013903Y029158D01*
X013861Y029186D01*
X013821Y029217D01*
X013784Y029251D01*
X013750Y029288D01*
X013719Y029328D01*
X013691Y029370D01*
X013667Y029413D01*
X013646Y029459D01*
X013628Y029506D01*
X013615Y029555D01*
X013605Y029604D01*
X013599Y029654D01*
X013597Y029704D01*
X009097Y029704D02*
X009099Y029754D01*
X009105Y029804D01*
X009115Y029853D01*
X009128Y029902D01*
X009146Y029949D01*
X009167Y029995D01*
X009191Y030038D01*
X009219Y030080D01*
X009250Y030120D01*
X009284Y030157D01*
X009321Y030191D01*
X009361Y030222D01*
X009403Y030250D01*
X009446Y030274D01*
X009492Y030295D01*
X009539Y030313D01*
X009588Y030326D01*
X009637Y030336D01*
X009687Y030342D01*
X009737Y030344D01*
X009787Y030342D01*
X009837Y030336D01*
X009886Y030326D01*
X009935Y030313D01*
X009982Y030295D01*
X010028Y030274D01*
X010071Y030250D01*
X010113Y030222D01*
X010153Y030191D01*
X010190Y030157D01*
X010224Y030120D01*
X010255Y030080D01*
X010283Y030038D01*
X010307Y029995D01*
X010328Y029949D01*
X010346Y029902D01*
X010359Y029853D01*
X010369Y029804D01*
X010375Y029754D01*
X010377Y029704D01*
X010375Y029654D01*
X010369Y029604D01*
X010359Y029555D01*
X010346Y029506D01*
X010328Y029459D01*
X010307Y029413D01*
X010283Y029370D01*
X010255Y029328D01*
X010224Y029288D01*
X010190Y029251D01*
X010153Y029217D01*
X010113Y029186D01*
X010071Y029158D01*
X010028Y029134D01*
X009982Y029113D01*
X009935Y029095D01*
X009886Y029082D01*
X009837Y029072D01*
X009787Y029066D01*
X009737Y029064D01*
X009687Y029066D01*
X009637Y029072D01*
X009588Y029082D01*
X009539Y029095D01*
X009492Y029113D01*
X009446Y029134D01*
X009403Y029158D01*
X009361Y029186D01*
X009321Y029217D01*
X009284Y029251D01*
X009250Y029288D01*
X009219Y029328D01*
X009191Y029370D01*
X009167Y029413D01*
X009146Y029459D01*
X009128Y029506D01*
X009115Y029555D01*
X009105Y029604D01*
X009099Y029654D01*
X009097Y029704D01*
X006097Y029704D02*
X006099Y029754D01*
X006105Y029804D01*
X006115Y029853D01*
X006128Y029902D01*
X006146Y029949D01*
X006167Y029995D01*
X006191Y030038D01*
X006219Y030080D01*
X006250Y030120D01*
X006284Y030157D01*
X006321Y030191D01*
X006361Y030222D01*
X006403Y030250D01*
X006446Y030274D01*
X006492Y030295D01*
X006539Y030313D01*
X006588Y030326D01*
X006637Y030336D01*
X006687Y030342D01*
X006737Y030344D01*
X006787Y030342D01*
X006837Y030336D01*
X006886Y030326D01*
X006935Y030313D01*
X006982Y030295D01*
X007028Y030274D01*
X007071Y030250D01*
X007113Y030222D01*
X007153Y030191D01*
X007190Y030157D01*
X007224Y030120D01*
X007255Y030080D01*
X007283Y030038D01*
X007307Y029995D01*
X007328Y029949D01*
X007346Y029902D01*
X007359Y029853D01*
X007369Y029804D01*
X007375Y029754D01*
X007377Y029704D01*
X007375Y029654D01*
X007369Y029604D01*
X007359Y029555D01*
X007346Y029506D01*
X007328Y029459D01*
X007307Y029413D01*
X007283Y029370D01*
X007255Y029328D01*
X007224Y029288D01*
X007190Y029251D01*
X007153Y029217D01*
X007113Y029186D01*
X007071Y029158D01*
X007028Y029134D01*
X006982Y029113D01*
X006935Y029095D01*
X006886Y029082D01*
X006837Y029072D01*
X006787Y029066D01*
X006737Y029064D01*
X006687Y029066D01*
X006637Y029072D01*
X006588Y029082D01*
X006539Y029095D01*
X006492Y029113D01*
X006446Y029134D01*
X006403Y029158D01*
X006361Y029186D01*
X006321Y029217D01*
X006284Y029251D01*
X006250Y029288D01*
X006219Y029328D01*
X006191Y029370D01*
X006167Y029413D01*
X006146Y029459D01*
X006128Y029506D01*
X006115Y029555D01*
X006105Y029604D01*
X006099Y029654D01*
X006097Y029704D01*
X001597Y029704D02*
X001599Y029754D01*
X001605Y029804D01*
X001615Y029853D01*
X001628Y029902D01*
X001646Y029949D01*
X001667Y029995D01*
X001691Y030038D01*
X001719Y030080D01*
X001750Y030120D01*
X001784Y030157D01*
X001821Y030191D01*
X001861Y030222D01*
X001903Y030250D01*
X001946Y030274D01*
X001992Y030295D01*
X002039Y030313D01*
X002088Y030326D01*
X002137Y030336D01*
X002187Y030342D01*
X002237Y030344D01*
X002287Y030342D01*
X002337Y030336D01*
X002386Y030326D01*
X002435Y030313D01*
X002482Y030295D01*
X002528Y030274D01*
X002571Y030250D01*
X002613Y030222D01*
X002653Y030191D01*
X002690Y030157D01*
X002724Y030120D01*
X002755Y030080D01*
X002783Y030038D01*
X002807Y029995D01*
X002828Y029949D01*
X002846Y029902D01*
X002859Y029853D01*
X002869Y029804D01*
X002875Y029754D01*
X002877Y029704D01*
X002875Y029654D01*
X002869Y029604D01*
X002859Y029555D01*
X002846Y029506D01*
X002828Y029459D01*
X002807Y029413D01*
X002783Y029370D01*
X002755Y029328D01*
X002724Y029288D01*
X002690Y029251D01*
X002653Y029217D01*
X002613Y029186D01*
X002571Y029158D01*
X002528Y029134D01*
X002482Y029113D01*
X002435Y029095D01*
X002386Y029082D01*
X002337Y029072D01*
X002287Y029066D01*
X002237Y029064D01*
X002187Y029066D01*
X002137Y029072D01*
X002088Y029082D01*
X002039Y029095D01*
X001992Y029113D01*
X001946Y029134D01*
X001903Y029158D01*
X001861Y029186D01*
X001821Y029217D01*
X001784Y029251D01*
X001750Y029288D01*
X001719Y029328D01*
X001691Y029370D01*
X001667Y029413D01*
X001646Y029459D01*
X001628Y029506D01*
X001615Y029555D01*
X001605Y029604D01*
X001599Y029654D01*
X001597Y029704D01*
D11*
X020346Y011704D02*
X020348Y011727D01*
X020354Y011750D01*
X020363Y011771D01*
X020376Y011791D01*
X020392Y011808D01*
X020410Y011822D01*
X020430Y011833D01*
X020452Y011841D01*
X020475Y011845D01*
X020499Y011845D01*
X020522Y011841D01*
X020544Y011833D01*
X020564Y011822D01*
X020582Y011808D01*
X020598Y011791D01*
X020611Y011771D01*
X020620Y011750D01*
X020626Y011727D01*
X020628Y011704D01*
X020626Y011681D01*
X020620Y011658D01*
X020611Y011637D01*
X020598Y011617D01*
X020582Y011600D01*
X020564Y011586D01*
X020544Y011575D01*
X020522Y011567D01*
X020499Y011563D01*
X020475Y011563D01*
X020452Y011567D01*
X020430Y011575D01*
X020410Y011586D01*
X020392Y011600D01*
X020376Y011617D01*
X020363Y011637D01*
X020354Y011658D01*
X020348Y011681D01*
X020346Y011704D01*
X025346Y022204D02*
X025348Y022227D01*
X025354Y022250D01*
X025363Y022271D01*
X025376Y022291D01*
X025392Y022308D01*
X025410Y022322D01*
X025430Y022333D01*
X025452Y022341D01*
X025475Y022345D01*
X025499Y022345D01*
X025522Y022341D01*
X025544Y022333D01*
X025564Y022322D01*
X025582Y022308D01*
X025598Y022291D01*
X025611Y022271D01*
X025620Y022250D01*
X025626Y022227D01*
X025628Y022204D01*
X025626Y022181D01*
X025620Y022158D01*
X025611Y022137D01*
X025598Y022117D01*
X025582Y022100D01*
X025564Y022086D01*
X025544Y022075D01*
X025522Y022067D01*
X025499Y022063D01*
X025475Y022063D01*
X025452Y022067D01*
X025430Y022075D01*
X025410Y022086D01*
X025392Y022100D01*
X025376Y022117D01*
X025363Y022137D01*
X025354Y022158D01*
X025348Y022181D01*
X025346Y022204D01*
D12*
X028490Y013999D02*
X028392Y013901D01*
X028392Y013507D01*
X028490Y013409D01*
X028687Y013409D01*
X028785Y013507D01*
X028785Y013704D01*
X028589Y013704D01*
X028785Y013901D02*
X028687Y013999D01*
X028490Y013999D01*
X029036Y013999D02*
X029331Y013999D01*
X029430Y013901D01*
X029430Y013704D01*
X029331Y013606D01*
X029036Y013606D01*
X029233Y013606D02*
X029430Y013409D01*
X029681Y013409D02*
X029681Y013999D01*
X030074Y013409D01*
X030074Y013999D01*
X029036Y013999D02*
X029036Y013409D01*
X029086Y008999D02*
X029086Y008409D01*
X029480Y008409D01*
X029731Y008409D02*
X029731Y008999D01*
X029829Y008704D02*
X030124Y008409D01*
X029731Y008606D02*
X030124Y008999D01*
X028835Y008901D02*
X028835Y008802D01*
X028737Y008704D01*
X028442Y008704D01*
X028737Y008704D02*
X028835Y008606D01*
X028835Y008507D01*
X028737Y008409D01*
X028442Y008409D01*
X028442Y008999D01*
X028737Y008999D01*
X028835Y008901D01*
X007360Y023251D02*
X007360Y023618D01*
X007268Y023709D01*
X006993Y023709D01*
X006993Y023159D01*
X007268Y023159D01*
X007360Y023251D01*
X006771Y023159D02*
X006588Y023159D01*
X006680Y023159D02*
X006680Y023709D01*
X006771Y023709D02*
X006588Y023709D01*
X006347Y023618D02*
X006255Y023709D01*
X006072Y023709D01*
X005980Y023618D01*
X005980Y023251D01*
X006072Y023159D01*
X006255Y023159D01*
X006347Y023251D01*
X006347Y023618D01*
X005740Y023709D02*
X005740Y023159D01*
X005373Y023709D01*
X005373Y023159D01*
X005132Y023159D02*
X004765Y023159D01*
X004765Y023709D01*
X005132Y023709D01*
X004948Y023434D02*
X004765Y023434D01*
X004524Y023159D02*
X004157Y023159D01*
X004157Y023709D01*
X003916Y023618D02*
X003825Y023709D01*
X003641Y023709D01*
X003549Y023618D01*
X003549Y023251D01*
X003641Y023159D01*
X003825Y023159D01*
X003916Y023251D01*
X003916Y023618D01*
X003309Y023618D02*
X003217Y023709D01*
X003033Y023709D01*
X002942Y023618D01*
X002942Y023526D01*
X003033Y023434D01*
X003217Y023434D01*
X003309Y023342D01*
X003309Y023251D01*
X003217Y023159D01*
X003033Y023159D01*
X002942Y023251D01*
X003342Y022726D02*
X003525Y022909D01*
X003525Y022359D01*
X003342Y022359D02*
X003709Y022359D01*
X003949Y022451D02*
X004041Y022359D01*
X004225Y022359D01*
X004316Y022451D01*
X004316Y022542D01*
X004225Y022634D01*
X004133Y022634D01*
X004225Y022634D02*
X004316Y022726D01*
X004316Y022818D01*
X004225Y022909D01*
X004041Y022909D01*
X003949Y022818D01*
X004041Y021909D02*
X003949Y021818D01*
X004041Y021909D02*
X004225Y021909D01*
X004316Y021818D01*
X004316Y021726D01*
X003949Y021359D01*
X004316Y021359D01*
X004133Y020909D02*
X004133Y020359D01*
X004316Y020359D02*
X003949Y020359D01*
X003709Y020359D02*
X003342Y020359D01*
X003525Y020359D02*
X003525Y020909D01*
X003342Y020726D01*
X003949Y020726D02*
X004133Y020909D01*
X003709Y021359D02*
X003342Y021359D01*
X003525Y021359D02*
X003525Y021909D01*
X003342Y021726D01*
X003525Y019909D02*
X003525Y019359D01*
X003342Y019359D02*
X003709Y019359D01*
X003949Y019451D02*
X004041Y019359D01*
X004225Y019359D01*
X004316Y019451D01*
X004316Y019818D01*
X003949Y019451D01*
X003949Y019818D01*
X004041Y019909D01*
X004225Y019909D01*
X004316Y019818D01*
X003525Y019909D02*
X003342Y019726D01*
X003433Y018909D02*
X003342Y018818D01*
X003342Y018726D01*
X003433Y018634D01*
X003709Y018634D01*
X003709Y018451D02*
X003709Y018818D01*
X003617Y018909D01*
X003433Y018909D01*
X003342Y018451D02*
X003433Y018359D01*
X003617Y018359D01*
X003709Y018451D01*
X003617Y017909D02*
X003709Y017818D01*
X003709Y017726D01*
X003617Y017634D01*
X003433Y017634D01*
X003342Y017726D01*
X003342Y017818D01*
X003433Y017909D01*
X003617Y017909D01*
X003617Y017634D02*
X003709Y017542D01*
X003709Y017451D01*
X003617Y017359D01*
X003433Y017359D01*
X003342Y017451D01*
X003342Y017542D01*
X003433Y017634D01*
X003342Y016909D02*
X003709Y016909D01*
X003709Y016818D01*
X003342Y016451D01*
X003342Y016359D01*
X003525Y015818D02*
X003342Y015634D01*
X003617Y015634D01*
X003709Y015542D01*
X003709Y015451D01*
X003617Y015359D01*
X003433Y015359D01*
X003342Y015451D01*
X003342Y015634D01*
X003525Y015818D02*
X003709Y015909D01*
X003709Y014909D02*
X003342Y014909D01*
X003342Y014634D01*
X003525Y014726D01*
X003617Y014726D01*
X003709Y014634D01*
X003709Y014451D01*
X003617Y014359D01*
X003433Y014359D01*
X003342Y014451D01*
X003617Y013909D02*
X003342Y013634D01*
X003709Y013634D01*
X003617Y013359D02*
X003617Y013909D01*
X003617Y012909D02*
X003709Y012818D01*
X003709Y012726D01*
X003617Y012634D01*
X003709Y012542D01*
X003709Y012451D01*
X003617Y012359D01*
X003433Y012359D01*
X003342Y012451D01*
X003525Y012634D02*
X003617Y012634D01*
X003617Y012909D02*
X003433Y012909D01*
X003342Y012818D01*
X003433Y011909D02*
X003342Y011818D01*
X003433Y011909D02*
X003617Y011909D01*
X003709Y011818D01*
X003709Y011726D01*
X003342Y011359D01*
X003709Y011359D01*
X003525Y011009D02*
X003525Y010459D01*
X003342Y010459D02*
X003709Y010459D01*
X003342Y010826D02*
X003525Y011009D01*
X003433Y009909D02*
X003617Y009909D01*
X003709Y009818D01*
X003342Y009451D01*
X003433Y009359D01*
X003617Y009359D01*
X003709Y009451D01*
X003709Y009818D01*
X003433Y009909D02*
X003342Y009818D01*
X003342Y009451D01*
D13*
X032257Y021754D02*
X032630Y021754D01*
X032443Y021941D02*
X032443Y021567D01*
X033546Y021754D02*
X033919Y021754D01*
D14*
X029456Y011988D02*
X029456Y011421D01*
X029598Y011279D01*
X029598Y011846D02*
X029314Y011846D01*
X028960Y011704D02*
X028960Y011279D01*
X028535Y011279D01*
X028393Y011421D01*
X028535Y011562D01*
X028960Y011562D01*
X028960Y011704D02*
X028819Y011846D01*
X028535Y011846D01*
X028063Y011846D02*
X027779Y011846D01*
X027921Y011988D02*
X027921Y011421D01*
X028063Y011279D01*
X027426Y011421D02*
X027284Y011562D01*
X027000Y011562D01*
X026859Y011704D01*
X027000Y011846D01*
X027426Y011846D01*
X027426Y011421D02*
X027284Y011279D01*
X026859Y011279D01*
X026505Y011421D02*
X026505Y011704D01*
X026363Y011846D01*
X026080Y011846D01*
X025938Y011704D01*
X025938Y011421D01*
X026080Y011279D01*
X026363Y011279D01*
X026505Y011421D01*
X026210Y010630D02*
X025926Y010630D01*
X025784Y010488D01*
X025784Y009921D01*
X026352Y010488D01*
X026352Y009921D01*
X026210Y009779D01*
X025926Y009779D01*
X025784Y009921D01*
X025466Y009921D02*
X025466Y009779D01*
X025324Y009779D01*
X025324Y009921D01*
X025466Y009921D01*
X024970Y009779D02*
X024403Y009779D01*
X024970Y010346D01*
X024970Y010488D01*
X024829Y010630D01*
X024545Y010630D01*
X024403Y010488D01*
X024522Y011279D02*
X024238Y011279D01*
X024096Y011421D01*
X024096Y011704D01*
X024238Y011846D01*
X024522Y011846D01*
X024663Y011704D01*
X024663Y011562D01*
X024096Y011562D01*
X023766Y011279D02*
X023482Y011279D01*
X023624Y011279D02*
X023624Y012130D01*
X023482Y012130D01*
X023129Y012130D02*
X022562Y012130D01*
X022562Y011279D01*
X022562Y011704D02*
X022845Y011704D01*
X022562Y010630D02*
X022562Y010062D01*
X022845Y009779D01*
X023129Y010062D01*
X023129Y010630D01*
X025017Y011279D02*
X025584Y011846D01*
X025017Y011846D02*
X025584Y011279D01*
X026210Y010630D02*
X026352Y010488D01*
D15*
X023292Y013452D02*
X023139Y013299D01*
X022582Y013856D01*
X022679Y013953D01*
X022763Y013870D01*
X022777Y013856D02*
X022999Y014079D01*
X022902Y014176D01*
X023097Y014371D01*
X023180Y014287D01*
X023097Y014371D02*
X023153Y014426D01*
X023152Y014426D02*
X023165Y014416D01*
X023180Y014408D01*
X023196Y014404D01*
X023212Y014403D01*
X023228Y014406D01*
X023244Y014412D01*
X023258Y014421D01*
X023269Y014432D01*
X023278Y014446D01*
X023284Y014462D01*
X023287Y014478D01*
X023286Y014494D01*
X023282Y014510D01*
X023274Y014525D01*
X023264Y014538D01*
X023320Y014594D01*
X023403Y014510D01*
X023320Y014594D02*
X023515Y014788D01*
X023598Y014705D01*
X023515Y014788D02*
X023570Y014844D01*
X023583Y014834D01*
X023598Y014826D01*
X023614Y014822D01*
X023630Y014821D01*
X023646Y014824D01*
X023662Y014830D01*
X023676Y014839D01*
X023687Y014850D01*
X023696Y014864D01*
X023702Y014880D01*
X023705Y014896D01*
X023704Y014912D01*
X023700Y014928D01*
X023692Y014943D01*
X023682Y014956D01*
X023682Y014955D02*
X023737Y015011D01*
X023821Y014928D01*
X023821Y014900D02*
X022999Y014079D01*
X022902Y014176D02*
X022846Y014120D01*
X022847Y014121D02*
X022857Y014108D01*
X022865Y014093D01*
X022869Y014077D01*
X022870Y014061D01*
X022867Y014045D01*
X022861Y014029D01*
X022852Y014015D01*
X022841Y014004D01*
X022827Y013995D01*
X022811Y013989D01*
X022795Y013986D01*
X022779Y013987D01*
X022763Y013991D01*
X022748Y013999D01*
X022735Y014009D01*
X022679Y013953D01*
X022777Y013856D02*
X022771Y013848D01*
X022767Y013838D01*
X022766Y013828D01*
X022767Y013818D01*
X022771Y013809D01*
X022777Y013800D01*
X023055Y013522D01*
X023055Y013521D02*
X023067Y013511D01*
X023081Y013504D01*
X023096Y013500D01*
X023111Y013498D01*
X023126Y013500D01*
X023141Y013504D01*
X023155Y013511D01*
X023167Y013521D01*
X023167Y013522D02*
X023556Y013911D01*
X023640Y013828D01*
X023709Y013870D02*
X023403Y013563D01*
X023403Y013564D02*
X023390Y013574D01*
X023375Y013582D01*
X023359Y013586D01*
X023343Y013587D01*
X023327Y013584D01*
X023311Y013578D01*
X023297Y013569D01*
X023286Y013558D01*
X023277Y013544D01*
X023271Y013528D01*
X023268Y013512D01*
X023269Y013496D01*
X023273Y013480D01*
X023281Y013465D01*
X023291Y013452D01*
X023222Y013410D02*
X023153Y013480D01*
X023375Y013703D02*
X023445Y013633D01*
X023556Y013911D02*
X024169Y014524D01*
X024210Y014538D02*
X024280Y014468D01*
X024238Y014399D02*
X024391Y014552D01*
X023835Y015109D01*
X023737Y015011D01*
X023820Y014900D02*
X023831Y014908D01*
X023843Y014914D01*
X023855Y014917D01*
X023869Y014917D01*
X023881Y014914D01*
X023893Y014908D01*
X023904Y014900D01*
X024169Y014635D01*
X024169Y014636D02*
X024179Y014624D01*
X024186Y014610D01*
X024190Y014595D01*
X024192Y014580D01*
X024190Y014565D01*
X024186Y014550D01*
X024179Y014536D01*
X024169Y014524D01*
X024239Y014399D02*
X024226Y014409D01*
X024211Y014417D01*
X024195Y014421D01*
X024179Y014422D01*
X024163Y014419D01*
X024147Y014413D01*
X024133Y014404D01*
X024122Y014393D01*
X024113Y014379D01*
X024107Y014363D01*
X024104Y014347D01*
X024105Y014331D01*
X024109Y014315D01*
X024117Y014300D01*
X024127Y014287D01*
X023821Y013981D01*
X023808Y013991D01*
X023793Y013999D01*
X023777Y014003D01*
X023761Y014004D01*
X023745Y014001D01*
X023729Y013995D01*
X023715Y013986D01*
X023704Y013975D01*
X023695Y013961D01*
X023689Y013945D01*
X023686Y013929D01*
X023687Y013913D01*
X023691Y013897D01*
X023699Y013882D01*
X023709Y013869D01*
X023862Y014051D02*
X023793Y014120D01*
X023988Y014315D02*
X024057Y014246D01*
X025306Y014605D02*
X025306Y017203D01*
X027668Y017203D01*
X027668Y014605D01*
X025306Y014605D01*
X026093Y015904D02*
X026095Y015943D01*
X026101Y015982D01*
X026111Y016020D01*
X026124Y016057D01*
X026141Y016092D01*
X026161Y016126D01*
X026185Y016157D01*
X026212Y016186D01*
X026241Y016212D01*
X026273Y016235D01*
X026307Y016255D01*
X026343Y016271D01*
X026380Y016283D01*
X026419Y016292D01*
X026458Y016297D01*
X026497Y016298D01*
X026536Y016295D01*
X026575Y016288D01*
X026612Y016277D01*
X026649Y016263D01*
X026684Y016245D01*
X026717Y016224D01*
X026748Y016199D01*
X026776Y016172D01*
X026801Y016142D01*
X026823Y016109D01*
X026842Y016075D01*
X026857Y016039D01*
X026869Y016001D01*
X026877Y015963D01*
X026881Y015924D01*
X026881Y015884D01*
X026877Y015845D01*
X026869Y015807D01*
X026857Y015769D01*
X026842Y015733D01*
X026823Y015699D01*
X026801Y015666D01*
X026776Y015636D01*
X026748Y015609D01*
X026717Y015584D01*
X026684Y015563D01*
X026649Y015545D01*
X026612Y015531D01*
X026575Y015520D01*
X026536Y015513D01*
X026497Y015510D01*
X026458Y015511D01*
X026419Y015516D01*
X026380Y015525D01*
X026343Y015537D01*
X026307Y015553D01*
X026273Y015573D01*
X026241Y015596D01*
X026212Y015622D01*
X026185Y015651D01*
X026161Y015682D01*
X026141Y015716D01*
X026124Y015751D01*
X026111Y015788D01*
X026101Y015826D01*
X026095Y015865D01*
X026093Y015904D01*
X025895Y015904D02*
X025897Y015952D01*
X025903Y016000D01*
X025913Y016047D01*
X025926Y016094D01*
X025944Y016139D01*
X025965Y016182D01*
X025989Y016224D01*
X026017Y016264D01*
X026048Y016301D01*
X026081Y016335D01*
X026118Y016367D01*
X026157Y016395D01*
X026198Y016421D01*
X026241Y016443D01*
X026286Y016461D01*
X026332Y016475D01*
X026379Y016486D01*
X026427Y016493D01*
X026475Y016496D01*
X026523Y016495D01*
X026571Y016490D01*
X026619Y016481D01*
X026665Y016468D01*
X026711Y016452D01*
X026755Y016432D01*
X026797Y016408D01*
X026837Y016382D01*
X026875Y016351D01*
X026910Y016318D01*
X026942Y016282D01*
X026972Y016244D01*
X026998Y016203D01*
X027020Y016161D01*
X027040Y016117D01*
X027055Y016071D01*
X027067Y016024D01*
X027075Y015976D01*
X027079Y015928D01*
X027079Y015880D01*
X027075Y015832D01*
X027067Y015784D01*
X027055Y015737D01*
X027040Y015691D01*
X027020Y015647D01*
X026998Y015605D01*
X026972Y015564D01*
X026942Y015526D01*
X026910Y015490D01*
X026875Y015457D01*
X026837Y015426D01*
X026797Y015400D01*
X026755Y015376D01*
X026711Y015356D01*
X026665Y015340D01*
X026619Y015327D01*
X026571Y015318D01*
X026523Y015313D01*
X026475Y015312D01*
X026427Y015315D01*
X026379Y015322D01*
X026332Y015333D01*
X026286Y015347D01*
X026241Y015365D01*
X026198Y015387D01*
X026157Y015413D01*
X026118Y015441D01*
X026081Y015473D01*
X026048Y015507D01*
X026017Y015544D01*
X025989Y015584D01*
X025965Y015626D01*
X025944Y015669D01*
X025926Y015714D01*
X025913Y015761D01*
X025903Y015808D01*
X025897Y015856D01*
X025895Y015904D01*
X030291Y012189D02*
X030742Y012189D01*
X030742Y012489D01*
X030742Y012029D02*
X030441Y012029D01*
X030291Y011879D01*
X030441Y011728D01*
X030742Y011728D01*
X030742Y011572D02*
X030742Y011422D01*
X030742Y011497D02*
X030291Y011497D01*
X030291Y011422D02*
X030291Y011572D01*
X030516Y011728D02*
X030516Y012029D01*
X030516Y011261D02*
X030366Y011261D01*
X030291Y011186D01*
X030291Y010961D01*
X030742Y010961D01*
X030592Y010961D02*
X030592Y011186D01*
X030516Y011261D01*
X030592Y011111D02*
X030742Y011261D01*
X030742Y010801D02*
X030742Y010501D01*
X030291Y010501D01*
X030291Y010801D01*
X030516Y010651D02*
X030516Y010501D01*
X030592Y010341D02*
X030667Y010341D01*
X030742Y010266D01*
X030742Y010115D01*
X030667Y010040D01*
X030516Y010115D02*
X030516Y010266D01*
X030592Y010341D01*
X030366Y010341D02*
X030291Y010266D01*
X030291Y010115D01*
X030366Y010040D01*
X030441Y010040D01*
X030516Y010115D01*
X030817Y009880D02*
X030817Y009580D01*
X030742Y009420D02*
X030742Y009120D01*
X030291Y009120D01*
X030291Y008959D02*
X030291Y008659D01*
X030291Y008809D02*
X030742Y008809D01*
X030742Y008349D02*
X030291Y008349D01*
X030291Y008199D02*
X030291Y008499D01*
X020352Y009054D02*
X020352Y009204D01*
X020201Y009204D01*
X020051Y009354D02*
X020051Y009054D01*
X020126Y008979D01*
X020276Y008979D01*
X020352Y009054D01*
X020352Y009354D02*
X020276Y009429D01*
X020126Y009429D01*
X020051Y009354D01*
X019891Y009279D02*
X019891Y008979D01*
X019891Y009204D02*
X019591Y009204D01*
X019591Y009279D02*
X019591Y008979D01*
X019591Y009279D02*
X019741Y009429D01*
X019891Y009279D01*
X019431Y009429D02*
X019130Y009429D01*
X019281Y009429D02*
X019281Y008979D01*
X018895Y009054D02*
X018895Y009429D01*
X018820Y009429D02*
X018970Y009429D01*
X018895Y009054D02*
X018820Y008979D01*
X018745Y008979D01*
X018670Y009054D01*
X013612Y010129D02*
X013612Y010279D01*
X013612Y010204D02*
X013161Y010204D01*
X013161Y010129D02*
X013161Y010279D01*
X013236Y010436D02*
X013161Y010511D01*
X013161Y010661D01*
X013236Y010736D01*
X013236Y010896D02*
X013161Y010971D01*
X013161Y011121D01*
X013236Y011196D01*
X013537Y011196D01*
X013612Y011121D01*
X013612Y010971D01*
X013537Y010896D01*
X013537Y010736D02*
X013612Y010661D01*
X013612Y010511D01*
X013537Y010436D01*
X013236Y010436D01*
X013236Y010896D02*
X013311Y010896D01*
X013386Y010971D01*
X013386Y011196D01*
X006552Y010954D02*
X006476Y011029D01*
X006326Y011029D01*
X006251Y010954D01*
X006091Y011029D02*
X006091Y010654D01*
X006016Y010579D01*
X005866Y010579D01*
X005791Y010654D01*
X005791Y011029D01*
X006251Y010579D02*
X006552Y010879D01*
X006552Y010954D01*
X006552Y010579D02*
X006251Y010579D01*
X001742Y009420D02*
X001742Y009120D01*
X001742Y009270D02*
X001291Y009270D01*
X001441Y009120D01*
X001366Y008959D02*
X001516Y008959D01*
X001592Y008884D01*
X001592Y008659D01*
X001742Y008659D02*
X001291Y008659D01*
X001291Y008884D01*
X001366Y008959D01*
X001291Y008499D02*
X001291Y008349D01*
X001291Y008424D02*
X001667Y008424D01*
X001742Y008349D01*
X001742Y008274D01*
X001667Y008199D01*
X000742Y008120D02*
X000441Y008420D01*
X000366Y008420D01*
X000291Y008345D01*
X000291Y008195D01*
X000366Y008120D01*
X000366Y007959D02*
X000516Y007959D01*
X000592Y007884D01*
X000592Y007659D01*
X000742Y007659D02*
X000291Y007659D01*
X000291Y007884D01*
X000366Y007959D01*
X000742Y008120D02*
X000742Y008420D01*
X000667Y007424D02*
X000291Y007424D01*
X000291Y007349D02*
X000291Y007499D01*
X000667Y007424D02*
X000742Y007349D01*
X000742Y007274D01*
X000667Y007199D01*
X005866Y017579D02*
X006016Y017579D01*
X006091Y017654D01*
X006091Y018029D01*
X006251Y017954D02*
X006326Y018029D01*
X006476Y018029D01*
X006552Y017954D01*
X006552Y017879D01*
X006476Y017804D01*
X006552Y017729D01*
X006552Y017654D01*
X006476Y017579D01*
X006326Y017579D01*
X006251Y017654D01*
X006401Y017804D02*
X006476Y017804D01*
X005866Y017579D02*
X005791Y017654D01*
X005791Y018029D01*
X023791Y024774D02*
X023866Y024699D01*
X023941Y024699D01*
X024016Y024774D01*
X024016Y024924D01*
X024092Y024999D01*
X024167Y024999D01*
X024242Y024924D01*
X024242Y024774D01*
X024167Y024699D01*
X023791Y024774D02*
X023791Y024924D01*
X023866Y024999D01*
X023791Y025159D02*
X024242Y025159D01*
X024242Y025459D01*
X024242Y025620D02*
X023791Y025620D01*
X023791Y025845D01*
X023866Y025920D01*
X024016Y025920D01*
X024092Y025845D01*
X024092Y025620D01*
X024092Y025770D02*
X024242Y025920D01*
X024092Y026080D02*
X023791Y026080D01*
X023791Y026380D02*
X024092Y026380D01*
X024242Y026230D01*
X024092Y026080D01*
X024167Y026540D02*
X023866Y026540D01*
X023791Y026615D01*
X023791Y026766D01*
X023866Y026841D01*
X024167Y026841D01*
X024242Y026766D01*
X024242Y026615D01*
X024167Y026540D01*
X024242Y027001D02*
X024242Y027301D01*
X024242Y027151D02*
X023791Y027151D01*
X023941Y027001D01*
X025291Y027076D02*
X025366Y027001D01*
X025291Y027076D02*
X025291Y027226D01*
X025366Y027301D01*
X025441Y027301D01*
X025742Y027001D01*
X025742Y027301D01*
X025667Y026841D02*
X025366Y026841D01*
X025291Y026766D01*
X025291Y026615D01*
X025366Y026540D01*
X025667Y026540D01*
X025742Y026615D01*
X025742Y026766D01*
X025667Y026841D01*
X025592Y026380D02*
X025291Y026380D01*
X025291Y026080D02*
X025592Y026080D01*
X025742Y026230D01*
X025592Y026380D01*
X025516Y025920D02*
X025592Y025845D01*
X025592Y025620D01*
X025742Y025620D02*
X025291Y025620D01*
X025291Y025845D01*
X025366Y025920D01*
X025516Y025920D01*
X025592Y025770D02*
X025742Y025920D01*
X025742Y025459D02*
X025742Y025159D01*
X025291Y025159D01*
X025291Y025459D01*
X025516Y025309D02*
X025516Y025159D01*
X025592Y024999D02*
X025516Y024924D01*
X025516Y024774D01*
X025441Y024699D01*
X025366Y024699D01*
X025291Y024774D01*
X025291Y024924D01*
X025366Y024999D01*
X025592Y024999D02*
X025667Y024999D01*
X025742Y024924D01*
X025742Y024774D01*
X025667Y024699D01*
X026791Y024774D02*
X026866Y024699D01*
X026941Y024699D01*
X027016Y024774D01*
X027016Y024924D01*
X027092Y024999D01*
X027167Y024999D01*
X027242Y024924D01*
X027242Y024774D01*
X027167Y024699D01*
X026791Y024774D02*
X026791Y024924D01*
X026866Y024999D01*
X026791Y025159D02*
X027242Y025159D01*
X027242Y025459D01*
X027242Y025620D02*
X026791Y025620D01*
X026791Y025845D01*
X026866Y025920D01*
X027016Y025920D01*
X027092Y025845D01*
X027092Y025620D01*
X027092Y025770D02*
X027242Y025920D01*
X027092Y026080D02*
X027242Y026230D01*
X027092Y026380D01*
X026791Y026380D01*
X026866Y026540D02*
X027167Y026540D01*
X027242Y026615D01*
X027242Y026766D01*
X027167Y026841D01*
X026866Y026841D01*
X026791Y026766D01*
X026791Y026615D01*
X026866Y026540D01*
X026791Y026080D02*
X027092Y026080D01*
X026791Y025459D02*
X026791Y025159D01*
X027016Y025159D02*
X027016Y025309D01*
X028291Y025159D02*
X028742Y025159D01*
X028742Y025459D01*
X028742Y025620D02*
X028291Y025620D01*
X028291Y025845D01*
X028366Y025920D01*
X028516Y025920D01*
X028592Y025845D01*
X028592Y025620D01*
X028592Y025770D02*
X028742Y025920D01*
X028592Y026080D02*
X028291Y026080D01*
X028291Y026380D02*
X028592Y026380D01*
X028742Y026230D01*
X028592Y026080D01*
X028667Y026540D02*
X028366Y026540D01*
X028291Y026615D01*
X028291Y026766D01*
X028366Y026841D01*
X028667Y026841D01*
X028742Y026766D01*
X028742Y026615D01*
X028667Y026540D01*
X028516Y027001D02*
X028291Y027226D01*
X028742Y027226D01*
X028516Y027301D02*
X028516Y027001D01*
X029791Y027001D02*
X030016Y027001D01*
X029941Y027151D01*
X029941Y027226D01*
X030016Y027301D01*
X030167Y027301D01*
X030242Y027226D01*
X030242Y027076D01*
X030167Y027001D01*
X030167Y026841D02*
X029866Y026841D01*
X029791Y026766D01*
X029791Y026615D01*
X029866Y026540D01*
X030167Y026540D01*
X030242Y026615D01*
X030242Y026766D01*
X030167Y026841D01*
X029791Y027001D02*
X029791Y027301D01*
X029791Y026380D02*
X030092Y026380D01*
X030242Y026230D01*
X030092Y026080D01*
X029791Y026080D01*
X029866Y025920D02*
X030016Y025920D01*
X030092Y025845D01*
X030092Y025620D01*
X030242Y025620D02*
X029791Y025620D01*
X029791Y025845D01*
X029866Y025920D01*
X030092Y025770D02*
X030242Y025920D01*
X030242Y025459D02*
X030242Y025159D01*
X029791Y025159D01*
X029791Y025459D01*
X030016Y025309D02*
X030016Y025159D01*
X030092Y024999D02*
X030016Y024924D01*
X030016Y024774D01*
X029941Y024699D01*
X029866Y024699D01*
X029791Y024774D01*
X029791Y024924D01*
X029866Y024999D01*
X030092Y024999D02*
X030167Y024999D01*
X030242Y024924D01*
X030242Y024774D01*
X030167Y024699D01*
X031291Y024774D02*
X031366Y024699D01*
X031441Y024699D01*
X031516Y024774D01*
X031516Y024924D01*
X031592Y024999D01*
X031667Y024999D01*
X031742Y024924D01*
X031742Y024774D01*
X031667Y024699D01*
X031291Y024774D02*
X031291Y024924D01*
X031366Y024999D01*
X031291Y025159D02*
X031742Y025159D01*
X031742Y025459D01*
X031742Y025620D02*
X031291Y025620D01*
X031291Y025845D01*
X031366Y025920D01*
X031516Y025920D01*
X031592Y025845D01*
X031592Y025620D01*
X031592Y025770D02*
X031742Y025920D01*
X031592Y026080D02*
X031742Y026230D01*
X031592Y026380D01*
X031291Y026380D01*
X031366Y026540D02*
X031291Y026615D01*
X031291Y026766D01*
X031366Y026841D01*
X031667Y026841D01*
X031742Y026766D01*
X031742Y026615D01*
X031667Y026540D01*
X031366Y026540D01*
X031291Y026080D02*
X031592Y026080D01*
X031291Y025459D02*
X031291Y025159D01*
X031516Y025159D02*
X031516Y025309D01*
X031516Y027001D02*
X031516Y027226D01*
X031592Y027301D01*
X031667Y027301D01*
X031742Y027226D01*
X031742Y027076D01*
X031667Y027001D01*
X031516Y027001D01*
X031366Y027151D01*
X031291Y027301D01*
X028516Y025309D02*
X028516Y025159D01*
X028592Y024999D02*
X028667Y024999D01*
X028742Y024924D01*
X028742Y024774D01*
X028667Y024699D01*
X028516Y024774D02*
X028516Y024924D01*
X028592Y024999D01*
X028366Y024999D02*
X028291Y024924D01*
X028291Y024774D01*
X028366Y024699D01*
X028441Y024699D01*
X028516Y024774D01*
X028291Y025159D02*
X028291Y025459D01*
X027167Y027001D02*
X027242Y027076D01*
X027242Y027226D01*
X027167Y027301D01*
X027092Y027301D01*
X027016Y027226D01*
X027016Y027151D01*
X027016Y027226D02*
X026941Y027301D01*
X026866Y027301D01*
X026791Y027226D01*
X026791Y027076D01*
X026866Y027001D01*
X024016Y025309D02*
X024016Y025159D01*
X023791Y025159D02*
X023791Y025459D01*
X027761Y021994D02*
X027836Y022069D01*
X027986Y022069D01*
X028062Y021994D01*
X028062Y021768D01*
X028212Y021768D02*
X027761Y021768D01*
X027761Y021994D01*
X027836Y021608D02*
X027761Y021533D01*
X027761Y021383D01*
X027836Y021308D01*
X027911Y021308D01*
X027986Y021383D01*
X027986Y021533D01*
X028062Y021608D01*
X028137Y021608D01*
X028212Y021533D01*
X028212Y021383D01*
X028137Y021308D01*
X028212Y021151D02*
X028212Y021001D01*
X028212Y021076D02*
X027761Y021076D01*
X027761Y021001D02*
X027761Y021151D01*
X028711Y021075D02*
X028711Y020925D01*
X028786Y020850D01*
X029087Y020850D01*
X028786Y021150D01*
X029087Y021150D01*
X029162Y021075D01*
X029162Y020925D01*
X029087Y020850D01*
X029162Y020689D02*
X029162Y020389D01*
X029162Y020539D02*
X028711Y020539D01*
X028861Y020389D01*
X028786Y020229D02*
X028711Y020154D01*
X028711Y020004D01*
X028786Y019929D01*
X029087Y019929D01*
X029162Y020004D01*
X029162Y020154D01*
X029087Y020229D01*
X028711Y021075D02*
X028786Y021150D01*
X030811Y020794D02*
X030811Y020643D01*
X030886Y020568D01*
X030961Y020568D01*
X031036Y020643D01*
X031036Y020869D01*
X030886Y020869D02*
X031187Y020869D01*
X031262Y020794D01*
X031262Y020643D01*
X031187Y020568D01*
X031187Y020408D02*
X031262Y020333D01*
X031262Y020183D01*
X031187Y020108D01*
X030886Y020108D01*
X030811Y020183D01*
X030811Y020333D01*
X030886Y020408D01*
X030811Y020794D02*
X030886Y020869D01*
D16*
X031607Y020901D02*
X031683Y020824D01*
X031837Y020824D01*
X031914Y020901D01*
X031914Y021207D01*
X031837Y021284D01*
X031683Y021284D01*
X031607Y021207D01*
X031607Y020901D01*
X032067Y020824D02*
X032067Y021284D01*
X032374Y020824D01*
X032374Y021284D01*
X032203Y020284D02*
X031896Y020284D01*
X031896Y020054D01*
X032050Y020131D01*
X032126Y020131D01*
X032203Y020054D01*
X032203Y019901D01*
X032126Y019824D01*
X031973Y019824D01*
X031896Y019901D01*
X031743Y019824D02*
X031589Y019977D01*
X031666Y019977D02*
X031436Y019977D01*
X031436Y019824D02*
X031436Y020284D01*
X031666Y020284D01*
X031743Y020207D01*
X031743Y020054D01*
X031666Y019977D01*
X028345Y016798D02*
X027884Y016798D01*
X027884Y016951D02*
X027884Y016644D01*
X027884Y016491D02*
X027884Y016184D01*
X028345Y016184D01*
X028345Y016491D01*
X028114Y016338D02*
X028114Y016184D01*
X028191Y016031D02*
X028268Y016031D01*
X028345Y015954D01*
X028345Y015800D01*
X028268Y015724D01*
X028114Y015800D02*
X028038Y015724D01*
X027961Y015724D01*
X027884Y015800D01*
X027884Y015954D01*
X027961Y016031D01*
X028114Y015954D02*
X028191Y016031D01*
X028114Y015954D02*
X028114Y015800D01*
X027884Y015570D02*
X027884Y015263D01*
X028345Y015263D01*
X028345Y015570D01*
X028114Y015417D02*
X028114Y015263D01*
X028114Y015110D02*
X027961Y015110D01*
X027884Y015033D01*
X027884Y014803D01*
X028345Y014803D01*
X028191Y014803D02*
X028191Y015033D01*
X028114Y015110D01*
X028191Y014956D02*
X028345Y015110D01*
X022963Y014877D02*
X022746Y014660D01*
X022854Y014769D02*
X022529Y015095D01*
X022529Y014877D01*
X022366Y014823D02*
X022257Y014823D01*
X022149Y014715D01*
X022149Y014606D01*
X022203Y014552D01*
X022312Y014552D01*
X022420Y014660D01*
X022529Y014660D01*
X022583Y014606D01*
X022583Y014498D01*
X022475Y014389D01*
X022366Y014389D01*
X022257Y014281D02*
X021986Y014552D01*
X021769Y014335D02*
X022040Y014064D01*
X022149Y014064D01*
X022257Y014172D01*
X022257Y014281D01*
X022583Y014389D02*
X022149Y014823D01*
X016967Y014070D02*
X016967Y013763D01*
X016967Y013917D02*
X016506Y013917D01*
X016660Y013763D01*
X016583Y013610D02*
X016506Y013533D01*
X016506Y013380D01*
X016583Y013303D01*
X016890Y013303D01*
X016967Y013380D01*
X016967Y013533D01*
X016890Y013610D01*
X015834Y019286D02*
X015942Y019395D01*
X015942Y019503D01*
X016051Y019612D02*
X015997Y019666D01*
X015997Y019775D01*
X016105Y019883D01*
X016214Y019883D01*
X016268Y019829D01*
X016268Y019720D01*
X016159Y019612D01*
X016051Y019612D01*
X015997Y019775D02*
X015888Y019775D01*
X015834Y019829D01*
X015834Y019937D01*
X015942Y020046D01*
X016051Y020046D01*
X016105Y019992D01*
X016105Y019883D01*
X015725Y019720D02*
X015617Y019720D01*
X015508Y019612D01*
X015508Y019503D01*
X015725Y019286D01*
X015834Y019286D01*
X013967Y022474D02*
X013506Y022474D01*
X013506Y022704D01*
X013583Y022781D01*
X013736Y022781D01*
X013813Y022704D01*
X013813Y022474D01*
X013813Y022627D02*
X013967Y022781D01*
X013967Y022934D02*
X013967Y023241D01*
X013967Y023088D02*
X013506Y023088D01*
X013660Y022934D01*
X007583Y008570D02*
X007890Y008263D01*
X007967Y008263D01*
X007890Y008110D02*
X007967Y008033D01*
X007967Y007880D01*
X007890Y007803D01*
X007583Y007803D01*
X007506Y007880D01*
X007506Y008033D01*
X007583Y008110D01*
X007506Y008263D02*
X007506Y008570D01*
X007583Y008570D01*
X035006Y025724D02*
X035006Y025954D01*
X035083Y026031D01*
X035236Y026031D01*
X035313Y025954D01*
X035313Y025724D01*
X035467Y025724D02*
X035006Y025724D01*
X035006Y026184D02*
X035467Y026184D01*
X035313Y026338D01*
X035467Y026491D01*
X035006Y026491D01*
X035006Y026645D02*
X035006Y026875D01*
X035083Y026951D01*
X035236Y026951D01*
X035313Y026875D01*
X035313Y026645D01*
X035313Y026798D02*
X035467Y026951D01*
X035467Y026645D02*
X035006Y026645D01*
D17*
X031987Y027954D02*
X031987Y028454D01*
X031737Y028704D01*
X031987Y028954D01*
X031987Y029454D01*
X031737Y029704D01*
X031987Y029954D01*
X031987Y030454D01*
X031737Y030704D01*
X031237Y030704D01*
X030987Y030454D01*
X030987Y029954D01*
X031237Y029704D01*
X031737Y029704D01*
X031237Y029704D02*
X030987Y029454D01*
X030987Y028954D01*
X031237Y028704D01*
X031737Y028704D01*
X031237Y028704D02*
X030987Y028454D01*
X030987Y027954D01*
X031237Y027704D01*
X031737Y027704D01*
X031987Y027954D01*
X030487Y027954D02*
X030487Y028454D01*
X030237Y028704D01*
X030487Y028954D01*
X030487Y029454D01*
X030237Y029704D01*
X030487Y029954D01*
X030487Y030454D01*
X030237Y030704D01*
X029737Y030704D01*
X029487Y030454D01*
X029487Y029954D01*
X029737Y029704D01*
X030237Y029704D01*
X029737Y029704D02*
X029487Y029454D01*
X029487Y028954D01*
X029737Y028704D01*
X030237Y028704D01*
X029737Y028704D02*
X029487Y028454D01*
X029487Y027954D01*
X029737Y027704D01*
X030237Y027704D01*
X030487Y027954D01*
X028987Y027954D02*
X028987Y028454D01*
X028737Y028704D01*
X028987Y028954D01*
X028987Y029454D01*
X028737Y029704D01*
X028987Y029954D01*
X028987Y030454D01*
X028737Y030704D01*
X028237Y030704D01*
X027987Y030454D01*
X027987Y029954D01*
X028237Y029704D01*
X028737Y029704D01*
X028237Y029704D02*
X027987Y029454D01*
X027987Y028954D01*
X028237Y028704D01*
X028737Y028704D01*
X028237Y028704D02*
X027987Y028454D01*
X027987Y027954D01*
X028237Y027704D01*
X028737Y027704D01*
X028987Y027954D01*
X027487Y027954D02*
X027487Y028454D01*
X027237Y028704D01*
X027487Y028954D01*
X027487Y029454D01*
X027237Y029704D01*
X027487Y029954D01*
X027487Y030454D01*
X027237Y030704D01*
X026737Y030704D01*
X026487Y030454D01*
X026487Y029954D01*
X026737Y029704D01*
X027237Y029704D01*
X026737Y029704D02*
X026487Y029454D01*
X026487Y028954D01*
X026737Y028704D01*
X027237Y028704D01*
X026737Y028704D02*
X026487Y028454D01*
X026487Y027954D01*
X026737Y027704D01*
X027237Y027704D01*
X027487Y027954D01*
X025987Y027954D02*
X025987Y028454D01*
X025737Y028704D01*
X025987Y028954D01*
X025987Y029454D01*
X025737Y029704D01*
X025987Y029954D01*
X025987Y030454D01*
X025737Y030704D01*
X025237Y030704D01*
X024987Y030454D01*
X024987Y029954D01*
X025237Y029704D01*
X025737Y029704D01*
X025237Y029704D02*
X024987Y029454D01*
X024987Y028954D01*
X025237Y028704D01*
X025737Y028704D01*
X025237Y028704D02*
X024987Y028454D01*
X024987Y027954D01*
X025237Y027704D01*
X025737Y027704D01*
X025987Y027954D01*
X024487Y027954D02*
X024487Y028454D01*
X024237Y028704D01*
X024487Y028954D01*
X024487Y029454D01*
X024237Y029704D01*
X024487Y029954D01*
X024487Y030454D01*
X024237Y030704D01*
X023737Y030704D01*
X023487Y030454D01*
X023487Y029954D01*
X023737Y029704D01*
X024237Y029704D01*
X023737Y029704D02*
X023487Y029454D01*
X023487Y028954D01*
X023737Y028704D01*
X024237Y028704D01*
X023737Y028704D02*
X023487Y028454D01*
X023487Y027954D01*
X023737Y027704D01*
X024237Y027704D01*
X024487Y027954D01*
X029987Y023404D02*
X029987Y023104D01*
X029837Y023254D02*
X030137Y023254D01*
X028637Y022204D02*
X028639Y022277D01*
X028645Y022350D01*
X028655Y022422D01*
X028669Y022494D01*
X028686Y022565D01*
X028708Y022635D01*
X028733Y022704D01*
X028762Y022771D01*
X028794Y022836D01*
X028830Y022900D01*
X028870Y022962D01*
X028912Y023021D01*
X028958Y023078D01*
X029007Y023132D01*
X029059Y023184D01*
X029113Y023233D01*
X029170Y023279D01*
X029229Y023321D01*
X029291Y023361D01*
X029355Y023397D01*
X029420Y023429D01*
X029487Y023458D01*
X029556Y023483D01*
X029626Y023505D01*
X029697Y023522D01*
X029769Y023536D01*
X029841Y023546D01*
X029914Y023552D01*
X029987Y023554D01*
X030060Y023552D01*
X030133Y023546D01*
X030205Y023536D01*
X030277Y023522D01*
X030348Y023505D01*
X030418Y023483D01*
X030487Y023458D01*
X030554Y023429D01*
X030619Y023397D01*
X030683Y023361D01*
X030745Y023321D01*
X030804Y023279D01*
X030861Y023233D01*
X030915Y023184D01*
X030967Y023132D01*
X031016Y023078D01*
X031062Y023021D01*
X031104Y022962D01*
X031144Y022900D01*
X031180Y022836D01*
X031212Y022771D01*
X031241Y022704D01*
X031266Y022635D01*
X031288Y022565D01*
X031305Y022494D01*
X031319Y022422D01*
X031329Y022350D01*
X031335Y022277D01*
X031337Y022204D01*
X031335Y022131D01*
X031329Y022058D01*
X031319Y021986D01*
X031305Y021914D01*
X031288Y021843D01*
X031266Y021773D01*
X031241Y021704D01*
X031212Y021637D01*
X031180Y021572D01*
X031144Y021508D01*
X031104Y021446D01*
X031062Y021387D01*
X031016Y021330D01*
X030967Y021276D01*
X030915Y021224D01*
X030861Y021175D01*
X030804Y021129D01*
X030745Y021087D01*
X030683Y021047D01*
X030619Y021011D01*
X030554Y020979D01*
X030487Y020950D01*
X030418Y020925D01*
X030348Y020903D01*
X030277Y020886D01*
X030205Y020872D01*
X030133Y020862D01*
X030060Y020856D01*
X029987Y020854D01*
X029914Y020856D01*
X029841Y020862D01*
X029769Y020872D01*
X029697Y020886D01*
X029626Y020903D01*
X029556Y020925D01*
X029487Y020950D01*
X029420Y020979D01*
X029355Y021011D01*
X029291Y021047D01*
X029229Y021087D01*
X029170Y021129D01*
X029113Y021175D01*
X029059Y021224D01*
X029007Y021276D01*
X028958Y021330D01*
X028912Y021387D01*
X028870Y021446D01*
X028830Y021508D01*
X028794Y021572D01*
X028762Y021637D01*
X028733Y021704D01*
X028708Y021773D01*
X028686Y021843D01*
X028669Y021914D01*
X028655Y021986D01*
X028645Y022058D01*
X028639Y022131D01*
X028637Y022204D01*
X027487Y021954D02*
X027487Y021454D01*
X027237Y021204D01*
X025737Y021204D01*
X025487Y020954D01*
X025487Y020454D01*
X025737Y020204D01*
X025487Y019954D01*
X025487Y019454D01*
X025737Y019204D01*
X027237Y019204D01*
X027487Y019454D01*
X027487Y019954D01*
X027237Y020204D01*
X025737Y020204D01*
X025737Y021204D02*
X025487Y021454D01*
X025487Y021954D01*
X025737Y022204D01*
X027237Y022204D01*
X027487Y021954D01*
X027237Y021204D02*
X027487Y020954D01*
X027487Y020454D01*
X027237Y020204D01*
X028637Y018704D02*
X028639Y018777D01*
X028645Y018850D01*
X028655Y018922D01*
X028669Y018994D01*
X028686Y019065D01*
X028708Y019135D01*
X028733Y019204D01*
X028762Y019271D01*
X028794Y019336D01*
X028830Y019400D01*
X028870Y019462D01*
X028912Y019521D01*
X028958Y019578D01*
X029007Y019632D01*
X029059Y019684D01*
X029113Y019733D01*
X029170Y019779D01*
X029229Y019821D01*
X029291Y019861D01*
X029355Y019897D01*
X029420Y019929D01*
X029487Y019958D01*
X029556Y019983D01*
X029626Y020005D01*
X029697Y020022D01*
X029769Y020036D01*
X029841Y020046D01*
X029914Y020052D01*
X029987Y020054D01*
X030060Y020052D01*
X030133Y020046D01*
X030205Y020036D01*
X030277Y020022D01*
X030348Y020005D01*
X030418Y019983D01*
X030487Y019958D01*
X030554Y019929D01*
X030619Y019897D01*
X030683Y019861D01*
X030745Y019821D01*
X030804Y019779D01*
X030861Y019733D01*
X030915Y019684D01*
X030967Y019632D01*
X031016Y019578D01*
X031062Y019521D01*
X031104Y019462D01*
X031144Y019400D01*
X031180Y019336D01*
X031212Y019271D01*
X031241Y019204D01*
X031266Y019135D01*
X031288Y019065D01*
X031305Y018994D01*
X031319Y018922D01*
X031329Y018850D01*
X031335Y018777D01*
X031337Y018704D01*
X031335Y018631D01*
X031329Y018558D01*
X031319Y018486D01*
X031305Y018414D01*
X031288Y018343D01*
X031266Y018273D01*
X031241Y018204D01*
X031212Y018137D01*
X031180Y018072D01*
X031144Y018008D01*
X031104Y017946D01*
X031062Y017887D01*
X031016Y017830D01*
X030967Y017776D01*
X030915Y017724D01*
X030861Y017675D01*
X030804Y017629D01*
X030745Y017587D01*
X030683Y017547D01*
X030619Y017511D01*
X030554Y017479D01*
X030487Y017450D01*
X030418Y017425D01*
X030348Y017403D01*
X030277Y017386D01*
X030205Y017372D01*
X030133Y017362D01*
X030060Y017356D01*
X029987Y017354D01*
X029914Y017356D01*
X029841Y017362D01*
X029769Y017372D01*
X029697Y017386D01*
X029626Y017403D01*
X029556Y017425D01*
X029487Y017450D01*
X029420Y017479D01*
X029355Y017511D01*
X029291Y017547D01*
X029229Y017587D01*
X029170Y017629D01*
X029113Y017675D01*
X029059Y017724D01*
X029007Y017776D01*
X028958Y017830D01*
X028912Y017887D01*
X028870Y017946D01*
X028830Y018008D01*
X028794Y018072D01*
X028762Y018137D01*
X028733Y018204D01*
X028708Y018273D01*
X028686Y018343D01*
X028669Y018414D01*
X028655Y018486D01*
X028645Y018558D01*
X028639Y018631D01*
X028637Y018704D01*
X029837Y017654D02*
X030137Y017654D01*
X029987Y017504D02*
X029987Y017804D01*
X031237Y014204D02*
X031737Y014204D01*
X031987Y013954D01*
X031987Y013454D01*
X031737Y013204D01*
X031987Y012954D01*
X031987Y012454D01*
X031737Y012204D01*
X031987Y011954D01*
X031987Y011454D01*
X031737Y011204D01*
X031987Y010954D01*
X031987Y010454D01*
X031737Y010204D01*
X031987Y009954D01*
X031987Y009454D01*
X031737Y009204D01*
X031987Y008954D01*
X031987Y008454D01*
X031737Y008204D01*
X031237Y008204D01*
X030987Y008454D01*
X030987Y008954D01*
X031237Y009204D01*
X030987Y009454D01*
X030987Y009954D01*
X031237Y010204D01*
X031737Y010204D01*
X031237Y010204D02*
X030987Y010454D01*
X030987Y010954D01*
X031237Y011204D01*
X030987Y011454D01*
X030987Y011954D01*
X031237Y012204D01*
X030987Y012454D01*
X030987Y012954D01*
X031237Y013204D01*
X030987Y013454D01*
X030987Y013954D01*
X031237Y014204D01*
X031237Y013204D02*
X031737Y013204D01*
X031737Y012204D02*
X031237Y012204D01*
X031237Y011204D02*
X031737Y011204D01*
X031737Y009204D02*
X031237Y009204D01*
X020487Y009954D02*
X020237Y009704D01*
X019737Y009704D01*
X019487Y009954D01*
X019487Y011454D01*
X019237Y011704D01*
X018737Y011704D01*
X018487Y011454D01*
X018487Y009954D01*
X018237Y009704D01*
X017737Y009704D01*
X017487Y009954D01*
X017487Y011454D01*
X017237Y011704D01*
X016737Y011704D01*
X016487Y011454D01*
X016237Y011704D01*
X015737Y011704D01*
X015487Y011454D01*
X015487Y009954D01*
X015737Y009704D01*
X016237Y009704D01*
X016487Y009954D01*
X016487Y011454D01*
X017487Y011454D02*
X017737Y011704D01*
X018237Y011704D01*
X018487Y011454D01*
X019487Y011454D02*
X019737Y011704D01*
X020237Y011704D01*
X020487Y011454D01*
X020487Y009954D01*
X019487Y009954D02*
X019237Y009704D01*
X018737Y009704D01*
X018487Y009954D01*
X017487Y009954D02*
X017237Y009704D01*
X016737Y009704D01*
X016487Y009954D01*
X012987Y010084D02*
X012987Y011324D01*
X012985Y011347D01*
X012980Y011370D01*
X012971Y011392D01*
X012958Y011412D01*
X012943Y011430D01*
X012925Y011445D01*
X012905Y011458D01*
X012883Y011467D01*
X012860Y011472D01*
X012837Y011474D01*
X009137Y011474D01*
X009114Y011472D01*
X009091Y011467D01*
X009069Y011458D01*
X009049Y011445D01*
X009031Y011430D01*
X009016Y011412D01*
X009003Y011392D01*
X008994Y011370D01*
X008989Y011347D01*
X008987Y011324D01*
X008987Y010904D01*
X008987Y010504D01*
X008987Y010084D01*
X008989Y010061D01*
X008994Y010038D01*
X009003Y010016D01*
X009016Y009996D01*
X009031Y009978D01*
X009049Y009963D01*
X009069Y009950D01*
X009091Y009941D01*
X009114Y009936D01*
X009137Y009934D01*
X012837Y009934D01*
X012860Y009936D01*
X012883Y009941D01*
X012905Y009950D01*
X012925Y009963D01*
X012943Y009978D01*
X012958Y009996D01*
X012971Y010016D01*
X012980Y010038D01*
X012985Y010061D01*
X012987Y010084D01*
X008987Y010504D02*
X009014Y010506D01*
X009041Y010511D01*
X009067Y010521D01*
X009091Y010533D01*
X009113Y010549D01*
X009133Y010567D01*
X009150Y010589D01*
X009165Y010612D01*
X009175Y010637D01*
X009183Y010663D01*
X009187Y010690D01*
X009187Y010718D01*
X009183Y010745D01*
X009175Y010771D01*
X009165Y010796D01*
X009150Y010819D01*
X009133Y010841D01*
X009113Y010859D01*
X009091Y010875D01*
X009067Y010887D01*
X009041Y010897D01*
X009014Y010902D01*
X008987Y010904D01*
X006757Y011354D02*
X006757Y015054D01*
X006755Y015077D01*
X006750Y015100D01*
X006741Y015122D01*
X006728Y015142D01*
X006713Y015160D01*
X006695Y015175D01*
X006675Y015188D01*
X006653Y015197D01*
X006630Y015202D01*
X006607Y015204D01*
X005367Y015204D01*
X005344Y015202D01*
X005321Y015197D01*
X005299Y015188D01*
X005279Y015175D01*
X005261Y015160D01*
X005246Y015142D01*
X005233Y015122D01*
X005224Y015100D01*
X005219Y015077D01*
X005217Y015054D01*
X005217Y011354D01*
X005219Y011331D01*
X005224Y011308D01*
X005233Y011286D01*
X005246Y011266D01*
X005261Y011248D01*
X005279Y011233D01*
X005299Y011220D01*
X005321Y011211D01*
X005344Y011206D01*
X005367Y011204D01*
X005787Y011204D01*
X006187Y011204D01*
X006607Y011204D01*
X006630Y011206D01*
X006653Y011211D01*
X006675Y011220D01*
X006695Y011233D01*
X006713Y011248D01*
X006728Y011266D01*
X006741Y011286D01*
X006750Y011308D01*
X006755Y011331D01*
X006757Y011354D01*
X006187Y011204D02*
X006185Y011231D01*
X006180Y011258D01*
X006170Y011284D01*
X006158Y011308D01*
X006142Y011330D01*
X006124Y011350D01*
X006102Y011367D01*
X006079Y011382D01*
X006054Y011392D01*
X006028Y011400D01*
X006001Y011404D01*
X005973Y011404D01*
X005946Y011400D01*
X005920Y011392D01*
X005895Y011382D01*
X005872Y011367D01*
X005850Y011350D01*
X005832Y011330D01*
X005816Y011308D01*
X005804Y011284D01*
X005794Y011258D01*
X005789Y011231D01*
X005787Y011204D01*
X005787Y018204D02*
X005367Y018204D01*
X005344Y018206D01*
X005321Y018211D01*
X005299Y018220D01*
X005279Y018233D01*
X005261Y018248D01*
X005246Y018266D01*
X005233Y018286D01*
X005224Y018308D01*
X005219Y018331D01*
X005217Y018354D01*
X005217Y022054D01*
X005219Y022077D01*
X005224Y022100D01*
X005233Y022122D01*
X005246Y022142D01*
X005261Y022160D01*
X005279Y022175D01*
X005299Y022188D01*
X005321Y022197D01*
X005344Y022202D01*
X005367Y022204D01*
X006607Y022204D01*
X006630Y022202D01*
X006653Y022197D01*
X006675Y022188D01*
X006695Y022175D01*
X006713Y022160D01*
X006728Y022142D01*
X006741Y022122D01*
X006750Y022100D01*
X006755Y022077D01*
X006757Y022054D01*
X006757Y018354D01*
X006755Y018331D01*
X006750Y018308D01*
X006741Y018286D01*
X006728Y018266D01*
X006713Y018248D01*
X006695Y018233D01*
X006675Y018220D01*
X006653Y018211D01*
X006630Y018206D01*
X006607Y018204D01*
X006187Y018204D01*
X005787Y018204D01*
X005789Y018231D01*
X005794Y018258D01*
X005804Y018284D01*
X005816Y018308D01*
X005832Y018330D01*
X005850Y018350D01*
X005872Y018367D01*
X005895Y018382D01*
X005920Y018392D01*
X005946Y018400D01*
X005973Y018404D01*
X006001Y018404D01*
X006028Y018400D01*
X006054Y018392D01*
X006079Y018382D01*
X006102Y018367D01*
X006124Y018350D01*
X006142Y018330D01*
X006158Y018308D01*
X006170Y018284D01*
X006180Y018258D01*
X006185Y018231D01*
X006187Y018204D01*
X017435Y014419D02*
X017586Y014268D01*
X017510Y014343D02*
X017963Y014796D01*
X017888Y014872D02*
X018039Y014721D01*
X018116Y014493D02*
X017814Y014191D01*
X017814Y014040D01*
X017965Y013889D01*
X018116Y013889D01*
X018194Y013659D02*
X018496Y013357D01*
X018345Y013508D02*
X018798Y013961D01*
X018496Y013961D01*
X018418Y014191D02*
X018418Y014342D01*
X018267Y014493D01*
X018116Y014493D01*
D18*
X001523Y007463D02*
X001523Y000140D01*
X007450Y000140D01*
X007450Y007463D01*
X001523Y007463D01*
X001737Y007204D02*
X001237Y007204D01*
X000987Y007454D01*
X000987Y007954D01*
X001237Y008204D01*
X000987Y008454D01*
X000987Y008954D01*
X001237Y009204D01*
X000987Y009454D01*
X000987Y009954D01*
X001237Y010204D01*
X000987Y010454D01*
X000987Y010954D01*
X001237Y011204D01*
X000987Y011454D01*
X000987Y011954D01*
X001237Y012204D01*
X000987Y012454D01*
X000987Y012954D01*
X001237Y013204D01*
X000987Y013454D01*
X000987Y013954D01*
X001237Y014204D01*
X000987Y014454D01*
X000987Y014954D01*
X001237Y015204D01*
X000987Y015454D01*
X000987Y015954D01*
X001237Y016204D01*
X000987Y016454D01*
X000987Y016954D01*
X001237Y017204D01*
X000987Y017454D01*
X000987Y017954D01*
X001237Y018204D01*
X000987Y018454D01*
X000987Y018954D01*
X001237Y019204D01*
X000987Y019454D01*
X000987Y019954D01*
X001237Y020204D01*
X000987Y020454D01*
X000987Y020954D01*
X001237Y021204D01*
X000987Y021454D01*
X000987Y021954D01*
X001237Y022204D01*
X000987Y022454D01*
X000987Y022954D01*
X001237Y023204D01*
X000987Y023454D01*
X000987Y023954D01*
X001237Y024204D01*
X000987Y024454D01*
X000987Y024954D01*
X001237Y025204D01*
X001737Y025204D01*
X001987Y024954D01*
X001987Y024454D01*
X001737Y024204D01*
X001987Y023954D01*
X001987Y023454D01*
X001737Y023204D01*
X001237Y023204D01*
X001737Y023204D01*
X001987Y022954D01*
X001987Y022454D01*
X001737Y022204D01*
X001987Y021954D01*
X001987Y021454D01*
X001737Y021204D01*
X001987Y020954D01*
X001987Y020454D01*
X001737Y020204D01*
X001987Y019954D01*
X001987Y019454D01*
X001737Y019204D01*
X001987Y018954D01*
X001987Y018454D01*
X001737Y018204D01*
X001987Y017954D01*
X001987Y017454D01*
X001737Y017204D01*
X001987Y016954D01*
X001987Y016454D01*
X001737Y016204D01*
X001987Y015954D01*
X001987Y015454D01*
X001737Y015204D01*
X001987Y014954D01*
X001987Y014454D01*
X001737Y014204D01*
X001987Y013954D01*
X001987Y013454D01*
X001737Y013204D01*
X001987Y012954D01*
X001987Y012454D01*
X001737Y012204D01*
X001987Y011954D01*
X001987Y011454D01*
X001737Y011204D01*
X001987Y010954D01*
X001987Y010454D01*
X001737Y010204D01*
X001987Y009954D01*
X001987Y009454D01*
X001737Y009204D01*
X001987Y008954D01*
X001987Y008454D01*
X001737Y008204D01*
X001987Y007954D01*
X001987Y007454D01*
X001737Y007204D01*
X002237Y008204D02*
X001987Y008454D01*
X001987Y008954D01*
X002237Y009204D01*
X001987Y009454D01*
X001987Y009954D01*
X002237Y010204D01*
X001987Y010454D01*
X001987Y010954D01*
X002237Y011204D01*
X001987Y011454D01*
X001987Y011954D01*
X002237Y012204D01*
X001987Y012454D01*
X001987Y012954D01*
X002237Y013204D01*
X001987Y013454D01*
X001987Y013954D01*
X002237Y014204D01*
X001987Y014454D01*
X001987Y014954D01*
X002237Y015204D01*
X001987Y015454D01*
X001987Y015954D01*
X002237Y016204D01*
X001987Y016454D01*
X001987Y016954D01*
X002237Y017204D01*
X001987Y017454D01*
X001987Y017954D01*
X002237Y018204D01*
X001987Y018454D01*
X001987Y018954D01*
X002237Y019204D01*
X001987Y019454D01*
X001987Y019954D01*
X002237Y020204D01*
X001987Y020454D01*
X001987Y020954D01*
X002237Y021204D01*
X001987Y021454D01*
X001987Y021954D01*
X002237Y022204D01*
X002737Y022204D01*
X002987Y021954D01*
X002987Y021454D01*
X002737Y021204D01*
X002987Y020954D01*
X002987Y020454D01*
X002737Y020204D01*
X002987Y019954D01*
X002987Y019454D01*
X002737Y019204D01*
X002987Y018954D01*
X002987Y018454D01*
X002737Y018204D01*
X002987Y017954D01*
X002987Y017454D01*
X002737Y017204D01*
X002987Y016954D01*
X002987Y016454D01*
X002737Y016204D01*
X002987Y015954D01*
X002987Y015454D01*
X002737Y015204D01*
X002987Y014954D01*
X002987Y014454D01*
X002737Y014204D01*
X002987Y013954D01*
X002987Y013454D01*
X002737Y013204D01*
X002987Y012954D01*
X002987Y012454D01*
X002737Y012204D01*
X002987Y011954D01*
X002987Y011454D01*
X002737Y011204D01*
X002987Y010954D01*
X002987Y010454D01*
X002737Y010204D01*
X002987Y009954D01*
X002987Y009454D01*
X002737Y009204D01*
X002987Y008954D01*
X002987Y008454D01*
X002737Y008204D01*
X002237Y008204D01*
X003688Y008114D02*
X004101Y007494D01*
X004332Y007597D02*
X004332Y007701D01*
X004436Y007804D01*
X004642Y007804D01*
X004746Y007701D01*
X004746Y007597D01*
X004642Y007494D01*
X004436Y007494D01*
X004332Y007597D01*
X004436Y007804D02*
X004332Y007907D01*
X004332Y008011D01*
X004436Y008114D01*
X004642Y008114D01*
X004746Y008011D01*
X004746Y007907D01*
X004642Y007804D01*
X004101Y008114D02*
X003688Y007494D01*
X009023Y007463D02*
X009023Y000140D01*
X014950Y000140D01*
X014950Y007463D01*
X009023Y007463D01*
X010988Y007594D02*
X011401Y008214D01*
X011632Y008214D02*
X012046Y008214D01*
X012046Y008111D01*
X011632Y007697D01*
X011632Y007594D01*
X011401Y007594D02*
X010988Y008214D01*
X016523Y007463D02*
X016523Y000140D01*
X022450Y000140D01*
X022450Y007463D01*
X016523Y007463D01*
X019277Y007494D02*
X019690Y008114D01*
X019921Y007804D02*
X020231Y007804D01*
X020335Y007701D01*
X020335Y007597D01*
X020231Y007494D01*
X020025Y007494D01*
X019921Y007597D01*
X019921Y007804D01*
X020128Y008011D01*
X020335Y008114D01*
X019690Y007494D02*
X019277Y008114D01*
X024023Y007463D02*
X024023Y000140D01*
X029950Y000140D01*
X029950Y007463D01*
X024023Y007463D01*
X026277Y007494D02*
X026690Y008114D01*
X026921Y008114D02*
X026921Y007804D01*
X027128Y007907D01*
X027231Y007907D01*
X027335Y007804D01*
X027335Y007597D01*
X027231Y007494D01*
X027025Y007494D01*
X026921Y007597D01*
X026690Y007494D02*
X026277Y008114D01*
X026921Y008114D02*
X027335Y008114D01*
X031523Y007463D02*
X031523Y000140D01*
X037450Y000140D01*
X037450Y007463D01*
X031523Y007463D01*
X033688Y007494D02*
X034101Y008114D01*
X034332Y007804D02*
X034746Y007804D01*
X034642Y007494D02*
X034642Y008114D01*
X034332Y007804D01*
X034101Y007494D02*
X033688Y008114D01*
X033727Y013240D02*
X041050Y013240D01*
X041050Y019167D01*
X033727Y019167D01*
X033727Y013240D01*
X033397Y013408D02*
X033397Y013821D01*
X033397Y014052D02*
X032776Y014466D01*
X032776Y014697D02*
X032776Y015007D01*
X032880Y015110D01*
X033086Y015110D01*
X033190Y015007D01*
X033190Y014697D01*
X033397Y014697D02*
X032776Y014697D01*
X032776Y014052D02*
X033397Y014466D01*
X032776Y013821D02*
X032776Y013408D01*
X033397Y013408D01*
X033086Y013408D02*
X033086Y013615D01*
X033086Y015341D02*
X033086Y015755D01*
X032983Y015755D02*
X033397Y015755D01*
X033397Y015986D02*
X032776Y015986D01*
X033397Y016400D01*
X032776Y016400D01*
X032880Y016630D02*
X032983Y016630D01*
X033086Y016734D01*
X033086Y016941D01*
X033190Y017044D01*
X033293Y017044D01*
X033397Y016941D01*
X033397Y016734D01*
X033293Y016630D01*
X032880Y016630D02*
X032776Y016734D01*
X032776Y016941D01*
X032880Y017044D01*
X032776Y017275D02*
X032776Y017482D01*
X032776Y017378D02*
X033397Y017378D01*
X033397Y017275D02*
X033397Y017482D01*
X033293Y017705D02*
X033397Y017808D01*
X033397Y018015D01*
X033293Y018118D01*
X032880Y018118D01*
X032776Y018015D01*
X032776Y017808D01*
X032880Y017705D01*
X033293Y017705D01*
X033397Y018349D02*
X032776Y018349D01*
X033397Y018763D01*
X032776Y018763D01*
X034341Y021696D02*
X034341Y022533D01*
X034341Y021696D02*
X039115Y021696D01*
X039115Y030712D01*
X034341Y030712D01*
X034341Y029944D01*
X022450Y032768D02*
X022450Y025444D01*
X016523Y025444D01*
X016523Y032768D01*
X022450Y032768D01*
X014950Y032768D02*
X014950Y025444D01*
X009023Y025444D01*
X009023Y032768D01*
X014950Y032768D01*
X007450Y032768D02*
X007450Y025444D01*
X001523Y025444D01*
X001523Y032768D01*
X007450Y032768D01*
X005439Y025214D02*
X005439Y024594D01*
X005232Y024594D02*
X005646Y024594D01*
X005232Y025007D02*
X005439Y025214D01*
X005001Y025214D02*
X004588Y024594D01*
X005001Y024594D02*
X004588Y025214D01*
X011088Y025314D02*
X011501Y024694D01*
X011732Y024694D02*
X012146Y025107D01*
X012146Y025211D01*
X012042Y025314D01*
X011836Y025314D01*
X011732Y025211D01*
X011501Y025314D02*
X011088Y024694D01*
X011732Y024694D02*
X012146Y024694D01*
X014042Y023952D02*
X014042Y022653D01*
X017932Y022653D01*
X017932Y022456D01*
X017932Y022653D02*
X017932Y023952D01*
X019388Y024694D02*
X019801Y025314D01*
X020032Y025211D02*
X020136Y025314D01*
X020342Y025314D01*
X020446Y025211D01*
X020446Y025107D01*
X020342Y025004D01*
X020446Y024901D01*
X020446Y024797D01*
X020342Y024694D01*
X020136Y024694D01*
X020032Y024797D01*
X019801Y024694D02*
X019388Y025314D01*
X020239Y025004D02*
X020342Y025004D01*
X014042Y022653D02*
X014042Y022456D01*
X017425Y016815D02*
X019875Y019265D01*
X020098Y019265D01*
X022548Y016815D01*
X022548Y016592D01*
X020098Y014143D01*
X019875Y014143D01*
X017425Y016592D01*
X017425Y016815D01*
X032776Y015548D02*
X032983Y015755D01*
X032776Y015548D02*
X032983Y015341D01*
X033397Y015341D01*
D19*
X012987Y010074D02*
X008987Y010074D01*
X006617Y011204D02*
X006617Y015204D01*
X006617Y018204D02*
X006617Y022204D01*
D20*
X007812Y031874D02*
X001162Y031874D01*
X008662Y031874D02*
X015312Y031874D01*
X016162Y031874D02*
X022812Y031874D01*
X040157Y019529D02*
X040157Y012879D01*
X037812Y001034D02*
X031162Y001034D01*
X030312Y001034D02*
X023662Y001034D01*
X022812Y001034D02*
X016162Y001034D01*
X015312Y001034D02*
X008662Y001034D01*
X007812Y001034D02*
X001162Y001034D01*
D21*
X007730Y001269D03*
X015230Y001269D03*
X022730Y001269D03*
X030230Y001269D03*
X037730Y001269D03*
X016244Y031638D03*
X008744Y031638D03*
X001244Y031638D03*
D22*
X007735Y031638D03*
X015235Y031638D03*
X022735Y031638D03*
X023739Y001269D03*
X031239Y001269D03*
X016239Y001269D03*
X008739Y001269D03*
X001239Y001269D03*
D23*
X019876Y014477D02*
X019878Y014497D01*
X019883Y014517D01*
X019893Y014535D01*
X019905Y014552D01*
X019920Y014566D01*
X019938Y014576D01*
X019957Y014584D01*
X019977Y014588D01*
X019997Y014588D01*
X020017Y014584D01*
X020036Y014576D01*
X020054Y014566D01*
X020069Y014552D01*
X020081Y014535D01*
X020091Y014517D01*
X020096Y014497D01*
X020098Y014477D01*
X020096Y014457D01*
X020091Y014437D01*
X020081Y014419D01*
X020069Y014402D01*
X020054Y014388D01*
X020036Y014378D01*
X020017Y014370D01*
X019997Y014366D01*
X019977Y014366D01*
X019957Y014370D01*
X019938Y014378D01*
X019920Y014388D01*
X019905Y014402D01*
X019893Y014419D01*
X019883Y014437D01*
X019878Y014457D01*
X019876Y014477D01*
D24*
X033126Y021104D03*
D25*
X039921Y019447D03*
D26*
X039921Y012956D03*
M02*
