G75*
%MOIN*%
%OFA0B0*%
%FSLAX24Y24*%
%IPPOS*%
%LPD*%
%AMOC8*
5,1,8,0,0,1.08239X$1,22.5*
%
%ADD10C,0.0000*%
%ADD11C,0.0160*%
%ADD12C,0.0050*%
%ADD13C,0.0040*%
%ADD14C,0.0060*%
%ADD15C,0.0020*%
%ADD16R,0.0200X0.0050*%
%ADD17C,0.0080*%
%ADD18C,0.0004*%
%ADD19R,0.0502X0.0450*%
%ADD20R,0.0492X0.0450*%
%ADD21R,0.0300X0.7300*%
%ADD22R,0.0200X1.2200*%
%ADD23R,0.2850X0.0320*%
%ADD24R,0.1850X0.0320*%
%ADD25C,0.0070*%
%ADD26C,0.0100*%
%ADD27R,0.0079X0.0079*%
D10*
X000150Y001204D02*
X000150Y030700D01*
X039020Y030700D01*
X039020Y001204D01*
X000150Y001204D01*
X001260Y003204D02*
X001262Y003254D01*
X001268Y003304D01*
X001278Y003353D01*
X001291Y003402D01*
X001309Y003449D01*
X001330Y003495D01*
X001354Y003538D01*
X001382Y003580D01*
X001413Y003620D01*
X001447Y003657D01*
X001484Y003691D01*
X001524Y003722D01*
X001566Y003750D01*
X001609Y003774D01*
X001655Y003795D01*
X001702Y003813D01*
X001751Y003826D01*
X001800Y003836D01*
X001850Y003842D01*
X001900Y003844D01*
X001950Y003842D01*
X002000Y003836D01*
X002049Y003826D01*
X002098Y003813D01*
X002145Y003795D01*
X002191Y003774D01*
X002234Y003750D01*
X002276Y003722D01*
X002316Y003691D01*
X002353Y003657D01*
X002387Y003620D01*
X002418Y003580D01*
X002446Y003538D01*
X002470Y003495D01*
X002491Y003449D01*
X002509Y003402D01*
X002522Y003353D01*
X002532Y003304D01*
X002538Y003254D01*
X002540Y003204D01*
X002538Y003154D01*
X002532Y003104D01*
X002522Y003055D01*
X002509Y003006D01*
X002491Y002959D01*
X002470Y002913D01*
X002446Y002870D01*
X002418Y002828D01*
X002387Y002788D01*
X002353Y002751D01*
X002316Y002717D01*
X002276Y002686D01*
X002234Y002658D01*
X002191Y002634D01*
X002145Y002613D01*
X002098Y002595D01*
X002049Y002582D01*
X002000Y002572D01*
X001950Y002566D01*
X001900Y002564D01*
X001850Y002566D01*
X001800Y002572D01*
X001751Y002582D01*
X001702Y002595D01*
X001655Y002613D01*
X001609Y002634D01*
X001566Y002658D01*
X001524Y002686D01*
X001484Y002717D01*
X001447Y002751D01*
X001413Y002788D01*
X001382Y002828D01*
X001354Y002870D01*
X001330Y002913D01*
X001309Y002959D01*
X001291Y003006D01*
X001278Y003055D01*
X001268Y003104D01*
X001262Y003154D01*
X001260Y003204D01*
X005760Y003204D02*
X005762Y003254D01*
X005768Y003304D01*
X005778Y003353D01*
X005791Y003402D01*
X005809Y003449D01*
X005830Y003495D01*
X005854Y003538D01*
X005882Y003580D01*
X005913Y003620D01*
X005947Y003657D01*
X005984Y003691D01*
X006024Y003722D01*
X006066Y003750D01*
X006109Y003774D01*
X006155Y003795D01*
X006202Y003813D01*
X006251Y003826D01*
X006300Y003836D01*
X006350Y003842D01*
X006400Y003844D01*
X006450Y003842D01*
X006500Y003836D01*
X006549Y003826D01*
X006598Y003813D01*
X006645Y003795D01*
X006691Y003774D01*
X006734Y003750D01*
X006776Y003722D01*
X006816Y003691D01*
X006853Y003657D01*
X006887Y003620D01*
X006918Y003580D01*
X006946Y003538D01*
X006970Y003495D01*
X006991Y003449D01*
X007009Y003402D01*
X007022Y003353D01*
X007032Y003304D01*
X007038Y003254D01*
X007040Y003204D01*
X007038Y003154D01*
X007032Y003104D01*
X007022Y003055D01*
X007009Y003006D01*
X006991Y002959D01*
X006970Y002913D01*
X006946Y002870D01*
X006918Y002828D01*
X006887Y002788D01*
X006853Y002751D01*
X006816Y002717D01*
X006776Y002686D01*
X006734Y002658D01*
X006691Y002634D01*
X006645Y002613D01*
X006598Y002595D01*
X006549Y002582D01*
X006500Y002572D01*
X006450Y002566D01*
X006400Y002564D01*
X006350Y002566D01*
X006300Y002572D01*
X006251Y002582D01*
X006202Y002595D01*
X006155Y002613D01*
X006109Y002634D01*
X006066Y002658D01*
X006024Y002686D01*
X005984Y002717D01*
X005947Y002751D01*
X005913Y002788D01*
X005882Y002828D01*
X005854Y002870D01*
X005830Y002913D01*
X005809Y002959D01*
X005791Y003006D01*
X005778Y003055D01*
X005768Y003104D01*
X005762Y003154D01*
X005760Y003204D01*
X008760Y003204D02*
X008762Y003254D01*
X008768Y003304D01*
X008778Y003353D01*
X008791Y003402D01*
X008809Y003449D01*
X008830Y003495D01*
X008854Y003538D01*
X008882Y003580D01*
X008913Y003620D01*
X008947Y003657D01*
X008984Y003691D01*
X009024Y003722D01*
X009066Y003750D01*
X009109Y003774D01*
X009155Y003795D01*
X009202Y003813D01*
X009251Y003826D01*
X009300Y003836D01*
X009350Y003842D01*
X009400Y003844D01*
X009450Y003842D01*
X009500Y003836D01*
X009549Y003826D01*
X009598Y003813D01*
X009645Y003795D01*
X009691Y003774D01*
X009734Y003750D01*
X009776Y003722D01*
X009816Y003691D01*
X009853Y003657D01*
X009887Y003620D01*
X009918Y003580D01*
X009946Y003538D01*
X009970Y003495D01*
X009991Y003449D01*
X010009Y003402D01*
X010022Y003353D01*
X010032Y003304D01*
X010038Y003254D01*
X010040Y003204D01*
X010038Y003154D01*
X010032Y003104D01*
X010022Y003055D01*
X010009Y003006D01*
X009991Y002959D01*
X009970Y002913D01*
X009946Y002870D01*
X009918Y002828D01*
X009887Y002788D01*
X009853Y002751D01*
X009816Y002717D01*
X009776Y002686D01*
X009734Y002658D01*
X009691Y002634D01*
X009645Y002613D01*
X009598Y002595D01*
X009549Y002582D01*
X009500Y002572D01*
X009450Y002566D01*
X009400Y002564D01*
X009350Y002566D01*
X009300Y002572D01*
X009251Y002582D01*
X009202Y002595D01*
X009155Y002613D01*
X009109Y002634D01*
X009066Y002658D01*
X009024Y002686D01*
X008984Y002717D01*
X008947Y002751D01*
X008913Y002788D01*
X008882Y002828D01*
X008854Y002870D01*
X008830Y002913D01*
X008809Y002959D01*
X008791Y003006D01*
X008778Y003055D01*
X008768Y003104D01*
X008762Y003154D01*
X008760Y003204D01*
X013260Y003204D02*
X013262Y003254D01*
X013268Y003304D01*
X013278Y003353D01*
X013291Y003402D01*
X013309Y003449D01*
X013330Y003495D01*
X013354Y003538D01*
X013382Y003580D01*
X013413Y003620D01*
X013447Y003657D01*
X013484Y003691D01*
X013524Y003722D01*
X013566Y003750D01*
X013609Y003774D01*
X013655Y003795D01*
X013702Y003813D01*
X013751Y003826D01*
X013800Y003836D01*
X013850Y003842D01*
X013900Y003844D01*
X013950Y003842D01*
X014000Y003836D01*
X014049Y003826D01*
X014098Y003813D01*
X014145Y003795D01*
X014191Y003774D01*
X014234Y003750D01*
X014276Y003722D01*
X014316Y003691D01*
X014353Y003657D01*
X014387Y003620D01*
X014418Y003580D01*
X014446Y003538D01*
X014470Y003495D01*
X014491Y003449D01*
X014509Y003402D01*
X014522Y003353D01*
X014532Y003304D01*
X014538Y003254D01*
X014540Y003204D01*
X014538Y003154D01*
X014532Y003104D01*
X014522Y003055D01*
X014509Y003006D01*
X014491Y002959D01*
X014470Y002913D01*
X014446Y002870D01*
X014418Y002828D01*
X014387Y002788D01*
X014353Y002751D01*
X014316Y002717D01*
X014276Y002686D01*
X014234Y002658D01*
X014191Y002634D01*
X014145Y002613D01*
X014098Y002595D01*
X014049Y002582D01*
X014000Y002572D01*
X013950Y002566D01*
X013900Y002564D01*
X013850Y002566D01*
X013800Y002572D01*
X013751Y002582D01*
X013702Y002595D01*
X013655Y002613D01*
X013609Y002634D01*
X013566Y002658D01*
X013524Y002686D01*
X013484Y002717D01*
X013447Y002751D01*
X013413Y002788D01*
X013382Y002828D01*
X013354Y002870D01*
X013330Y002913D01*
X013309Y002959D01*
X013291Y003006D01*
X013278Y003055D01*
X013268Y003104D01*
X013262Y003154D01*
X013260Y003204D01*
X016260Y003204D02*
X016262Y003254D01*
X016268Y003304D01*
X016278Y003353D01*
X016291Y003402D01*
X016309Y003449D01*
X016330Y003495D01*
X016354Y003538D01*
X016382Y003580D01*
X016413Y003620D01*
X016447Y003657D01*
X016484Y003691D01*
X016524Y003722D01*
X016566Y003750D01*
X016609Y003774D01*
X016655Y003795D01*
X016702Y003813D01*
X016751Y003826D01*
X016800Y003836D01*
X016850Y003842D01*
X016900Y003844D01*
X016950Y003842D01*
X017000Y003836D01*
X017049Y003826D01*
X017098Y003813D01*
X017145Y003795D01*
X017191Y003774D01*
X017234Y003750D01*
X017276Y003722D01*
X017316Y003691D01*
X017353Y003657D01*
X017387Y003620D01*
X017418Y003580D01*
X017446Y003538D01*
X017470Y003495D01*
X017491Y003449D01*
X017509Y003402D01*
X017522Y003353D01*
X017532Y003304D01*
X017538Y003254D01*
X017540Y003204D01*
X017538Y003154D01*
X017532Y003104D01*
X017522Y003055D01*
X017509Y003006D01*
X017491Y002959D01*
X017470Y002913D01*
X017446Y002870D01*
X017418Y002828D01*
X017387Y002788D01*
X017353Y002751D01*
X017316Y002717D01*
X017276Y002686D01*
X017234Y002658D01*
X017191Y002634D01*
X017145Y002613D01*
X017098Y002595D01*
X017049Y002582D01*
X017000Y002572D01*
X016950Y002566D01*
X016900Y002564D01*
X016850Y002566D01*
X016800Y002572D01*
X016751Y002582D01*
X016702Y002595D01*
X016655Y002613D01*
X016609Y002634D01*
X016566Y002658D01*
X016524Y002686D01*
X016484Y002717D01*
X016447Y002751D01*
X016413Y002788D01*
X016382Y002828D01*
X016354Y002870D01*
X016330Y002913D01*
X016309Y002959D01*
X016291Y003006D01*
X016278Y003055D01*
X016268Y003104D01*
X016262Y003154D01*
X016260Y003204D01*
X020760Y003204D02*
X020762Y003254D01*
X020768Y003304D01*
X020778Y003353D01*
X020791Y003402D01*
X020809Y003449D01*
X020830Y003495D01*
X020854Y003538D01*
X020882Y003580D01*
X020913Y003620D01*
X020947Y003657D01*
X020984Y003691D01*
X021024Y003722D01*
X021066Y003750D01*
X021109Y003774D01*
X021155Y003795D01*
X021202Y003813D01*
X021251Y003826D01*
X021300Y003836D01*
X021350Y003842D01*
X021400Y003844D01*
X021450Y003842D01*
X021500Y003836D01*
X021549Y003826D01*
X021598Y003813D01*
X021645Y003795D01*
X021691Y003774D01*
X021734Y003750D01*
X021776Y003722D01*
X021816Y003691D01*
X021853Y003657D01*
X021887Y003620D01*
X021918Y003580D01*
X021946Y003538D01*
X021970Y003495D01*
X021991Y003449D01*
X022009Y003402D01*
X022022Y003353D01*
X022032Y003304D01*
X022038Y003254D01*
X022040Y003204D01*
X022038Y003154D01*
X022032Y003104D01*
X022022Y003055D01*
X022009Y003006D01*
X021991Y002959D01*
X021970Y002913D01*
X021946Y002870D01*
X021918Y002828D01*
X021887Y002788D01*
X021853Y002751D01*
X021816Y002717D01*
X021776Y002686D01*
X021734Y002658D01*
X021691Y002634D01*
X021645Y002613D01*
X021598Y002595D01*
X021549Y002582D01*
X021500Y002572D01*
X021450Y002566D01*
X021400Y002564D01*
X021350Y002566D01*
X021300Y002572D01*
X021251Y002582D01*
X021202Y002595D01*
X021155Y002613D01*
X021109Y002634D01*
X021066Y002658D01*
X021024Y002686D01*
X020984Y002717D01*
X020947Y002751D01*
X020913Y002788D01*
X020882Y002828D01*
X020854Y002870D01*
X020830Y002913D01*
X020809Y002959D01*
X020791Y003006D01*
X020778Y003055D01*
X020768Y003104D01*
X020762Y003154D01*
X020760Y003204D01*
X023760Y003204D02*
X023762Y003254D01*
X023768Y003304D01*
X023778Y003353D01*
X023791Y003402D01*
X023809Y003449D01*
X023830Y003495D01*
X023854Y003538D01*
X023882Y003580D01*
X023913Y003620D01*
X023947Y003657D01*
X023984Y003691D01*
X024024Y003722D01*
X024066Y003750D01*
X024109Y003774D01*
X024155Y003795D01*
X024202Y003813D01*
X024251Y003826D01*
X024300Y003836D01*
X024350Y003842D01*
X024400Y003844D01*
X024450Y003842D01*
X024500Y003836D01*
X024549Y003826D01*
X024598Y003813D01*
X024645Y003795D01*
X024691Y003774D01*
X024734Y003750D01*
X024776Y003722D01*
X024816Y003691D01*
X024853Y003657D01*
X024887Y003620D01*
X024918Y003580D01*
X024946Y003538D01*
X024970Y003495D01*
X024991Y003449D01*
X025009Y003402D01*
X025022Y003353D01*
X025032Y003304D01*
X025038Y003254D01*
X025040Y003204D01*
X025038Y003154D01*
X025032Y003104D01*
X025022Y003055D01*
X025009Y003006D01*
X024991Y002959D01*
X024970Y002913D01*
X024946Y002870D01*
X024918Y002828D01*
X024887Y002788D01*
X024853Y002751D01*
X024816Y002717D01*
X024776Y002686D01*
X024734Y002658D01*
X024691Y002634D01*
X024645Y002613D01*
X024598Y002595D01*
X024549Y002582D01*
X024500Y002572D01*
X024450Y002566D01*
X024400Y002564D01*
X024350Y002566D01*
X024300Y002572D01*
X024251Y002582D01*
X024202Y002595D01*
X024155Y002613D01*
X024109Y002634D01*
X024066Y002658D01*
X024024Y002686D01*
X023984Y002717D01*
X023947Y002751D01*
X023913Y002788D01*
X023882Y002828D01*
X023854Y002870D01*
X023830Y002913D01*
X023809Y002959D01*
X023791Y003006D01*
X023778Y003055D01*
X023768Y003104D01*
X023762Y003154D01*
X023760Y003204D01*
X028260Y003204D02*
X028262Y003254D01*
X028268Y003304D01*
X028278Y003353D01*
X028291Y003402D01*
X028309Y003449D01*
X028330Y003495D01*
X028354Y003538D01*
X028382Y003580D01*
X028413Y003620D01*
X028447Y003657D01*
X028484Y003691D01*
X028524Y003722D01*
X028566Y003750D01*
X028609Y003774D01*
X028655Y003795D01*
X028702Y003813D01*
X028751Y003826D01*
X028800Y003836D01*
X028850Y003842D01*
X028900Y003844D01*
X028950Y003842D01*
X029000Y003836D01*
X029049Y003826D01*
X029098Y003813D01*
X029145Y003795D01*
X029191Y003774D01*
X029234Y003750D01*
X029276Y003722D01*
X029316Y003691D01*
X029353Y003657D01*
X029387Y003620D01*
X029418Y003580D01*
X029446Y003538D01*
X029470Y003495D01*
X029491Y003449D01*
X029509Y003402D01*
X029522Y003353D01*
X029532Y003304D01*
X029538Y003254D01*
X029540Y003204D01*
X029538Y003154D01*
X029532Y003104D01*
X029522Y003055D01*
X029509Y003006D01*
X029491Y002959D01*
X029470Y002913D01*
X029446Y002870D01*
X029418Y002828D01*
X029387Y002788D01*
X029353Y002751D01*
X029316Y002717D01*
X029276Y002686D01*
X029234Y002658D01*
X029191Y002634D01*
X029145Y002613D01*
X029098Y002595D01*
X029049Y002582D01*
X029000Y002572D01*
X028950Y002566D01*
X028900Y002564D01*
X028850Y002566D01*
X028800Y002572D01*
X028751Y002582D01*
X028702Y002595D01*
X028655Y002613D01*
X028609Y002634D01*
X028566Y002658D01*
X028524Y002686D01*
X028484Y002717D01*
X028447Y002751D01*
X028413Y002788D01*
X028382Y002828D01*
X028354Y002870D01*
X028330Y002913D01*
X028309Y002959D01*
X028291Y003006D01*
X028278Y003055D01*
X028268Y003104D01*
X028262Y003154D01*
X028260Y003204D01*
X031260Y003204D02*
X031262Y003254D01*
X031268Y003304D01*
X031278Y003353D01*
X031291Y003402D01*
X031309Y003449D01*
X031330Y003495D01*
X031354Y003538D01*
X031382Y003580D01*
X031413Y003620D01*
X031447Y003657D01*
X031484Y003691D01*
X031524Y003722D01*
X031566Y003750D01*
X031609Y003774D01*
X031655Y003795D01*
X031702Y003813D01*
X031751Y003826D01*
X031800Y003836D01*
X031850Y003842D01*
X031900Y003844D01*
X031950Y003842D01*
X032000Y003836D01*
X032049Y003826D01*
X032098Y003813D01*
X032145Y003795D01*
X032191Y003774D01*
X032234Y003750D01*
X032276Y003722D01*
X032316Y003691D01*
X032353Y003657D01*
X032387Y003620D01*
X032418Y003580D01*
X032446Y003538D01*
X032470Y003495D01*
X032491Y003449D01*
X032509Y003402D01*
X032522Y003353D01*
X032532Y003304D01*
X032538Y003254D01*
X032540Y003204D01*
X032538Y003154D01*
X032532Y003104D01*
X032522Y003055D01*
X032509Y003006D01*
X032491Y002959D01*
X032470Y002913D01*
X032446Y002870D01*
X032418Y002828D01*
X032387Y002788D01*
X032353Y002751D01*
X032316Y002717D01*
X032276Y002686D01*
X032234Y002658D01*
X032191Y002634D01*
X032145Y002613D01*
X032098Y002595D01*
X032049Y002582D01*
X032000Y002572D01*
X031950Y002566D01*
X031900Y002564D01*
X031850Y002566D01*
X031800Y002572D01*
X031751Y002582D01*
X031702Y002595D01*
X031655Y002613D01*
X031609Y002634D01*
X031566Y002658D01*
X031524Y002686D01*
X031484Y002717D01*
X031447Y002751D01*
X031413Y002788D01*
X031382Y002828D01*
X031354Y002870D01*
X031330Y002913D01*
X031309Y002959D01*
X031291Y003006D01*
X031278Y003055D01*
X031268Y003104D01*
X031262Y003154D01*
X031260Y003204D01*
X035760Y003204D02*
X035762Y003254D01*
X035768Y003304D01*
X035778Y003353D01*
X035791Y003402D01*
X035809Y003449D01*
X035830Y003495D01*
X035854Y003538D01*
X035882Y003580D01*
X035913Y003620D01*
X035947Y003657D01*
X035984Y003691D01*
X036024Y003722D01*
X036066Y003750D01*
X036109Y003774D01*
X036155Y003795D01*
X036202Y003813D01*
X036251Y003826D01*
X036300Y003836D01*
X036350Y003842D01*
X036400Y003844D01*
X036450Y003842D01*
X036500Y003836D01*
X036549Y003826D01*
X036598Y003813D01*
X036645Y003795D01*
X036691Y003774D01*
X036734Y003750D01*
X036776Y003722D01*
X036816Y003691D01*
X036853Y003657D01*
X036887Y003620D01*
X036918Y003580D01*
X036946Y003538D01*
X036970Y003495D01*
X036991Y003449D01*
X037009Y003402D01*
X037022Y003353D01*
X037032Y003304D01*
X037038Y003254D01*
X037040Y003204D01*
X037038Y003154D01*
X037032Y003104D01*
X037022Y003055D01*
X037009Y003006D01*
X036991Y002959D01*
X036970Y002913D01*
X036946Y002870D01*
X036918Y002828D01*
X036887Y002788D01*
X036853Y002751D01*
X036816Y002717D01*
X036776Y002686D01*
X036734Y002658D01*
X036691Y002634D01*
X036645Y002613D01*
X036598Y002595D01*
X036549Y002582D01*
X036500Y002572D01*
X036450Y002566D01*
X036400Y002564D01*
X036350Y002566D01*
X036300Y002572D01*
X036251Y002582D01*
X036202Y002595D01*
X036155Y002613D01*
X036109Y002634D01*
X036066Y002658D01*
X036024Y002686D01*
X035984Y002717D01*
X035947Y002751D01*
X035913Y002788D01*
X035882Y002828D01*
X035854Y002870D01*
X035830Y002913D01*
X035809Y002959D01*
X035791Y003006D01*
X035778Y003055D01*
X035768Y003104D01*
X035762Y003154D01*
X035760Y003204D01*
X034158Y021704D02*
X034160Y021748D01*
X034166Y021792D01*
X034176Y021835D01*
X034189Y021877D01*
X034207Y021917D01*
X034228Y021956D01*
X034252Y021993D01*
X034279Y022028D01*
X034310Y022060D01*
X034343Y022089D01*
X034379Y022115D01*
X034417Y022137D01*
X034457Y022156D01*
X034498Y022172D01*
X034541Y022184D01*
X034584Y022192D01*
X034628Y022196D01*
X034672Y022196D01*
X034716Y022192D01*
X034759Y022184D01*
X034802Y022172D01*
X034843Y022156D01*
X034883Y022137D01*
X034921Y022115D01*
X034957Y022089D01*
X034990Y022060D01*
X035021Y022028D01*
X035048Y021993D01*
X035072Y021956D01*
X035093Y021917D01*
X035111Y021877D01*
X035124Y021835D01*
X035134Y021792D01*
X035140Y021748D01*
X035142Y021704D01*
X035140Y021660D01*
X035134Y021616D01*
X035124Y021573D01*
X035111Y021531D01*
X035093Y021491D01*
X035072Y021452D01*
X035048Y021415D01*
X035021Y021380D01*
X034990Y021348D01*
X034957Y021319D01*
X034921Y021293D01*
X034883Y021271D01*
X034843Y021252D01*
X034802Y021236D01*
X034759Y021224D01*
X034716Y021216D01*
X034672Y021212D01*
X034628Y021212D01*
X034584Y021216D01*
X034541Y021224D01*
X034498Y021236D01*
X034457Y021252D01*
X034417Y021271D01*
X034379Y021293D01*
X034343Y021319D01*
X034310Y021348D01*
X034279Y021380D01*
X034252Y021415D01*
X034228Y021452D01*
X034207Y021491D01*
X034189Y021531D01*
X034176Y021573D01*
X034166Y021616D01*
X034160Y021660D01*
X034158Y021704D01*
X036863Y023704D02*
X036865Y023760D01*
X036871Y023815D01*
X036881Y023869D01*
X036894Y023923D01*
X036912Y023976D01*
X036933Y024027D01*
X036957Y024077D01*
X036985Y024125D01*
X037017Y024171D01*
X037051Y024215D01*
X037089Y024256D01*
X037129Y024294D01*
X037172Y024329D01*
X037217Y024361D01*
X037265Y024390D01*
X037314Y024416D01*
X037365Y024438D01*
X037417Y024456D01*
X037471Y024470D01*
X037526Y024481D01*
X037581Y024488D01*
X037636Y024491D01*
X037692Y024490D01*
X037747Y024485D01*
X037802Y024476D01*
X037856Y024464D01*
X037909Y024447D01*
X037961Y024427D01*
X038011Y024403D01*
X038059Y024376D01*
X038106Y024346D01*
X038150Y024312D01*
X038192Y024275D01*
X038230Y024235D01*
X038267Y024193D01*
X038300Y024148D01*
X038329Y024102D01*
X038356Y024053D01*
X038378Y024002D01*
X038398Y023950D01*
X038413Y023896D01*
X038425Y023842D01*
X038433Y023787D01*
X038437Y023732D01*
X038437Y023676D01*
X038433Y023621D01*
X038425Y023566D01*
X038413Y023512D01*
X038398Y023458D01*
X038378Y023406D01*
X038356Y023355D01*
X038329Y023306D01*
X038300Y023260D01*
X038267Y023215D01*
X038230Y023173D01*
X038192Y023133D01*
X038150Y023096D01*
X038106Y023062D01*
X038059Y023032D01*
X038011Y023005D01*
X037961Y022981D01*
X037909Y022961D01*
X037856Y022944D01*
X037802Y022932D01*
X037747Y022923D01*
X037692Y022918D01*
X037636Y022917D01*
X037581Y022920D01*
X037526Y022927D01*
X037471Y022938D01*
X037417Y022952D01*
X037365Y022970D01*
X037314Y022992D01*
X037265Y023018D01*
X037217Y023047D01*
X037172Y023079D01*
X037129Y023114D01*
X037089Y023152D01*
X037051Y023193D01*
X037017Y023237D01*
X036985Y023283D01*
X036957Y023331D01*
X036933Y023381D01*
X036912Y023432D01*
X036894Y023485D01*
X036881Y023539D01*
X036871Y023593D01*
X036865Y023648D01*
X036863Y023704D01*
X036863Y027704D02*
X036865Y027760D01*
X036871Y027815D01*
X036881Y027869D01*
X036894Y027923D01*
X036912Y027976D01*
X036933Y028027D01*
X036957Y028077D01*
X036985Y028125D01*
X037017Y028171D01*
X037051Y028215D01*
X037089Y028256D01*
X037129Y028294D01*
X037172Y028329D01*
X037217Y028361D01*
X037265Y028390D01*
X037314Y028416D01*
X037365Y028438D01*
X037417Y028456D01*
X037471Y028470D01*
X037526Y028481D01*
X037581Y028488D01*
X037636Y028491D01*
X037692Y028490D01*
X037747Y028485D01*
X037802Y028476D01*
X037856Y028464D01*
X037909Y028447D01*
X037961Y028427D01*
X038011Y028403D01*
X038059Y028376D01*
X038106Y028346D01*
X038150Y028312D01*
X038192Y028275D01*
X038230Y028235D01*
X038267Y028193D01*
X038300Y028148D01*
X038329Y028102D01*
X038356Y028053D01*
X038378Y028002D01*
X038398Y027950D01*
X038413Y027896D01*
X038425Y027842D01*
X038433Y027787D01*
X038437Y027732D01*
X038437Y027676D01*
X038433Y027621D01*
X038425Y027566D01*
X038413Y027512D01*
X038398Y027458D01*
X038378Y027406D01*
X038356Y027355D01*
X038329Y027306D01*
X038300Y027260D01*
X038267Y027215D01*
X038230Y027173D01*
X038192Y027133D01*
X038150Y027096D01*
X038106Y027062D01*
X038059Y027032D01*
X038011Y027005D01*
X037961Y026981D01*
X037909Y026961D01*
X037856Y026944D01*
X037802Y026932D01*
X037747Y026923D01*
X037692Y026918D01*
X037636Y026917D01*
X037581Y026920D01*
X037526Y026927D01*
X037471Y026938D01*
X037417Y026952D01*
X037365Y026970D01*
X037314Y026992D01*
X037265Y027018D01*
X037217Y027047D01*
X037172Y027079D01*
X037129Y027114D01*
X037089Y027152D01*
X037051Y027193D01*
X037017Y027237D01*
X036985Y027283D01*
X036957Y027331D01*
X036933Y027381D01*
X036912Y027432D01*
X036894Y027485D01*
X036881Y027539D01*
X036871Y027593D01*
X036865Y027648D01*
X036863Y027704D01*
X034158Y029704D02*
X034160Y029748D01*
X034166Y029792D01*
X034176Y029835D01*
X034189Y029877D01*
X034207Y029917D01*
X034228Y029956D01*
X034252Y029993D01*
X034279Y030028D01*
X034310Y030060D01*
X034343Y030089D01*
X034379Y030115D01*
X034417Y030137D01*
X034457Y030156D01*
X034498Y030172D01*
X034541Y030184D01*
X034584Y030192D01*
X034628Y030196D01*
X034672Y030196D01*
X034716Y030192D01*
X034759Y030184D01*
X034802Y030172D01*
X034843Y030156D01*
X034883Y030137D01*
X034921Y030115D01*
X034957Y030089D01*
X034990Y030060D01*
X035021Y030028D01*
X035048Y029993D01*
X035072Y029956D01*
X035093Y029917D01*
X035111Y029877D01*
X035124Y029835D01*
X035134Y029792D01*
X035140Y029748D01*
X035142Y029704D01*
X035140Y029660D01*
X035134Y029616D01*
X035124Y029573D01*
X035111Y029531D01*
X035093Y029491D01*
X035072Y029452D01*
X035048Y029415D01*
X035021Y029380D01*
X034990Y029348D01*
X034957Y029319D01*
X034921Y029293D01*
X034883Y029271D01*
X034843Y029252D01*
X034802Y029236D01*
X034759Y029224D01*
X034716Y029216D01*
X034672Y029212D01*
X034628Y029212D01*
X034584Y029216D01*
X034541Y029224D01*
X034498Y029236D01*
X034457Y029252D01*
X034417Y029271D01*
X034379Y029293D01*
X034343Y029319D01*
X034310Y029348D01*
X034279Y029380D01*
X034252Y029415D01*
X034228Y029452D01*
X034207Y029491D01*
X034189Y029531D01*
X034176Y029573D01*
X034166Y029616D01*
X034160Y029660D01*
X034158Y029704D01*
X020760Y028704D02*
X020762Y028754D01*
X020768Y028804D01*
X020778Y028853D01*
X020791Y028902D01*
X020809Y028949D01*
X020830Y028995D01*
X020854Y029038D01*
X020882Y029080D01*
X020913Y029120D01*
X020947Y029157D01*
X020984Y029191D01*
X021024Y029222D01*
X021066Y029250D01*
X021109Y029274D01*
X021155Y029295D01*
X021202Y029313D01*
X021251Y029326D01*
X021300Y029336D01*
X021350Y029342D01*
X021400Y029344D01*
X021450Y029342D01*
X021500Y029336D01*
X021549Y029326D01*
X021598Y029313D01*
X021645Y029295D01*
X021691Y029274D01*
X021734Y029250D01*
X021776Y029222D01*
X021816Y029191D01*
X021853Y029157D01*
X021887Y029120D01*
X021918Y029080D01*
X021946Y029038D01*
X021970Y028995D01*
X021991Y028949D01*
X022009Y028902D01*
X022022Y028853D01*
X022032Y028804D01*
X022038Y028754D01*
X022040Y028704D01*
X022038Y028654D01*
X022032Y028604D01*
X022022Y028555D01*
X022009Y028506D01*
X021991Y028459D01*
X021970Y028413D01*
X021946Y028370D01*
X021918Y028328D01*
X021887Y028288D01*
X021853Y028251D01*
X021816Y028217D01*
X021776Y028186D01*
X021734Y028158D01*
X021691Y028134D01*
X021645Y028113D01*
X021598Y028095D01*
X021549Y028082D01*
X021500Y028072D01*
X021450Y028066D01*
X021400Y028064D01*
X021350Y028066D01*
X021300Y028072D01*
X021251Y028082D01*
X021202Y028095D01*
X021155Y028113D01*
X021109Y028134D01*
X021066Y028158D01*
X021024Y028186D01*
X020984Y028217D01*
X020947Y028251D01*
X020913Y028288D01*
X020882Y028328D01*
X020854Y028370D01*
X020830Y028413D01*
X020809Y028459D01*
X020791Y028506D01*
X020778Y028555D01*
X020768Y028604D01*
X020762Y028654D01*
X020760Y028704D01*
X016260Y028704D02*
X016262Y028754D01*
X016268Y028804D01*
X016278Y028853D01*
X016291Y028902D01*
X016309Y028949D01*
X016330Y028995D01*
X016354Y029038D01*
X016382Y029080D01*
X016413Y029120D01*
X016447Y029157D01*
X016484Y029191D01*
X016524Y029222D01*
X016566Y029250D01*
X016609Y029274D01*
X016655Y029295D01*
X016702Y029313D01*
X016751Y029326D01*
X016800Y029336D01*
X016850Y029342D01*
X016900Y029344D01*
X016950Y029342D01*
X017000Y029336D01*
X017049Y029326D01*
X017098Y029313D01*
X017145Y029295D01*
X017191Y029274D01*
X017234Y029250D01*
X017276Y029222D01*
X017316Y029191D01*
X017353Y029157D01*
X017387Y029120D01*
X017418Y029080D01*
X017446Y029038D01*
X017470Y028995D01*
X017491Y028949D01*
X017509Y028902D01*
X017522Y028853D01*
X017532Y028804D01*
X017538Y028754D01*
X017540Y028704D01*
X017538Y028654D01*
X017532Y028604D01*
X017522Y028555D01*
X017509Y028506D01*
X017491Y028459D01*
X017470Y028413D01*
X017446Y028370D01*
X017418Y028328D01*
X017387Y028288D01*
X017353Y028251D01*
X017316Y028217D01*
X017276Y028186D01*
X017234Y028158D01*
X017191Y028134D01*
X017145Y028113D01*
X017098Y028095D01*
X017049Y028082D01*
X017000Y028072D01*
X016950Y028066D01*
X016900Y028064D01*
X016850Y028066D01*
X016800Y028072D01*
X016751Y028082D01*
X016702Y028095D01*
X016655Y028113D01*
X016609Y028134D01*
X016566Y028158D01*
X016524Y028186D01*
X016484Y028217D01*
X016447Y028251D01*
X016413Y028288D01*
X016382Y028328D01*
X016354Y028370D01*
X016330Y028413D01*
X016309Y028459D01*
X016291Y028506D01*
X016278Y028555D01*
X016268Y028604D01*
X016262Y028654D01*
X016260Y028704D01*
X013260Y028704D02*
X013262Y028754D01*
X013268Y028804D01*
X013278Y028853D01*
X013291Y028902D01*
X013309Y028949D01*
X013330Y028995D01*
X013354Y029038D01*
X013382Y029080D01*
X013413Y029120D01*
X013447Y029157D01*
X013484Y029191D01*
X013524Y029222D01*
X013566Y029250D01*
X013609Y029274D01*
X013655Y029295D01*
X013702Y029313D01*
X013751Y029326D01*
X013800Y029336D01*
X013850Y029342D01*
X013900Y029344D01*
X013950Y029342D01*
X014000Y029336D01*
X014049Y029326D01*
X014098Y029313D01*
X014145Y029295D01*
X014191Y029274D01*
X014234Y029250D01*
X014276Y029222D01*
X014316Y029191D01*
X014353Y029157D01*
X014387Y029120D01*
X014418Y029080D01*
X014446Y029038D01*
X014470Y028995D01*
X014491Y028949D01*
X014509Y028902D01*
X014522Y028853D01*
X014532Y028804D01*
X014538Y028754D01*
X014540Y028704D01*
X014538Y028654D01*
X014532Y028604D01*
X014522Y028555D01*
X014509Y028506D01*
X014491Y028459D01*
X014470Y028413D01*
X014446Y028370D01*
X014418Y028328D01*
X014387Y028288D01*
X014353Y028251D01*
X014316Y028217D01*
X014276Y028186D01*
X014234Y028158D01*
X014191Y028134D01*
X014145Y028113D01*
X014098Y028095D01*
X014049Y028082D01*
X014000Y028072D01*
X013950Y028066D01*
X013900Y028064D01*
X013850Y028066D01*
X013800Y028072D01*
X013751Y028082D01*
X013702Y028095D01*
X013655Y028113D01*
X013609Y028134D01*
X013566Y028158D01*
X013524Y028186D01*
X013484Y028217D01*
X013447Y028251D01*
X013413Y028288D01*
X013382Y028328D01*
X013354Y028370D01*
X013330Y028413D01*
X013309Y028459D01*
X013291Y028506D01*
X013278Y028555D01*
X013268Y028604D01*
X013262Y028654D01*
X013260Y028704D01*
X008760Y028704D02*
X008762Y028754D01*
X008768Y028804D01*
X008778Y028853D01*
X008791Y028902D01*
X008809Y028949D01*
X008830Y028995D01*
X008854Y029038D01*
X008882Y029080D01*
X008913Y029120D01*
X008947Y029157D01*
X008984Y029191D01*
X009024Y029222D01*
X009066Y029250D01*
X009109Y029274D01*
X009155Y029295D01*
X009202Y029313D01*
X009251Y029326D01*
X009300Y029336D01*
X009350Y029342D01*
X009400Y029344D01*
X009450Y029342D01*
X009500Y029336D01*
X009549Y029326D01*
X009598Y029313D01*
X009645Y029295D01*
X009691Y029274D01*
X009734Y029250D01*
X009776Y029222D01*
X009816Y029191D01*
X009853Y029157D01*
X009887Y029120D01*
X009918Y029080D01*
X009946Y029038D01*
X009970Y028995D01*
X009991Y028949D01*
X010009Y028902D01*
X010022Y028853D01*
X010032Y028804D01*
X010038Y028754D01*
X010040Y028704D01*
X010038Y028654D01*
X010032Y028604D01*
X010022Y028555D01*
X010009Y028506D01*
X009991Y028459D01*
X009970Y028413D01*
X009946Y028370D01*
X009918Y028328D01*
X009887Y028288D01*
X009853Y028251D01*
X009816Y028217D01*
X009776Y028186D01*
X009734Y028158D01*
X009691Y028134D01*
X009645Y028113D01*
X009598Y028095D01*
X009549Y028082D01*
X009500Y028072D01*
X009450Y028066D01*
X009400Y028064D01*
X009350Y028066D01*
X009300Y028072D01*
X009251Y028082D01*
X009202Y028095D01*
X009155Y028113D01*
X009109Y028134D01*
X009066Y028158D01*
X009024Y028186D01*
X008984Y028217D01*
X008947Y028251D01*
X008913Y028288D01*
X008882Y028328D01*
X008854Y028370D01*
X008830Y028413D01*
X008809Y028459D01*
X008791Y028506D01*
X008778Y028555D01*
X008768Y028604D01*
X008762Y028654D01*
X008760Y028704D01*
X005760Y028704D02*
X005762Y028754D01*
X005768Y028804D01*
X005778Y028853D01*
X005791Y028902D01*
X005809Y028949D01*
X005830Y028995D01*
X005854Y029038D01*
X005882Y029080D01*
X005913Y029120D01*
X005947Y029157D01*
X005984Y029191D01*
X006024Y029222D01*
X006066Y029250D01*
X006109Y029274D01*
X006155Y029295D01*
X006202Y029313D01*
X006251Y029326D01*
X006300Y029336D01*
X006350Y029342D01*
X006400Y029344D01*
X006450Y029342D01*
X006500Y029336D01*
X006549Y029326D01*
X006598Y029313D01*
X006645Y029295D01*
X006691Y029274D01*
X006734Y029250D01*
X006776Y029222D01*
X006816Y029191D01*
X006853Y029157D01*
X006887Y029120D01*
X006918Y029080D01*
X006946Y029038D01*
X006970Y028995D01*
X006991Y028949D01*
X007009Y028902D01*
X007022Y028853D01*
X007032Y028804D01*
X007038Y028754D01*
X007040Y028704D01*
X007038Y028654D01*
X007032Y028604D01*
X007022Y028555D01*
X007009Y028506D01*
X006991Y028459D01*
X006970Y028413D01*
X006946Y028370D01*
X006918Y028328D01*
X006887Y028288D01*
X006853Y028251D01*
X006816Y028217D01*
X006776Y028186D01*
X006734Y028158D01*
X006691Y028134D01*
X006645Y028113D01*
X006598Y028095D01*
X006549Y028082D01*
X006500Y028072D01*
X006450Y028066D01*
X006400Y028064D01*
X006350Y028066D01*
X006300Y028072D01*
X006251Y028082D01*
X006202Y028095D01*
X006155Y028113D01*
X006109Y028134D01*
X006066Y028158D01*
X006024Y028186D01*
X005984Y028217D01*
X005947Y028251D01*
X005913Y028288D01*
X005882Y028328D01*
X005854Y028370D01*
X005830Y028413D01*
X005809Y028459D01*
X005791Y028506D01*
X005778Y028555D01*
X005768Y028604D01*
X005762Y028654D01*
X005760Y028704D01*
X001260Y028704D02*
X001262Y028754D01*
X001268Y028804D01*
X001278Y028853D01*
X001291Y028902D01*
X001309Y028949D01*
X001330Y028995D01*
X001354Y029038D01*
X001382Y029080D01*
X001413Y029120D01*
X001447Y029157D01*
X001484Y029191D01*
X001524Y029222D01*
X001566Y029250D01*
X001609Y029274D01*
X001655Y029295D01*
X001702Y029313D01*
X001751Y029326D01*
X001800Y029336D01*
X001850Y029342D01*
X001900Y029344D01*
X001950Y029342D01*
X002000Y029336D01*
X002049Y029326D01*
X002098Y029313D01*
X002145Y029295D01*
X002191Y029274D01*
X002234Y029250D01*
X002276Y029222D01*
X002316Y029191D01*
X002353Y029157D01*
X002387Y029120D01*
X002418Y029080D01*
X002446Y029038D01*
X002470Y028995D01*
X002491Y028949D01*
X002509Y028902D01*
X002522Y028853D01*
X002532Y028804D01*
X002538Y028754D01*
X002540Y028704D01*
X002538Y028654D01*
X002532Y028604D01*
X002522Y028555D01*
X002509Y028506D01*
X002491Y028459D01*
X002470Y028413D01*
X002446Y028370D01*
X002418Y028328D01*
X002387Y028288D01*
X002353Y028251D01*
X002316Y028217D01*
X002276Y028186D01*
X002234Y028158D01*
X002191Y028134D01*
X002145Y028113D01*
X002098Y028095D01*
X002049Y028082D01*
X002000Y028072D01*
X001950Y028066D01*
X001900Y028064D01*
X001850Y028066D01*
X001800Y028072D01*
X001751Y028082D01*
X001702Y028095D01*
X001655Y028113D01*
X001609Y028134D01*
X001566Y028158D01*
X001524Y028186D01*
X001484Y028217D01*
X001447Y028251D01*
X001413Y028288D01*
X001382Y028328D01*
X001354Y028370D01*
X001330Y028413D01*
X001309Y028459D01*
X001291Y028506D01*
X001278Y028555D01*
X001268Y028604D01*
X001262Y028654D01*
X001260Y028704D01*
D11*
X001650Y020204D02*
X002650Y020204D01*
X002650Y016204D01*
X001650Y016204D01*
X001650Y020204D01*
X001650Y011704D02*
X002650Y011704D01*
X002650Y007704D01*
X001650Y007704D01*
X001650Y011704D01*
X018009Y011704D02*
X018011Y011727D01*
X018017Y011750D01*
X018026Y011771D01*
X018039Y011791D01*
X018055Y011808D01*
X018073Y011822D01*
X018093Y011833D01*
X018115Y011841D01*
X018138Y011845D01*
X018162Y011845D01*
X018185Y011841D01*
X018207Y011833D01*
X018227Y011822D01*
X018245Y011808D01*
X018261Y011791D01*
X018274Y011771D01*
X018283Y011750D01*
X018289Y011727D01*
X018291Y011704D01*
X018289Y011681D01*
X018283Y011658D01*
X018274Y011637D01*
X018261Y011617D01*
X018245Y011600D01*
X018227Y011586D01*
X018207Y011575D01*
X018185Y011567D01*
X018162Y011563D01*
X018138Y011563D01*
X018115Y011567D01*
X018093Y011575D01*
X018073Y011586D01*
X018055Y011600D01*
X018039Y011617D01*
X018026Y011637D01*
X018017Y011658D01*
X018011Y011681D01*
X018009Y011704D01*
X020009Y009704D02*
X020011Y009727D01*
X020017Y009750D01*
X020026Y009771D01*
X020039Y009791D01*
X020055Y009808D01*
X020073Y009822D01*
X020093Y009833D01*
X020115Y009841D01*
X020138Y009845D01*
X020162Y009845D01*
X020185Y009841D01*
X020207Y009833D01*
X020227Y009822D01*
X020245Y009808D01*
X020261Y009791D01*
X020274Y009771D01*
X020283Y009750D01*
X020289Y009727D01*
X020291Y009704D01*
X020289Y009681D01*
X020283Y009658D01*
X020274Y009637D01*
X020261Y009617D01*
X020245Y009600D01*
X020227Y009586D01*
X020207Y009575D01*
X020185Y009567D01*
X020162Y009563D01*
X020138Y009563D01*
X020115Y009567D01*
X020093Y009575D01*
X020073Y009586D01*
X020055Y009600D01*
X020039Y009617D01*
X020026Y009637D01*
X020017Y009658D01*
X020011Y009681D01*
X020009Y009704D01*
X025009Y021704D02*
X025011Y021727D01*
X025017Y021750D01*
X025026Y021771D01*
X025039Y021791D01*
X025055Y021808D01*
X025073Y021822D01*
X025093Y021833D01*
X025115Y021841D01*
X025138Y021845D01*
X025162Y021845D01*
X025185Y021841D01*
X025207Y021833D01*
X025227Y021822D01*
X025245Y021808D01*
X025261Y021791D01*
X025274Y021771D01*
X025283Y021750D01*
X025289Y021727D01*
X025291Y021704D01*
X025289Y021681D01*
X025283Y021658D01*
X025274Y021637D01*
X025261Y021617D01*
X025245Y021600D01*
X025227Y021586D01*
X025207Y021575D01*
X025185Y021567D01*
X025162Y021563D01*
X025138Y021563D01*
X025115Y021567D01*
X025093Y021575D01*
X025073Y021586D01*
X025055Y021600D01*
X025039Y021617D01*
X025026Y021637D01*
X025017Y021658D01*
X025011Y021681D01*
X025009Y021704D01*
D12*
X027425Y021494D02*
X027425Y021268D01*
X027875Y021268D01*
X027725Y021268D02*
X027725Y021494D01*
X027650Y021569D01*
X027500Y021569D01*
X027425Y021494D01*
X027500Y021108D02*
X027425Y021033D01*
X027425Y020883D01*
X027500Y020808D01*
X027575Y020808D01*
X027650Y020883D01*
X027650Y021033D01*
X027725Y021108D01*
X027800Y021108D01*
X027875Y021033D01*
X027875Y020883D01*
X027800Y020808D01*
X027875Y020651D02*
X027875Y020501D01*
X027875Y020576D02*
X027425Y020576D01*
X027425Y020501D02*
X027425Y020651D01*
X028375Y021504D02*
X028450Y021429D01*
X028750Y021429D01*
X028825Y021504D01*
X028825Y021654D01*
X028750Y021729D01*
X028825Y021889D02*
X028825Y022189D01*
X028825Y022039D02*
X028375Y022039D01*
X028525Y021889D01*
X028450Y021729D02*
X028375Y021654D01*
X028375Y021504D01*
X028450Y022350D02*
X028375Y022425D01*
X028375Y022575D01*
X028450Y022650D01*
X028750Y022350D01*
X028825Y022425D01*
X028825Y022575D01*
X028750Y022650D01*
X028450Y022650D01*
X028450Y022350D02*
X028750Y022350D01*
X030475Y022294D02*
X030475Y022143D01*
X030550Y022068D01*
X030625Y022068D01*
X030700Y022143D01*
X030700Y022369D01*
X030850Y022369D02*
X030550Y022369D01*
X030475Y022294D01*
X030850Y022369D02*
X030925Y022294D01*
X030925Y022143D01*
X030850Y022068D01*
X030850Y021908D02*
X030925Y021833D01*
X030925Y021683D01*
X030850Y021608D01*
X030550Y021608D01*
X030475Y021683D01*
X030475Y021833D01*
X030550Y021908D01*
X031030Y024199D02*
X031105Y024199D01*
X031180Y024274D01*
X031180Y024424D01*
X031255Y024499D01*
X031330Y024499D01*
X031405Y024424D01*
X031405Y024274D01*
X031330Y024199D01*
X031030Y024199D02*
X030955Y024274D01*
X030955Y024424D01*
X031030Y024499D01*
X030955Y024659D02*
X031405Y024659D01*
X031405Y024959D01*
X031405Y025120D02*
X030955Y025120D01*
X030955Y025345D01*
X031030Y025420D01*
X031180Y025420D01*
X031255Y025345D01*
X031255Y025120D01*
X031255Y025270D02*
X031405Y025420D01*
X031255Y025580D02*
X031405Y025730D01*
X031255Y025880D01*
X030955Y025880D01*
X031030Y026040D02*
X031330Y026040D01*
X031405Y026115D01*
X031405Y026266D01*
X031330Y026341D01*
X031030Y026341D01*
X030955Y026266D01*
X030955Y026115D01*
X031030Y026040D01*
X030955Y025580D02*
X031255Y025580D01*
X030955Y024959D02*
X030955Y024659D01*
X031180Y024659D02*
X031180Y024809D01*
X029205Y024774D02*
X029130Y024699D01*
X029205Y024774D02*
X029205Y024924D01*
X029130Y024999D01*
X029055Y024999D01*
X028980Y024924D01*
X028980Y024774D01*
X028905Y024699D01*
X028830Y024699D01*
X028755Y024774D01*
X028755Y024924D01*
X028830Y024999D01*
X028755Y025159D02*
X029205Y025159D01*
X029205Y025459D01*
X029205Y025620D02*
X028755Y025620D01*
X028755Y025845D01*
X028830Y025920D01*
X028980Y025920D01*
X029055Y025845D01*
X029055Y025620D01*
X029055Y025770D02*
X029205Y025920D01*
X029055Y026080D02*
X029205Y026230D01*
X029055Y026380D01*
X028755Y026380D01*
X028830Y026540D02*
X029130Y026540D01*
X029205Y026615D01*
X029205Y026766D01*
X029130Y026841D01*
X028830Y026841D01*
X028755Y026766D01*
X028755Y026615D01*
X028830Y026540D01*
X028405Y026726D02*
X027955Y026726D01*
X028180Y026501D01*
X028180Y026801D01*
X028330Y026341D02*
X028030Y026341D01*
X027955Y026266D01*
X027955Y026115D01*
X028030Y026040D01*
X028330Y026040D01*
X028405Y026115D01*
X028405Y026266D01*
X028330Y026341D01*
X028255Y025880D02*
X027955Y025880D01*
X028255Y025880D02*
X028405Y025730D01*
X028255Y025580D01*
X027955Y025580D01*
X028030Y025420D02*
X027955Y025345D01*
X027955Y025120D01*
X028405Y025120D01*
X028255Y025120D02*
X028255Y025345D01*
X028180Y025420D01*
X028030Y025420D01*
X028255Y025270D02*
X028405Y025420D01*
X028755Y025459D02*
X028755Y025159D01*
X028980Y025159D02*
X028980Y025309D01*
X028405Y024959D02*
X028405Y024659D01*
X027955Y024659D01*
X027955Y024959D01*
X028180Y024809D02*
X028180Y024659D01*
X028255Y024499D02*
X028330Y024499D01*
X028405Y024424D01*
X028405Y024274D01*
X028330Y024199D01*
X028180Y024274D02*
X028105Y024199D01*
X028030Y024199D01*
X027955Y024274D01*
X027955Y024424D01*
X028030Y024499D01*
X028180Y024424D02*
X028255Y024499D01*
X028180Y024424D02*
X028180Y024274D01*
X026905Y024274D02*
X026830Y024199D01*
X026905Y024274D02*
X026905Y024424D01*
X026830Y024499D01*
X026755Y024499D01*
X026680Y024424D01*
X026680Y024274D01*
X026605Y024199D01*
X026530Y024199D01*
X026455Y024274D01*
X026455Y024424D01*
X026530Y024499D01*
X026455Y024659D02*
X026905Y024659D01*
X026905Y024959D01*
X026905Y025120D02*
X026455Y025120D01*
X026455Y025345D01*
X026530Y025420D01*
X026680Y025420D01*
X026755Y025345D01*
X026755Y025120D01*
X026755Y025270D02*
X026905Y025420D01*
X026755Y025580D02*
X026905Y025730D01*
X026755Y025880D01*
X026455Y025880D01*
X026530Y026040D02*
X026830Y026040D01*
X026905Y026115D01*
X026905Y026266D01*
X026830Y026341D01*
X026530Y026341D01*
X026455Y026266D01*
X026455Y026115D01*
X026530Y026040D01*
X026455Y025580D02*
X026755Y025580D01*
X026455Y024959D02*
X026455Y024659D01*
X026680Y024659D02*
X026680Y024809D01*
X025405Y024659D02*
X025405Y024959D01*
X025405Y025120D02*
X024955Y025120D01*
X024955Y025345D01*
X025030Y025420D01*
X025180Y025420D01*
X025255Y025345D01*
X025255Y025120D01*
X025255Y025270D02*
X025405Y025420D01*
X025255Y025580D02*
X024955Y025580D01*
X025255Y025580D02*
X025405Y025730D01*
X025255Y025880D01*
X024955Y025880D01*
X025030Y026040D02*
X025330Y026040D01*
X025405Y026115D01*
X025405Y026266D01*
X025330Y026341D01*
X025030Y026341D01*
X024955Y026266D01*
X024955Y026115D01*
X025030Y026040D01*
X025030Y026501D02*
X024955Y026576D01*
X024955Y026726D01*
X025030Y026801D01*
X025105Y026801D01*
X025405Y026501D01*
X025405Y026801D01*
X026455Y026726D02*
X026530Y026801D01*
X026605Y026801D01*
X026680Y026726D01*
X026755Y026801D01*
X026830Y026801D01*
X026905Y026726D01*
X026905Y026576D01*
X026830Y026501D01*
X026680Y026651D02*
X026680Y026726D01*
X026455Y026726D02*
X026455Y026576D01*
X026530Y026501D01*
X024955Y024959D02*
X024955Y024659D01*
X025405Y024659D01*
X025330Y024499D02*
X025405Y024424D01*
X025405Y024274D01*
X025330Y024199D01*
X025180Y024274D02*
X025105Y024199D01*
X025030Y024199D01*
X024955Y024274D01*
X024955Y024424D01*
X025030Y024499D01*
X025180Y024424D02*
X025255Y024499D01*
X025330Y024499D01*
X025180Y024424D02*
X025180Y024274D01*
X025180Y024659D02*
X025180Y024809D01*
X023905Y024659D02*
X023905Y024959D01*
X023905Y025120D02*
X023455Y025120D01*
X023455Y025345D01*
X023530Y025420D01*
X023680Y025420D01*
X023755Y025345D01*
X023755Y025120D01*
X023755Y025270D02*
X023905Y025420D01*
X023755Y025580D02*
X023905Y025730D01*
X023755Y025880D01*
X023455Y025880D01*
X023530Y026040D02*
X023830Y026040D01*
X023905Y026115D01*
X023905Y026266D01*
X023830Y026341D01*
X023530Y026341D01*
X023455Y026266D01*
X023455Y026115D01*
X023530Y026040D01*
X023455Y025580D02*
X023755Y025580D01*
X023455Y024959D02*
X023455Y024659D01*
X023905Y024659D01*
X023830Y024499D02*
X023905Y024424D01*
X023905Y024274D01*
X023830Y024199D01*
X023680Y024274D02*
X023605Y024199D01*
X023530Y024199D01*
X023455Y024274D01*
X023455Y024424D01*
X023530Y024499D01*
X023680Y024424D02*
X023755Y024499D01*
X023830Y024499D01*
X023680Y024424D02*
X023680Y024274D01*
X023680Y024659D02*
X023680Y024809D01*
X023605Y026501D02*
X023455Y026651D01*
X023905Y026651D01*
X023905Y026501D02*
X023905Y026801D01*
X028755Y027001D02*
X028980Y027001D01*
X028905Y027151D01*
X028905Y027226D01*
X028980Y027301D01*
X029130Y027301D01*
X029205Y027226D01*
X029205Y027076D01*
X029130Y027001D01*
X028755Y027001D02*
X028755Y027301D01*
X028755Y026080D02*
X029055Y026080D01*
X030955Y026801D02*
X031030Y026651D01*
X031180Y026501D01*
X031180Y026726D01*
X031255Y026801D01*
X031330Y026801D01*
X031405Y026726D01*
X031405Y026576D01*
X031330Y026501D01*
X031180Y026501D01*
X034375Y017569D02*
X034375Y017268D01*
X034375Y017419D02*
X033925Y017419D01*
X034075Y017268D01*
X034925Y017569D02*
X035000Y017419D01*
X035150Y017268D01*
X035150Y017494D01*
X035225Y017569D01*
X035300Y017569D01*
X035375Y017494D01*
X035375Y017343D01*
X035300Y017268D01*
X035150Y017268D01*
X038025Y017343D02*
X038100Y017268D01*
X038175Y017268D01*
X038250Y017343D01*
X038250Y017569D01*
X038400Y017569D02*
X038100Y017569D01*
X038025Y017494D01*
X038025Y017343D01*
X038100Y017108D02*
X038025Y017033D01*
X038025Y016883D01*
X038100Y016808D01*
X038400Y016808D01*
X038100Y017108D01*
X038400Y017108D01*
X038475Y017033D01*
X038475Y016883D01*
X038400Y016808D01*
X038250Y016498D02*
X038250Y016348D01*
X038475Y016348D02*
X038025Y016348D01*
X038025Y016648D01*
X038400Y017268D02*
X038475Y017343D01*
X038475Y017494D01*
X038400Y017569D01*
X035300Y011819D02*
X035000Y011819D01*
X034925Y011744D01*
X034925Y011593D01*
X035000Y011518D01*
X035075Y011518D01*
X035150Y011593D01*
X035150Y011819D01*
X035300Y011819D02*
X035375Y011744D01*
X035375Y011593D01*
X035300Y011518D01*
X034375Y011593D02*
X034300Y011518D01*
X034375Y011593D02*
X034375Y011744D01*
X034300Y011819D01*
X034150Y011819D01*
X034075Y011744D01*
X034075Y011669D01*
X034150Y011518D01*
X033925Y011518D01*
X033925Y011819D01*
X035750Y009279D02*
X035675Y009204D01*
X035750Y009279D02*
X035900Y009279D01*
X035975Y009204D01*
X035975Y009129D01*
X035675Y008829D01*
X035975Y008829D01*
X036135Y008679D02*
X036286Y008829D01*
X036210Y008829D01*
X036210Y008904D01*
X036286Y008904D01*
X036286Y008829D01*
X036442Y008904D02*
X036517Y008829D01*
X036668Y008829D01*
X036743Y008904D01*
X036743Y009054D01*
X036668Y009129D01*
X036592Y009129D01*
X036442Y009054D01*
X036442Y009279D01*
X036743Y009279D01*
X036903Y009054D02*
X037203Y009054D01*
X037128Y009279D02*
X036903Y009054D01*
X037128Y008829D02*
X037128Y009279D01*
X028415Y012029D02*
X028115Y012029D01*
X028415Y012329D01*
X028415Y012404D01*
X028340Y012479D01*
X028190Y012479D01*
X028115Y012404D01*
X027954Y012404D02*
X027879Y012479D01*
X027729Y012479D01*
X027654Y012404D01*
X027654Y012104D01*
X027729Y012029D01*
X027879Y012029D01*
X027954Y012104D01*
X027497Y012029D02*
X027347Y012029D01*
X027422Y012029D02*
X027422Y012479D01*
X027347Y012479D02*
X027497Y012479D01*
X024055Y013552D02*
X023902Y013399D01*
X023889Y013409D01*
X023874Y013417D01*
X023858Y013421D01*
X023842Y013422D01*
X023826Y013419D01*
X023810Y013413D01*
X023796Y013404D01*
X023785Y013393D01*
X023776Y013379D01*
X023770Y013363D01*
X023767Y013347D01*
X023768Y013331D01*
X023772Y013315D01*
X023780Y013300D01*
X023790Y013287D01*
X023484Y012981D01*
X023471Y012991D01*
X023456Y012999D01*
X023440Y013003D01*
X023424Y013004D01*
X023408Y013001D01*
X023392Y012995D01*
X023378Y012986D01*
X023367Y012975D01*
X023358Y012961D01*
X023352Y012945D01*
X023349Y012929D01*
X023350Y012913D01*
X023354Y012897D01*
X023362Y012882D01*
X023372Y012869D01*
X023373Y012870D02*
X023066Y012563D01*
X023067Y012564D02*
X023054Y012574D01*
X023039Y012582D01*
X023023Y012586D01*
X023007Y012587D01*
X022991Y012584D01*
X022975Y012578D01*
X022961Y012569D01*
X022950Y012558D01*
X022941Y012544D01*
X022935Y012528D01*
X022932Y012512D01*
X022933Y012496D01*
X022937Y012480D01*
X022945Y012465D01*
X022955Y012452D01*
X022802Y012299D01*
X022245Y012856D01*
X022343Y012953D01*
X022426Y012870D01*
X022440Y012856D02*
X022663Y013079D01*
X022565Y013176D01*
X022760Y013371D01*
X022844Y013287D01*
X022760Y013371D02*
X022816Y013426D01*
X022829Y013416D01*
X022844Y013408D01*
X022860Y013404D01*
X022876Y013403D01*
X022892Y013406D01*
X022908Y013412D01*
X022922Y013421D01*
X022933Y013432D01*
X022942Y013446D01*
X022948Y013462D01*
X022951Y013478D01*
X022950Y013494D01*
X022946Y013510D01*
X022938Y013525D01*
X022928Y013538D01*
X022927Y013538D02*
X022983Y013594D01*
X023066Y013510D01*
X022983Y013594D02*
X023178Y013788D01*
X023261Y013705D01*
X023178Y013788D02*
X023234Y013844D01*
X023233Y013844D02*
X023246Y013834D01*
X023261Y013826D01*
X023277Y013822D01*
X023293Y013821D01*
X023309Y013824D01*
X023325Y013830D01*
X023339Y013839D01*
X023350Y013850D01*
X023359Y013864D01*
X023365Y013880D01*
X023368Y013896D01*
X023367Y013912D01*
X023363Y013928D01*
X023355Y013943D01*
X023345Y013956D01*
X023345Y013955D02*
X023401Y014011D01*
X023484Y013928D01*
X023484Y013900D02*
X022663Y013079D01*
X022565Y013176D02*
X022510Y013120D01*
X022510Y013121D02*
X022520Y013108D01*
X022528Y013093D01*
X022532Y013077D01*
X022533Y013061D01*
X022530Y013045D01*
X022524Y013029D01*
X022515Y013015D01*
X022504Y013004D01*
X022490Y012995D01*
X022474Y012989D01*
X022458Y012986D01*
X022442Y012987D01*
X022426Y012991D01*
X022411Y012999D01*
X022398Y013009D01*
X022343Y012953D01*
X022440Y012856D02*
X022434Y012848D01*
X022430Y012838D01*
X022429Y012828D01*
X022430Y012818D01*
X022434Y012809D01*
X022440Y012800D01*
X022718Y012522D01*
X022718Y012521D02*
X022730Y012511D01*
X022744Y012504D01*
X022759Y012500D01*
X022774Y012498D01*
X022789Y012500D01*
X022804Y012504D01*
X022818Y012511D01*
X022830Y012521D01*
X022830Y012522D02*
X023220Y012911D01*
X023303Y012828D01*
X023220Y012911D02*
X023832Y013524D01*
X023874Y013538D02*
X023943Y013468D01*
X024055Y013552D02*
X023498Y014109D01*
X023401Y014011D01*
X023484Y013900D02*
X023495Y013908D01*
X023507Y013914D01*
X023519Y013917D01*
X023533Y013917D01*
X023545Y013914D01*
X023557Y013908D01*
X023568Y013900D01*
X023832Y013635D01*
X023832Y013636D02*
X023842Y013624D01*
X023849Y013610D01*
X023853Y013595D01*
X023855Y013580D01*
X023853Y013565D01*
X023849Y013550D01*
X023842Y013536D01*
X023832Y013524D01*
X023651Y013315D02*
X023721Y013246D01*
X023526Y013051D02*
X023456Y013120D01*
X023039Y012703D02*
X023108Y012633D01*
X022886Y012410D02*
X022816Y012480D01*
X022747Y010399D02*
X022447Y010399D01*
X022447Y009949D01*
X022747Y009949D01*
X022907Y009949D02*
X022907Y010399D01*
X023133Y010399D01*
X023208Y010324D01*
X023208Y010174D01*
X023133Y010099D01*
X022907Y010099D01*
X023057Y010099D02*
X023208Y009949D01*
X023368Y009949D02*
X023518Y009949D01*
X023443Y009949D02*
X023443Y010399D01*
X023368Y010399D02*
X023518Y010399D01*
X023675Y010249D02*
X023825Y010399D01*
X023975Y010249D01*
X023975Y009949D01*
X024135Y009949D02*
X024435Y009949D01*
X024135Y009949D02*
X024135Y010399D01*
X023975Y010174D02*
X023675Y010174D01*
X023675Y010249D02*
X023675Y009949D01*
X022597Y010174D02*
X022447Y010174D01*
X022287Y010099D02*
X022287Y010024D01*
X022212Y009949D01*
X022062Y009949D01*
X021987Y010024D01*
X022062Y010174D02*
X022212Y010174D01*
X022287Y010099D01*
X022287Y010324D02*
X022212Y010399D01*
X022062Y010399D01*
X021987Y010324D01*
X021987Y010249D01*
X022062Y010174D01*
X021826Y009874D02*
X021526Y009874D01*
X021366Y009949D02*
X021066Y009949D01*
X021066Y010399D01*
X020906Y010399D02*
X020605Y010399D01*
X020756Y010399D02*
X020756Y009949D01*
X020295Y009949D02*
X020295Y010399D01*
X020145Y010399D02*
X020445Y010399D01*
X018015Y009354D02*
X017940Y009429D01*
X017790Y009429D01*
X017715Y009354D01*
X017715Y009054D01*
X017790Y008979D01*
X017940Y008979D01*
X018015Y009054D01*
X018015Y009204D01*
X017865Y009204D01*
X017554Y009204D02*
X017254Y009204D01*
X017254Y009279D02*
X017254Y008979D01*
X017254Y009279D02*
X017404Y009429D01*
X017554Y009279D01*
X017554Y008979D01*
X016944Y008979D02*
X016944Y009429D01*
X016794Y009429D02*
X017094Y009429D01*
X016634Y009429D02*
X016484Y009429D01*
X016559Y009429D02*
X016559Y009054D01*
X016484Y008979D01*
X016408Y008979D01*
X016333Y009054D01*
X010449Y010023D02*
X007851Y010023D01*
X007851Y012385D01*
X010449Y012385D01*
X010449Y010023D01*
X008756Y011204D02*
X008758Y011243D01*
X008764Y011282D01*
X008774Y011320D01*
X008787Y011357D01*
X008804Y011392D01*
X008824Y011426D01*
X008848Y011457D01*
X008875Y011486D01*
X008904Y011512D01*
X008936Y011535D01*
X008970Y011555D01*
X009006Y011571D01*
X009043Y011583D01*
X009082Y011592D01*
X009121Y011597D01*
X009160Y011598D01*
X009199Y011595D01*
X009238Y011588D01*
X009275Y011577D01*
X009312Y011563D01*
X009347Y011545D01*
X009380Y011524D01*
X009411Y011499D01*
X009439Y011472D01*
X009464Y011442D01*
X009486Y011409D01*
X009505Y011375D01*
X009520Y011339D01*
X009532Y011301D01*
X009540Y011263D01*
X009544Y011224D01*
X009544Y011184D01*
X009540Y011145D01*
X009532Y011107D01*
X009520Y011069D01*
X009505Y011033D01*
X009486Y010999D01*
X009464Y010966D01*
X009439Y010936D01*
X009411Y010909D01*
X009380Y010884D01*
X009347Y010863D01*
X009312Y010845D01*
X009275Y010831D01*
X009238Y010820D01*
X009199Y010813D01*
X009160Y010810D01*
X009121Y010811D01*
X009082Y010816D01*
X009043Y010825D01*
X009006Y010837D01*
X008970Y010853D01*
X008936Y010873D01*
X008904Y010896D01*
X008875Y010922D01*
X008848Y010951D01*
X008824Y010982D01*
X008804Y011016D01*
X008787Y011051D01*
X008774Y011088D01*
X008764Y011126D01*
X008758Y011165D01*
X008756Y011204D01*
X008558Y011204D02*
X008560Y011252D01*
X008566Y011300D01*
X008576Y011347D01*
X008589Y011394D01*
X008607Y011439D01*
X008628Y011482D01*
X008652Y011524D01*
X008680Y011564D01*
X008711Y011601D01*
X008744Y011635D01*
X008781Y011667D01*
X008820Y011695D01*
X008861Y011721D01*
X008904Y011743D01*
X008949Y011761D01*
X008995Y011775D01*
X009042Y011786D01*
X009090Y011793D01*
X009138Y011796D01*
X009186Y011795D01*
X009234Y011790D01*
X009282Y011781D01*
X009328Y011768D01*
X009374Y011752D01*
X009418Y011732D01*
X009460Y011708D01*
X009500Y011682D01*
X009538Y011651D01*
X009573Y011618D01*
X009605Y011582D01*
X009635Y011544D01*
X009661Y011503D01*
X009683Y011461D01*
X009703Y011417D01*
X009718Y011371D01*
X009730Y011324D01*
X009738Y011276D01*
X009742Y011228D01*
X009742Y011180D01*
X009738Y011132D01*
X009730Y011084D01*
X009718Y011037D01*
X009703Y010991D01*
X009683Y010947D01*
X009661Y010905D01*
X009635Y010864D01*
X009605Y010826D01*
X009573Y010790D01*
X009538Y010757D01*
X009500Y010726D01*
X009460Y010700D01*
X009418Y010676D01*
X009374Y010656D01*
X009328Y010640D01*
X009282Y010627D01*
X009234Y010618D01*
X009186Y010613D01*
X009138Y010612D01*
X009090Y010615D01*
X009042Y010622D01*
X008995Y010633D01*
X008949Y010647D01*
X008904Y010665D01*
X008861Y010687D01*
X008820Y010713D01*
X008781Y010741D01*
X008744Y010773D01*
X008711Y010807D01*
X008680Y010844D01*
X008652Y010884D01*
X008628Y010926D01*
X008607Y010969D01*
X008589Y011014D01*
X008576Y011061D01*
X008566Y011108D01*
X008560Y011156D01*
X008558Y011204D01*
X002345Y010599D02*
X002345Y010298D01*
X001895Y010298D01*
X001895Y010599D01*
X002120Y010449D02*
X002120Y010298D01*
X002195Y010138D02*
X002270Y010138D01*
X002345Y010063D01*
X002345Y009913D01*
X002270Y009838D01*
X002120Y009913D02*
X002120Y010063D01*
X002195Y010138D01*
X001970Y010138D02*
X001895Y010063D01*
X001895Y009913D01*
X001970Y009838D01*
X002045Y009838D01*
X002120Y009913D01*
X002345Y009678D02*
X001895Y009678D01*
X001895Y009378D02*
X002345Y009678D01*
X002345Y009378D02*
X001895Y009378D01*
X001895Y009217D02*
X001895Y008917D01*
X002345Y008917D01*
X002345Y009217D01*
X002120Y009067D02*
X002120Y008917D01*
X002195Y008757D02*
X002270Y008757D01*
X002345Y008682D01*
X002345Y008532D01*
X002270Y008457D01*
X002120Y008532D02*
X002120Y008682D01*
X002195Y008757D01*
X001970Y008757D02*
X001895Y008682D01*
X001895Y008532D01*
X001970Y008457D01*
X002045Y008457D01*
X002120Y008532D01*
X002045Y016429D02*
X002120Y016504D01*
X002120Y016654D01*
X002195Y016729D01*
X002270Y016729D01*
X002345Y016654D01*
X002345Y016504D01*
X002270Y016429D01*
X002045Y016429D02*
X001970Y016429D01*
X001895Y016504D01*
X001895Y016654D01*
X001970Y016729D01*
X001970Y016889D02*
X002270Y016889D01*
X002345Y016965D01*
X002345Y017115D01*
X002270Y017190D01*
X001970Y017190D01*
X001895Y017115D01*
X001895Y016965D01*
X001970Y016889D01*
X001895Y017350D02*
X002345Y017350D01*
X002345Y017650D01*
X002345Y017810D02*
X002345Y018111D01*
X002345Y018271D02*
X001895Y018271D01*
X002345Y018571D01*
X001895Y018571D01*
X001970Y018731D02*
X002270Y018731D01*
X002345Y018806D01*
X002345Y018956D01*
X002270Y019031D01*
X001970Y019031D01*
X001895Y018956D01*
X001895Y018806D01*
X001970Y018731D01*
X001895Y019191D02*
X001895Y019342D01*
X001895Y019267D02*
X002345Y019267D01*
X002345Y019342D02*
X002345Y019191D01*
X002605Y019104D02*
X002763Y019104D01*
X002825Y018554D02*
X004475Y018554D01*
X004537Y019104D02*
X004695Y019104D01*
X005000Y019479D02*
X004925Y019554D01*
X004925Y019854D01*
X005000Y019929D01*
X005150Y019929D01*
X005225Y019854D01*
X005225Y019554D01*
X005150Y019479D01*
X005000Y019479D01*
X005075Y019629D02*
X005225Y019479D01*
X005385Y019479D02*
X005686Y019779D01*
X005686Y019854D01*
X005611Y019929D01*
X005460Y019929D01*
X005385Y019854D01*
X005385Y019479D02*
X005686Y019479D01*
X004475Y020554D02*
X002825Y020554D01*
X002763Y021104D02*
X002605Y021104D01*
X003537Y021104D02*
X003763Y021104D01*
X002825Y020554D02*
X002790Y020602D01*
X002757Y020652D01*
X002726Y020704D01*
X002699Y020758D01*
X002675Y020813D01*
X002655Y020870D01*
X002637Y020927D01*
X002623Y020985D01*
X002612Y021044D01*
X002605Y021104D01*
X003960Y022207D02*
X004020Y022187D01*
X004079Y022163D01*
X004136Y022135D01*
X004191Y022104D01*
X004245Y022069D01*
X004296Y022032D01*
X004345Y021991D01*
X004391Y021947D01*
X004435Y021901D01*
X004476Y021852D01*
X004514Y021801D01*
X004548Y021748D01*
X004580Y021692D01*
X004607Y021635D01*
X004632Y021576D01*
X004652Y021516D01*
X004670Y021455D01*
X004683Y021393D01*
X004692Y021330D01*
X004698Y021267D01*
X004700Y021203D01*
X004698Y021139D01*
X004692Y021076D01*
X004683Y021013D01*
X004669Y020951D01*
X004652Y020890D01*
X004631Y020830D01*
X004607Y020771D01*
X004579Y020714D01*
X004547Y020658D01*
X004512Y020605D01*
X004475Y020554D01*
X004537Y021104D02*
X004695Y021104D01*
X005000Y021479D02*
X004925Y021554D01*
X004925Y021854D01*
X005000Y021929D01*
X005150Y021929D01*
X005225Y021854D01*
X005225Y021554D01*
X005150Y021479D01*
X005000Y021479D01*
X005075Y021629D02*
X005225Y021479D01*
X005385Y021704D02*
X005686Y021704D01*
X005611Y021929D02*
X005385Y021704D01*
X005611Y021479D02*
X005611Y021929D01*
X004475Y022554D02*
X002825Y022554D01*
X002763Y023104D02*
X002605Y023104D01*
X003537Y023104D02*
X003763Y023104D01*
X002825Y022554D02*
X002790Y022602D01*
X002757Y022652D01*
X002726Y022704D01*
X002699Y022758D01*
X002675Y022813D01*
X002655Y022870D01*
X002637Y022927D01*
X002623Y022985D01*
X002612Y023044D01*
X002605Y023104D01*
X003960Y024207D02*
X004020Y024187D01*
X004079Y024163D01*
X004136Y024135D01*
X004191Y024104D01*
X004245Y024069D01*
X004296Y024032D01*
X004345Y023991D01*
X004391Y023947D01*
X004435Y023901D01*
X004476Y023852D01*
X004514Y023801D01*
X004548Y023748D01*
X004580Y023692D01*
X004607Y023635D01*
X004632Y023576D01*
X004652Y023516D01*
X004670Y023455D01*
X004683Y023393D01*
X004692Y023330D01*
X004698Y023267D01*
X004700Y023203D01*
X004698Y023139D01*
X004692Y023076D01*
X004683Y023013D01*
X004669Y022951D01*
X004652Y022890D01*
X004631Y022830D01*
X004607Y022771D01*
X004579Y022714D01*
X004547Y022658D01*
X004512Y022605D01*
X004475Y022554D01*
X004537Y023104D02*
X004695Y023104D01*
X005000Y023479D02*
X004925Y023554D01*
X004925Y023854D01*
X005000Y023929D01*
X005150Y023929D01*
X005225Y023854D01*
X005225Y023554D01*
X005150Y023479D01*
X005000Y023479D01*
X005075Y023629D02*
X005225Y023479D01*
X005385Y023554D02*
X005460Y023479D01*
X005611Y023479D01*
X005686Y023554D01*
X005686Y023629D01*
X005611Y023704D01*
X005536Y023704D01*
X005611Y023704D02*
X005686Y023779D01*
X005686Y023854D01*
X005611Y023929D01*
X005460Y023929D01*
X005385Y023854D01*
X003340Y024207D02*
X003281Y024187D01*
X003224Y024164D01*
X003167Y024137D01*
X003113Y024106D01*
X003060Y024073D01*
X003010Y024036D01*
X002961Y023997D01*
X002916Y023954D01*
X002872Y023909D01*
X002832Y023862D01*
X002794Y023812D01*
X002759Y023760D01*
X002728Y023706D01*
X002700Y023651D01*
X002675Y023594D01*
X002654Y023535D01*
X002636Y023475D01*
X002621Y023414D01*
X002611Y023353D01*
X002604Y023291D01*
X002600Y023229D01*
X002601Y023166D01*
X002605Y023104D01*
X003340Y022207D02*
X003281Y022187D01*
X003224Y022164D01*
X003167Y022137D01*
X003113Y022106D01*
X003060Y022073D01*
X003010Y022036D01*
X002961Y021997D01*
X002916Y021954D01*
X002872Y021909D01*
X002832Y021862D01*
X002794Y021812D01*
X002759Y021760D01*
X002728Y021706D01*
X002700Y021651D01*
X002675Y021594D01*
X002654Y021535D01*
X002636Y021475D01*
X002621Y021414D01*
X002611Y021353D01*
X002604Y021291D01*
X002600Y021229D01*
X002601Y021166D01*
X002605Y021104D01*
X002270Y019799D02*
X001970Y019799D01*
X001895Y019724D01*
X001895Y019498D01*
X002345Y019498D01*
X002345Y019724D01*
X002270Y019799D01*
X003537Y019104D02*
X003763Y019104D01*
X002825Y018554D02*
X002790Y018602D01*
X002757Y018652D01*
X002726Y018704D01*
X002699Y018758D01*
X002675Y018813D01*
X002655Y018870D01*
X002637Y018927D01*
X002623Y018985D01*
X002612Y019044D01*
X002605Y019104D01*
X003960Y020207D02*
X004020Y020187D01*
X004079Y020163D01*
X004136Y020135D01*
X004191Y020104D01*
X004245Y020069D01*
X004296Y020032D01*
X004345Y019991D01*
X004391Y019947D01*
X004435Y019901D01*
X004476Y019852D01*
X004514Y019801D01*
X004548Y019748D01*
X004580Y019692D01*
X004607Y019635D01*
X004632Y019576D01*
X004652Y019516D01*
X004670Y019455D01*
X004683Y019393D01*
X004692Y019330D01*
X004698Y019267D01*
X004700Y019203D01*
X004698Y019139D01*
X004692Y019076D01*
X004683Y019013D01*
X004669Y018951D01*
X004652Y018890D01*
X004631Y018830D01*
X004607Y018771D01*
X004579Y018714D01*
X004547Y018658D01*
X004512Y018605D01*
X004475Y018554D01*
X005000Y017929D02*
X005150Y017929D01*
X005225Y017854D01*
X005225Y017554D01*
X005150Y017479D01*
X005000Y017479D01*
X004925Y017554D01*
X004925Y017854D01*
X005000Y017929D01*
X005075Y017629D02*
X005225Y017479D01*
X005385Y017479D02*
X005686Y017479D01*
X005536Y017479D02*
X005536Y017929D01*
X005385Y017779D01*
X004695Y017104D02*
X004537Y017104D01*
X004475Y016554D02*
X002825Y016554D01*
X002763Y017104D02*
X002605Y017104D01*
X002345Y017810D02*
X001895Y017810D01*
X001895Y018111D01*
X002120Y017960D02*
X002120Y017810D01*
X003537Y017104D02*
X003763Y017104D01*
X002825Y016554D02*
X002790Y016602D01*
X002757Y016652D01*
X002726Y016704D01*
X002699Y016758D01*
X002675Y016813D01*
X002655Y016870D01*
X002637Y016927D01*
X002623Y016985D01*
X002612Y017044D01*
X002605Y017104D01*
X003960Y018207D02*
X004020Y018187D01*
X004079Y018163D01*
X004136Y018135D01*
X004191Y018104D01*
X004245Y018069D01*
X004296Y018032D01*
X004345Y017991D01*
X004391Y017947D01*
X004435Y017901D01*
X004476Y017852D01*
X004514Y017801D01*
X004548Y017748D01*
X004580Y017692D01*
X004607Y017635D01*
X004632Y017576D01*
X004652Y017516D01*
X004670Y017455D01*
X004683Y017393D01*
X004692Y017330D01*
X004698Y017267D01*
X004700Y017203D01*
X004698Y017139D01*
X004692Y017076D01*
X004683Y017013D01*
X004669Y016951D01*
X004652Y016890D01*
X004631Y016830D01*
X004607Y016771D01*
X004579Y016714D01*
X004547Y016658D01*
X004512Y016605D01*
X004475Y016554D01*
X002605Y017104D02*
X002601Y017166D01*
X002600Y017229D01*
X002604Y017291D01*
X002611Y017353D01*
X002621Y017414D01*
X002636Y017475D01*
X002654Y017535D01*
X002675Y017594D01*
X002700Y017651D01*
X002728Y017706D01*
X002759Y017760D01*
X002794Y017812D01*
X002832Y017862D01*
X002872Y017909D01*
X002916Y017954D01*
X002961Y017997D01*
X003010Y018036D01*
X003060Y018073D01*
X003113Y018106D01*
X003167Y018137D01*
X003224Y018164D01*
X003281Y018187D01*
X003340Y018207D01*
X002605Y019104D02*
X002601Y019166D01*
X002600Y019229D01*
X002604Y019291D01*
X002611Y019353D01*
X002621Y019414D01*
X002636Y019475D01*
X002654Y019535D01*
X002675Y019594D01*
X002700Y019651D01*
X002728Y019706D01*
X002759Y019760D01*
X002794Y019812D01*
X002832Y019862D01*
X002872Y019909D01*
X002916Y019954D01*
X002961Y019997D01*
X003010Y020036D01*
X003060Y020073D01*
X003113Y020106D01*
X003167Y020137D01*
X003224Y020164D01*
X003281Y020187D01*
X003340Y020207D01*
X014475Y019329D02*
X014625Y019329D01*
X014550Y019329D02*
X014550Y018879D01*
X014475Y018879D02*
X014625Y018879D01*
X014782Y018954D02*
X014782Y019254D01*
X014857Y019329D01*
X015007Y019329D01*
X015082Y019254D01*
X015242Y019254D02*
X015242Y019179D01*
X015317Y019104D01*
X015543Y019104D01*
X015543Y018954D02*
X015543Y019254D01*
X015468Y019329D01*
X015317Y019329D01*
X015242Y019254D01*
X015242Y018954D02*
X015317Y018879D01*
X015468Y018879D01*
X015543Y018954D01*
X015082Y018954D02*
X015007Y018879D01*
X014857Y018879D01*
X014782Y018954D01*
D13*
X019170Y021301D02*
X019247Y021224D01*
X019400Y021224D01*
X019477Y021301D01*
X019630Y021301D02*
X019630Y021377D01*
X019707Y021454D01*
X019861Y021454D01*
X019937Y021377D01*
X019937Y021301D01*
X019861Y021224D01*
X019707Y021224D01*
X019630Y021301D01*
X019707Y021454D02*
X019630Y021531D01*
X019630Y021607D01*
X019707Y021684D01*
X019861Y021684D01*
X019937Y021607D01*
X019937Y021531D01*
X019861Y021454D01*
X019477Y021607D02*
X019400Y021684D01*
X019247Y021684D01*
X019170Y021607D01*
X019170Y021301D01*
X013517Y023107D02*
X013210Y022801D01*
X013210Y022724D01*
X013056Y022801D02*
X012979Y022724D01*
X012826Y022724D01*
X012749Y022801D01*
X012749Y023107D01*
X012826Y023184D01*
X012979Y023184D01*
X013056Y023107D01*
X013210Y023184D02*
X013517Y023184D01*
X013517Y023107D01*
X010267Y018684D02*
X010113Y018607D01*
X009960Y018454D01*
X010190Y018454D01*
X010267Y018377D01*
X010267Y018301D01*
X010190Y018224D01*
X010036Y018224D01*
X009960Y018301D01*
X009960Y018454D01*
X009806Y018454D02*
X009729Y018377D01*
X009499Y018377D01*
X009499Y018224D02*
X009499Y018684D01*
X009729Y018684D01*
X009806Y018607D01*
X009806Y018454D01*
X009653Y018377D02*
X009806Y018224D01*
X006187Y018454D02*
X005880Y018454D01*
X006111Y018684D01*
X006111Y018224D01*
X005727Y018224D02*
X005573Y018377D01*
X005650Y018377D02*
X005420Y018377D01*
X005420Y018224D02*
X005420Y018684D01*
X005650Y018684D01*
X005727Y018607D01*
X005727Y018454D01*
X005650Y018377D01*
X005727Y020224D02*
X005573Y020377D01*
X005650Y020377D02*
X005420Y020377D01*
X005420Y020224D02*
X005420Y020684D01*
X005650Y020684D01*
X005727Y020607D01*
X005727Y020454D01*
X005650Y020377D01*
X005880Y020301D02*
X005957Y020224D01*
X006111Y020224D01*
X006187Y020301D01*
X006187Y020377D01*
X006111Y020454D01*
X006034Y020454D01*
X006111Y020454D02*
X006187Y020531D01*
X006187Y020607D01*
X006111Y020684D01*
X005957Y020684D01*
X005880Y020607D01*
X005880Y022224D02*
X006187Y022531D01*
X006187Y022607D01*
X006111Y022684D01*
X005957Y022684D01*
X005880Y022607D01*
X005727Y022607D02*
X005650Y022684D01*
X005420Y022684D01*
X005420Y022224D01*
X005420Y022377D02*
X005650Y022377D01*
X005727Y022454D01*
X005727Y022607D01*
X005573Y022377D02*
X005727Y022224D01*
X005880Y022224D02*
X006187Y022224D01*
X006187Y024224D02*
X005880Y024224D01*
X005727Y024224D02*
X005573Y024377D01*
X005650Y024377D02*
X005420Y024377D01*
X005420Y024224D02*
X005420Y024684D01*
X005650Y024684D01*
X005727Y024607D01*
X005727Y024454D01*
X005650Y024377D01*
X005880Y024531D02*
X006034Y024684D01*
X006034Y024224D01*
X016170Y013417D02*
X016630Y013417D01*
X016630Y013570D02*
X016630Y013263D01*
X016553Y013110D02*
X016630Y013033D01*
X016630Y012880D01*
X016553Y012803D01*
X016246Y012803D01*
X016170Y012880D01*
X016170Y013033D01*
X016246Y013110D01*
X016323Y013263D02*
X016170Y013417D01*
X021433Y013335D02*
X021704Y013064D01*
X021812Y013064D01*
X021921Y013172D01*
X021921Y013281D01*
X021650Y013552D01*
X021812Y013606D02*
X021812Y013715D01*
X021921Y013823D01*
X022029Y013823D01*
X022084Y013660D02*
X021975Y013552D01*
X021867Y013552D01*
X021812Y013606D01*
X021812Y013823D02*
X022246Y013389D01*
X022138Y013389D02*
X022246Y013498D01*
X022246Y013606D01*
X022192Y013660D01*
X022084Y013660D01*
X022192Y013877D02*
X022192Y014095D01*
X022518Y013769D01*
X022626Y013877D02*
X022409Y013660D01*
X022138Y013389D02*
X022029Y013389D01*
X024670Y012991D02*
X024746Y012838D01*
X024900Y012684D01*
X024900Y012914D01*
X024977Y012991D01*
X025053Y012991D01*
X025130Y012914D01*
X025130Y012761D01*
X025053Y012684D01*
X024900Y012684D01*
X025053Y012531D02*
X025130Y012454D01*
X025130Y012301D01*
X025053Y012224D01*
X024746Y012224D01*
X024670Y012301D01*
X024670Y012454D01*
X024746Y012531D01*
X027999Y014801D02*
X028076Y014724D01*
X028229Y014724D01*
X028306Y014801D01*
X028460Y014801D02*
X028536Y014724D01*
X028690Y014724D01*
X028767Y014801D01*
X028767Y014954D01*
X028690Y015031D01*
X028613Y015031D01*
X028460Y014954D01*
X028460Y015184D01*
X028767Y015184D01*
X028306Y015107D02*
X028229Y015184D01*
X028076Y015184D01*
X027999Y015107D01*
X027999Y014801D01*
X029749Y014801D02*
X029826Y014724D01*
X029979Y014724D01*
X030056Y014801D01*
X030210Y014954D02*
X030440Y015184D01*
X030440Y014724D01*
X030517Y014954D02*
X030210Y014954D01*
X030056Y015107D02*
X029979Y015184D01*
X029826Y015184D01*
X029749Y015107D01*
X029749Y014801D01*
X032170Y012994D02*
X032246Y013070D01*
X032323Y013070D01*
X032400Y012994D01*
X032477Y013070D01*
X032553Y013070D01*
X032630Y012994D01*
X032630Y012840D01*
X032553Y012763D01*
X032553Y012610D02*
X032630Y012533D01*
X032630Y012380D01*
X032553Y012303D01*
X032246Y012303D01*
X032170Y012380D01*
X032170Y012533D01*
X032246Y012610D01*
X032246Y012763D02*
X032170Y012840D01*
X032170Y012994D01*
X032400Y012994D02*
X032400Y012917D01*
X032323Y010991D02*
X032246Y010991D01*
X032170Y010914D01*
X032170Y010761D01*
X032246Y010684D01*
X032246Y010531D02*
X032170Y010454D01*
X032170Y010301D01*
X032246Y010224D01*
X032553Y010224D01*
X032630Y010301D01*
X032630Y010454D01*
X032553Y010531D01*
X032630Y010684D02*
X032323Y010991D01*
X032630Y010991D02*
X032630Y010684D01*
X026290Y022324D02*
X026136Y022324D01*
X026060Y022401D01*
X026060Y022554D02*
X026213Y022631D01*
X026290Y022631D01*
X026367Y022554D01*
X026367Y022401D01*
X026290Y022324D01*
X026060Y022554D02*
X026060Y022784D01*
X026367Y022784D01*
X025906Y022707D02*
X025906Y022554D01*
X025829Y022477D01*
X025599Y022477D01*
X025599Y022324D02*
X025599Y022784D01*
X025829Y022784D01*
X025906Y022707D01*
X025753Y022477D02*
X025906Y022324D01*
X025847Y023324D02*
X026000Y023324D01*
X026077Y023401D01*
X026077Y023707D01*
X026000Y023784D01*
X025847Y023784D01*
X025770Y023707D01*
X025770Y023401D01*
X025847Y023324D01*
X026230Y023324D02*
X026230Y023784D01*
X026537Y023324D01*
X026537Y023784D01*
X034670Y025224D02*
X034670Y025454D01*
X034746Y025531D01*
X034900Y025531D01*
X034977Y025454D01*
X034977Y025224D01*
X035130Y025224D02*
X034670Y025224D01*
X034670Y025684D02*
X035130Y025684D01*
X034977Y025838D01*
X035130Y025991D01*
X034670Y025991D01*
X034670Y026145D02*
X034670Y026375D01*
X034746Y026451D01*
X034900Y026451D01*
X034977Y026375D01*
X034977Y026145D01*
X035130Y026145D02*
X034670Y026145D01*
X034977Y026298D02*
X035130Y026451D01*
X010137Y013062D02*
X009830Y013062D01*
X009677Y013062D02*
X009370Y013062D01*
X009370Y012602D01*
X009677Y012602D01*
X009524Y012832D02*
X009370Y012832D01*
X009217Y012755D02*
X009217Y012678D01*
X009140Y012602D01*
X008986Y012602D01*
X008910Y012678D01*
X008756Y012602D02*
X008449Y012602D01*
X008449Y013062D01*
X008756Y013062D01*
X008910Y012985D02*
X008910Y012909D01*
X008986Y012832D01*
X009140Y012832D01*
X009217Y012755D01*
X009217Y012985D02*
X009140Y013062D01*
X008986Y013062D01*
X008910Y012985D01*
X008603Y012832D02*
X008449Y012832D01*
X008296Y012832D02*
X008219Y012755D01*
X007989Y012755D01*
X007989Y012602D02*
X007989Y013062D01*
X008219Y013062D01*
X008296Y012985D01*
X008296Y012832D01*
X008142Y012755D02*
X008296Y012602D01*
X009984Y012602D02*
X009984Y013062D01*
X008611Y008684D02*
X008457Y008684D01*
X008380Y008607D01*
X008380Y008531D01*
X008457Y008454D01*
X008687Y008454D01*
X008687Y008607D02*
X008611Y008684D01*
X008687Y008607D02*
X008687Y008301D01*
X008611Y008224D01*
X008457Y008224D01*
X008380Y008301D01*
X008227Y008224D02*
X008073Y008377D01*
X008150Y008377D02*
X007920Y008377D01*
X007920Y008224D02*
X007920Y008684D01*
X008150Y008684D01*
X008227Y008607D01*
X008227Y008454D01*
X008150Y008377D01*
D14*
X010641Y008224D02*
X011068Y007584D01*
X011285Y007584D02*
X011285Y007691D01*
X011712Y008118D01*
X011712Y008224D01*
X011285Y008224D01*
X011068Y008224D02*
X010641Y007584D01*
X013150Y009954D02*
X013400Y009704D01*
X013900Y009704D01*
X014150Y009954D01*
X014150Y011454D01*
X013900Y011704D01*
X013400Y011704D01*
X013150Y011454D01*
X013150Y009954D01*
X014150Y009954D02*
X014400Y009704D01*
X014900Y009704D01*
X015150Y009954D01*
X015150Y011454D01*
X014900Y011704D01*
X014400Y011704D01*
X014150Y011454D01*
X015150Y011454D02*
X015400Y011704D01*
X015900Y011704D01*
X016150Y011454D01*
X016150Y009954D01*
X015900Y009704D01*
X015400Y009704D01*
X015150Y009954D01*
X016150Y009954D02*
X016400Y009704D01*
X016900Y009704D01*
X017150Y009954D01*
X017150Y011454D01*
X016900Y011704D01*
X016400Y011704D01*
X016150Y011454D01*
X017150Y011454D02*
X017400Y011704D01*
X017900Y011704D01*
X018150Y011454D01*
X018150Y009954D01*
X017900Y009704D01*
X017400Y009704D01*
X017150Y009954D01*
X018930Y008124D02*
X019357Y007484D01*
X019575Y007591D02*
X019681Y007484D01*
X019895Y007484D01*
X020002Y007591D01*
X020002Y007697D01*
X019895Y007804D01*
X019575Y007804D01*
X019575Y007591D01*
X019575Y007804D02*
X019788Y008018D01*
X020002Y008124D01*
X019357Y008124D02*
X018930Y007484D01*
X020150Y008954D02*
X020400Y008704D01*
X020900Y008704D01*
X021150Y008954D01*
X021400Y008704D01*
X021900Y008704D01*
X022150Y008954D01*
X022150Y009454D01*
X021900Y009704D01*
X021400Y009704D01*
X021150Y009454D01*
X021150Y008954D01*
X021150Y009454D02*
X020900Y009704D01*
X020400Y009704D01*
X020150Y009454D01*
X020150Y008954D01*
X022150Y008954D02*
X022400Y008704D01*
X022900Y008704D01*
X023150Y008954D01*
X023400Y008704D01*
X023900Y008704D01*
X024150Y008954D01*
X024400Y008704D01*
X024900Y008704D01*
X025150Y008954D01*
X025400Y008704D01*
X025900Y008704D01*
X026150Y008954D01*
X026150Y009454D01*
X025900Y009704D01*
X025400Y009704D01*
X025150Y009454D01*
X025150Y008954D01*
X025150Y009454D02*
X024900Y009704D01*
X024400Y009704D01*
X024150Y009454D01*
X024150Y008954D01*
X024150Y009454D02*
X023900Y009704D01*
X023400Y009704D01*
X023150Y009454D01*
X023150Y008954D01*
X023150Y009454D02*
X022900Y009704D01*
X022400Y009704D01*
X022150Y009454D01*
X025930Y008124D02*
X026357Y007484D01*
X026575Y007591D02*
X026681Y007484D01*
X026895Y007484D01*
X027002Y007591D01*
X027002Y007804D01*
X026895Y007911D01*
X026788Y007911D01*
X026575Y007804D01*
X026575Y008124D01*
X027002Y008124D01*
X026357Y008124D02*
X025930Y007484D01*
X026730Y010734D02*
X030570Y010734D01*
X030593Y010736D01*
X030616Y010741D01*
X030638Y010750D01*
X030658Y010763D01*
X030676Y010778D01*
X030691Y010796D01*
X030704Y010816D01*
X030713Y010838D01*
X030718Y010861D01*
X030720Y010884D01*
X030720Y011704D01*
X030720Y012704D01*
X030720Y013524D01*
X030718Y013547D01*
X030713Y013570D01*
X030704Y013592D01*
X030691Y013612D01*
X030676Y013630D01*
X030658Y013645D01*
X030638Y013658D01*
X030616Y013667D01*
X030593Y013672D01*
X030570Y013674D01*
X026730Y013674D01*
X026707Y013672D01*
X026684Y013667D01*
X026662Y013658D01*
X026642Y013645D01*
X026624Y013630D01*
X026609Y013612D01*
X026596Y013592D01*
X026587Y013570D01*
X026582Y013547D01*
X026580Y013524D01*
X026580Y010884D01*
X026582Y010861D01*
X026587Y010838D01*
X026596Y010816D01*
X026609Y010796D01*
X026624Y010778D01*
X026642Y010763D01*
X026662Y010750D01*
X026684Y010741D01*
X026707Y010736D01*
X026730Y010734D01*
X030720Y011704D02*
X030676Y011706D01*
X030633Y011712D01*
X030591Y011721D01*
X030549Y011734D01*
X030509Y011751D01*
X030470Y011771D01*
X030433Y011794D01*
X030399Y011821D01*
X030366Y011850D01*
X030337Y011883D01*
X030310Y011917D01*
X030287Y011954D01*
X030267Y011993D01*
X030250Y012033D01*
X030237Y012075D01*
X030228Y012117D01*
X030222Y012160D01*
X030220Y012204D01*
X030222Y012248D01*
X030228Y012291D01*
X030237Y012333D01*
X030250Y012375D01*
X030267Y012415D01*
X030287Y012454D01*
X030310Y012491D01*
X030337Y012525D01*
X030366Y012558D01*
X030399Y012587D01*
X030433Y012614D01*
X030470Y012637D01*
X030509Y012657D01*
X030549Y012674D01*
X030591Y012687D01*
X030633Y012696D01*
X030676Y012702D01*
X030720Y012704D01*
X033400Y010754D02*
X033400Y008804D01*
X033600Y008604D01*
X037600Y008604D01*
X037650Y008604D01*
X037650Y010604D01*
X037650Y010954D01*
X033600Y010954D01*
X033400Y010754D01*
X034000Y009774D02*
X034002Y009824D01*
X034008Y009874D01*
X034018Y009924D01*
X034031Y009972D01*
X034048Y010020D01*
X034069Y010066D01*
X034093Y010110D01*
X034121Y010152D01*
X034152Y010192D01*
X034186Y010229D01*
X034223Y010264D01*
X034262Y010295D01*
X034303Y010324D01*
X034347Y010349D01*
X034393Y010371D01*
X034440Y010389D01*
X034488Y010403D01*
X034537Y010414D01*
X034587Y010421D01*
X034637Y010424D01*
X034688Y010423D01*
X034738Y010418D01*
X034788Y010409D01*
X034836Y010397D01*
X034884Y010380D01*
X034930Y010360D01*
X034975Y010337D01*
X035018Y010310D01*
X035058Y010280D01*
X035096Y010247D01*
X035131Y010211D01*
X035164Y010172D01*
X035193Y010131D01*
X035219Y010088D01*
X035242Y010043D01*
X035261Y009996D01*
X035276Y009948D01*
X035288Y009899D01*
X035296Y009849D01*
X035300Y009799D01*
X035300Y009749D01*
X035296Y009699D01*
X035288Y009649D01*
X035276Y009600D01*
X035261Y009552D01*
X035242Y009505D01*
X035219Y009460D01*
X035193Y009417D01*
X035164Y009376D01*
X035131Y009337D01*
X035096Y009301D01*
X035058Y009268D01*
X035018Y009238D01*
X034975Y009211D01*
X034930Y009188D01*
X034884Y009168D01*
X034836Y009151D01*
X034788Y009139D01*
X034738Y009130D01*
X034688Y009125D01*
X034637Y009124D01*
X034587Y009127D01*
X034537Y009134D01*
X034488Y009145D01*
X034440Y009159D01*
X034393Y009177D01*
X034347Y009199D01*
X034303Y009224D01*
X034262Y009253D01*
X034223Y009284D01*
X034186Y009319D01*
X034152Y009356D01*
X034121Y009396D01*
X034093Y009438D01*
X034069Y009482D01*
X034048Y009528D01*
X034031Y009576D01*
X034018Y009624D01*
X034008Y009674D01*
X034002Y009724D01*
X034000Y009774D01*
X033768Y008124D02*
X033341Y007484D01*
X033768Y007484D02*
X033341Y008124D01*
X033985Y007804D02*
X034412Y007804D01*
X034306Y007484D02*
X034306Y008124D01*
X033985Y007804D01*
X037650Y008604D02*
X038850Y008604D01*
X039050Y008604D01*
X039050Y009604D01*
X039050Y010604D01*
X038850Y010604D01*
X038850Y010654D01*
X037900Y010654D01*
X037870Y010656D01*
X037840Y010661D01*
X037811Y010670D01*
X037784Y010683D01*
X037758Y010698D01*
X037734Y010717D01*
X037713Y010738D01*
X037694Y010762D01*
X037679Y010788D01*
X037666Y010815D01*
X037657Y010844D01*
X037652Y010874D01*
X037650Y010904D01*
X037650Y010954D02*
X037650Y011054D01*
X037350Y011054D01*
X037350Y018354D01*
X037650Y018354D01*
X037650Y011054D01*
X039050Y010604D02*
X039050Y018804D01*
X038850Y018804D01*
X038850Y018754D01*
X037900Y018754D01*
X037870Y018752D01*
X037840Y018747D01*
X037811Y018738D01*
X037784Y018725D01*
X037758Y018710D01*
X037734Y018691D01*
X037713Y018670D01*
X037694Y018646D01*
X037679Y018620D01*
X037666Y018593D01*
X037657Y018564D01*
X037652Y018534D01*
X037650Y018504D01*
X037650Y018454D02*
X033600Y018454D01*
X033400Y018654D01*
X033400Y020554D01*
X033650Y020804D01*
X037600Y020804D01*
X037650Y020804D01*
X038850Y020804D01*
X039050Y020804D01*
X039050Y019804D01*
X039050Y018804D01*
X039250Y018154D02*
X039252Y018124D01*
X039257Y018094D01*
X039266Y018065D01*
X039279Y018038D01*
X039294Y018012D01*
X039313Y017988D01*
X039334Y017967D01*
X039358Y017948D01*
X039384Y017933D01*
X039411Y017920D01*
X039440Y017911D01*
X039470Y017906D01*
X039500Y017904D01*
X041500Y017904D01*
X041526Y017902D01*
X041552Y017897D01*
X041577Y017889D01*
X041600Y017877D01*
X041622Y017863D01*
X041641Y017845D01*
X041659Y017826D01*
X041673Y017804D01*
X041685Y017781D01*
X041693Y017756D01*
X041698Y017730D01*
X041700Y017704D01*
X041700Y017604D01*
X041700Y011804D01*
X041700Y011704D01*
X041698Y011678D01*
X041693Y011652D01*
X041685Y011627D01*
X041673Y011604D01*
X041659Y011582D01*
X041641Y011563D01*
X041622Y011545D01*
X041600Y011531D01*
X041577Y011519D01*
X041552Y011511D01*
X041526Y011506D01*
X041500Y011504D01*
X039500Y011504D01*
X039470Y011502D01*
X039440Y011497D01*
X039411Y011488D01*
X039384Y011475D01*
X039358Y011460D01*
X039334Y011441D01*
X039313Y011420D01*
X039294Y011396D01*
X039279Y011370D01*
X039266Y011343D01*
X039257Y011314D01*
X039252Y011284D01*
X039250Y011254D01*
X039250Y011654D02*
X039250Y008604D01*
X039050Y008604D01*
X039250Y011654D02*
X039250Y017754D01*
X039250Y020804D01*
X039050Y020804D01*
X037650Y020804D02*
X037650Y018804D01*
X037650Y018454D01*
X037650Y018354D01*
X034000Y019634D02*
X034002Y019684D01*
X034008Y019734D01*
X034018Y019784D01*
X034031Y019832D01*
X034048Y019880D01*
X034069Y019926D01*
X034093Y019970D01*
X034121Y020012D01*
X034152Y020052D01*
X034186Y020089D01*
X034223Y020124D01*
X034262Y020155D01*
X034303Y020184D01*
X034347Y020209D01*
X034393Y020231D01*
X034440Y020249D01*
X034488Y020263D01*
X034537Y020274D01*
X034587Y020281D01*
X034637Y020284D01*
X034688Y020283D01*
X034738Y020278D01*
X034788Y020269D01*
X034836Y020257D01*
X034884Y020240D01*
X034930Y020220D01*
X034975Y020197D01*
X035018Y020170D01*
X035058Y020140D01*
X035096Y020107D01*
X035131Y020071D01*
X035164Y020032D01*
X035193Y019991D01*
X035219Y019948D01*
X035242Y019903D01*
X035261Y019856D01*
X035276Y019808D01*
X035288Y019759D01*
X035296Y019709D01*
X035300Y019659D01*
X035300Y019609D01*
X035296Y019559D01*
X035288Y019509D01*
X035276Y019460D01*
X035261Y019412D01*
X035242Y019365D01*
X035219Y019320D01*
X035193Y019277D01*
X035164Y019236D01*
X035131Y019197D01*
X035096Y019161D01*
X035058Y019128D01*
X035018Y019098D01*
X034975Y019071D01*
X034930Y019048D01*
X034884Y019028D01*
X034836Y019011D01*
X034788Y018999D01*
X034738Y018990D01*
X034688Y018985D01*
X034637Y018984D01*
X034587Y018987D01*
X034537Y018994D01*
X034488Y019005D01*
X034440Y019019D01*
X034393Y019037D01*
X034347Y019059D01*
X034303Y019084D01*
X034262Y019113D01*
X034223Y019144D01*
X034186Y019179D01*
X034152Y019216D01*
X034121Y019256D01*
X034093Y019298D01*
X034069Y019342D01*
X034048Y019388D01*
X034031Y019436D01*
X034018Y019484D01*
X034008Y019534D01*
X034002Y019584D01*
X034000Y019634D01*
X029800Y019154D02*
X029500Y019154D01*
X029650Y019004D02*
X029650Y019304D01*
X028300Y020204D02*
X028302Y020277D01*
X028308Y020350D01*
X028318Y020422D01*
X028332Y020494D01*
X028349Y020565D01*
X028371Y020635D01*
X028396Y020704D01*
X028425Y020771D01*
X028457Y020836D01*
X028493Y020900D01*
X028533Y020962D01*
X028575Y021021D01*
X028621Y021078D01*
X028670Y021132D01*
X028722Y021184D01*
X028776Y021233D01*
X028833Y021279D01*
X028892Y021321D01*
X028954Y021361D01*
X029018Y021397D01*
X029083Y021429D01*
X029150Y021458D01*
X029219Y021483D01*
X029289Y021505D01*
X029360Y021522D01*
X029432Y021536D01*
X029504Y021546D01*
X029577Y021552D01*
X029650Y021554D01*
X029723Y021552D01*
X029796Y021546D01*
X029868Y021536D01*
X029940Y021522D01*
X030011Y021505D01*
X030081Y021483D01*
X030150Y021458D01*
X030217Y021429D01*
X030282Y021397D01*
X030346Y021361D01*
X030408Y021321D01*
X030467Y021279D01*
X030524Y021233D01*
X030578Y021184D01*
X030630Y021132D01*
X030679Y021078D01*
X030725Y021021D01*
X030767Y020962D01*
X030807Y020900D01*
X030843Y020836D01*
X030875Y020771D01*
X030904Y020704D01*
X030929Y020635D01*
X030951Y020565D01*
X030968Y020494D01*
X030982Y020422D01*
X030992Y020350D01*
X030998Y020277D01*
X031000Y020204D01*
X030998Y020131D01*
X030992Y020058D01*
X030982Y019986D01*
X030968Y019914D01*
X030951Y019843D01*
X030929Y019773D01*
X030904Y019704D01*
X030875Y019637D01*
X030843Y019572D01*
X030807Y019508D01*
X030767Y019446D01*
X030725Y019387D01*
X030679Y019330D01*
X030630Y019276D01*
X030578Y019224D01*
X030524Y019175D01*
X030467Y019129D01*
X030408Y019087D01*
X030346Y019047D01*
X030282Y019011D01*
X030217Y018979D01*
X030150Y018950D01*
X030081Y018925D01*
X030011Y018903D01*
X029940Y018886D01*
X029868Y018872D01*
X029796Y018862D01*
X029723Y018856D01*
X029650Y018854D01*
X029577Y018856D01*
X029504Y018862D01*
X029432Y018872D01*
X029360Y018886D01*
X029289Y018903D01*
X029219Y018925D01*
X029150Y018950D01*
X029083Y018979D01*
X029018Y019011D01*
X028954Y019047D01*
X028892Y019087D01*
X028833Y019129D01*
X028776Y019175D01*
X028722Y019224D01*
X028670Y019276D01*
X028621Y019330D01*
X028575Y019387D01*
X028533Y019446D01*
X028493Y019508D01*
X028457Y019572D01*
X028425Y019637D01*
X028396Y019704D01*
X028371Y019773D01*
X028349Y019843D01*
X028332Y019914D01*
X028318Y019986D01*
X028308Y020058D01*
X028302Y020131D01*
X028300Y020204D01*
X027150Y020454D02*
X027150Y019954D01*
X026900Y019704D01*
X027150Y019454D01*
X027150Y018954D01*
X026900Y018704D01*
X025400Y018704D01*
X025150Y018954D01*
X025150Y019454D01*
X025400Y019704D01*
X026900Y019704D01*
X027150Y020454D02*
X026900Y020704D01*
X025400Y020704D01*
X025150Y020454D01*
X025150Y019954D01*
X025400Y019704D01*
X025400Y020704D02*
X025150Y020954D01*
X025150Y021454D01*
X025400Y021704D01*
X026900Y021704D01*
X027150Y021454D01*
X027150Y020954D01*
X026900Y020704D01*
X028300Y023704D02*
X028302Y023777D01*
X028308Y023850D01*
X028318Y023922D01*
X028332Y023994D01*
X028349Y024065D01*
X028371Y024135D01*
X028396Y024204D01*
X028425Y024271D01*
X028457Y024336D01*
X028493Y024400D01*
X028533Y024462D01*
X028575Y024521D01*
X028621Y024578D01*
X028670Y024632D01*
X028722Y024684D01*
X028776Y024733D01*
X028833Y024779D01*
X028892Y024821D01*
X028954Y024861D01*
X029018Y024897D01*
X029083Y024929D01*
X029150Y024958D01*
X029219Y024983D01*
X029289Y025005D01*
X029360Y025022D01*
X029432Y025036D01*
X029504Y025046D01*
X029577Y025052D01*
X029650Y025054D01*
X029723Y025052D01*
X029796Y025046D01*
X029868Y025036D01*
X029940Y025022D01*
X030011Y025005D01*
X030081Y024983D01*
X030150Y024958D01*
X030217Y024929D01*
X030282Y024897D01*
X030346Y024861D01*
X030408Y024821D01*
X030467Y024779D01*
X030524Y024733D01*
X030578Y024684D01*
X030630Y024632D01*
X030679Y024578D01*
X030725Y024521D01*
X030767Y024462D01*
X030807Y024400D01*
X030843Y024336D01*
X030875Y024271D01*
X030904Y024204D01*
X030929Y024135D01*
X030951Y024065D01*
X030968Y023994D01*
X030982Y023922D01*
X030992Y023850D01*
X030998Y023777D01*
X031000Y023704D01*
X030998Y023631D01*
X030992Y023558D01*
X030982Y023486D01*
X030968Y023414D01*
X030951Y023343D01*
X030929Y023273D01*
X030904Y023204D01*
X030875Y023137D01*
X030843Y023072D01*
X030807Y023008D01*
X030767Y022946D01*
X030725Y022887D01*
X030679Y022830D01*
X030630Y022776D01*
X030578Y022724D01*
X030524Y022675D01*
X030467Y022629D01*
X030408Y022587D01*
X030346Y022547D01*
X030282Y022511D01*
X030217Y022479D01*
X030150Y022450D01*
X030081Y022425D01*
X030011Y022403D01*
X029940Y022386D01*
X029868Y022372D01*
X029796Y022362D01*
X029723Y022356D01*
X029650Y022354D01*
X029577Y022356D01*
X029504Y022362D01*
X029432Y022372D01*
X029360Y022386D01*
X029289Y022403D01*
X029219Y022425D01*
X029150Y022450D01*
X029083Y022479D01*
X029018Y022511D01*
X028954Y022547D01*
X028892Y022587D01*
X028833Y022629D01*
X028776Y022675D01*
X028722Y022724D01*
X028670Y022776D01*
X028621Y022830D01*
X028575Y022887D01*
X028533Y022946D01*
X028493Y023008D01*
X028457Y023072D01*
X028425Y023137D01*
X028396Y023204D01*
X028371Y023273D01*
X028349Y023343D01*
X028332Y023414D01*
X028318Y023486D01*
X028308Y023558D01*
X028302Y023631D01*
X028300Y023704D01*
X029500Y024754D02*
X029800Y024754D01*
X029650Y024904D02*
X029650Y024604D01*
X029400Y027204D02*
X029150Y027454D01*
X029150Y027954D01*
X029400Y028204D01*
X029150Y028454D01*
X029150Y028954D01*
X029400Y029204D01*
X029150Y029454D01*
X029150Y029954D01*
X029400Y030204D01*
X029900Y030204D01*
X030150Y029954D01*
X030150Y029454D01*
X029900Y029204D01*
X030150Y028954D01*
X030150Y028454D01*
X029900Y028204D01*
X030150Y027954D01*
X030150Y027454D01*
X029900Y027204D01*
X029400Y027204D01*
X028650Y027454D02*
X028650Y027954D01*
X028400Y028204D01*
X028650Y028454D01*
X028650Y028954D01*
X028400Y029204D01*
X028650Y029454D01*
X028650Y029954D01*
X028400Y030204D01*
X027900Y030204D01*
X027650Y029954D01*
X027650Y029454D01*
X027900Y029204D01*
X028400Y029204D01*
X027900Y029204D02*
X027650Y028954D01*
X027650Y028454D01*
X027900Y028204D01*
X028400Y028204D01*
X027900Y028204D02*
X027650Y027954D01*
X027650Y027454D01*
X027900Y027204D01*
X028400Y027204D01*
X028650Y027454D01*
X029400Y028204D02*
X029900Y028204D01*
X030650Y028454D02*
X030650Y028954D01*
X030900Y029204D01*
X030650Y029454D01*
X030650Y029954D01*
X030900Y030204D01*
X031400Y030204D01*
X031650Y029954D01*
X031650Y029454D01*
X031400Y029204D01*
X031650Y028954D01*
X031650Y028454D01*
X031400Y028204D01*
X031650Y027954D01*
X031650Y027454D01*
X031400Y027204D01*
X030900Y027204D01*
X030650Y027454D01*
X030650Y027954D01*
X030900Y028204D01*
X030650Y028454D01*
X030900Y028204D02*
X031400Y028204D01*
X031400Y029204D02*
X030900Y029204D01*
X029900Y029204D02*
X029400Y029204D01*
X027150Y029454D02*
X026900Y029204D01*
X027150Y028954D01*
X027150Y028454D01*
X026900Y028204D01*
X027150Y027954D01*
X027150Y027454D01*
X026900Y027204D01*
X026400Y027204D01*
X026150Y027454D01*
X026150Y027954D01*
X026400Y028204D01*
X026150Y028454D01*
X026150Y028954D01*
X026400Y029204D01*
X026150Y029454D01*
X026150Y029954D01*
X026400Y030204D01*
X026900Y030204D01*
X027150Y029954D01*
X027150Y029454D01*
X026900Y029204D02*
X026400Y029204D01*
X025650Y029454D02*
X025650Y029954D01*
X025400Y030204D01*
X024900Y030204D01*
X024650Y029954D01*
X024650Y029454D01*
X024900Y029204D01*
X025400Y029204D01*
X025650Y029454D01*
X025400Y029204D02*
X025650Y028954D01*
X025650Y028454D01*
X025400Y028204D01*
X025650Y027954D01*
X025650Y027454D01*
X025400Y027204D01*
X024900Y027204D01*
X024650Y027454D01*
X024650Y027954D01*
X024900Y028204D01*
X024650Y028454D01*
X024650Y028954D01*
X024900Y029204D01*
X024150Y029454D02*
X024150Y029954D01*
X023900Y030204D01*
X023400Y030204D01*
X023150Y029954D01*
X023150Y029454D01*
X023400Y029204D01*
X023900Y029204D01*
X024150Y029454D01*
X023900Y029204D02*
X024150Y028954D01*
X024150Y028454D01*
X023900Y028204D01*
X024150Y027954D01*
X024150Y027454D01*
X023900Y027204D01*
X023400Y027204D01*
X023150Y027454D01*
X023150Y027954D01*
X023400Y028204D01*
X023150Y028454D01*
X023150Y028954D01*
X023400Y029204D01*
X023400Y028204D02*
X023900Y028204D01*
X024900Y028204D02*
X025400Y028204D01*
X026400Y028204D02*
X026900Y028204D01*
X021212Y024318D02*
X021212Y024211D01*
X021106Y024104D01*
X021212Y023997D01*
X021212Y023891D01*
X021106Y023784D01*
X020892Y023784D01*
X020785Y023891D01*
X020568Y023784D02*
X020141Y024424D01*
X020568Y024424D02*
X020141Y023784D01*
X020785Y024318D02*
X020892Y024424D01*
X021106Y024424D01*
X021212Y024318D01*
X021106Y024104D02*
X020999Y024104D01*
X015420Y022554D02*
X015420Y018854D01*
X015418Y018831D01*
X015413Y018808D01*
X015404Y018786D01*
X015391Y018766D01*
X015376Y018748D01*
X015358Y018733D01*
X015338Y018720D01*
X015316Y018711D01*
X015293Y018706D01*
X015270Y018704D01*
X014030Y018704D01*
X014007Y018706D01*
X013984Y018711D01*
X013962Y018720D01*
X013942Y018733D01*
X013924Y018748D01*
X013909Y018766D01*
X013896Y018786D01*
X013887Y018808D01*
X013882Y018831D01*
X013880Y018854D01*
X013880Y022554D01*
X013882Y022577D01*
X013887Y022600D01*
X013896Y022622D01*
X013909Y022642D01*
X013924Y022660D01*
X013942Y022675D01*
X013962Y022688D01*
X013984Y022697D01*
X014007Y022702D01*
X014030Y022704D01*
X014450Y022704D01*
X014850Y022704D01*
X015270Y022704D01*
X015293Y022702D01*
X015316Y022697D01*
X015338Y022688D01*
X015358Y022675D01*
X015376Y022660D01*
X015391Y022642D01*
X015404Y022622D01*
X015413Y022600D01*
X015418Y022577D01*
X015420Y022554D01*
X014850Y022704D02*
X014848Y022677D01*
X014843Y022650D01*
X014833Y022624D01*
X014821Y022600D01*
X014805Y022578D01*
X014787Y022558D01*
X014765Y022541D01*
X014742Y022526D01*
X014717Y022516D01*
X014691Y022508D01*
X014664Y022504D01*
X014636Y022504D01*
X014609Y022508D01*
X014583Y022516D01*
X014558Y022526D01*
X014535Y022541D01*
X014513Y022558D01*
X014495Y022578D01*
X014479Y022600D01*
X014467Y022624D01*
X014457Y022650D01*
X014452Y022677D01*
X014450Y022704D01*
X011712Y023784D02*
X011285Y023784D01*
X011712Y024211D01*
X011712Y024318D01*
X011606Y024424D01*
X011392Y024424D01*
X011285Y024318D01*
X011068Y024424D02*
X010641Y023784D01*
X011068Y023784D02*
X010641Y024424D01*
X007712Y023784D02*
X007285Y023784D01*
X007499Y023784D02*
X007499Y024424D01*
X007285Y024211D01*
X007068Y024424D02*
X006641Y023784D01*
X007068Y023784D02*
X006641Y024424D01*
X001650Y023954D02*
X001650Y023454D01*
X001400Y023204D01*
X001650Y022954D01*
X001650Y022454D01*
X001400Y022204D01*
X001650Y021954D01*
X001650Y021454D01*
X001400Y021204D01*
X001650Y020954D01*
X001650Y020454D01*
X001400Y020204D01*
X001650Y019954D01*
X001650Y019454D01*
X001400Y019204D01*
X001650Y018954D01*
X001650Y018454D01*
X001400Y018204D01*
X001650Y017954D01*
X001650Y017454D01*
X001400Y017204D01*
X001650Y016954D01*
X001650Y016454D01*
X001400Y016204D01*
X000900Y016204D01*
X000650Y016454D01*
X000650Y016954D01*
X000900Y017204D01*
X000650Y017454D01*
X000650Y017954D01*
X000900Y018204D01*
X001400Y018204D01*
X000900Y018204D02*
X000650Y018454D01*
X000650Y018954D01*
X000900Y019204D01*
X000650Y019454D01*
X000650Y019954D01*
X000900Y020204D01*
X000650Y020454D01*
X000650Y020954D01*
X000900Y021204D01*
X001400Y021204D01*
X000900Y021204D02*
X000650Y021454D01*
X000650Y021954D01*
X000900Y022204D01*
X000650Y022454D01*
X000650Y022954D01*
X000900Y023204D01*
X000650Y023454D01*
X000650Y023954D01*
X000900Y024204D01*
X001400Y024204D01*
X001650Y023954D01*
X001400Y023204D02*
X000900Y023204D01*
X000900Y022204D02*
X001400Y022204D01*
X001400Y020204D02*
X000900Y020204D01*
X000900Y019204D02*
X001400Y019204D01*
X001400Y017204D02*
X000900Y017204D01*
X000900Y015704D02*
X001400Y015704D01*
X001650Y015454D01*
X001650Y014954D01*
X001400Y014704D01*
X001650Y014454D01*
X001650Y013954D01*
X001400Y013704D01*
X001650Y013454D01*
X001650Y012954D01*
X001400Y012704D01*
X001650Y012454D01*
X001650Y011954D01*
X001400Y011704D01*
X001650Y011454D01*
X001650Y010954D01*
X001400Y010704D01*
X001650Y010454D01*
X001650Y009954D01*
X001400Y009704D01*
X001650Y009454D01*
X001650Y008954D01*
X001400Y008704D01*
X001650Y008454D01*
X001650Y007954D01*
X001400Y007704D01*
X000900Y007704D01*
X000650Y007954D01*
X000650Y008454D01*
X000900Y008704D01*
X000650Y008954D01*
X000650Y009454D01*
X000900Y009704D01*
X001400Y009704D01*
X000900Y009704D02*
X000650Y009954D01*
X000650Y010454D01*
X000900Y010704D01*
X000650Y010954D01*
X000650Y011454D01*
X000900Y011704D01*
X000650Y011954D01*
X000650Y012454D01*
X000900Y012704D01*
X001400Y012704D01*
X000900Y012704D02*
X000650Y012954D01*
X000650Y013454D01*
X000900Y013704D01*
X000650Y013954D01*
X000650Y014454D01*
X000900Y014704D01*
X000650Y014954D01*
X000650Y015454D01*
X000900Y015704D01*
X000900Y014704D02*
X001400Y014704D01*
X001400Y013704D02*
X000900Y013704D01*
X000900Y011704D02*
X001400Y011704D01*
X001400Y010704D02*
X000900Y010704D01*
X000900Y008704D02*
X001400Y008704D01*
X003341Y008124D02*
X003768Y007484D01*
X003985Y007591D02*
X003985Y007697D01*
X004092Y007804D01*
X004306Y007804D01*
X004412Y007697D01*
X004412Y007591D01*
X004306Y007484D01*
X004092Y007484D01*
X003985Y007591D01*
X004092Y007804D02*
X003985Y007911D01*
X003985Y008018D01*
X004092Y008124D01*
X004306Y008124D01*
X004412Y008018D01*
X004412Y007911D01*
X004306Y007804D01*
X003768Y008124D02*
X003341Y007484D01*
X017098Y013919D02*
X017249Y013768D01*
X017174Y013843D02*
X017627Y014296D01*
X017702Y014221D02*
X017551Y014372D01*
X017779Y013993D02*
X017478Y013691D01*
X017478Y013540D01*
X017629Y013389D01*
X017779Y013389D01*
X017858Y013159D02*
X018160Y012857D01*
X018009Y013008D02*
X018462Y013461D01*
X018160Y013461D01*
X018081Y013691D02*
X018081Y013842D01*
X017930Y013993D01*
X017779Y013993D01*
D15*
X014020Y018704D02*
X014020Y022704D01*
X026590Y013534D02*
X030700Y013534D01*
D16*
X030400Y013699D03*
X029900Y013699D03*
X029400Y013699D03*
X028900Y013699D03*
X028400Y013699D03*
X027900Y013699D03*
X027400Y013699D03*
X026900Y013699D03*
X026900Y010709D03*
X027400Y010709D03*
X027900Y010709D03*
X028400Y010709D03*
X028900Y010709D03*
X029400Y010709D03*
X029900Y010709D03*
X030400Y010709D03*
D17*
X001187Y007463D02*
X001187Y000140D01*
X007113Y000140D01*
X007113Y007463D01*
X001187Y007463D01*
X008687Y007463D02*
X008687Y000140D01*
X014613Y000140D01*
X014613Y007463D01*
X008687Y007463D01*
X016187Y007463D02*
X016187Y000140D01*
X022113Y000140D01*
X022113Y007463D01*
X016187Y007463D01*
X023687Y007463D02*
X023687Y000140D01*
X029613Y000140D01*
X029613Y007463D01*
X023687Y007463D01*
X031187Y007463D02*
X031187Y000140D01*
X037113Y000140D01*
X037113Y007463D01*
X031187Y007463D01*
X022211Y016092D02*
X019761Y013643D01*
X019539Y013643D01*
X017089Y016092D01*
X017089Y016315D01*
X019539Y018765D01*
X019761Y018765D01*
X022211Y016315D01*
X022211Y016092D01*
X022113Y024444D02*
X016187Y024444D01*
X016187Y031768D01*
X022113Y031768D01*
X022113Y024444D01*
X014613Y024444D02*
X014613Y031768D01*
X008687Y031768D01*
X008687Y024444D01*
X014613Y024444D01*
X010398Y022649D02*
X010201Y022649D01*
X008902Y022649D01*
X010201Y022649D02*
X010201Y018759D01*
X008902Y018759D01*
X010201Y018759D02*
X010398Y018759D01*
X007113Y024444D02*
X007113Y031768D01*
X001187Y031768D01*
X001187Y024444D01*
X007113Y024444D01*
X034004Y022033D02*
X034004Y021196D01*
X038778Y021196D01*
X038778Y030212D01*
X034004Y030212D01*
X034004Y029444D01*
D18*
X022475Y030874D02*
X015825Y030874D01*
X014975Y030874D02*
X008325Y030874D01*
X007475Y030874D02*
X000825Y030874D01*
X000825Y001034D02*
X007475Y001034D01*
X008325Y001034D02*
X014975Y001034D01*
X015825Y001034D02*
X022475Y001034D01*
X023325Y001034D02*
X029975Y001034D01*
X030825Y001034D02*
X037475Y001034D01*
D19*
X037393Y001269D03*
X029893Y001269D03*
X022393Y001269D03*
X014893Y001269D03*
X007393Y001269D03*
X008407Y030638D03*
X015907Y030638D03*
X000907Y030638D03*
D20*
X007398Y030638D03*
X014898Y030638D03*
X022398Y030638D03*
X023402Y001269D03*
X015902Y001269D03*
X008402Y001269D03*
X000902Y001269D03*
X030902Y001269D03*
D21*
X037500Y014704D03*
D22*
X039150Y014704D03*
D23*
X035925Y014714D03*
X035925Y015784D03*
X035925Y016864D03*
X035925Y013624D03*
X035925Y012544D03*
D24*
X036425Y013084D03*
X036425Y014174D03*
X036425Y015244D03*
X036425Y016324D03*
D25*
X032815Y018805D02*
X032184Y019225D01*
X032395Y019450D02*
X032184Y019660D01*
X032815Y019660D01*
X032815Y019450D02*
X032815Y019870D01*
X032710Y020094D02*
X032290Y020515D01*
X032710Y020515D01*
X032815Y020409D01*
X032815Y020199D01*
X032710Y020094D01*
X032290Y020094D01*
X032184Y020199D01*
X032184Y020409D01*
X032290Y020515D01*
X032815Y019225D02*
X032184Y018805D01*
D26*
X019539Y013977D02*
X019541Y013997D01*
X019546Y014017D01*
X019556Y014035D01*
X019568Y014052D01*
X019583Y014066D01*
X019601Y014076D01*
X019620Y014084D01*
X019640Y014088D01*
X019660Y014088D01*
X019680Y014084D01*
X019699Y014076D01*
X019717Y014066D01*
X019732Y014052D01*
X019744Y014035D01*
X019754Y014017D01*
X019759Y013997D01*
X019761Y013977D01*
X019759Y013957D01*
X019754Y013937D01*
X019744Y013919D01*
X019732Y013902D01*
X019717Y013888D01*
X019699Y013878D01*
X019680Y013870D01*
X019660Y013866D01*
X019640Y013866D01*
X019620Y013870D01*
X019601Y013878D01*
X019583Y013888D01*
X019568Y013902D01*
X019556Y013919D01*
X019546Y013937D01*
X019541Y013957D01*
X019539Y013977D01*
D27*
X027289Y023604D03*
M02*
