G75*
%MOIN*%
%OFA0B0*%
%FSLAX24Y24*%
%IPPOS*%
%LPD*%
%AMOC8*
5,1,8,0,0,1.08239X$1,22.5*
%
%ADD10C,0.0000*%
%ADD11R,0.0555X0.0555*%
%ADD12C,0.0560*%
%ADD13R,0.0450X0.0400*%
%ADD14R,0.0400X0.0450*%
%ADD15R,0.0500X0.0220*%
%ADD16R,0.0220X0.0500*%
%ADD17C,0.0088*%
%ADD18C,0.0591*%
%ADD19C,0.0540*%
%ADD20C,0.0100*%
%ADD21R,0.0650X0.0250*%
%ADD22R,0.3000X0.4000*%
%ADD23R,0.0650X0.0650*%
%ADD24C,0.0650*%
%ADD25R,0.0669X0.0984*%
%ADD26R,0.0984X0.0669*%
%ADD27C,0.0240*%
%ADD28C,0.0370*%
%ADD29C,0.0200*%
%ADD30C,0.0120*%
%ADD31C,0.0160*%
D10*
X002304Y000981D02*
X002304Y018851D01*
X031796Y018851D01*
X031796Y000981D01*
X002304Y000981D01*
X009557Y013481D02*
X009559Y013536D01*
X009565Y013590D01*
X009575Y013643D01*
X009589Y013696D01*
X009606Y013748D01*
X009628Y013798D01*
X009653Y013847D01*
X009681Y013893D01*
X009713Y013938D01*
X009748Y013979D01*
X009786Y014019D01*
X009826Y014055D01*
X009869Y014089D01*
X009915Y014119D01*
X009962Y014145D01*
X010012Y014168D01*
X010063Y014188D01*
X010115Y014204D01*
X010168Y014216D01*
X010222Y014224D01*
X010277Y014228D01*
X010331Y014228D01*
X010386Y014224D01*
X010440Y014216D01*
X010493Y014204D01*
X010545Y014188D01*
X010596Y014168D01*
X010646Y014145D01*
X010693Y014119D01*
X010739Y014089D01*
X010782Y014055D01*
X010822Y014019D01*
X010860Y013979D01*
X010895Y013938D01*
X010927Y013893D01*
X010955Y013847D01*
X010980Y013798D01*
X011002Y013748D01*
X011019Y013696D01*
X011033Y013643D01*
X011043Y013590D01*
X011049Y013536D01*
X011051Y013481D01*
X011049Y013426D01*
X011043Y013372D01*
X011033Y013319D01*
X011019Y013266D01*
X011002Y013214D01*
X010980Y013164D01*
X010955Y013115D01*
X010927Y013069D01*
X010895Y013024D01*
X010860Y012983D01*
X010822Y012943D01*
X010782Y012907D01*
X010739Y012873D01*
X010693Y012843D01*
X010646Y012817D01*
X010596Y012794D01*
X010545Y012774D01*
X010493Y012758D01*
X010440Y012746D01*
X010386Y012738D01*
X010331Y012734D01*
X010277Y012734D01*
X010222Y012738D01*
X010168Y012746D01*
X010115Y012758D01*
X010063Y012774D01*
X010012Y012794D01*
X009962Y012817D01*
X009915Y012843D01*
X009869Y012873D01*
X009826Y012907D01*
X009786Y012943D01*
X009748Y012983D01*
X009713Y013024D01*
X009681Y013069D01*
X009653Y013115D01*
X009628Y013164D01*
X009606Y013214D01*
X009589Y013266D01*
X009575Y013319D01*
X009565Y013372D01*
X009559Y013426D01*
X009557Y013481D01*
X029557Y012981D02*
X029559Y013036D01*
X029565Y013090D01*
X029575Y013143D01*
X029589Y013196D01*
X029606Y013248D01*
X029628Y013298D01*
X029653Y013347D01*
X029681Y013393D01*
X029713Y013438D01*
X029748Y013479D01*
X029786Y013519D01*
X029826Y013555D01*
X029869Y013589D01*
X029915Y013619D01*
X029962Y013645D01*
X030012Y013668D01*
X030063Y013688D01*
X030115Y013704D01*
X030168Y013716D01*
X030222Y013724D01*
X030277Y013728D01*
X030331Y013728D01*
X030386Y013724D01*
X030440Y013716D01*
X030493Y013704D01*
X030545Y013688D01*
X030596Y013668D01*
X030646Y013645D01*
X030693Y013619D01*
X030739Y013589D01*
X030782Y013555D01*
X030822Y013519D01*
X030860Y013479D01*
X030895Y013438D01*
X030927Y013393D01*
X030955Y013347D01*
X030980Y013298D01*
X031002Y013248D01*
X031019Y013196D01*
X031033Y013143D01*
X031043Y013090D01*
X031049Y013036D01*
X031051Y012981D01*
X031049Y012926D01*
X031043Y012872D01*
X031033Y012819D01*
X031019Y012766D01*
X031002Y012714D01*
X030980Y012664D01*
X030955Y012615D01*
X030927Y012569D01*
X030895Y012524D01*
X030860Y012483D01*
X030822Y012443D01*
X030782Y012407D01*
X030739Y012373D01*
X030693Y012343D01*
X030646Y012317D01*
X030596Y012294D01*
X030545Y012274D01*
X030493Y012258D01*
X030440Y012246D01*
X030386Y012238D01*
X030331Y012234D01*
X030277Y012234D01*
X030222Y012238D01*
X030168Y012246D01*
X030115Y012258D01*
X030063Y012274D01*
X030012Y012294D01*
X029962Y012317D01*
X029915Y012343D01*
X029869Y012373D01*
X029826Y012407D01*
X029786Y012443D01*
X029748Y012483D01*
X029713Y012524D01*
X029681Y012569D01*
X029653Y012615D01*
X029628Y012664D01*
X029606Y012714D01*
X029589Y012766D01*
X029575Y012819D01*
X029565Y012872D01*
X029559Y012926D01*
X029557Y012981D01*
X029557Y006981D02*
X029559Y007036D01*
X029565Y007090D01*
X029575Y007143D01*
X029589Y007196D01*
X029606Y007248D01*
X029628Y007298D01*
X029653Y007347D01*
X029681Y007393D01*
X029713Y007438D01*
X029748Y007479D01*
X029786Y007519D01*
X029826Y007555D01*
X029869Y007589D01*
X029915Y007619D01*
X029962Y007645D01*
X030012Y007668D01*
X030063Y007688D01*
X030115Y007704D01*
X030168Y007716D01*
X030222Y007724D01*
X030277Y007728D01*
X030331Y007728D01*
X030386Y007724D01*
X030440Y007716D01*
X030493Y007704D01*
X030545Y007688D01*
X030596Y007668D01*
X030646Y007645D01*
X030693Y007619D01*
X030739Y007589D01*
X030782Y007555D01*
X030822Y007519D01*
X030860Y007479D01*
X030895Y007438D01*
X030927Y007393D01*
X030955Y007347D01*
X030980Y007298D01*
X031002Y007248D01*
X031019Y007196D01*
X031033Y007143D01*
X031043Y007090D01*
X031049Y007036D01*
X031051Y006981D01*
X031049Y006926D01*
X031043Y006872D01*
X031033Y006819D01*
X031019Y006766D01*
X031002Y006714D01*
X030980Y006664D01*
X030955Y006615D01*
X030927Y006569D01*
X030895Y006524D01*
X030860Y006483D01*
X030822Y006443D01*
X030782Y006407D01*
X030739Y006373D01*
X030693Y006343D01*
X030646Y006317D01*
X030596Y006294D01*
X030545Y006274D01*
X030493Y006258D01*
X030440Y006246D01*
X030386Y006238D01*
X030331Y006234D01*
X030277Y006234D01*
X030222Y006238D01*
X030168Y006246D01*
X030115Y006258D01*
X030063Y006274D01*
X030012Y006294D01*
X029962Y006317D01*
X029915Y006343D01*
X029869Y006373D01*
X029826Y006407D01*
X029786Y006443D01*
X029748Y006483D01*
X029713Y006524D01*
X029681Y006569D01*
X029653Y006615D01*
X029628Y006664D01*
X029606Y006714D01*
X029589Y006766D01*
X029575Y006819D01*
X029565Y006872D01*
X029559Y006926D01*
X029557Y006981D01*
D11*
X030304Y009194D03*
X014091Y013481D03*
D12*
X013304Y013481D03*
X012517Y013481D03*
X030304Y010768D03*
X030304Y009981D03*
D13*
X012304Y003881D03*
X011504Y004231D03*
X011504Y003531D03*
D14*
X003654Y003731D03*
X002954Y003731D03*
X003304Y002931D03*
X025454Y003381D03*
X026154Y003381D03*
X025804Y002581D03*
X027454Y003381D03*
X028154Y003381D03*
X027804Y002581D03*
D15*
G36*
X017376Y003811D02*
X017024Y004163D01*
X017180Y004319D01*
X017532Y003967D01*
X017376Y003811D01*
G37*
G36*
X017154Y003589D02*
X016802Y003941D01*
X016958Y004097D01*
X017310Y003745D01*
X017154Y003589D01*
G37*
G36*
X016931Y003366D02*
X016579Y003718D01*
X016735Y003874D01*
X017087Y003522D01*
X016931Y003366D01*
G37*
G36*
X016708Y003143D02*
X016356Y003495D01*
X016512Y003651D01*
X016864Y003299D01*
X016708Y003143D01*
G37*
G36*
X016486Y002921D02*
X016134Y003273D01*
X016290Y003429D01*
X016642Y003077D01*
X016486Y002921D01*
G37*
G36*
X016263Y002698D02*
X015911Y003050D01*
X016067Y003206D01*
X016419Y002854D01*
X016263Y002698D01*
G37*
G36*
X016040Y002475D02*
X015688Y002827D01*
X015844Y002983D01*
X016196Y002631D01*
X016040Y002475D01*
G37*
G36*
X015818Y002252D02*
X015466Y002604D01*
X015622Y002760D01*
X015974Y002408D01*
X015818Y002252D01*
G37*
G36*
X013427Y004642D02*
X013075Y004994D01*
X013231Y005150D01*
X013583Y004798D01*
X013427Y004642D01*
G37*
G36*
X013650Y004865D02*
X013298Y005217D01*
X013454Y005373D01*
X013806Y005021D01*
X013650Y004865D01*
G37*
G36*
X013873Y005088D02*
X013521Y005440D01*
X013677Y005596D01*
X014029Y005244D01*
X013873Y005088D01*
G37*
G36*
X014096Y005311D02*
X013744Y005663D01*
X013900Y005819D01*
X014252Y005467D01*
X014096Y005311D01*
G37*
G36*
X014318Y005533D02*
X013966Y005885D01*
X014122Y006041D01*
X014474Y005689D01*
X014318Y005533D01*
G37*
G36*
X014541Y005756D02*
X014189Y006108D01*
X014345Y006264D01*
X014697Y005912D01*
X014541Y005756D01*
G37*
G36*
X014764Y005979D02*
X014412Y006331D01*
X014568Y006487D01*
X014920Y006135D01*
X014764Y005979D01*
G37*
G36*
X014986Y006201D02*
X014634Y006553D01*
X014790Y006709D01*
X015142Y006357D01*
X014986Y006201D01*
G37*
D16*
G36*
X015622Y006201D02*
X015466Y006357D01*
X015818Y006709D01*
X015974Y006553D01*
X015622Y006201D01*
G37*
G36*
X015844Y005979D02*
X015688Y006135D01*
X016040Y006487D01*
X016196Y006331D01*
X015844Y005979D01*
G37*
G36*
X016067Y005756D02*
X015911Y005912D01*
X016263Y006264D01*
X016419Y006108D01*
X016067Y005756D01*
G37*
G36*
X016290Y005533D02*
X016134Y005689D01*
X016486Y006041D01*
X016642Y005885D01*
X016290Y005533D01*
G37*
G36*
X016512Y005311D02*
X016356Y005467D01*
X016708Y005819D01*
X016864Y005663D01*
X016512Y005311D01*
G37*
G36*
X016735Y005088D02*
X016579Y005244D01*
X016931Y005596D01*
X017087Y005440D01*
X016735Y005088D01*
G37*
G36*
X016958Y004865D02*
X016802Y005021D01*
X017154Y005373D01*
X017310Y005217D01*
X016958Y004865D01*
G37*
G36*
X017180Y004642D02*
X017024Y004798D01*
X017376Y005150D01*
X017532Y004994D01*
X017180Y004642D01*
G37*
G36*
X014345Y002698D02*
X014189Y002854D01*
X014541Y003206D01*
X014697Y003050D01*
X014345Y002698D01*
G37*
G36*
X014568Y002475D02*
X014412Y002631D01*
X014764Y002983D01*
X014920Y002827D01*
X014568Y002475D01*
G37*
G36*
X014790Y002252D02*
X014634Y002408D01*
X014986Y002760D01*
X015142Y002604D01*
X014790Y002252D01*
G37*
G36*
X014122Y002921D02*
X013966Y003077D01*
X014318Y003429D01*
X014474Y003273D01*
X014122Y002921D01*
G37*
G36*
X013900Y003143D02*
X013744Y003299D01*
X014096Y003651D01*
X014252Y003495D01*
X013900Y003143D01*
G37*
G36*
X013677Y003366D02*
X013521Y003522D01*
X013873Y003874D01*
X014029Y003718D01*
X013677Y003366D01*
G37*
G36*
X013454Y003589D02*
X013298Y003745D01*
X013650Y004097D01*
X013806Y003941D01*
X013454Y003589D01*
G37*
G36*
X013231Y003811D02*
X013075Y003967D01*
X013427Y004319D01*
X013583Y004163D01*
X013231Y003811D01*
G37*
D17*
X012435Y003162D02*
X012435Y002900D01*
X012173Y002900D01*
X012173Y003162D01*
X012435Y003162D01*
X012435Y002987D02*
X012173Y002987D01*
X012173Y003074D02*
X012435Y003074D01*
X012435Y003161D02*
X012173Y003161D01*
X012435Y002562D02*
X012435Y002300D01*
X012173Y002300D01*
X012173Y002562D01*
X012435Y002562D01*
X012435Y002387D02*
X012173Y002387D01*
X012173Y002474D02*
X012435Y002474D01*
X012435Y002561D02*
X012173Y002561D01*
X019873Y001612D02*
X020135Y001612D01*
X020135Y001350D01*
X019873Y001350D01*
X019873Y001612D01*
X019873Y001437D02*
X020135Y001437D01*
X020135Y001524D02*
X019873Y001524D01*
X019873Y001611D02*
X020135Y001611D01*
X020473Y001612D02*
X020735Y001612D01*
X020735Y001350D01*
X020473Y001350D01*
X020473Y001612D01*
X020473Y001437D02*
X020735Y001437D01*
X020735Y001524D02*
X020473Y001524D01*
X020473Y001611D02*
X020735Y001611D01*
X003435Y001662D02*
X003435Y001400D01*
X003173Y001400D01*
X003173Y001662D01*
X003435Y001662D01*
X003435Y001487D02*
X003173Y001487D01*
X003173Y001574D02*
X003435Y001574D01*
X003435Y001661D02*
X003173Y001661D01*
X003435Y002000D02*
X003435Y002262D01*
X003435Y002000D02*
X003173Y002000D01*
X003173Y002262D01*
X003435Y002262D01*
X003435Y002087D02*
X003173Y002087D01*
X003173Y002174D02*
X003435Y002174D01*
X003435Y002261D02*
X003173Y002261D01*
D18*
X004009Y010575D02*
X004599Y010575D01*
X004599Y018386D02*
X004009Y018386D01*
D19*
X006398Y017182D03*
X006398Y016280D03*
X006824Y015886D03*
X007257Y015485D03*
X006824Y015083D03*
X007257Y014682D03*
X006824Y014280D03*
X007257Y013879D03*
X006824Y013477D03*
X007257Y013075D03*
X006398Y012682D03*
X006398Y011780D03*
D20*
X006824Y014280D02*
X006824Y014281D01*
X008154Y014281D01*
X008654Y014781D01*
X008704Y014781D01*
X022529Y016481D02*
X022529Y016781D01*
X022529Y016481D02*
X022079Y016481D01*
X022079Y016781D01*
X022529Y016781D01*
X022529Y016580D02*
X022079Y016580D01*
X022079Y016679D02*
X022529Y016679D01*
X022529Y016778D02*
X022079Y016778D01*
X022529Y017181D02*
X022529Y017481D01*
X022529Y017181D02*
X022079Y017181D01*
X022079Y017481D01*
X022529Y017481D01*
X022529Y017280D02*
X022079Y017280D01*
X022079Y017379D02*
X022529Y017379D01*
X022529Y017478D02*
X022079Y017478D01*
X010654Y003881D02*
X010504Y003731D01*
X009954Y003731D01*
X010904Y001931D02*
X010904Y001631D01*
X010804Y001531D01*
D21*
X009954Y002231D03*
X009954Y002731D03*
X009954Y003231D03*
X009954Y003731D03*
X009954Y004231D03*
X009954Y004731D03*
X009954Y005231D03*
X009954Y005731D03*
X009954Y006231D03*
X009954Y006731D03*
X004654Y006731D03*
X004654Y006231D03*
X004654Y005731D03*
X004654Y005231D03*
X004654Y004731D03*
X004654Y004231D03*
X004654Y003731D03*
X004654Y003231D03*
X004654Y002731D03*
X004654Y002231D03*
D22*
X007304Y004481D03*
D23*
X022404Y001731D03*
X029954Y004431D03*
X012304Y017981D03*
X008304Y017981D03*
D24*
X009304Y017981D03*
X010304Y017981D03*
X013304Y017981D03*
X014304Y017981D03*
X015304Y017981D03*
X016304Y017981D03*
X017304Y017981D03*
X030954Y004431D03*
X030954Y003431D03*
X029954Y003431D03*
X029954Y002431D03*
X030954Y002431D03*
X024404Y002731D03*
X023404Y002731D03*
X022404Y002731D03*
X023404Y001731D03*
X024404Y001731D03*
D25*
X015704Y009894D03*
X014304Y009894D03*
X014304Y011468D03*
X015704Y011468D03*
X015204Y015194D03*
X016404Y015194D03*
X016404Y016768D03*
X015204Y016768D03*
X014004Y016768D03*
X012804Y016768D03*
X012804Y015194D03*
X014004Y015194D03*
D26*
X010591Y016831D03*
X009017Y016831D03*
X018817Y017981D03*
X020391Y017981D03*
D27*
X021304Y017981D01*
X021204Y017331D02*
X022304Y017331D01*
X026954Y017331D01*
X028804Y015481D01*
X028804Y012331D01*
X029604Y011531D01*
X029604Y010331D01*
X029954Y009981D01*
X030304Y009981D01*
X030304Y009194D02*
X030291Y009181D01*
X029804Y009181D01*
X028304Y007681D01*
X028304Y006981D01*
X026804Y005481D01*
X027454Y004831D01*
X027604Y004981D01*
X029304Y004981D01*
X029854Y004431D01*
X029954Y004431D01*
X030954Y004431D02*
X030954Y003431D01*
X030954Y002431D01*
X029954Y002431D02*
X029204Y001681D01*
X026104Y001681D01*
X025804Y001981D01*
X025804Y002581D01*
X025454Y003381D02*
X025454Y004131D01*
X026804Y005481D01*
X027454Y004831D02*
X027454Y003381D01*
X027804Y002581D02*
X029104Y002581D01*
X029954Y003431D01*
X025454Y004131D02*
X024404Y003081D01*
X024404Y002731D01*
X029754Y009181D02*
X028804Y010131D01*
X028804Y011331D01*
X028304Y011831D01*
X028304Y014931D01*
X026604Y016631D01*
X023804Y016631D01*
X022304Y016631D01*
X021304Y016631D01*
X020654Y015981D01*
X019304Y015981D01*
X016804Y013481D01*
X014091Y013481D01*
X013604Y014081D02*
X016654Y014081D01*
X019154Y016581D01*
X020454Y016581D01*
X021204Y017331D01*
X018817Y017981D02*
X017304Y017981D01*
X016304Y017981D01*
X016404Y017881D01*
X016404Y016768D01*
X015204Y016768D02*
X015204Y017881D01*
X015304Y017981D01*
X014304Y017981D02*
X014004Y017681D01*
X014004Y016768D01*
X012804Y016768D02*
X012804Y017481D01*
X012304Y017981D01*
X013304Y017981D01*
X012304Y017981D02*
X011304Y016981D01*
X010741Y016981D01*
X010591Y016831D01*
X011917Y016081D02*
X012804Y015194D01*
X014004Y015194D01*
X012567Y015194D01*
X011804Y014431D01*
X011804Y008281D01*
X013554Y006531D01*
X011704Y005781D02*
X010654Y004731D01*
X009954Y004731D01*
X009954Y005231D02*
X010554Y005231D01*
X011204Y005881D01*
X011204Y005981D01*
X009954Y006231D02*
X009954Y006731D01*
X009954Y007331D01*
X009804Y007481D01*
X009954Y006231D02*
X008654Y006231D01*
X007304Y004981D01*
X007304Y004481D01*
X004654Y004731D02*
X003904Y004731D01*
X003804Y005231D02*
X004654Y005231D01*
X003754Y004231D02*
X003304Y004681D01*
X003304Y006981D01*
X007004Y010681D01*
X007004Y012181D01*
X006704Y012481D01*
X008304Y012481D01*
X008804Y012981D01*
X008804Y014081D01*
X009904Y015181D01*
X010854Y015631D02*
X007403Y015631D01*
X007257Y015485D01*
X006859Y015886D02*
X007054Y016081D01*
X011917Y016081D01*
X014004Y015194D02*
X015204Y015194D01*
X016404Y015194D01*
X013604Y014081D02*
X013304Y013781D01*
X013304Y013481D01*
X014954Y012281D02*
X014441Y011768D01*
X014304Y011468D01*
X013654Y010431D02*
X013891Y010194D01*
X014304Y009894D01*
X015704Y009894D01*
X015704Y011468D02*
X015804Y012281D01*
X015854Y012331D01*
X009017Y016831D02*
X007554Y016831D01*
X007504Y016781D01*
X006859Y015886D02*
X006824Y015886D01*
X006824Y015083D02*
X006821Y015081D01*
X006654Y015081D01*
X006254Y014681D01*
X006254Y013031D01*
X006398Y012886D01*
X006398Y012682D01*
X006503Y012682D02*
X006704Y012481D01*
X004654Y006731D02*
X004654Y006231D01*
X003804Y006231D01*
X003754Y004231D02*
X004654Y004231D01*
X003004Y003781D02*
X002954Y003731D01*
X029754Y009181D02*
X029804Y009181D01*
D28*
X028154Y004031D03*
X026554Y002381D03*
X014004Y007431D03*
X013554Y006531D03*
X011704Y005781D03*
X011204Y005981D03*
X011504Y004981D03*
X010654Y003881D03*
X010854Y003431D03*
X011304Y002481D03*
X010904Y001931D03*
X012804Y001981D03*
X013154Y002431D03*
X013154Y003281D03*
X013604Y001531D03*
X007054Y002081D03*
X004654Y001881D03*
X004104Y003731D03*
X002954Y004331D03*
X003904Y004731D03*
X003804Y005231D03*
X003804Y006231D03*
X009804Y007481D03*
X013654Y010431D03*
X012854Y011781D03*
X013254Y012381D03*
X014954Y012281D03*
X015854Y012331D03*
X010854Y015631D03*
X009904Y015181D03*
X008704Y014781D03*
X007504Y016781D03*
X021304Y017981D03*
X023804Y016631D03*
D29*
X010504Y002731D02*
X009954Y002731D01*
X010504Y002731D02*
X010754Y002481D01*
X011304Y002481D01*
D30*
X010754Y002981D02*
X012154Y002981D01*
X012304Y003031D01*
X012304Y003881D01*
X013054Y003790D02*
X013054Y003331D01*
X013154Y003381D01*
X013154Y003281D01*
X013054Y003790D02*
X013329Y004065D01*
X014170Y003147D02*
X013654Y002631D01*
X013354Y002631D01*
X013154Y002431D01*
X012954Y002031D02*
X012804Y001981D01*
X012954Y002031D02*
X013504Y002031D01*
X014425Y002952D01*
X014443Y002952D01*
X014220Y003175D02*
X014170Y003147D01*
X014652Y002729D02*
X014354Y002431D01*
X014354Y002281D01*
X013604Y001531D01*
X014354Y002231D02*
X015104Y001481D01*
X020004Y001481D01*
X020604Y001481D02*
X020604Y001231D01*
X023654Y001231D01*
X023904Y001481D01*
X023904Y001981D01*
X023454Y002431D01*
X023454Y002681D01*
X023404Y002731D01*
X023904Y002431D02*
X023904Y003181D01*
X023454Y003631D01*
X019854Y003631D01*
X017404Y006081D01*
X016704Y006081D01*
X016410Y005787D01*
X016388Y005787D01*
X016165Y006010D02*
X016165Y006042D01*
X016654Y006531D01*
X016654Y006881D01*
X015904Y007631D01*
X014854Y007631D01*
X013254Y009231D01*
X013254Y012381D01*
X012854Y011781D02*
X012854Y009181D01*
X014804Y007231D01*
X015754Y007231D01*
X016204Y006781D01*
X016204Y006481D01*
X015956Y006233D01*
X015942Y006233D01*
X014888Y006455D02*
X014879Y006455D01*
X014054Y007281D01*
X014004Y007431D01*
X014666Y006233D02*
X012517Y008382D01*
X012503Y008382D01*
X012354Y008531D01*
X012354Y013318D01*
X012517Y013481D01*
X006826Y015081D02*
X006824Y015083D01*
X006503Y012682D02*
X006398Y012682D01*
X011504Y004981D02*
X011504Y004231D01*
X009954Y004231D01*
X010854Y003431D02*
X011004Y003531D01*
X011504Y003531D01*
X010754Y002981D02*
X010504Y003231D01*
X009954Y003231D01*
X009954Y002231D02*
X007204Y002231D01*
X007054Y002081D01*
X007304Y002331D01*
X007304Y004481D01*
X005304Y003931D02*
X005304Y003231D01*
X005304Y001531D01*
X003304Y001531D01*
X003304Y002131D02*
X003304Y002531D01*
X003304Y002731D01*
X004654Y002731D01*
X004654Y002231D02*
X004654Y001881D01*
X005304Y001531D02*
X010804Y001531D01*
X011404Y001531D01*
X012304Y002431D01*
X014354Y002281D02*
X014354Y002231D01*
X014704Y002331D02*
X015154Y001881D01*
X022254Y001881D01*
X022904Y002231D02*
X023404Y001731D01*
X022904Y002231D02*
X015904Y002231D01*
X015720Y002415D01*
X015720Y002506D01*
X014888Y002506D02*
X014879Y002506D01*
X014704Y002331D01*
X014666Y002729D02*
X014652Y002729D01*
X016610Y003397D02*
X016638Y003397D01*
X023904Y002431D02*
X024404Y001931D01*
X024404Y001731D01*
X026554Y002381D02*
X026554Y002981D01*
X026154Y003381D01*
X028154Y003381D02*
X028154Y004031D01*
X005304Y003931D02*
X005004Y004231D01*
X004654Y004231D01*
X004654Y003731D02*
X004104Y003731D01*
X003654Y003731D01*
X003304Y002931D02*
X003304Y002731D01*
D31*
X004304Y001926D02*
X004305Y001926D01*
X004654Y001926D01*
X005003Y001926D01*
X005004Y001926D01*
X005004Y001831D01*
X004304Y001831D01*
X004304Y001926D01*
X004654Y001926D02*
X004654Y002231D01*
X004654Y001926D01*
X004654Y001932D02*
X004654Y001932D01*
X004654Y002090D02*
X004654Y002090D01*
X004654Y002231D02*
X004654Y002231D01*
X005604Y002249D02*
X009449Y002249D01*
X009449Y002231D02*
X009954Y002231D01*
X009954Y002231D01*
X009449Y002231D01*
X009449Y002380D01*
X009461Y002425D01*
X009464Y002431D01*
X009426Y002470D01*
X009389Y002558D01*
X009389Y002904D01*
X009421Y002981D01*
X009389Y003058D01*
X009389Y003404D01*
X009421Y003481D01*
X009389Y003558D01*
X009389Y003904D01*
X009421Y003981D01*
X009389Y004058D01*
X009389Y004404D01*
X009421Y004481D01*
X009389Y004558D01*
X009389Y004904D01*
X009421Y004981D01*
X009389Y005058D01*
X009389Y005404D01*
X009421Y005481D01*
X009389Y005558D01*
X009389Y005904D01*
X009426Y005992D01*
X009464Y006031D01*
X009461Y006036D01*
X009449Y006082D01*
X009449Y006231D01*
X009954Y006231D01*
X009954Y006231D01*
X009954Y006426D01*
X009954Y006731D01*
X009954Y006731D01*
X009954Y007036D01*
X010303Y007036D01*
X010304Y007036D01*
X010304Y007981D01*
X004813Y007981D01*
X004304Y007472D01*
X004304Y007036D01*
X004305Y007036D01*
X004654Y007036D01*
X004654Y006731D01*
X004654Y006731D01*
X004654Y007036D01*
X005003Y007036D01*
X005048Y007024D01*
X005090Y007000D01*
X005123Y006966D01*
X005147Y006925D01*
X005159Y006880D01*
X005159Y006731D01*
X004654Y006731D01*
X004654Y006731D01*
X005159Y006731D01*
X005159Y006582D01*
X005147Y006536D01*
X005123Y006495D01*
X005109Y006481D01*
X005123Y006466D01*
X005147Y006425D01*
X005159Y006380D01*
X005159Y006231D01*
X004654Y006231D01*
X004654Y006231D01*
X004654Y006731D01*
X004654Y006731D01*
X004654Y006536D01*
X004654Y006231D01*
X004654Y006231D01*
X005159Y006231D01*
X005159Y006082D01*
X005147Y006036D01*
X005143Y006031D01*
X005182Y005992D01*
X005219Y005904D01*
X005219Y005558D01*
X005187Y005481D01*
X005219Y005404D01*
X005219Y005058D01*
X005187Y004981D01*
X005219Y004904D01*
X005219Y004558D01*
X005187Y004481D01*
X005193Y004466D01*
X005258Y004401D01*
X005474Y004185D01*
X005558Y004101D01*
X005604Y003991D01*
X005604Y003343D01*
X005624Y003295D01*
X005624Y003167D01*
X005604Y003119D01*
X005604Y001831D01*
X010304Y001831D01*
X010304Y001926D01*
X010303Y001926D01*
X009954Y001926D01*
X009954Y002231D01*
X009954Y002231D01*
X009954Y001926D01*
X009605Y001926D01*
X009560Y001938D01*
X009518Y001962D01*
X009485Y001995D01*
X009461Y002036D01*
X009449Y002082D01*
X009449Y002231D01*
X009449Y002090D02*
X005604Y002090D01*
X005604Y001932D02*
X009583Y001932D01*
X009954Y001932D02*
X009954Y001932D01*
X009954Y002090D02*
X009954Y002090D01*
X009456Y002407D02*
X008969Y002407D01*
X008972Y002411D02*
X008984Y002457D01*
X008984Y004401D01*
X007384Y004401D01*
X007384Y004561D01*
X007224Y004561D01*
X007224Y006661D01*
X005780Y006661D01*
X005735Y006649D01*
X005693Y006625D01*
X005660Y006591D01*
X005636Y006550D01*
X005624Y006505D01*
X005624Y004561D01*
X007224Y004561D01*
X007224Y004401D01*
X005624Y004401D01*
X005624Y002457D01*
X005636Y002411D01*
X005660Y002370D01*
X005693Y002337D01*
X005735Y002313D01*
X005780Y002301D01*
X007224Y002301D01*
X007224Y004401D01*
X007384Y004401D01*
X007384Y002301D01*
X008828Y002301D01*
X008873Y002313D01*
X008915Y002337D01*
X008948Y002370D01*
X008972Y002411D01*
X008984Y002566D02*
X009389Y002566D01*
X009389Y002724D02*
X008984Y002724D01*
X008984Y002883D02*
X009389Y002883D01*
X009396Y003041D02*
X008984Y003041D01*
X008984Y003200D02*
X009389Y003200D01*
X009389Y003358D02*
X008984Y003358D01*
X008984Y003517D02*
X009406Y003517D01*
X009389Y003675D02*
X008984Y003675D01*
X008984Y003834D02*
X009389Y003834D01*
X009416Y003992D02*
X008984Y003992D01*
X008984Y004151D02*
X009389Y004151D01*
X009389Y004309D02*
X008984Y004309D01*
X008984Y004561D02*
X008984Y006505D01*
X008972Y006550D01*
X008948Y006591D01*
X008915Y006625D01*
X008873Y006649D01*
X008828Y006661D01*
X007384Y006661D01*
X007384Y004561D01*
X008984Y004561D01*
X008984Y004626D02*
X009389Y004626D01*
X009389Y004785D02*
X008984Y004785D01*
X008984Y004943D02*
X009405Y004943D01*
X009389Y005102D02*
X008984Y005102D01*
X008984Y005260D02*
X009389Y005260D01*
X009395Y005419D02*
X008984Y005419D01*
X008984Y005577D02*
X009389Y005577D01*
X009389Y005736D02*
X008984Y005736D01*
X008984Y005894D02*
X009389Y005894D01*
X009457Y006053D02*
X008984Y006053D01*
X008984Y006211D02*
X009449Y006211D01*
X009449Y006231D02*
X009954Y006231D01*
X009954Y006731D01*
X009954Y007036D01*
X009605Y007036D01*
X009560Y007024D01*
X009518Y007000D01*
X009485Y006966D01*
X009461Y006925D01*
X009449Y006880D01*
X009449Y006731D01*
X009954Y006731D01*
X009954Y006731D01*
X009449Y006731D01*
X009449Y006582D01*
X009461Y006536D01*
X009485Y006495D01*
X009499Y006481D01*
X009485Y006466D01*
X009461Y006425D01*
X009449Y006380D01*
X009449Y006231D01*
X009449Y006370D02*
X008984Y006370D01*
X008978Y006528D02*
X009466Y006528D01*
X009449Y006687D02*
X005159Y006687D01*
X005159Y006845D02*
X009449Y006845D01*
X009525Y007004D02*
X005083Y007004D01*
X004654Y007004D02*
X004654Y007004D01*
X004654Y006845D02*
X004654Y006845D01*
X004654Y006687D02*
X004654Y006687D01*
X004654Y006528D02*
X004654Y006528D01*
X004654Y006370D02*
X004654Y006370D01*
X005159Y006370D02*
X005624Y006370D01*
X005630Y006528D02*
X005142Y006528D01*
X005159Y006211D02*
X005624Y006211D01*
X005624Y006053D02*
X005151Y006053D01*
X005219Y005894D02*
X005624Y005894D01*
X005624Y005736D02*
X005219Y005736D01*
X005219Y005577D02*
X005624Y005577D01*
X005624Y005419D02*
X005213Y005419D01*
X005219Y005260D02*
X005624Y005260D01*
X005624Y005102D02*
X005219Y005102D01*
X005203Y004943D02*
X005624Y004943D01*
X005624Y004785D02*
X005219Y004785D01*
X005219Y004626D02*
X005624Y004626D01*
X005624Y004309D02*
X005350Y004309D01*
X005508Y004151D02*
X005624Y004151D01*
X005624Y003992D02*
X005603Y003992D01*
X005604Y003834D02*
X005624Y003834D01*
X005624Y003675D02*
X005604Y003675D01*
X005604Y003517D02*
X005624Y003517D01*
X005624Y003358D02*
X005604Y003358D01*
X005624Y003200D02*
X005624Y003200D01*
X005624Y003041D02*
X005604Y003041D01*
X005604Y002883D02*
X005624Y002883D01*
X005624Y002724D02*
X005604Y002724D01*
X005604Y002566D02*
X005624Y002566D01*
X005639Y002407D02*
X005604Y002407D01*
X005304Y003231D02*
X004654Y003231D01*
X002954Y003731D02*
X002954Y004331D01*
X005192Y004468D02*
X007224Y004468D01*
X007224Y004626D02*
X007384Y004626D01*
X007384Y004468D02*
X009416Y004468D01*
X007384Y004309D02*
X007224Y004309D01*
X007224Y004151D02*
X007384Y004151D01*
X007384Y003992D02*
X007224Y003992D01*
X007224Y003834D02*
X007384Y003834D01*
X007384Y003675D02*
X007224Y003675D01*
X007224Y003517D02*
X007384Y003517D01*
X007384Y003358D02*
X007224Y003358D01*
X007224Y003200D02*
X007384Y003200D01*
X007384Y003041D02*
X007224Y003041D01*
X007224Y002883D02*
X007384Y002883D01*
X007384Y002724D02*
X007224Y002724D01*
X007224Y002566D02*
X007384Y002566D01*
X007384Y002407D02*
X007224Y002407D01*
X007224Y004785D02*
X007384Y004785D01*
X007384Y004943D02*
X007224Y004943D01*
X007224Y005102D02*
X007384Y005102D01*
X007384Y005260D02*
X007224Y005260D01*
X007224Y005419D02*
X007384Y005419D01*
X007384Y005577D02*
X007224Y005577D01*
X007224Y005736D02*
X007384Y005736D01*
X007384Y005894D02*
X007224Y005894D01*
X007224Y006053D02*
X007384Y006053D01*
X007384Y006211D02*
X007224Y006211D01*
X007224Y006370D02*
X007384Y006370D01*
X007384Y006528D02*
X007224Y006528D01*
X009804Y007481D02*
X011704Y007481D01*
X013204Y005981D01*
X013581Y005981D01*
X013704Y005981D01*
X014004Y006281D01*
X014204Y006281D01*
X014443Y006042D01*
X014443Y006010D01*
X014443Y005992D01*
X014954Y005481D01*
X014954Y005031D01*
X015281Y004704D01*
X015304Y004704D01*
X016610Y003397D01*
X016388Y003175D02*
X016388Y003147D01*
X016704Y002831D01*
X016704Y002681D01*
X016504Y002481D01*
X016190Y002481D01*
X015942Y002729D01*
X016360Y003175D02*
X014554Y004981D01*
X014554Y005431D01*
X014198Y005787D01*
X014220Y005787D01*
X013998Y005565D02*
X013581Y005981D01*
X013486Y005631D02*
X013254Y005631D01*
X012754Y005131D01*
X012754Y002631D01*
X012554Y002431D01*
X012304Y002431D01*
X012354Y002481D01*
X014136Y004981D02*
X014554Y004981D01*
X014136Y004981D02*
X013775Y005342D01*
X013486Y005631D01*
X013970Y005565D02*
X013998Y005565D01*
X014443Y006010D02*
X014475Y006010D01*
X010304Y007162D02*
X004304Y007162D01*
X004304Y007321D02*
X010304Y007321D01*
X010304Y007479D02*
X004312Y007479D01*
X004470Y007638D02*
X010304Y007638D01*
X010304Y007796D02*
X004629Y007796D01*
X004787Y007955D02*
X010304Y007955D01*
X009954Y007004D02*
X009954Y007004D01*
X009954Y006845D02*
X009954Y006845D01*
X009954Y006731D02*
X009954Y006731D01*
X009954Y006687D02*
X009954Y006687D01*
X009954Y006528D02*
X009954Y006528D01*
X009954Y006370D02*
X009954Y006370D01*
X009954Y006231D02*
X009954Y006231D01*
X016360Y003175D02*
X016388Y003175D01*
X016704Y002681D02*
X022354Y002681D01*
X022404Y002731D01*
X022254Y001881D02*
X022404Y001731D01*
M02*
