G75*
%MOIN*%
%OFA0B0*%
%FSLAX24Y24*%
%IPPOS*%
%LPD*%
%AMOC8*
5,1,8,0,0,1.08239X$1,22.5*
%
%ADD10C,0.0000*%
%ADD11C,0.1535*%
%ADD12R,0.0595X0.0595*%
%ADD13C,0.0600*%
%ADD14R,0.0490X0.0440*%
%ADD15R,0.0440X0.0490*%
%ADD16R,0.0540X0.0260*%
%ADD17R,0.0260X0.0540*%
%ADD18C,0.0098*%
%ADD19C,0.0631*%
%ADD20C,0.0580*%
%ADD21C,0.0110*%
%ADD22R,0.0690X0.0290*%
%ADD23R,0.3040X0.4040*%
%ADD24R,0.0690X0.0690*%
%ADD25C,0.0690*%
%ADD26R,0.0709X0.1024*%
%ADD27R,0.1024X0.0709*%
D10*
X002304Y000981D02*
X002304Y018851D01*
X031796Y018851D01*
X031796Y000981D01*
X002304Y000981D01*
X009557Y013481D02*
X009559Y013536D01*
X009565Y013590D01*
X009575Y013643D01*
X009589Y013696D01*
X009606Y013748D01*
X009628Y013798D01*
X009653Y013847D01*
X009681Y013893D01*
X009713Y013938D01*
X009748Y013979D01*
X009786Y014019D01*
X009826Y014055D01*
X009869Y014089D01*
X009915Y014119D01*
X009962Y014145D01*
X010012Y014168D01*
X010063Y014188D01*
X010115Y014204D01*
X010168Y014216D01*
X010222Y014224D01*
X010277Y014228D01*
X010331Y014228D01*
X010386Y014224D01*
X010440Y014216D01*
X010493Y014204D01*
X010545Y014188D01*
X010596Y014168D01*
X010646Y014145D01*
X010693Y014119D01*
X010739Y014089D01*
X010782Y014055D01*
X010822Y014019D01*
X010860Y013979D01*
X010895Y013938D01*
X010927Y013893D01*
X010955Y013847D01*
X010980Y013798D01*
X011002Y013748D01*
X011019Y013696D01*
X011033Y013643D01*
X011043Y013590D01*
X011049Y013536D01*
X011051Y013481D01*
X011049Y013426D01*
X011043Y013372D01*
X011033Y013319D01*
X011019Y013266D01*
X011002Y013214D01*
X010980Y013164D01*
X010955Y013115D01*
X010927Y013069D01*
X010895Y013024D01*
X010860Y012983D01*
X010822Y012943D01*
X010782Y012907D01*
X010739Y012873D01*
X010693Y012843D01*
X010646Y012817D01*
X010596Y012794D01*
X010545Y012774D01*
X010493Y012758D01*
X010440Y012746D01*
X010386Y012738D01*
X010331Y012734D01*
X010277Y012734D01*
X010222Y012738D01*
X010168Y012746D01*
X010115Y012758D01*
X010063Y012774D01*
X010012Y012794D01*
X009962Y012817D01*
X009915Y012843D01*
X009869Y012873D01*
X009826Y012907D01*
X009786Y012943D01*
X009748Y012983D01*
X009713Y013024D01*
X009681Y013069D01*
X009653Y013115D01*
X009628Y013164D01*
X009606Y013214D01*
X009589Y013266D01*
X009575Y013319D01*
X009565Y013372D01*
X009559Y013426D01*
X009557Y013481D01*
X029557Y012981D02*
X029559Y013036D01*
X029565Y013090D01*
X029575Y013143D01*
X029589Y013196D01*
X029606Y013248D01*
X029628Y013298D01*
X029653Y013347D01*
X029681Y013393D01*
X029713Y013438D01*
X029748Y013479D01*
X029786Y013519D01*
X029826Y013555D01*
X029869Y013589D01*
X029915Y013619D01*
X029962Y013645D01*
X030012Y013668D01*
X030063Y013688D01*
X030115Y013704D01*
X030168Y013716D01*
X030222Y013724D01*
X030277Y013728D01*
X030331Y013728D01*
X030386Y013724D01*
X030440Y013716D01*
X030493Y013704D01*
X030545Y013688D01*
X030596Y013668D01*
X030646Y013645D01*
X030693Y013619D01*
X030739Y013589D01*
X030782Y013555D01*
X030822Y013519D01*
X030860Y013479D01*
X030895Y013438D01*
X030927Y013393D01*
X030955Y013347D01*
X030980Y013298D01*
X031002Y013248D01*
X031019Y013196D01*
X031033Y013143D01*
X031043Y013090D01*
X031049Y013036D01*
X031051Y012981D01*
X031049Y012926D01*
X031043Y012872D01*
X031033Y012819D01*
X031019Y012766D01*
X031002Y012714D01*
X030980Y012664D01*
X030955Y012615D01*
X030927Y012569D01*
X030895Y012524D01*
X030860Y012483D01*
X030822Y012443D01*
X030782Y012407D01*
X030739Y012373D01*
X030693Y012343D01*
X030646Y012317D01*
X030596Y012294D01*
X030545Y012274D01*
X030493Y012258D01*
X030440Y012246D01*
X030386Y012238D01*
X030331Y012234D01*
X030277Y012234D01*
X030222Y012238D01*
X030168Y012246D01*
X030115Y012258D01*
X030063Y012274D01*
X030012Y012294D01*
X029962Y012317D01*
X029915Y012343D01*
X029869Y012373D01*
X029826Y012407D01*
X029786Y012443D01*
X029748Y012483D01*
X029713Y012524D01*
X029681Y012569D01*
X029653Y012615D01*
X029628Y012664D01*
X029606Y012714D01*
X029589Y012766D01*
X029575Y012819D01*
X029565Y012872D01*
X029559Y012926D01*
X029557Y012981D01*
X029557Y006981D02*
X029559Y007036D01*
X029565Y007090D01*
X029575Y007143D01*
X029589Y007196D01*
X029606Y007248D01*
X029628Y007298D01*
X029653Y007347D01*
X029681Y007393D01*
X029713Y007438D01*
X029748Y007479D01*
X029786Y007519D01*
X029826Y007555D01*
X029869Y007589D01*
X029915Y007619D01*
X029962Y007645D01*
X030012Y007668D01*
X030063Y007688D01*
X030115Y007704D01*
X030168Y007716D01*
X030222Y007724D01*
X030277Y007728D01*
X030331Y007728D01*
X030386Y007724D01*
X030440Y007716D01*
X030493Y007704D01*
X030545Y007688D01*
X030596Y007668D01*
X030646Y007645D01*
X030693Y007619D01*
X030739Y007589D01*
X030782Y007555D01*
X030822Y007519D01*
X030860Y007479D01*
X030895Y007438D01*
X030927Y007393D01*
X030955Y007347D01*
X030980Y007298D01*
X031002Y007248D01*
X031019Y007196D01*
X031033Y007143D01*
X031043Y007090D01*
X031049Y007036D01*
X031051Y006981D01*
X031049Y006926D01*
X031043Y006872D01*
X031033Y006819D01*
X031019Y006766D01*
X031002Y006714D01*
X030980Y006664D01*
X030955Y006615D01*
X030927Y006569D01*
X030895Y006524D01*
X030860Y006483D01*
X030822Y006443D01*
X030782Y006407D01*
X030739Y006373D01*
X030693Y006343D01*
X030646Y006317D01*
X030596Y006294D01*
X030545Y006274D01*
X030493Y006258D01*
X030440Y006246D01*
X030386Y006238D01*
X030331Y006234D01*
X030277Y006234D01*
X030222Y006238D01*
X030168Y006246D01*
X030115Y006258D01*
X030063Y006274D01*
X030012Y006294D01*
X029962Y006317D01*
X029915Y006343D01*
X029869Y006373D01*
X029826Y006407D01*
X029786Y006443D01*
X029748Y006483D01*
X029713Y006524D01*
X029681Y006569D01*
X029653Y006615D01*
X029628Y006664D01*
X029606Y006714D01*
X029589Y006766D01*
X029575Y006819D01*
X029565Y006872D01*
X029559Y006926D01*
X029557Y006981D01*
D11*
X030304Y006981D03*
X030304Y012981D03*
X010304Y013481D03*
D12*
X014091Y013481D03*
X030304Y009194D03*
D13*
X030304Y009981D03*
X030304Y010768D03*
X013304Y013481D03*
X012517Y013481D03*
D14*
X011504Y004231D03*
X011504Y003531D03*
X012304Y003881D03*
D15*
X003654Y003731D03*
X002954Y003731D03*
X003304Y002931D03*
X025454Y003381D03*
X026154Y003381D03*
X025804Y002581D03*
X027454Y003381D03*
X028154Y003381D03*
X027804Y002581D03*
D16*
G36*
X017376Y003783D02*
X016996Y004163D01*
X017180Y004347D01*
X017560Y003967D01*
X017376Y003783D01*
G37*
G36*
X017154Y003561D02*
X016774Y003941D01*
X016958Y004125D01*
X017338Y003745D01*
X017154Y003561D01*
G37*
G36*
X016931Y003338D02*
X016551Y003718D01*
X016735Y003902D01*
X017115Y003522D01*
X016931Y003338D01*
G37*
G36*
X016708Y003115D02*
X016328Y003495D01*
X016512Y003679D01*
X016892Y003299D01*
X016708Y003115D01*
G37*
G36*
X016486Y002893D02*
X016106Y003273D01*
X016290Y003457D01*
X016670Y003077D01*
X016486Y002893D01*
G37*
G36*
X016263Y002670D02*
X015883Y003050D01*
X016067Y003234D01*
X016447Y002854D01*
X016263Y002670D01*
G37*
G36*
X016040Y002447D02*
X015660Y002827D01*
X015844Y003011D01*
X016224Y002631D01*
X016040Y002447D01*
G37*
G36*
X015818Y002224D02*
X015438Y002604D01*
X015622Y002788D01*
X016002Y002408D01*
X015818Y002224D01*
G37*
G36*
X013427Y004614D02*
X013047Y004994D01*
X013231Y005178D01*
X013611Y004798D01*
X013427Y004614D01*
G37*
G36*
X013650Y004837D02*
X013270Y005217D01*
X013454Y005401D01*
X013834Y005021D01*
X013650Y004837D01*
G37*
G36*
X013873Y005060D02*
X013493Y005440D01*
X013677Y005624D01*
X014057Y005244D01*
X013873Y005060D01*
G37*
G36*
X014096Y005283D02*
X013716Y005663D01*
X013900Y005847D01*
X014280Y005467D01*
X014096Y005283D01*
G37*
G36*
X014318Y005505D02*
X013938Y005885D01*
X014122Y006069D01*
X014502Y005689D01*
X014318Y005505D01*
G37*
G36*
X014541Y005728D02*
X014161Y006108D01*
X014345Y006292D01*
X014725Y005912D01*
X014541Y005728D01*
G37*
G36*
X014764Y005951D02*
X014384Y006331D01*
X014568Y006515D01*
X014948Y006135D01*
X014764Y005951D01*
G37*
G36*
X014986Y006173D02*
X014606Y006553D01*
X014790Y006737D01*
X015170Y006357D01*
X014986Y006173D01*
G37*
D17*
G36*
X015622Y006173D02*
X015438Y006357D01*
X015818Y006737D01*
X016002Y006553D01*
X015622Y006173D01*
G37*
G36*
X015844Y005951D02*
X015660Y006135D01*
X016040Y006515D01*
X016224Y006331D01*
X015844Y005951D01*
G37*
G36*
X016067Y005728D02*
X015883Y005912D01*
X016263Y006292D01*
X016447Y006108D01*
X016067Y005728D01*
G37*
G36*
X016290Y005505D02*
X016106Y005689D01*
X016486Y006069D01*
X016670Y005885D01*
X016290Y005505D01*
G37*
G36*
X016512Y005283D02*
X016328Y005467D01*
X016708Y005847D01*
X016892Y005663D01*
X016512Y005283D01*
G37*
G36*
X016735Y005060D02*
X016551Y005244D01*
X016931Y005624D01*
X017115Y005440D01*
X016735Y005060D01*
G37*
G36*
X016958Y004837D02*
X016774Y005021D01*
X017154Y005401D01*
X017338Y005217D01*
X016958Y004837D01*
G37*
G36*
X017180Y004614D02*
X016996Y004798D01*
X017376Y005178D01*
X017560Y004994D01*
X017180Y004614D01*
G37*
G36*
X014345Y002670D02*
X014161Y002854D01*
X014541Y003234D01*
X014725Y003050D01*
X014345Y002670D01*
G37*
G36*
X014568Y002447D02*
X014384Y002631D01*
X014764Y003011D01*
X014948Y002827D01*
X014568Y002447D01*
G37*
G36*
X014790Y002224D02*
X014606Y002408D01*
X014986Y002788D01*
X015170Y002604D01*
X014790Y002224D01*
G37*
G36*
X014122Y002893D02*
X013938Y003077D01*
X014318Y003457D01*
X014502Y003273D01*
X014122Y002893D01*
G37*
G36*
X013900Y003115D02*
X013716Y003299D01*
X014096Y003679D01*
X014280Y003495D01*
X013900Y003115D01*
G37*
G36*
X013677Y003338D02*
X013493Y003522D01*
X013873Y003902D01*
X014057Y003718D01*
X013677Y003338D01*
G37*
G36*
X013454Y003561D02*
X013270Y003745D01*
X013650Y004125D01*
X013834Y003941D01*
X013454Y003561D01*
G37*
G36*
X013231Y003783D02*
X013047Y003967D01*
X013427Y004347D01*
X013611Y004163D01*
X013231Y003783D01*
G37*
D18*
X012450Y003177D02*
X012450Y002885D01*
X012158Y002885D01*
X012158Y003177D01*
X012450Y003177D01*
X012450Y002982D02*
X012158Y002982D01*
X012158Y003079D02*
X012450Y003079D01*
X012450Y003176D02*
X012158Y003176D01*
X012450Y002577D02*
X012450Y002285D01*
X012158Y002285D01*
X012158Y002577D01*
X012450Y002577D01*
X012450Y002382D02*
X012158Y002382D01*
X012158Y002479D02*
X012450Y002479D01*
X012450Y002576D02*
X012158Y002576D01*
X019858Y001627D02*
X020150Y001627D01*
X020150Y001335D01*
X019858Y001335D01*
X019858Y001627D01*
X019858Y001432D02*
X020150Y001432D01*
X020150Y001529D02*
X019858Y001529D01*
X019858Y001626D02*
X020150Y001626D01*
X020458Y001627D02*
X020750Y001627D01*
X020750Y001335D01*
X020458Y001335D01*
X020458Y001627D01*
X020458Y001432D02*
X020750Y001432D01*
X020750Y001529D02*
X020458Y001529D01*
X020458Y001626D02*
X020750Y001626D01*
X003450Y001677D02*
X003450Y001385D01*
X003158Y001385D01*
X003158Y001677D01*
X003450Y001677D01*
X003450Y001482D02*
X003158Y001482D01*
X003158Y001579D02*
X003450Y001579D01*
X003450Y001676D02*
X003158Y001676D01*
X003450Y001985D02*
X003450Y002277D01*
X003450Y001985D02*
X003158Y001985D01*
X003158Y002277D01*
X003450Y002277D01*
X003450Y002082D02*
X003158Y002082D01*
X003158Y002179D02*
X003450Y002179D01*
X003450Y002276D02*
X003158Y002276D01*
D19*
X004009Y010575D02*
X004599Y010575D01*
X004599Y018386D02*
X004009Y018386D01*
D20*
X006398Y017182D03*
X006398Y016280D03*
X006824Y015886D03*
X007257Y015485D03*
X006824Y015083D03*
X007257Y014682D03*
X006824Y014280D03*
X007257Y013879D03*
X006824Y013477D03*
X007257Y013075D03*
X006398Y012682D03*
X006398Y011780D03*
D21*
X022544Y016466D02*
X022544Y016796D01*
X022544Y016466D02*
X022064Y016466D01*
X022064Y016796D01*
X022544Y016796D01*
X022544Y016575D02*
X022064Y016575D01*
X022064Y016684D02*
X022544Y016684D01*
X022544Y016793D02*
X022064Y016793D01*
X022544Y017166D02*
X022544Y017496D01*
X022544Y017166D02*
X022064Y017166D01*
X022064Y017496D01*
X022544Y017496D01*
X022544Y017275D02*
X022064Y017275D01*
X022064Y017384D02*
X022544Y017384D01*
X022544Y017493D02*
X022064Y017493D01*
D22*
X009954Y006731D03*
X009954Y006231D03*
X009954Y005731D03*
X009954Y005231D03*
X009954Y004731D03*
X009954Y004231D03*
X009954Y003731D03*
X009954Y003231D03*
X009954Y002731D03*
X009954Y002231D03*
X004654Y002231D03*
X004654Y002731D03*
X004654Y003231D03*
X004654Y003731D03*
X004654Y004231D03*
X004654Y004731D03*
X004654Y005231D03*
X004654Y005731D03*
X004654Y006231D03*
X004654Y006731D03*
D23*
X007304Y004481D03*
D24*
X022404Y001731D03*
X029954Y004431D03*
X012304Y017981D03*
X008304Y017981D03*
D25*
X009304Y017981D03*
X010304Y017981D03*
X013304Y017981D03*
X014304Y017981D03*
X015304Y017981D03*
X016304Y017981D03*
X017304Y017981D03*
X030954Y004431D03*
X030954Y003431D03*
X029954Y003431D03*
X029954Y002431D03*
X030954Y002431D03*
X024404Y002731D03*
X023404Y002731D03*
X022404Y002731D03*
X023404Y001731D03*
X024404Y001731D03*
D26*
X015704Y009894D03*
X014304Y009894D03*
X014304Y011468D03*
X015704Y011468D03*
X015204Y015194D03*
X016404Y015194D03*
X016404Y016768D03*
X015204Y016768D03*
X014004Y016768D03*
X012804Y016768D03*
X012804Y015194D03*
X014004Y015194D03*
D27*
X010591Y016831D03*
X009017Y016831D03*
X018817Y017981D03*
X020391Y017981D03*
M02*
