  0
SECTION
  2
BLOCKS
  0
ENDSEC
  0
SECTION
  2
ENTITIES
  0
LINE
  8
0
 10
456
 20
304.8
 11
0
 21
304.8
  0
LINE
  8
0
 10
0
 20
304.8
 11
0
 21
0
  0
LINE
  8
0
 10
0
 20
0
 11
456
 21
0
  0
LINE
  8
0
 10
456
 20
0
 11
456
 21
304.8
  0
LINE
  8
0
 10
29.7044
 20
283.934
 11
29.4161
 21
284.003
  0
LINE
  8
0
 10
29.4161
 20
284.003
 11
29.1422
 21
284.116
  0
LINE
  8
0
 10
29.1422
 20
284.116
 11
28.8893
 21
284.271
  0
LINE
  8
0
 10
28.8893
 20
284.271
 11
28.6639
 21
284.464
  0
LINE
  8
0
 10
28.6639
 20
284.464
 11
28.4713
 21
284.689
  0
LINE
  8
0
 10
28.4713
 20
284.689
 11
28.3164
 21
284.942
  0
LINE
  8
0
 10
28.3164
 20
284.942
 11
28.2029
 21
285.216
  0
LINE
  8
0
 10
28.2029
 20
285.216
 11
28.1337
 21
285.504
  0
LINE
  8
0
 10
28.1337
 20
285.504
 11
28.1104
 21
285.8
  0
LINE
  8
0
 10
28.1104
 20
285.8
 11
28.1337
 21
286.096
  0
LINE
  8
0
 10
28.1337
 20
286.096
 11
28.2029
 21
286.384
  0
LINE
  8
0
 10
28.2029
 20
286.384
 11
28.3164
 21
286.658
  0
LINE
  8
0
 10
28.3164
 20
286.658
 11
28.4713
 21
286.911
  0
LINE
  8
0
 10
28.4713
 20
286.911
 11
28.6639
 21
287.136
  0
LINE
  8
0
 10
28.6639
 20
287.136
 11
28.8893
 21
287.329
  0
LINE
  8
0
 10
28.8893
 20
287.329
 11
29.1422
 21
287.484
  0
LINE
  8
0
 10
29.1422
 20
287.484
 11
29.4161
 21
287.597
  0
LINE
  8
0
 10
29.4161
 20
287.597
 11
29.7044
 21
287.666
  0
LINE
  8
0
 10
29.7044
 20
287.666
 11
30
 21
287.69
  0
LINE
  8
0
 10
30
 20
287.69
 11
30.2956
 21
287.666
  0
LINE
  8
0
 10
30.2956
 20
287.666
 11
30.5839
 21
287.597
  0
LINE
  8
0
 10
30.5839
 20
287.597
 11
30.8578
 21
287.484
  0
LINE
  8
0
 10
30.8578
 20
287.484
 11
31.1107
 21
287.329
  0
LINE
  8
0
 10
31.1107
 20
287.329
 11
31.3361
 21
287.136
  0
LINE
  8
0
 10
31.3361
 20
287.136
 11
31.5287
 21
286.911
  0
LINE
  8
0
 10
31.5287
 20
286.911
 11
31.6836
 21
286.658
  0
LINE
  8
0
 10
31.6836
 20
286.658
 11
31.7971
 21
286.384
  0
LINE
  8
0
 10
31.7971
 20
286.384
 11
31.8663
 21
286.096
  0
LINE
  8
0
 10
31.8663
 20
286.096
 11
31.8896
 21
285.8
  0
LINE
  8
0
 10
31.8896
 20
285.8
 11
31.8663
 21
285.504
  0
LINE
  8
0
 10
31.8663
 20
285.504
 11
31.7971
 21
285.216
  0
LINE
  8
0
 10
31.7971
 20
285.216
 11
31.6836
 21
284.942
  0
LINE
  8
0
 10
31.6836
 20
284.942
 11
31.5287
 21
284.689
  0
LINE
  8
0
 10
31.5287
 20
284.689
 11
31.3361
 21
284.464
  0
LINE
  8
0
 10
31.3361
 20
284.464
 11
31.1107
 21
284.271
  0
LINE
  8
0
 10
31.1107
 20
284.271
 11
30.8578
 21
284.116
  0
LINE
  8
0
 10
30.8578
 20
284.116
 11
30.5839
 21
284.003
  0
LINE
  8
0
 10
30.5839
 20
284.003
 11
30.2956
 21
283.934
  0
LINE
  8
0
 10
30.2956
 20
283.934
 11
30
 21
283.91
  0
LINE
  8
0
 10
30
 20
283.91
 11
29.7044
 21
283.934
  0
LINE
  8
0
 10
79.6169
 20
283.934
 11
79.3286
 21
284.003
  0
LINE
  8
0
 10
79.3286
 20
284.003
 11
79.0546
 21
284.116
  0
LINE
  8
0
 10
79.0546
 20
284.116
 11
78.8018
 21
284.271
  0
LINE
  8
0
 10
78.8018
 20
284.271
 11
78.5764
 21
284.464
  0
LINE
  8
0
 10
78.5764
 20
284.464
 11
78.3838
 21
284.689
  0
LINE
  8
0
 10
78.3838
 20
284.689
 11
78.2289
 21
284.942
  0
LINE
  8
0
 10
78.2289
 20
284.942
 11
78.1154
 21
285.216
  0
LINE
  8
0
 10
78.1154
 20
285.216
 11
78.0462
 21
285.504
  0
LINE
  8
0
 10
78.0462
 20
285.504
 11
78.0229
 21
285.8
  0
LINE
  8
0
 10
78.0229
 20
285.8
 11
78.0462
 21
286.096
  0
LINE
  8
0
 10
78.0462
 20
286.096
 11
78.1154
 21
286.384
  0
LINE
  8
0
 10
78.1154
 20
286.384
 11
78.2289
 21
286.658
  0
LINE
  8
0
 10
78.2289
 20
286.658
 11
78.3838
 21
286.911
  0
LINE
  8
0
 10
78.3838
 20
286.911
 11
78.5764
 21
287.136
  0
LINE
  8
0
 10
78.5764
 20
287.136
 11
78.8018
 21
287.329
  0
LINE
  8
0
 10
78.8018
 20
287.329
 11
79.0546
 21
287.484
  0
LINE
  8
0
 10
79.0546
 20
287.484
 11
79.3286
 21
287.597
  0
LINE
  8
0
 10
79.3286
 20
287.597
 11
79.6169
 21
287.666
  0
LINE
  8
0
 10
79.6169
 20
287.666
 11
79.9125
 21
287.69
  0
LINE
  8
0
 10
79.9125
 20
287.69
 11
80.2081
 21
287.666
  0
LINE
  8
0
 10
80.2081
 20
287.666
 11
80.4964
 21
287.597
  0
LINE
  8
0
 10
80.4964
 20
287.597
 11
80.7703
 21
287.484
  0
LINE
  8
0
 10
80.7703
 20
287.484
 11
81.0232
 21
287.329
  0
LINE
  8
0
 10
81.0232
 20
287.329
 11
81.2486
 21
287.136
  0
LINE
  8
0
 10
81.2486
 20
287.136
 11
81.4412
 21
286.911
  0
LINE
  8
0
 10
81.4412
 20
286.911
 11
81.5961
 21
286.658
  0
LINE
  8
0
 10
81.5961
 20
286.658
 11
81.7096
 21
286.384
  0
LINE
  8
0
 10
81.7096
 20
286.384
 11
81.7788
 21
286.096
  0
LINE
  8
0
 10
81.7788
 20
286.096
 11
81.8021
 21
285.8
  0
LINE
  8
0
 10
81.8021
 20
285.8
 11
81.7788
 21
285.504
  0
LINE
  8
0
 10
81.7788
 20
285.504
 11
81.7096
 21
285.216
  0
LINE
  8
0
 10
81.7096
 20
285.216
 11
81.5961
 21
284.942
  0
LINE
  8
0
 10
81.5961
 20
284.942
 11
81.4412
 21
284.689
  0
LINE
  8
0
 10
81.4412
 20
284.689
 11
81.2486
 21
284.464
  0
LINE
  8
0
 10
81.2486
 20
284.464
 11
81.0232
 21
284.271
  0
LINE
  8
0
 10
81.0232
 20
284.271
 11
80.7703
 21
284.116
  0
LINE
  8
0
 10
80.7703
 20
284.116
 11
80.4964
 21
284.003
  0
LINE
  8
0
 10
80.4964
 20
284.003
 11
80.2081
 21
283.934
  0
LINE
  8
0
 10
80.2081
 20
283.934
 11
79.9125
 21
283.91
  0
LINE
  8
0
 10
79.9125
 20
283.91
 11
79.6169
 21
283.934
  0
LINE
  8
0
 10
429.004
 20
283.934
 11
428.716
 21
284.003
  0
LINE
  8
0
 10
428.716
 20
284.003
 11
428.442
 21
284.116
  0
LINE
  8
0
 10
428.442
 20
284.116
 11
428.189
 21
284.271
  0
LINE
  8
0
 10
428.189
 20
284.271
 11
427.964
 21
284.464
  0
LINE
  8
0
 10
427.964
 20
284.464
 11
427.771
 21
284.689
  0
LINE
  8
0
 10
427.771
 20
284.689
 11
427.616
 21
284.942
  0
LINE
  8
0
 10
427.616
 20
284.942
 11
427.503
 21
285.216
  0
LINE
  8
0
 10
427.503
 20
285.216
 11
427.434
 21
285.504
  0
LINE
  8
0
 10
427.434
 20
285.504
 11
427.41
 21
285.8
  0
LINE
  8
0
 10
427.41
 20
285.8
 11
427.434
 21
286.096
  0
LINE
  8
0
 10
427.434
 20
286.096
 11
427.503
 21
286.384
  0
LINE
  8
0
 10
427.503
 20
286.384
 11
427.616
 21
286.658
  0
LINE
  8
0
 10
427.616
 20
286.658
 11
427.771
 21
286.911
  0
LINE
  8
0
 10
427.771
 20
286.911
 11
427.964
 21
287.136
  0
LINE
  8
0
 10
427.964
 20
287.136
 11
428.189
 21
287.329
  0
LINE
  8
0
 10
428.189
 20
287.329
 11
428.442
 21
287.484
  0
LINE
  8
0
 10
428.442
 20
287.484
 11
428.716
 21
287.597
  0
LINE
  8
0
 10
428.716
 20
287.597
 11
429.004
 21
287.666
  0
LINE
  8
0
 10
429.004
 20
287.666
 11
429.3
 21
287.69
  0
LINE
  8
0
 10
429.3
 20
287.69
 11
429.596
 21
287.666
  0
LINE
  8
0
 10
429.596
 20
287.666
 11
429.884
 21
287.597
  0
LINE
  8
0
 10
429.884
 20
287.597
 11
430.158
 21
287.484
  0
LINE
  8
0
 10
430.158
 20
287.484
 11
430.411
 21
287.329
  0
LINE
  8
0
 10
430.411
 20
287.329
 11
430.636
 21
287.136
  0
LINE
  8
0
 10
430.636
 20
287.136
 11
430.829
 21
286.911
  0
LINE
  8
0
 10
430.829
 20
286.911
 11
430.984
 21
286.658
  0
LINE
  8
0
 10
430.984
 20
286.658
 11
431.097
 21
286.384
  0
LINE
  8
0
 10
431.097
 20
286.384
 11
431.166
 21
286.096
  0
LINE
  8
0
 10
431.166
 20
286.096
 11
431.19
 21
285.8
  0
LINE
  8
0
 10
431.19
 20
285.8
 11
431.166
 21
285.504
  0
LINE
  8
0
 10
431.166
 20
285.504
 11
431.097
 21
285.216
  0
LINE
  8
0
 10
431.097
 20
285.216
 11
430.984
 21
284.942
  0
LINE
  8
0
 10
430.984
 20
284.942
 11
430.829
 21
284.689
  0
LINE
  8
0
 10
430.829
 20
284.689
 11
430.636
 21
284.464
  0
LINE
  8
0
 10
430.636
 20
284.464
 11
430.411
 21
284.271
  0
LINE
  8
0
 10
430.411
 20
284.271
 11
430.158
 21
284.116
  0
LINE
  8
0
 10
430.158
 20
284.116
 11
429.884
 21
284.003
  0
LINE
  8
0
 10
429.884
 20
284.003
 11
429.596
 21
283.934
  0
LINE
  8
0
 10
429.596
 20
283.934
 11
429.3
 21
283.91
  0
LINE
  8
0
 10
429.3
 20
283.91
 11
429.004
 21
283.934
  0
LINE
  8
0
 10
129.529
 20
283.934
 11
129.241
 21
284.003
  0
LINE
  8
0
 10
129.241
 20
284.003
 11
128.967
 21
284.116
  0
LINE
  8
0
 10
128.967
 20
284.116
 11
128.714
 21
284.271
  0
LINE
  8
0
 10
128.714
 20
284.271
 11
128.489
 21
284.464
  0
LINE
  8
0
 10
128.489
 20
284.464
 11
128.296
 21
284.689
  0
LINE
  8
0
 10
128.296
 20
284.689
 11
128.141
 21
284.942
  0
LINE
  8
0
 10
128.141
 20
284.942
 11
128.028
 21
285.216
  0
LINE
  8
0
 10
128.028
 20
285.216
 11
127.959
 21
285.504
  0
LINE
  8
0
 10
127.959
 20
285.504
 11
127.935
 21
285.8
  0
LINE
  8
0
 10
127.935
 20
285.8
 11
127.959
 21
286.096
  0
LINE
  8
0
 10
127.959
 20
286.096
 11
128.028
 21
286.384
  0
LINE
  8
0
 10
128.028
 20
286.384
 11
128.141
 21
286.658
  0
LINE
  8
0
 10
128.141
 20
286.658
 11
128.296
 21
286.911
  0
LINE
  8
0
 10
128.296
 20
286.911
 11
128.489
 21
287.136
  0
LINE
  8
0
 10
128.489
 20
287.136
 11
128.714
 21
287.329
  0
LINE
  8
0
 10
128.714
 20
287.329
 11
128.967
 21
287.484
  0
LINE
  8
0
 10
128.967
 20
287.484
 11
129.241
 21
287.597
  0
LINE
  8
0
 10
129.241
 20
287.597
 11
129.529
 21
287.666
  0
LINE
  8
0
 10
129.529
 20
287.666
 11
129.825
 21
287.69
  0
LINE
  8
0
 10
129.825
 20
287.69
 11
130.121
 21
287.666
  0
LINE
  8
0
 10
130.121
 20
287.666
 11
130.409
 21
287.597
  0
LINE
  8
0
 10
130.409
 20
287.597
 11
130.683
 21
287.484
  0
LINE
  8
0
 10
130.683
 20
287.484
 11
130.936
 21
287.329
  0
LINE
  8
0
 10
130.936
 20
287.329
 11
131.161
 21
287.136
  0
LINE
  8
0
 10
131.161
 20
287.136
 11
131.354
 21
286.911
  0
LINE
  8
0
 10
131.354
 20
286.911
 11
131.509
 21
286.658
  0
LINE
  8
0
 10
131.509
 20
286.658
 11
131.622
 21
286.384
  0
LINE
  8
0
 10
131.622
 20
286.384
 11
131.691
 21
286.096
  0
LINE
  8
0
 10
131.691
 20
286.096
 11
131.715
 21
285.8
  0
LINE
  8
0
 10
131.715
 20
285.8
 11
131.691
 21
285.504
  0
LINE
  8
0
 10
131.691
 20
285.504
 11
131.622
 21
285.216
  0
LINE
  8
0
 10
131.622
 20
285.216
 11
131.509
 21
284.942
  0
LINE
  8
0
 10
131.509
 20
284.942
 11
131.354
 21
284.689
  0
LINE
  8
0
 10
131.354
 20
284.689
 11
131.161
 21
284.464
  0
LINE
  8
0
 10
131.161
 20
284.464
 11
130.936
 21
284.271
  0
LINE
  8
0
 10
130.936
 20
284.271
 11
130.683
 21
284.116
  0
LINE
  8
0
 10
130.683
 20
284.116
 11
130.409
 21
284.003
  0
LINE
  8
0
 10
130.409
 20
284.003
 11
130.121
 21
283.934
  0
LINE
  8
0
 10
130.121
 20
283.934
 11
129.825
 21
283.91
  0
LINE
  8
0
 10
129.825
 20
283.91
 11
129.529
 21
283.934
  0
LINE
  8
0
 10
379.092
 20
283.934
 11
378.804
 21
284.003
  0
LINE
  8
0
 10
378.804
 20
284.003
 11
378.53
 21
284.116
  0
LINE
  8
0
 10
378.53
 20
284.116
 11
378.277
 21
284.271
  0
LINE
  8
0
 10
378.277
 20
284.271
 11
378.051
 21
284.464
  0
LINE
  8
0
 10
378.051
 20
284.464
 11
377.859
 21
284.689
  0
LINE
  8
0
 10
377.859
 20
284.689
 11
377.704
 21
284.942
  0
LINE
  8
0
 10
377.704
 20
284.942
 11
377.59
 21
285.216
  0
LINE
  8
0
 10
377.59
 20
285.216
 11
377.521
 21
285.504
  0
LINE
  8
0
 10
377.521
 20
285.504
 11
377.498
 21
285.8
  0
LINE
  8
0
 10
377.498
 20
285.8
 11
377.521
 21
286.096
  0
LINE
  8
0
 10
377.521
 20
286.096
 11
377.59
 21
286.384
  0
LINE
  8
0
 10
377.59
 20
286.384
 11
377.704
 21
286.658
  0
LINE
  8
0
 10
377.704
 20
286.658
 11
377.859
 21
286.911
  0
LINE
  8
0
 10
377.859
 20
286.911
 11
378.051
 21
287.136
  0
LINE
  8
0
 10
378.051
 20
287.136
 11
378.277
 21
287.329
  0
LINE
  8
0
 10
378.277
 20
287.329
 11
378.53
 21
287.484
  0
LINE
  8
0
 10
378.53
 20
287.484
 11
378.804
 21
287.597
  0
LINE
  8
0
 10
378.804
 20
287.597
 11
379.092
 21
287.666
  0
LINE
  8
0
 10
379.092
 20
287.666
 11
379.387
 21
287.69
  0
LINE
  8
0
 10
379.387
 20
287.69
 11
379.683
 21
287.666
  0
LINE
  8
0
 10
379.683
 20
287.666
 11
379.971
 21
287.597
  0
LINE
  8
0
 10
379.971
 20
287.597
 11
380.245
 21
287.484
  0
LINE
  8
0
 10
380.245
 20
287.484
 11
380.498
 21
287.329
  0
LINE
  8
0
 10
380.498
 20
287.329
 11
380.724
 21
287.136
  0
LINE
  8
0
 10
380.724
 20
287.136
 11
380.916
 21
286.911
  0
LINE
  8
0
 10
380.916
 20
286.911
 11
381.071
 21
286.658
  0
LINE
  8
0
 10
381.071
 20
286.658
 11
381.185
 21
286.384
  0
LINE
  8
0
 10
381.185
 20
286.384
 11
381.254
 21
286.096
  0
LINE
  8
0
 10
381.254
 20
286.096
 11
381.277
 21
285.8
  0
LINE
  8
0
 10
381.277
 20
285.8
 11
381.254
 21
285.504
  0
LINE
  8
0
 10
381.254
 20
285.504
 11
381.185
 21
285.216
  0
LINE
  8
0
 10
381.185
 20
285.216
 11
381.071
 21
284.942
  0
LINE
  8
0
 10
381.071
 20
284.942
 11
380.916
 21
284.689
  0
LINE
  8
0
 10
380.916
 20
284.689
 11
380.724
 21
284.464
  0
LINE
  8
0
 10
380.724
 20
284.464
 11
380.498
 21
284.271
  0
LINE
  8
0
 10
380.498
 20
284.271
 11
380.245
 21
284.116
  0
LINE
  8
0
 10
380.245
 20
284.116
 11
379.971
 21
284.003
  0
LINE
  8
0
 10
379.971
 20
284.003
 11
379.683
 21
283.934
  0
LINE
  8
0
 10
379.683
 20
283.934
 11
379.387
 21
283.91
  0
LINE
  8
0
 10
379.387
 20
283.91
 11
379.092
 21
283.934
  0
LINE
  8
0
 10
179.442
 20
283.934
 11
179.154
 21
284.003
  0
LINE
  8
0
 10
179.154
 20
284.003
 11
178.88
 21
284.116
  0
LINE
  8
0
 10
178.88
 20
284.116
 11
178.627
 21
284.271
  0
LINE
  8
0
 10
178.627
 20
284.271
 11
178.401
 21
284.464
  0
LINE
  8
0
 10
178.401
 20
284.464
 11
178.209
 21
284.689
  0
LINE
  8
0
 10
178.209
 20
284.689
 11
178.054
 21
284.942
  0
LINE
  8
0
 10
178.054
 20
284.942
 11
177.94
 21
285.216
  0
LINE
  8
0
 10
177.94
 20
285.216
 11
177.871
 21
285.504
  0
LINE
  8
0
 10
177.871
 20
285.504
 11
177.848
 21
285.8
  0
LINE
  8
0
 10
177.848
 20
285.8
 11
177.871
 21
286.096
  0
LINE
  8
0
 10
177.871
 20
286.096
 11
177.94
 21
286.384
  0
LINE
  8
0
 10
177.94
 20
286.384
 11
178.054
 21
286.658
  0
LINE
  8
0
 10
178.054
 20
286.658
 11
178.209
 21
286.911
  0
LINE
  8
0
 10
178.209
 20
286.911
 11
178.401
 21
287.136
  0
LINE
  8
0
 10
178.401
 20
287.136
 11
178.627
 21
287.329
  0
LINE
  8
0
 10
178.627
 20
287.329
 11
178.88
 21
287.484
  0
LINE
  8
0
 10
178.88
 20
287.484
 11
179.154
 21
287.597
  0
LINE
  8
0
 10
179.154
 20
287.597
 11
179.442
 21
287.666
  0
LINE
  8
0
 10
179.442
 20
287.666
 11
179.737
 21
287.69
  0
LINE
  8
0
 10
179.737
 20
287.69
 11
180.033
 21
287.666
  0
LINE
  8
0
 10
180.033
 20
287.666
 11
180.321
 21
287.597
  0
LINE
  8
0
 10
180.321
 20
287.597
 11
180.595
 21
287.484
  0
LINE
  8
0
 10
180.595
 20
287.484
 11
180.848
 21
287.329
  0
LINE
  8
0
 10
180.848
 20
287.329
 11
181.074
 21
287.136
  0
LINE
  8
0
 10
181.074
 20
287.136
 11
181.266
 21
286.911
  0
LINE
  8
0
 10
181.266
 20
286.911
 11
181.421
 21
286.658
  0
LINE
  8
0
 10
181.421
 20
286.658
 11
181.535
 21
286.384
  0
LINE
  8
0
 10
181.535
 20
286.384
 11
181.604
 21
286.096
  0
LINE
  8
0
 10
181.604
 20
286.096
 11
181.627
 21
285.8
  0
LINE
  8
0
 10
181.627
 20
285.8
 11
181.604
 21
285.504
  0
LINE
  8
0
 10
181.604
 20
285.504
 11
181.535
 21
285.216
  0
LINE
  8
0
 10
181.535
 20
285.216
 11
181.421
 21
284.942
  0
LINE
  8
0
 10
181.421
 20
284.942
 11
181.266
 21
284.689
  0
LINE
  8
0
 10
181.266
 20
284.689
 11
181.074
 21
284.464
  0
LINE
  8
0
 10
181.074
 20
284.464
 11
180.848
 21
284.271
  0
LINE
  8
0
 10
180.848
 20
284.271
 11
180.595
 21
284.116
  0
LINE
  8
0
 10
180.595
 20
284.116
 11
180.321
 21
284.003
  0
LINE
  8
0
 10
180.321
 20
284.003
 11
180.033
 21
283.934
  0
LINE
  8
0
 10
180.033
 20
283.934
 11
179.737
 21
283.91
  0
LINE
  8
0
 10
179.737
 20
283.91
 11
179.442
 21
283.934
  0
LINE
  8
0
 10
329.179
 20
283.934
 11
328.891
 21
284.003
  0
LINE
  8
0
 10
328.891
 20
284.003
 11
328.617
 21
284.116
  0
LINE
  8
0
 10
328.617
 20
284.116
 11
328.364
 21
284.271
  0
LINE
  8
0
 10
328.364
 20
284.271
 11
328.139
 21
284.464
  0
LINE
  8
0
 10
328.139
 20
284.464
 11
327.946
 21
284.689
  0
LINE
  8
0
 10
327.946
 20
284.689
 11
327.791
 21
284.942
  0
LINE
  8
0
 10
327.791
 20
284.942
 11
327.678
 21
285.216
  0
LINE
  8
0
 10
327.678
 20
285.216
 11
327.609
 21
285.504
  0
LINE
  8
0
 10
327.609
 20
285.504
 11
327.585
 21
285.8
  0
LINE
  8
0
 10
327.585
 20
285.8
 11
327.609
 21
286.096
  0
LINE
  8
0
 10
327.609
 20
286.096
 11
327.678
 21
286.384
  0
LINE
  8
0
 10
327.678
 20
286.384
 11
327.791
 21
286.658
  0
LINE
  8
0
 10
327.791
 20
286.658
 11
327.946
 21
286.911
  0
LINE
  8
0
 10
327.946
 20
286.911
 11
328.139
 21
287.136
  0
LINE
  8
0
 10
328.139
 20
287.136
 11
328.364
 21
287.329
  0
LINE
  8
0
 10
328.364
 20
287.329
 11
328.617
 21
287.484
  0
LINE
  8
0
 10
328.617
 20
287.484
 11
328.891
 21
287.597
  0
LINE
  8
0
 10
328.891
 20
287.597
 11
329.179
 21
287.666
  0
LINE
  8
0
 10
329.179
 20
287.666
 11
329.475
 21
287.69
  0
LINE
  8
0
 10
329.475
 20
287.69
 11
329.771
 21
287.666
  0
LINE
  8
0
 10
329.771
 20
287.666
 11
330.059
 21
287.597
  0
LINE
  8
0
 10
330.059
 20
287.597
 11
330.333
 21
287.484
  0
LINE
  8
0
 10
330.333
 20
287.484
 11
330.586
 21
287.329
  0
LINE
  8
0
 10
330.586
 20
287.329
 11
330.811
 21
287.136
  0
LINE
  8
0
 10
330.811
 20
287.136
 11
331.004
 21
286.911
  0
LINE
  8
0
 10
331.004
 20
286.911
 11
331.159
 21
286.658
  0
LINE
  8
0
 10
331.159
 20
286.658
 11
331.272
 21
286.384
  0
LINE
  8
0
 10
331.272
 20
286.384
 11
331.341
 21
286.096
  0
LINE
  8
0
 10
331.341
 20
286.096
 11
331.365
 21
285.8
  0
LINE
  8
0
 10
331.365
 20
285.8
 11
331.341
 21
285.504
  0
LINE
  8
0
 10
331.341
 20
285.504
 11
331.272
 21
285.216
  0
LINE
  8
0
 10
331.272
 20
285.216
 11
331.159
 21
284.942
  0
LINE
  8
0
 10
331.159
 20
284.942
 11
331.004
 21
284.689
  0
LINE
  8
0
 10
331.004
 20
284.689
 11
330.811
 21
284.464
  0
LINE
  8
0
 10
330.811
 20
284.464
 11
330.586
 21
284.271
  0
LINE
  8
0
 10
330.586
 20
284.271
 11
330.333
 21
284.116
  0
LINE
  8
0
 10
330.333
 20
284.116
 11
330.059
 21
284.003
  0
LINE
  8
0
 10
330.059
 20
284.003
 11
329.771
 21
283.934
  0
LINE
  8
0
 10
329.771
 20
283.934
 11
329.475
 21
283.91
  0
LINE
  8
0
 10
329.475
 20
283.91
 11
329.179
 21
283.934
  0
LINE
  8
0
 10
229.354
 20
283.934
 11
229.066
 21
284.003
  0
LINE
  8
0
 10
229.066
 20
284.003
 11
228.792
 21
284.116
  0
LINE
  8
0
 10
228.792
 20
284.116
 11
228.539
 21
284.271
  0
LINE
  8
0
 10
228.539
 20
284.271
 11
228.314
 21
284.464
  0
LINE
  8
0
 10
228.314
 20
284.464
 11
228.121
 21
284.689
  0
LINE
  8
0
 10
228.121
 20
284.689
 11
227.966
 21
284.942
  0
LINE
  8
0
 10
227.966
 20
284.942
 11
227.853
 21
285.216
  0
LINE
  8
0
 10
227.853
 20
285.216
 11
227.784
 21
285.504
  0
LINE
  8
0
 10
227.784
 20
285.504
 11
227.76
 21
285.8
  0
LINE
  8
0
 10
227.76
 20
285.8
 11
227.784
 21
286.096
  0
LINE
  8
0
 10
227.784
 20
286.096
 11
227.853
 21
286.384
  0
LINE
  8
0
 10
227.853
 20
286.384
 11
227.966
 21
286.658
  0
LINE
  8
0
 10
227.966
 20
286.658
 11
228.121
 21
286.911
  0
LINE
  8
0
 10
228.121
 20
286.911
 11
228.314
 21
287.136
  0
LINE
  8
0
 10
228.314
 20
287.136
 11
228.539
 21
287.329
  0
LINE
  8
0
 10
228.539
 20
287.329
 11
228.792
 21
287.484
  0
LINE
  8
0
 10
228.792
 20
287.484
 11
229.066
 21
287.597
  0
LINE
  8
0
 10
229.066
 20
287.597
 11
229.354
 21
287.666
  0
LINE
  8
0
 10
229.354
 20
287.666
 11
229.65
 21
287.69
  0
LINE
  8
0
 10
229.65
 20
287.69
 11
229.946
 21
287.666
  0
LINE
  8
0
 10
229.946
 20
287.666
 11
230.234
 21
287.597
  0
LINE
  8
0
 10
230.234
 20
287.597
 11
230.508
 21
287.484
  0
LINE
  8
0
 10
230.508
 20
287.484
 11
230.761
 21
287.329
  0
LINE
  8
0
 10
230.761
 20
287.329
 11
230.986
 21
287.136
  0
LINE
  8
0
 10
230.986
 20
287.136
 11
231.179
 21
286.911
  0
LINE
  8
0
 10
231.179
 20
286.911
 11
231.334
 21
286.658
  0
LINE
  8
0
 10
231.334
 20
286.658
 11
231.447
 21
286.384
  0
LINE
  8
0
 10
231.447
 20
286.384
 11
231.516
 21
286.096
  0
LINE
  8
0
 10
231.516
 20
286.096
 11
231.54
 21
285.8
  0
LINE
  8
0
 10
231.54
 20
285.8
 11
231.516
 21
285.504
  0
LINE
  8
0
 10
231.516
 20
285.504
 11
231.447
 21
285.216
  0
LINE
  8
0
 10
231.447
 20
285.216
 11
231.334
 21
284.942
  0
LINE
  8
0
 10
231.334
 20
284.942
 11
231.179
 21
284.689
  0
LINE
  8
0
 10
231.179
 20
284.689
 11
230.986
 21
284.464
  0
LINE
  8
0
 10
230.986
 20
284.464
 11
230.761
 21
284.271
  0
LINE
  8
0
 10
230.761
 20
284.271
 11
230.508
 21
284.116
  0
LINE
  8
0
 10
230.508
 20
284.116
 11
230.234
 21
284.003
  0
LINE
  8
0
 10
230.234
 20
284.003
 11
229.946
 21
283.934
  0
LINE
  8
0
 10
229.946
 20
283.934
 11
229.65
 21
283.91
  0
LINE
  8
0
 10
229.65
 20
283.91
 11
229.354
 21
283.934
  0
LINE
  8
0
 10
279.267
 20
283.934
 11
278.979
 21
284.003
  0
LINE
  8
0
 10
278.979
 20
284.003
 11
278.705
 21
284.116
  0
LINE
  8
0
 10
278.705
 20
284.116
 11
278.452
 21
284.271
  0
LINE
  8
0
 10
278.452
 20
284.271
 11
278.226
 21
284.464
  0
LINE
  8
0
 10
278.226
 20
284.464
 11
278.034
 21
284.689
  0
LINE
  8
0
 10
278.034
 20
284.689
 11
277.879
 21
284.942
  0
LINE
  8
0
 10
277.879
 20
284.942
 11
277.765
 21
285.216
  0
LINE
  8
0
 10
277.765
 20
285.216
 11
277.696
 21
285.504
  0
LINE
  8
0
 10
277.696
 20
285.504
 11
277.673
 21
285.8
  0
LINE
  8
0
 10
277.673
 20
285.8
 11
277.696
 21
286.096
  0
LINE
  8
0
 10
277.696
 20
286.096
 11
277.765
 21
286.384
  0
LINE
  8
0
 10
277.765
 20
286.384
 11
277.879
 21
286.658
  0
LINE
  8
0
 10
277.879
 20
286.658
 11
278.034
 21
286.911
  0
LINE
  8
0
 10
278.034
 20
286.911
 11
278.226
 21
287.136
  0
LINE
  8
0
 10
278.226
 20
287.136
 11
278.452
 21
287.329
  0
LINE
  8
0
 10
278.452
 20
287.329
 11
278.705
 21
287.484
  0
LINE
  8
0
 10
278.705
 20
287.484
 11
278.979
 21
287.597
  0
LINE
  8
0
 10
278.979
 20
287.597
 11
279.267
 21
287.666
  0
LINE
  8
0
 10
279.267
 20
287.666
 11
279.562
 21
287.69
  0
LINE
  8
0
 10
279.562
 20
287.69
 11
279.858
 21
287.666
  0
LINE
  8
0
 10
279.858
 20
287.666
 11
280.146
 21
287.597
  0
LINE
  8
0
 10
280.146
 20
287.597
 11
280.42
 21
287.484
  0
LINE
  8
0
 10
280.42
 20
287.484
 11
280.673
 21
287.329
  0
LINE
  8
0
 10
280.673
 20
287.329
 11
280.899
 21
287.136
  0
LINE
  8
0
 10
280.899
 20
287.136
 11
281.091
 21
286.911
  0
LINE
  8
0
 10
281.091
 20
286.911
 11
281.246
 21
286.658
  0
LINE
  8
0
 10
281.246
 20
286.658
 11
281.36
 21
286.384
  0
LINE
  8
0
 10
281.36
 20
286.384
 11
281.429
 21
286.096
  0
LINE
  8
0
 10
281.429
 20
286.096
 11
281.452
 21
285.8
  0
LINE
  8
0
 10
281.452
 20
285.8
 11
281.429
 21
285.504
  0
LINE
  8
0
 10
281.429
 20
285.504
 11
281.36
 21
285.216
  0
LINE
  8
0
 10
281.36
 20
285.216
 11
281.246
 21
284.942
  0
LINE
  8
0
 10
281.246
 20
284.942
 11
281.091
 21
284.689
  0
LINE
  8
0
 10
281.091
 20
284.689
 11
280.899
 21
284.464
  0
LINE
  8
0
 10
280.899
 20
284.464
 11
280.673
 21
284.271
  0
LINE
  8
0
 10
280.673
 20
284.271
 11
280.42
 21
284.116
  0
LINE
  8
0
 10
280.42
 20
284.116
 11
280.146
 21
284.003
  0
LINE
  8
0
 10
280.146
 20
284.003
 11
279.858
 21
283.934
  0
LINE
  8
0
 10
279.858
 20
283.934
 11
279.562
 21
283.91
  0
LINE
  8
0
 10
279.562
 20
283.91
 11
279.267
 21
283.934
  0
LINE
  8
0
 10
377.808
 20
259.83
 11
376.268
 21
260.2
  0
LINE
  8
0
 10
376.268
 20
260.2
 11
374.805
 21
260.806
  0
LINE
  8
0
 10
374.805
 20
260.806
 11
373.454
 21
261.633
  0
LINE
  8
0
 10
373.454
 20
261.633
 11
372.25
 21
262.662
  0
LINE
  8
0
 10
372.25
 20
262.662
 11
371.221
 21
263.867
  0
LINE
  8
0
 10
371.221
 20
263.867
 11
370.393
 21
265.217
  0
LINE
  8
0
 10
370.393
 20
265.217
 11
369.787
 21
266.681
  0
LINE
  8
0
 10
369.787
 20
266.681
 11
369.417
 21
268.221
  0
LINE
  8
0
 10
369.417
 20
268.221
 11
369.293
 21
269.8
  0
LINE
  8
0
 10
369.293
 20
269.8
 11
369.417
 21
271.379
  0
LINE
  8
0
 10
369.417
 20
271.379
 11
369.787
 21
272.919
  0
LINE
  8
0
 10
369.787
 20
272.919
 11
370.393
 21
274.383
  0
LINE
  8
0
 10
370.393
 20
274.383
 11
371.221
 21
275.733
  0
LINE
  8
0
 10
371.221
 20
275.733
 11
372.25
 21
276.938
  0
LINE
  8
0
 10
372.25
 20
276.938
 11
373.454
 21
277.967
  0
LINE
  8
0
 10
373.454
 20
277.967
 11
374.805
 21
278.794
  0
LINE
  8
0
 10
374.805
 20
278.794
 11
376.268
 21
279.4
  0
LINE
  8
0
 10
376.268
 20
279.4
 11
377.808
 21
279.77
  0
LINE
  8
0
 10
377.808
 20
279.77
 11
379.387
 21
279.894
  0
LINE
  8
0
 10
379.387
 20
279.894
 11
380.967
 21
279.77
  0
LINE
  8
0
 10
380.967
 20
279.77
 11
382.507
 21
279.4
  0
LINE
  8
0
 10
382.507
 20
279.4
 11
383.97
 21
278.794
  0
LINE
  8
0
 10
383.97
 20
278.794
 11
385.321
 21
277.967
  0
LINE
  8
0
 10
385.321
 20
277.967
 11
386.525
 21
276.938
  0
LINE
  8
0
 10
386.525
 20
276.938
 11
387.554
 21
275.733
  0
LINE
  8
0
 10
387.554
 20
275.733
 11
388.382
 21
274.383
  0
LINE
  8
0
 10
388.382
 20
274.383
 11
388.988
 21
272.919
  0
LINE
  8
0
 10
388.988
 20
272.919
 11
389.358
 21
271.379
  0
LINE
  8
0
 10
389.358
 20
271.379
 11
389.482
 21
269.8
  0
LINE
  8
0
 10
389.482
 20
269.8
 11
389.358
 21
268.221
  0
LINE
  8
0
 10
389.358
 20
268.221
 11
388.988
 21
266.681
  0
LINE
  8
0
 10
388.988
 20
266.681
 11
388.382
 21
265.217
  0
LINE
  8
0
 10
388.382
 20
265.217
 11
387.554
 21
263.867
  0
LINE
  8
0
 10
387.554
 20
263.867
 11
386.525
 21
262.662
  0
LINE
  8
0
 10
386.525
 20
262.662
 11
385.321
 21
261.633
  0
LINE
  8
0
 10
385.321
 20
261.633
 11
383.97
 21
260.806
  0
LINE
  8
0
 10
383.97
 20
260.806
 11
382.507
 21
260.2
  0
LINE
  8
0
 10
382.507
 20
260.2
 11
380.967
 21
259.83
  0
LINE
  8
0
 10
380.967
 20
259.83
 11
379.387
 21
259.706
  0
LINE
  8
0
 10
379.387
 20
259.706
 11
377.808
 21
259.83
  0
LINE
  8
0
 10
78.3334
 20
259.83
 11
76.7932
 21
260.2
  0
LINE
  8
0
 10
76.7932
 20
260.2
 11
75.3297
 21
260.806
  0
LINE
  8
0
 10
75.3297
 20
260.806
 11
73.9792
 21
261.633
  0
LINE
  8
0
 10
73.9792
 20
261.633
 11
72.7747
 21
262.662
  0
LINE
  8
0
 10
72.7747
 20
262.662
 11
71.746
 21
263.867
  0
LINE
  8
0
 10
71.746
 20
263.867
 11
70.9183
 21
265.217
  0
LINE
  8
0
 10
70.9183
 20
265.217
 11
70.3121
 21
266.681
  0
LINE
  8
0
 10
70.3121
 20
266.681
 11
69.9424
 21
268.221
  0
LINE
  8
0
 10
69.9424
 20
268.221
 11
69.8181
 21
269.8
  0
LINE
  8
0
 10
69.8181
 20
269.8
 11
69.9424
 21
271.379
  0
LINE
  8
0
 10
69.9424
 20
271.379
 11
70.3121
 21
272.919
  0
LINE
  8
0
 10
70.3121
 20
272.919
 11
70.9183
 21
274.383
  0
LINE
  8
0
 10
70.9183
 20
274.383
 11
71.746
 21
275.733
  0
LINE
  8
0
 10
71.746
 20
275.733
 11
72.7747
 21
276.938
  0
LINE
  8
0
 10
72.7747
 20
276.938
 11
73.9792
 21
277.967
  0
LINE
  8
0
 10
73.9792
 20
277.967
 11
75.3297
 21
278.794
  0
LINE
  8
0
 10
75.3297
 20
278.794
 11
76.7932
 21
279.4
  0
LINE
  8
0
 10
76.7932
 20
279.4
 11
78.3334
 21
279.77
  0
LINE
  8
0
 10
78.3334
 20
279.77
 11
79.9125
 21
279.894
  0
LINE
  8
0
 10
79.9125
 20
279.894
 11
81.4916
 21
279.77
  0
LINE
  8
0
 10
81.4916
 20
279.77
 11
83.0318
 21
279.4
  0
LINE
  8
0
 10
83.0318
 20
279.4
 11
84.4952
 21
278.794
  0
LINE
  8
0
 10
84.4952
 20
278.794
 11
85.8458
 21
277.967
  0
LINE
  8
0
 10
85.8458
 20
277.967
 11
87.0503
 21
276.938
  0
LINE
  8
0
 10
87.0503
 20
276.938
 11
88.079
 21
275.733
  0
LINE
  8
0
 10
88.079
 20
275.733
 11
88.9067
 21
274.383
  0
LINE
  8
0
 10
88.9067
 20
274.383
 11
89.5128
 21
272.919
  0
LINE
  8
0
 10
89.5128
 20
272.919
 11
89.8826
 21
271.379
  0
LINE
  8
0
 10
89.8826
 20
271.379
 11
90.0069
 21
269.8
  0
LINE
  8
0
 10
90.0069
 20
269.8
 11
89.8826
 21
268.221
  0
LINE
  8
0
 10
89.8826
 20
268.221
 11
89.5128
 21
266.681
  0
LINE
  8
0
 10
89.5128
 20
266.681
 11
88.9067
 21
265.217
  0
LINE
  8
0
 10
88.9067
 20
265.217
 11
88.079
 21
263.867
  0
LINE
  8
0
 10
88.079
 20
263.867
 11
87.0503
 21
262.662
  0
LINE
  8
0
 10
87.0503
 20
262.662
 11
85.8458
 21
261.633
  0
LINE
  8
0
 10
85.8458
 20
261.633
 11
84.4952
 21
260.806
  0
LINE
  8
0
 10
84.4952
 20
260.806
 11
83.0318
 21
260.2
  0
LINE
  8
0
 10
83.0318
 20
260.2
 11
81.4916
 21
259.83
  0
LINE
  8
0
 10
81.4916
 20
259.83
 11
79.9125
 21
259.706
  0
LINE
  8
0
 10
79.9125
 20
259.706
 11
78.3334
 21
259.83
  0
LINE
  8
0
 10
128.246
 20
259.83
 11
126.706
 21
260.2
  0
LINE
  8
0
 10
126.706
 20
260.2
 11
125.242
 21
260.806
  0
LINE
  8
0
 10
125.242
 20
260.806
 11
123.892
 21
261.633
  0
LINE
  8
0
 10
123.892
 20
261.633
 11
122.687
 21
262.662
  0
LINE
  8
0
 10
122.687
 20
262.662
 11
121.658
 21
263.867
  0
LINE
  8
0
 10
121.658
 20
263.867
 11
120.831
 21
265.217
  0
LINE
  8
0
 10
120.831
 20
265.217
 11
120.225
 21
266.681
  0
LINE
  8
0
 10
120.225
 20
266.681
 11
119.855
 21
268.221
  0
LINE
  8
0
 10
119.855
 20
268.221
 11
119.731
 21
269.8
  0
LINE
  8
0
 10
119.731
 20
269.8
 11
119.855
 21
271.379
  0
LINE
  8
0
 10
119.855
 20
271.379
 11
120.225
 21
272.919
  0
LINE
  8
0
 10
120.225
 20
272.919
 11
120.831
 21
274.383
  0
LINE
  8
0
 10
120.831
 20
274.383
 11
121.658
 21
275.733
  0
LINE
  8
0
 10
121.658
 20
275.733
 11
122.687
 21
276.938
  0
LINE
  8
0
 10
122.687
 20
276.938
 11
123.892
 21
277.967
  0
LINE
  8
0
 10
123.892
 20
277.967
 11
125.242
 21
278.794
  0
LINE
  8
0
 10
125.242
 20
278.794
 11
126.706
 21
279.4
  0
LINE
  8
0
 10
126.706
 20
279.4
 11
128.246
 21
279.77
  0
LINE
  8
0
 10
128.246
 20
279.77
 11
129.825
 21
279.894
  0
LINE
  8
0
 10
129.825
 20
279.894
 11
131.404
 21
279.77
  0
LINE
  8
0
 10
131.404
 20
279.77
 11
132.944
 21
279.4
  0
LINE
  8
0
 10
132.944
 20
279.4
 11
134.408
 21
278.794
  0
LINE
  8
0
 10
134.408
 20
278.794
 11
135.758
 21
277.967
  0
LINE
  8
0
 10
135.758
 20
277.967
 11
136.963
 21
276.938
  0
LINE
  8
0
 10
136.963
 20
276.938
 11
137.992
 21
275.733
  0
LINE
  8
0
 10
137.992
 20
275.733
 11
138.819
 21
274.383
  0
LINE
  8
0
 10
138.819
 20
274.383
 11
139.425
 21
272.919
  0
LINE
  8
0
 10
139.425
 20
272.919
 11
139.795
 21
271.379
  0
LINE
  8
0
 10
139.795
 20
271.379
 11
139.919
 21
269.8
  0
LINE
  8
0
 10
139.919
 20
269.8
 11
139.795
 21
268.221
  0
LINE
  8
0
 10
139.795
 20
268.221
 11
139.425
 21
266.681
  0
LINE
  8
0
 10
139.425
 20
266.681
 11
138.819
 21
265.217
  0
LINE
  8
0
 10
138.819
 20
265.217
 11
137.992
 21
263.867
  0
LINE
  8
0
 10
137.992
 20
263.867
 11
136.963
 21
262.662
  0
LINE
  8
0
 10
136.963
 20
262.662
 11
135.758
 21
261.633
  0
LINE
  8
0
 10
135.758
 20
261.633
 11
134.408
 21
260.806
  0
LINE
  8
0
 10
134.408
 20
260.806
 11
132.944
 21
260.2
  0
LINE
  8
0
 10
132.944
 20
260.2
 11
131.404
 21
259.83
  0
LINE
  8
0
 10
131.404
 20
259.83
 11
129.825
 21
259.706
  0
LINE
  8
0
 10
129.825
 20
259.706
 11
128.246
 21
259.83
  0
LINE
  8
0
 10
178.158
 20
259.83
 11
176.618
 21
260.2
  0
LINE
  8
0
 10
176.618
 20
260.2
 11
175.155
 21
260.806
  0
LINE
  8
0
 10
175.155
 20
260.806
 11
173.804
 21
261.633
  0
LINE
  8
0
 10
173.804
 20
261.633
 11
172.6
 21
262.662
  0
LINE
  8
0
 10
172.6
 20
262.662
 11
171.571
 21
263.867
  0
LINE
  8
0
 10
171.571
 20
263.867
 11
170.743
 21
265.217
  0
LINE
  8
0
 10
170.743
 20
265.217
 11
170.137
 21
266.681
  0
LINE
  8
0
 10
170.137
 20
266.681
 11
169.767
 21
268.221
  0
LINE
  8
0
 10
169.767
 20
268.221
 11
169.643
 21
269.8
  0
LINE
  8
0
 10
169.643
 20
269.8
 11
169.767
 21
271.379
  0
LINE
  8
0
 10
169.767
 20
271.379
 11
170.137
 21
272.919
  0
LINE
  8
0
 10
170.137
 20
272.919
 11
170.743
 21
274.383
  0
LINE
  8
0
 10
170.743
 20
274.383
 11
171.571
 21
275.733
  0
LINE
  8
0
 10
171.571
 20
275.733
 11
172.6
 21
276.938
  0
LINE
  8
0
 10
172.6
 20
276.938
 11
173.804
 21
277.967
  0
LINE
  8
0
 10
173.804
 20
277.967
 11
175.155
 21
278.794
  0
LINE
  8
0
 10
175.155
 20
278.794
 11
176.618
 21
279.4
  0
LINE
  8
0
 10
176.618
 20
279.4
 11
178.158
 21
279.77
  0
LINE
  8
0
 10
178.158
 20
279.77
 11
179.737
 21
279.894
  0
LINE
  8
0
 10
179.737
 20
279.894
 11
181.317
 21
279.77
  0
LINE
  8
0
 10
181.317
 20
279.77
 11
182.857
 21
279.4
  0
LINE
  8
0
 10
182.857
 20
279.4
 11
184.32
 21
278.794
  0
LINE
  8
0
 10
184.32
 20
278.794
 11
185.671
 21
277.967
  0
LINE
  8
0
 10
185.671
 20
277.967
 11
186.875
 21
276.938
  0
LINE
  8
0
 10
186.875
 20
276.938
 11
187.904
 21
275.733
  0
LINE
  8
0
 10
187.904
 20
275.733
 11
188.732
 21
274.383
  0
LINE
  8
0
 10
188.732
 20
274.383
 11
189.338
 21
272.919
  0
LINE
  8
0
 10
189.338
 20
272.919
 11
189.708
 21
271.379
  0
LINE
  8
0
 10
189.708
 20
271.379
 11
189.832
 21
269.8
  0
LINE
  8
0
 10
189.832
 20
269.8
 11
189.708
 21
268.221
  0
LINE
  8
0
 10
189.708
 20
268.221
 11
189.338
 21
266.681
  0
LINE
  8
0
 10
189.338
 20
266.681
 11
188.732
 21
265.217
  0
LINE
  8
0
 10
188.732
 20
265.217
 11
187.904
 21
263.867
  0
LINE
  8
0
 10
187.904
 20
263.867
 11
186.875
 21
262.662
  0
LINE
  8
0
 10
186.875
 20
262.662
 11
185.671
 21
261.633
  0
LINE
  8
0
 10
185.671
 20
261.633
 11
184.32
 21
260.806
  0
LINE
  8
0
 10
184.32
 20
260.806
 11
182.857
 21
260.2
  0
LINE
  8
0
 10
182.857
 20
260.2
 11
181.317
 21
259.83
  0
LINE
  8
0
 10
181.317
 20
259.83
 11
179.737
 21
259.706
  0
LINE
  8
0
 10
179.737
 20
259.706
 11
178.158
 21
259.83
  0
LINE
  8
0
 10
228.071
 20
259.83
 11
226.531
 21
260.2
  0
LINE
  8
0
 10
226.531
 20
260.2
 11
225.067
 21
260.806
  0
LINE
  8
0
 10
225.067
 20
260.806
 11
223.717
 21
261.633
  0
LINE
  8
0
 10
223.717
 20
261.633
 11
222.512
 21
262.662
  0
LINE
  8
0
 10
222.512
 20
262.662
 11
221.483
 21
263.867
  0
LINE
  8
0
 10
221.483
 20
263.867
 11
220.656
 21
265.217
  0
LINE
  8
0
 10
220.656
 20
265.217
 11
220.05
 21
266.681
  0
LINE
  8
0
 10
220.05
 20
266.681
 11
219.68
 21
268.221
  0
LINE
  8
0
 10
219.68
 20
268.221
 11
219.556
 21
269.8
  0
LINE
  8
0
 10
219.556
 20
269.8
 11
219.68
 21
271.379
  0
LINE
  8
0
 10
219.68
 20
271.379
 11
220.05
 21
272.919
  0
LINE
  8
0
 10
220.05
 20
272.919
 11
220.656
 21
274.383
  0
LINE
  8
0
 10
220.656
 20
274.383
 11
221.483
 21
275.733
  0
LINE
  8
0
 10
221.483
 20
275.733
 11
222.512
 21
276.938
  0
LINE
  8
0
 10
222.512
 20
276.938
 11
223.717
 21
277.967
  0
LINE
  8
0
 10
223.717
 20
277.967
 11
225.067
 21
278.794
  0
LINE
  8
0
 10
225.067
 20
278.794
 11
226.531
 21
279.4
  0
LINE
  8
0
 10
226.531
 20
279.4
 11
228.071
 21
279.77
  0
LINE
  8
0
 10
228.071
 20
279.77
 11
229.65
 21
279.894
  0
LINE
  8
0
 10
229.65
 20
279.894
 11
231.229
 21
279.77
  0
LINE
  8
0
 10
231.229
 20
279.77
 11
232.769
 21
279.4
  0
LINE
  8
0
 10
232.769
 20
279.4
 11
234.233
 21
278.794
  0
LINE
  8
0
 10
234.233
 20
278.794
 11
235.583
 21
277.967
  0
LINE
  8
0
 10
235.583
 20
277.967
 11
236.788
 21
276.938
  0
LINE
  8
0
 10
236.788
 20
276.938
 11
237.817
 21
275.733
  0
LINE
  8
0
 10
237.817
 20
275.733
 11
238.644
 21
274.383
  0
LINE
  8
0
 10
238.644
 20
274.383
 11
239.25
 21
272.919
  0
LINE
  8
0
 10
239.25
 20
272.919
 11
239.62
 21
271.379
  0
LINE
  8
0
 10
239.62
 20
271.379
 11
239.744
 21
269.8
  0
LINE
  8
0
 10
239.744
 20
269.8
 11
239.62
 21
268.221
  0
LINE
  8
0
 10
239.62
 20
268.221
 11
239.25
 21
266.681
  0
LINE
  8
0
 10
239.25
 20
266.681
 11
238.644
 21
265.217
  0
LINE
  8
0
 10
238.644
 20
265.217
 11
237.817
 21
263.867
  0
LINE
  8
0
 10
237.817
 20
263.867
 11
236.788
 21
262.662
  0
LINE
  8
0
 10
236.788
 20
262.662
 11
235.583
 21
261.633
  0
LINE
  8
0
 10
235.583
 20
261.633
 11
234.233
 21
260.806
  0
LINE
  8
0
 10
234.233
 20
260.806
 11
232.769
 21
260.2
  0
LINE
  8
0
 10
232.769
 20
260.2
 11
231.229
 21
259.83
  0
LINE
  8
0
 10
231.229
 20
259.83
 11
229.65
 21
259.706
  0
LINE
  8
0
 10
229.65
 20
259.706
 11
228.071
 21
259.83
  0
LINE
  8
0
 10
277.983
 20
259.83
 11
276.443
 21
260.2
  0
LINE
  8
0
 10
276.443
 20
260.2
 11
274.98
 21
260.806
  0
LINE
  8
0
 10
274.98
 20
260.806
 11
273.629
 21
261.633
  0
LINE
  8
0
 10
273.629
 20
261.633
 11
272.425
 21
262.662
  0
LINE
  8
0
 10
272.425
 20
262.662
 11
271.396
 21
263.867
  0
LINE
  8
0
 10
271.396
 20
263.867
 11
270.568
 21
265.217
  0
LINE
  8
0
 10
270.568
 20
265.217
 11
269.962
 21
266.681
  0
LINE
  8
0
 10
269.962
 20
266.681
 11
269.592
 21
268.221
  0
LINE
  8
0
 10
269.592
 20
268.221
 11
269.468
 21
269.8
  0
LINE
  8
0
 10
269.468
 20
269.8
 11
269.592
 21
271.379
  0
LINE
  8
0
 10
269.592
 20
271.379
 11
269.962
 21
272.919
  0
LINE
  8
0
 10
269.962
 20
272.919
 11
270.568
 21
274.383
  0
LINE
  8
0
 10
270.568
 20
274.383
 11
271.396
 21
275.733
  0
LINE
  8
0
 10
271.396
 20
275.733
 11
272.425
 21
276.938
  0
LINE
  8
0
 10
272.425
 20
276.938
 11
273.629
 21
277.967
  0
LINE
  8
0
 10
273.629
 20
277.967
 11
274.98
 21
278.794
  0
LINE
  8
0
 10
274.98
 20
278.794
 11
276.443
 21
279.4
  0
LINE
  8
0
 10
276.443
 20
279.4
 11
277.983
 21
279.77
  0
LINE
  8
0
 10
277.983
 20
279.77
 11
279.562
 21
279.894
  0
LINE
  8
0
 10
279.562
 20
279.894
 11
281.142
 21
279.77
  0
LINE
  8
0
 10
281.142
 20
279.77
 11
282.682
 21
279.4
  0
LINE
  8
0
 10
282.682
 20
279.4
 11
284.145
 21
278.794
  0
LINE
  8
0
 10
284.145
 20
278.794
 11
285.496
 21
277.967
  0
LINE
  8
0
 10
285.496
 20
277.967
 11
286.7
 21
276.938
  0
LINE
  8
0
 10
286.7
 20
276.938
 11
287.729
 21
275.733
  0
LINE
  8
0
 10
287.729
 20
275.733
 11
288.557
 21
274.383
  0
LINE
  8
0
 10
288.557
 20
274.383
 11
289.163
 21
272.919
  0
LINE
  8
0
 10
289.163
 20
272.919
 11
289.533
 21
271.379
  0
LINE
  8
0
 10
289.533
 20
271.379
 11
289.657
 21
269.8
  0
LINE
  8
0
 10
289.657
 20
269.8
 11
289.533
 21
268.221
  0
LINE
  8
0
 10
289.533
 20
268.221
 11
289.163
 21
266.681
  0
LINE
  8
0
 10
289.163
 20
266.681
 11
288.557
 21
265.217
  0
LINE
  8
0
 10
288.557
 20
265.217
 11
287.729
 21
263.867
  0
LINE
  8
0
 10
287.729
 20
263.867
 11
286.7
 21
262.662
  0
LINE
  8
0
 10
286.7
 20
262.662
 11
285.496
 21
261.633
  0
LINE
  8
0
 10
285.496
 20
261.633
 11
284.145
 21
260.806
  0
LINE
  8
0
 10
284.145
 20
260.806
 11
282.682
 21
260.2
  0
LINE
  8
0
 10
282.682
 20
260.2
 11
281.142
 21
259.83
  0
LINE
  8
0
 10
281.142
 20
259.83
 11
279.562
 21
259.706
  0
LINE
  8
0
 10
279.562
 20
259.706
 11
277.983
 21
259.83
  0
LINE
  8
0
 10
327.896
 20
259.83
 11
326.356
 21
260.2
  0
LINE
  8
0
 10
326.356
 20
260.2
 11
324.892
 21
260.806
  0
LINE
  8
0
 10
324.892
 20
260.806
 11
323.542
 21
261.633
  0
LINE
  8
0
 10
323.542
 20
261.633
 11
322.337
 21
262.662
  0
LINE
  8
0
 10
322.337
 20
262.662
 11
321.308
 21
263.867
  0
LINE
  8
0
 10
321.308
 20
263.867
 11
320.481
 21
265.217
  0
LINE
  8
0
 10
320.481
 20
265.217
 11
319.875
 21
266.681
  0
LINE
  8
0
 10
319.875
 20
266.681
 11
319.505
 21
268.221
  0
LINE
  8
0
 10
319.505
 20
268.221
 11
319.381
 21
269.8
  0
LINE
  8
0
 10
319.381
 20
269.8
 11
319.505
 21
271.379
  0
LINE
  8
0
 10
319.505
 20
271.379
 11
319.875
 21
272.919
  0
LINE
  8
0
 10
319.875
 20
272.919
 11
320.481
 21
274.383
  0
LINE
  8
0
 10
320.481
 20
274.383
 11
321.308
 21
275.733
  0
LINE
  8
0
 10
321.308
 20
275.733
 11
322.337
 21
276.938
  0
LINE
  8
0
 10
322.337
 20
276.938
 11
323.542
 21
277.967
  0
LINE
  8
0
 10
323.542
 20
277.967
 11
324.892
 21
278.794
  0
LINE
  8
0
 10
324.892
 20
278.794
 11
326.356
 21
279.4
  0
LINE
  8
0
 10
326.356
 20
279.4
 11
327.896
 21
279.77
  0
LINE
  8
0
 10
327.896
 20
279.77
 11
329.475
 21
279.894
  0
LINE
  8
0
 10
329.475
 20
279.894
 11
331.054
 21
279.77
  0
LINE
  8
0
 10
331.054
 20
279.77
 11
332.594
 21
279.4
  0
LINE
  8
0
 10
332.594
 20
279.4
 11
334.058
 21
278.794
  0
LINE
  8
0
 10
334.058
 20
278.794
 11
335.408
 21
277.967
  0
LINE
  8
0
 10
335.408
 20
277.967
 11
336.613
 21
276.938
  0
LINE
  8
0
 10
336.613
 20
276.938
 11
337.642
 21
275.733
  0
LINE
  8
0
 10
337.642
 20
275.733
 11
338.469
 21
274.383
  0
LINE
  8
0
 10
338.469
 20
274.383
 11
339.075
 21
272.919
  0
LINE
  8
0
 10
339.075
 20
272.919
 11
339.445
 21
271.379
  0
LINE
  8
0
 10
339.445
 20
271.379
 11
339.569
 21
269.8
  0
LINE
  8
0
 10
339.569
 20
269.8
 11
339.445
 21
268.221
  0
LINE
  8
0
 10
339.445
 20
268.221
 11
339.075
 21
266.681
  0
LINE
  8
0
 10
339.075
 20
266.681
 11
338.469
 21
265.217
  0
LINE
  8
0
 10
338.469
 20
265.217
 11
337.642
 21
263.867
  0
LINE
  8
0
 10
337.642
 20
263.867
 11
336.613
 21
262.662
  0
LINE
  8
0
 10
336.613
 20
262.662
 11
335.408
 21
261.633
  0
LINE
  8
0
 10
335.408
 20
261.633
 11
334.058
 21
260.806
  0
LINE
  8
0
 10
334.058
 20
260.806
 11
332.594
 21
260.2
  0
LINE
  8
0
 10
332.594
 20
260.2
 11
331.054
 21
259.83
  0
LINE
  8
0
 10
331.054
 20
259.83
 11
329.475
 21
259.706
  0
LINE
  8
0
 10
329.475
 20
259.706
 11
327.896
 21
259.83
  0
LINE
  8
0
 10
427.721
 20
259.83
 11
426.181
 21
260.2
  0
LINE
  8
0
 10
426.181
 20
260.2
 11
424.717
 21
260.806
  0
LINE
  8
0
 10
424.717
 20
260.806
 11
423.367
 21
261.633
  0
LINE
  8
0
 10
423.367
 20
261.633
 11
422.162
 21
262.662
  0
LINE
  8
0
 10
422.162
 20
262.662
 11
421.133
 21
263.867
  0
LINE
  8
0
 10
421.133
 20
263.867
 11
420.306
 21
265.217
  0
LINE
  8
0
 10
420.306
 20
265.217
 11
419.7
 21
266.681
  0
LINE
  8
0
 10
419.7
 20
266.681
 11
419.33
 21
268.221
  0
LINE
  8
0
 10
419.33
 20
268.221
 11
419.206
 21
269.8
  0
LINE
  8
0
 10
419.206
 20
269.8
 11
419.33
 21
271.379
  0
LINE
  8
0
 10
419.33
 20
271.379
 11
419.7
 21
272.919
  0
LINE
  8
0
 10
419.7
 20
272.919
 11
420.306
 21
274.383
  0
LINE
  8
0
 10
420.306
 20
274.383
 11
421.133
 21
275.733
  0
LINE
  8
0
 10
421.133
 20
275.733
 11
422.162
 21
276.938
  0
LINE
  8
0
 10
422.162
 20
276.938
 11
423.367
 21
277.967
  0
LINE
  8
0
 10
423.367
 20
277.967
 11
424.717
 21
278.794
  0
LINE
  8
0
 10
424.717
 20
278.794
 11
426.181
 21
279.4
  0
LINE
  8
0
 10
426.181
 20
279.4
 11
427.721
 21
279.77
  0
LINE
  8
0
 10
427.721
 20
279.77
 11
429.3
 21
279.894
  0
LINE
  8
0
 10
429.3
 20
279.894
 11
430.879
 21
279.77
  0
LINE
  8
0
 10
430.879
 20
279.77
 11
432.419
 21
279.4
  0
LINE
  8
0
 10
432.419
 20
279.4
 11
433.883
 21
278.794
  0
LINE
  8
0
 10
433.883
 20
278.794
 11
435.233
 21
277.967
  0
LINE
  8
0
 10
435.233
 20
277.967
 11
436.438
 21
276.938
  0
LINE
  8
0
 10
436.438
 20
276.938
 11
437.467
 21
275.733
  0
LINE
  8
0
 10
437.467
 20
275.733
 11
438.294
 21
274.383
  0
LINE
  8
0
 10
438.294
 20
274.383
 11
438.9
 21
272.919
  0
LINE
  8
0
 10
438.9
 20
272.919
 11
439.27
 21
271.379
  0
LINE
  8
0
 10
439.27
 20
271.379
 11
439.394
 21
269.8
  0
LINE
  8
0
 10
439.394
 20
269.8
 11
439.27
 21
268.221
  0
LINE
  8
0
 10
439.27
 20
268.221
 11
438.9
 21
266.681
  0
LINE
  8
0
 10
438.9
 20
266.681
 11
438.294
 21
265.217
  0
LINE
  8
0
 10
438.294
 20
265.217
 11
437.467
 21
263.867
  0
LINE
  8
0
 10
437.467
 20
263.867
 11
436.438
 21
262.662
  0
LINE
  8
0
 10
436.438
 20
262.662
 11
435.233
 21
261.633
  0
LINE
  8
0
 10
435.233
 20
261.633
 11
433.883
 21
260.806
  0
LINE
  8
0
 10
433.883
 20
260.806
 11
432.419
 21
260.2
  0
LINE
  8
0
 10
432.419
 20
260.2
 11
430.879
 21
259.83
  0
LINE
  8
0
 10
430.879
 20
259.83
 11
429.3
 21
259.706
  0
LINE
  8
0
 10
429.3
 20
259.706
 11
427.721
 21
259.83
  0
LINE
  8
0
 10
28.4209
 20
259.83
 11
26.8807
 21
260.2
  0
LINE
  8
0
 10
26.8807
 20
260.2
 11
25.4173
 21
260.806
  0
LINE
  8
0
 10
25.4173
 20
260.806
 11
24.0667
 21
261.633
  0
LINE
  8
0
 10
24.0667
 20
261.633
 11
22.8622
 21
262.662
  0
LINE
  8
0
 10
22.8622
 20
262.662
 11
21.8335
 21
263.867
  0
LINE
  8
0
 10
21.8335
 20
263.867
 11
21.0058
 21
265.217
  0
LINE
  8
0
 10
21.0058
 20
265.217
 11
20.3997
 21
266.681
  0
LINE
  8
0
 10
20.3997
 20
266.681
 11
20.0299
 21
268.221
  0
LINE
  8
0
 10
20.0299
 20
268.221
 11
19.9056
 21
269.8
  0
LINE
  8
0
 10
19.9056
 20
269.8
 11
20.0299
 21
271.379
  0
LINE
  8
0
 10
20.0299
 20
271.379
 11
20.3997
 21
272.919
  0
LINE
  8
0
 10
20.3997
 20
272.919
 11
21.0058
 21
274.383
  0
LINE
  8
0
 10
21.0058
 20
274.383
 11
21.8335
 21
275.733
  0
LINE
  8
0
 10
21.8335
 20
275.733
 11
22.8622
 21
276.938
  0
LINE
  8
0
 10
22.8622
 20
276.938
 11
24.0667
 21
277.967
  0
LINE
  8
0
 10
24.0667
 20
277.967
 11
25.4173
 21
278.794
  0
LINE
  8
0
 10
25.4173
 20
278.794
 11
26.8807
 21
279.4
  0
LINE
  8
0
 10
26.8807
 20
279.4
 11
28.4209
 21
279.77
  0
LINE
  8
0
 10
28.4209
 20
279.77
 11
30
 21
279.894
  0
LINE
  8
0
 10
30
 20
279.894
 11
31.5791
 21
279.77
  0
LINE
  8
0
 10
31.5791
 20
279.77
 11
33.1193
 21
279.4
  0
LINE
  8
0
 10
33.1193
 20
279.4
 11
34.5827
 21
278.794
  0
LINE
  8
0
 10
34.5827
 20
278.794
 11
35.9333
 21
277.967
  0
LINE
  8
0
 10
35.9333
 20
277.967
 11
37.1378
 21
276.938
  0
LINE
  8
0
 10
37.1378
 20
276.938
 11
38.1665
 21
275.733
  0
LINE
  8
0
 10
38.1665
 20
275.733
 11
38.9942
 21
274.383
  0
LINE
  8
0
 10
38.9942
 20
274.383
 11
39.6003
 21
272.919
  0
LINE
  8
0
 10
39.6003
 20
272.919
 11
39.9701
 21
271.379
  0
LINE
  8
0
 10
39.9701
 20
271.379
 11
40.0944
 21
269.8
  0
LINE
  8
0
 10
40.0944
 20
269.8
 11
39.9701
 21
268.221
  0
LINE
  8
0
 10
39.9701
 20
268.221
 11
39.6003
 21
266.681
  0
LINE
  8
0
 10
39.6003
 20
266.681
 11
38.9942
 21
265.217
  0
LINE
  8
0
 10
38.9942
 20
265.217
 11
38.1665
 21
263.867
  0
LINE
  8
0
 10
38.1665
 20
263.867
 11
37.1378
 21
262.662
  0
LINE
  8
0
 10
37.1378
 20
262.662
 11
35.9333
 21
261.633
  0
LINE
  8
0
 10
35.9333
 20
261.633
 11
34.5827
 21
260.806
  0
LINE
  8
0
 10
34.5827
 20
260.806
 11
33.1193
 21
260.2
  0
LINE
  8
0
 10
33.1193
 20
260.2
 11
31.5791
 21
259.83
  0
LINE
  8
0
 10
31.5791
 20
259.83
 11
30
 21
259.706
  0
LINE
  8
0
 10
30
 20
259.706
 11
28.4209
 21
259.83
  0
LINE
  8
0
 10
279.267
 20
251.934
 11
278.979
 21
252.003
  0
LINE
  8
0
 10
278.979
 20
252.003
 11
278.705
 21
252.116
  0
LINE
  8
0
 10
278.705
 20
252.116
 11
278.452
 21
252.271
  0
LINE
  8
0
 10
278.452
 20
252.271
 11
278.226
 21
252.464
  0
LINE
  8
0
 10
278.226
 20
252.464
 11
278.034
 21
252.689
  0
LINE
  8
0
 10
278.034
 20
252.689
 11
277.879
 21
252.942
  0
LINE
  8
0
 10
277.879
 20
252.942
 11
277.765
 21
253.216
  0
LINE
  8
0
 10
277.765
 20
253.216
 11
277.696
 21
253.504
  0
LINE
  8
0
 10
277.696
 20
253.504
 11
277.673
 21
253.8
  0
LINE
  8
0
 10
277.673
 20
253.8
 11
277.696
 21
254.096
  0
LINE
  8
0
 10
277.696
 20
254.096
 11
277.765
 21
254.384
  0
LINE
  8
0
 10
277.765
 20
254.384
 11
277.879
 21
254.658
  0
LINE
  8
0
 10
277.879
 20
254.658
 11
278.034
 21
254.911
  0
LINE
  8
0
 10
278.034
 20
254.911
 11
278.226
 21
255.136
  0
LINE
  8
0
 10
278.226
 20
255.136
 11
278.452
 21
255.329
  0
LINE
  8
0
 10
278.452
 20
255.329
 11
278.705
 21
255.484
  0
LINE
  8
0
 10
278.705
 20
255.484
 11
278.979
 21
255.597
  0
LINE
  8
0
 10
278.979
 20
255.597
 11
279.267
 21
255.666
  0
LINE
  8
0
 10
279.267
 20
255.666
 11
279.562
 21
255.69
  0
LINE
  8
0
 10
279.562
 20
255.69
 11
279.858
 21
255.666
  0
LINE
  8
0
 10
279.858
 20
255.666
 11
280.146
 21
255.597
  0
LINE
  8
0
 10
280.146
 20
255.597
 11
280.42
 21
255.484
  0
LINE
  8
0
 10
280.42
 20
255.484
 11
280.673
 21
255.329
  0
LINE
  8
0
 10
280.673
 20
255.329
 11
280.899
 21
255.136
  0
LINE
  8
0
 10
280.899
 20
255.136
 11
281.091
 21
254.911
  0
LINE
  8
0
 10
281.091
 20
254.911
 11
281.246
 21
254.658
  0
LINE
  8
0
 10
281.246
 20
254.658
 11
281.36
 21
254.384
  0
LINE
  8
0
 10
281.36
 20
254.384
 11
281.429
 21
254.096
  0
LINE
  8
0
 10
281.429
 20
254.096
 11
281.452
 21
253.8
  0
LINE
  8
0
 10
281.452
 20
253.8
 11
281.429
 21
253.504
  0
LINE
  8
0
 10
281.429
 20
253.504
 11
281.36
 21
253.216
  0
LINE
  8
0
 10
281.36
 20
253.216
 11
281.246
 21
252.942
  0
LINE
  8
0
 10
281.246
 20
252.942
 11
281.091
 21
252.689
  0
LINE
  8
0
 10
281.091
 20
252.689
 11
280.899
 21
252.464
  0
LINE
  8
0
 10
280.899
 20
252.464
 11
280.673
 21
252.271
  0
LINE
  8
0
 10
280.673
 20
252.271
 11
280.42
 21
252.116
  0
LINE
  8
0
 10
280.42
 20
252.116
 11
280.146
 21
252.003
  0
LINE
  8
0
 10
280.146
 20
252.003
 11
279.858
 21
251.934
  0
LINE
  8
0
 10
279.858
 20
251.934
 11
279.562
 21
251.91
  0
LINE
  8
0
 10
279.562
 20
251.91
 11
279.267
 21
251.934
  0
LINE
  8
0
 10
429.004
 20
251.934
 11
428.716
 21
252.003
  0
LINE
  8
0
 10
428.716
 20
252.003
 11
428.442
 21
252.116
  0
LINE
  8
0
 10
428.442
 20
252.116
 11
428.189
 21
252.271
  0
LINE
  8
0
 10
428.189
 20
252.271
 11
427.964
 21
252.464
  0
LINE
  8
0
 10
427.964
 20
252.464
 11
427.771
 21
252.689
  0
LINE
  8
0
 10
427.771
 20
252.689
 11
427.616
 21
252.942
  0
LINE
  8
0
 10
427.616
 20
252.942
 11
427.503
 21
253.216
  0
LINE
  8
0
 10
427.503
 20
253.216
 11
427.434
 21
253.504
  0
LINE
  8
0
 10
427.434
 20
253.504
 11
427.41
 21
253.8
  0
LINE
  8
0
 10
427.41
 20
253.8
 11
427.434
 21
254.096
  0
LINE
  8
0
 10
427.434
 20
254.096
 11
427.503
 21
254.384
  0
LINE
  8
0
 10
427.503
 20
254.384
 11
427.616
 21
254.658
  0
LINE
  8
0
 10
427.616
 20
254.658
 11
427.771
 21
254.911
  0
LINE
  8
0
 10
427.771
 20
254.911
 11
427.964
 21
255.136
  0
LINE
  8
0
 10
427.964
 20
255.136
 11
428.189
 21
255.329
  0
LINE
  8
0
 10
428.189
 20
255.329
 11
428.442
 21
255.484
  0
LINE
  8
0
 10
428.442
 20
255.484
 11
428.716
 21
255.597
  0
LINE
  8
0
 10
428.716
 20
255.597
 11
429.004
 21
255.666
  0
LINE
  8
0
 10
429.004
 20
255.666
 11
429.3
 21
255.69
  0
LINE
  8
0
 10
429.3
 20
255.69
 11
429.596
 21
255.666
  0
LINE
  8
0
 10
429.596
 20
255.666
 11
429.884
 21
255.597
  0
LINE
  8
0
 10
429.884
 20
255.597
 11
430.158
 21
255.484
  0
LINE
  8
0
 10
430.158
 20
255.484
 11
430.411
 21
255.329
  0
LINE
  8
0
 10
430.411
 20
255.329
 11
430.636
 21
255.136
  0
LINE
  8
0
 10
430.636
 20
255.136
 11
430.829
 21
254.911
  0
LINE
  8
0
 10
430.829
 20
254.911
 11
430.984
 21
254.658
  0
LINE
  8
0
 10
430.984
 20
254.658
 11
431.097
 21
254.384
  0
LINE
  8
0
 10
431.097
 20
254.384
 11
431.166
 21
254.096
  0
LINE
  8
0
 10
431.166
 20
254.096
 11
431.19
 21
253.8
  0
LINE
  8
0
 10
431.19
 20
253.8
 11
431.166
 21
253.504
  0
LINE
  8
0
 10
431.166
 20
253.504
 11
431.097
 21
253.216
  0
LINE
  8
0
 10
431.097
 20
253.216
 11
430.984
 21
252.942
  0
LINE
  8
0
 10
430.984
 20
252.942
 11
430.829
 21
252.689
  0
LINE
  8
0
 10
430.829
 20
252.689
 11
430.636
 21
252.464
  0
LINE
  8
0
 10
430.636
 20
252.464
 11
430.411
 21
252.271
  0
LINE
  8
0
 10
430.411
 20
252.271
 11
430.158
 21
252.116
  0
LINE
  8
0
 10
430.158
 20
252.116
 11
429.884
 21
252.003
  0
LINE
  8
0
 10
429.884
 20
252.003
 11
429.596
 21
251.934
  0
LINE
  8
0
 10
429.596
 20
251.934
 11
429.3
 21
251.91
  0
LINE
  8
0
 10
429.3
 20
251.91
 11
429.004
 21
251.934
  0
LINE
  8
0
 10
29.7044
 20
251.934
 11
29.4161
 21
252.003
  0
LINE
  8
0
 10
29.4161
 20
252.003
 11
29.1422
 21
252.116
  0
LINE
  8
0
 10
29.1422
 20
252.116
 11
28.8893
 21
252.271
  0
LINE
  8
0
 10
28.8893
 20
252.271
 11
28.6639
 21
252.464
  0
LINE
  8
0
 10
28.6639
 20
252.464
 11
28.4713
 21
252.689
  0
LINE
  8
0
 10
28.4713
 20
252.689
 11
28.3164
 21
252.942
  0
LINE
  8
0
 10
28.3164
 20
252.942
 11
28.2029
 21
253.216
  0
LINE
  8
0
 10
28.2029
 20
253.216
 11
28.1337
 21
253.504
  0
LINE
  8
0
 10
28.1337
 20
253.504
 11
28.1104
 21
253.8
  0
LINE
  8
0
 10
28.1104
 20
253.8
 11
28.1337
 21
254.096
  0
LINE
  8
0
 10
28.1337
 20
254.096
 11
28.2029
 21
254.384
  0
LINE
  8
0
 10
28.2029
 20
254.384
 11
28.3164
 21
254.658
  0
LINE
  8
0
 10
28.3164
 20
254.658
 11
28.4713
 21
254.911
  0
LINE
  8
0
 10
28.4713
 20
254.911
 11
28.6639
 21
255.136
  0
LINE
  8
0
 10
28.6639
 20
255.136
 11
28.8893
 21
255.329
  0
LINE
  8
0
 10
28.8893
 20
255.329
 11
29.1422
 21
255.484
  0
LINE
  8
0
 10
29.1422
 20
255.484
 11
29.4161
 21
255.597
  0
LINE
  8
0
 10
29.4161
 20
255.597
 11
29.7044
 21
255.666
  0
LINE
  8
0
 10
29.7044
 20
255.666
 11
30
 21
255.69
  0
LINE
  8
0
 10
30
 20
255.69
 11
30.2956
 21
255.666
  0
LINE
  8
0
 10
30.2956
 20
255.666
 11
30.5839
 21
255.597
  0
LINE
  8
0
 10
30.5839
 20
255.597
 11
30.8578
 21
255.484
  0
LINE
  8
0
 10
30.8578
 20
255.484
 11
31.1107
 21
255.329
  0
LINE
  8
0
 10
31.1107
 20
255.329
 11
31.3361
 21
255.136
  0
LINE
  8
0
 10
31.3361
 20
255.136
 11
31.5287
 21
254.911
  0
LINE
  8
0
 10
31.5287
 20
254.911
 11
31.6836
 21
254.658
  0
LINE
  8
0
 10
31.6836
 20
254.658
 11
31.7971
 21
254.384
  0
LINE
  8
0
 10
31.7971
 20
254.384
 11
31.8663
 21
254.096
  0
LINE
  8
0
 10
31.8663
 20
254.096
 11
31.8896
 21
253.8
  0
LINE
  8
0
 10
31.8896
 20
253.8
 11
31.8663
 21
253.504
  0
LINE
  8
0
 10
31.8663
 20
253.504
 11
31.7971
 21
253.216
  0
LINE
  8
0
 10
31.7971
 20
253.216
 11
31.6836
 21
252.942
  0
LINE
  8
0
 10
31.6836
 20
252.942
 11
31.5287
 21
252.689
  0
LINE
  8
0
 10
31.5287
 20
252.689
 11
31.3361
 21
252.464
  0
LINE
  8
0
 10
31.3361
 20
252.464
 11
31.1107
 21
252.271
  0
LINE
  8
0
 10
31.1107
 20
252.271
 11
30.8578
 21
252.116
  0
LINE
  8
0
 10
30.8578
 20
252.116
 11
30.5839
 21
252.003
  0
LINE
  8
0
 10
30.5839
 20
252.003
 11
30.2956
 21
251.934
  0
LINE
  8
0
 10
30.2956
 20
251.934
 11
30
 21
251.91
  0
LINE
  8
0
 10
30
 20
251.91
 11
29.7044
 21
251.934
  0
LINE
  8
0
 10
379.092
 20
251.934
 11
378.804
 21
252.003
  0
LINE
  8
0
 10
378.804
 20
252.003
 11
378.53
 21
252.116
  0
LINE
  8
0
 10
378.53
 20
252.116
 11
378.277
 21
252.271
  0
LINE
  8
0
 10
378.277
 20
252.271
 11
378.051
 21
252.464
  0
LINE
  8
0
 10
378.051
 20
252.464
 11
377.859
 21
252.689
  0
LINE
  8
0
 10
377.859
 20
252.689
 11
377.704
 21
252.942
  0
LINE
  8
0
 10
377.704
 20
252.942
 11
377.59
 21
253.216
  0
LINE
  8
0
 10
377.59
 20
253.216
 11
377.521
 21
253.504
  0
LINE
  8
0
 10
377.521
 20
253.504
 11
377.498
 21
253.8
  0
LINE
  8
0
 10
377.498
 20
253.8
 11
377.521
 21
254.096
  0
LINE
  8
0
 10
377.521
 20
254.096
 11
377.59
 21
254.384
  0
LINE
  8
0
 10
377.59
 20
254.384
 11
377.704
 21
254.658
  0
LINE
  8
0
 10
377.704
 20
254.658
 11
377.859
 21
254.911
  0
LINE
  8
0
 10
377.859
 20
254.911
 11
378.051
 21
255.136
  0
LINE
  8
0
 10
378.051
 20
255.136
 11
378.277
 21
255.329
  0
LINE
  8
0
 10
378.277
 20
255.329
 11
378.53
 21
255.484
  0
LINE
  8
0
 10
378.53
 20
255.484
 11
378.804
 21
255.597
  0
LINE
  8
0
 10
378.804
 20
255.597
 11
379.092
 21
255.666
  0
LINE
  8
0
 10
379.092
 20
255.666
 11
379.387
 21
255.69
  0
LINE
  8
0
 10
379.387
 20
255.69
 11
379.683
 21
255.666
  0
LINE
  8
0
 10
379.683
 20
255.666
 11
379.971
 21
255.597
  0
LINE
  8
0
 10
379.971
 20
255.597
 11
380.245
 21
255.484
  0
LINE
  8
0
 10
380.245
 20
255.484
 11
380.498
 21
255.329
  0
LINE
  8
0
 10
380.498
 20
255.329
 11
380.724
 21
255.136
  0
LINE
  8
0
 10
380.724
 20
255.136
 11
380.916
 21
254.911
  0
LINE
  8
0
 10
380.916
 20
254.911
 11
381.071
 21
254.658
  0
LINE
  8
0
 10
381.071
 20
254.658
 11
381.185
 21
254.384
  0
LINE
  8
0
 10
381.185
 20
254.384
 11
381.254
 21
254.096
  0
LINE
  8
0
 10
381.254
 20
254.096
 11
381.277
 21
253.8
  0
LINE
  8
0
 10
381.277
 20
253.8
 11
381.254
 21
253.504
  0
LINE
  8
0
 10
381.254
 20
253.504
 11
381.185
 21
253.216
  0
LINE
  8
0
 10
381.185
 20
253.216
 11
381.071
 21
252.942
  0
LINE
  8
0
 10
381.071
 20
252.942
 11
380.916
 21
252.689
  0
LINE
  8
0
 10
380.916
 20
252.689
 11
380.724
 21
252.464
  0
LINE
  8
0
 10
380.724
 20
252.464
 11
380.498
 21
252.271
  0
LINE
  8
0
 10
380.498
 20
252.271
 11
380.245
 21
252.116
  0
LINE
  8
0
 10
380.245
 20
252.116
 11
379.971
 21
252.003
  0
LINE
  8
0
 10
379.971
 20
252.003
 11
379.683
 21
251.934
  0
LINE
  8
0
 10
379.683
 20
251.934
 11
379.387
 21
251.91
  0
LINE
  8
0
 10
379.387
 20
251.91
 11
379.092
 21
251.934
  0
LINE
  8
0
 10
79.6169
 20
251.934
 11
79.3286
 21
252.003
  0
LINE
  8
0
 10
79.3286
 20
252.003
 11
79.0546
 21
252.116
  0
LINE
  8
0
 10
79.0546
 20
252.116
 11
78.8018
 21
252.271
  0
LINE
  8
0
 10
78.8018
 20
252.271
 11
78.5764
 21
252.464
  0
LINE
  8
0
 10
78.5764
 20
252.464
 11
78.3838
 21
252.689
  0
LINE
  8
0
 10
78.3838
 20
252.689
 11
78.2289
 21
252.942
  0
LINE
  8
0
 10
78.2289
 20
252.942
 11
78.1154
 21
253.216
  0
LINE
  8
0
 10
78.1154
 20
253.216
 11
78.0462
 21
253.504
  0
LINE
  8
0
 10
78.0462
 20
253.504
 11
78.0229
 21
253.8
  0
LINE
  8
0
 10
78.0229
 20
253.8
 11
78.0462
 21
254.096
  0
LINE
  8
0
 10
78.0462
 20
254.096
 11
78.1154
 21
254.384
  0
LINE
  8
0
 10
78.1154
 20
254.384
 11
78.2289
 21
254.658
  0
LINE
  8
0
 10
78.2289
 20
254.658
 11
78.3838
 21
254.911
  0
LINE
  8
0
 10
78.3838
 20
254.911
 11
78.5764
 21
255.136
  0
LINE
  8
0
 10
78.5764
 20
255.136
 11
78.8018
 21
255.329
  0
LINE
  8
0
 10
78.8018
 20
255.329
 11
79.0546
 21
255.484
  0
LINE
  8
0
 10
79.0546
 20
255.484
 11
79.3286
 21
255.597
  0
LINE
  8
0
 10
79.3286
 20
255.597
 11
79.6169
 21
255.666
  0
LINE
  8
0
 10
79.6169
 20
255.666
 11
79.9125
 21
255.69
  0
LINE
  8
0
 10
79.9125
 20
255.69
 11
80.2081
 21
255.666
  0
LINE
  8
0
 10
80.2081
 20
255.666
 11
80.4964
 21
255.597
  0
LINE
  8
0
 10
80.4964
 20
255.597
 11
80.7703
 21
255.484
  0
LINE
  8
0
 10
80.7703
 20
255.484
 11
81.0232
 21
255.329
  0
LINE
  8
0
 10
81.0232
 20
255.329
 11
81.2486
 21
255.136
  0
LINE
  8
0
 10
81.2486
 20
255.136
 11
81.4412
 21
254.911
  0
LINE
  8
0
 10
81.4412
 20
254.911
 11
81.5961
 21
254.658
  0
LINE
  8
0
 10
81.5961
 20
254.658
 11
81.7096
 21
254.384
  0
LINE
  8
0
 10
81.7096
 20
254.384
 11
81.7788
 21
254.096
  0
LINE
  8
0
 10
81.7788
 20
254.096
 11
81.8021
 21
253.8
  0
LINE
  8
0
 10
81.8021
 20
253.8
 11
81.7788
 21
253.504
  0
LINE
  8
0
 10
81.7788
 20
253.504
 11
81.7096
 21
253.216
  0
LINE
  8
0
 10
81.7096
 20
253.216
 11
81.5961
 21
252.942
  0
LINE
  8
0
 10
81.5961
 20
252.942
 11
81.4412
 21
252.689
  0
LINE
  8
0
 10
81.4412
 20
252.689
 11
81.2486
 21
252.464
  0
LINE
  8
0
 10
81.2486
 20
252.464
 11
81.0232
 21
252.271
  0
LINE
  8
0
 10
81.0232
 20
252.271
 11
80.7703
 21
252.116
  0
LINE
  8
0
 10
80.7703
 20
252.116
 11
80.4964
 21
252.003
  0
LINE
  8
0
 10
80.4964
 20
252.003
 11
80.2081
 21
251.934
  0
LINE
  8
0
 10
80.2081
 20
251.934
 11
79.9125
 21
251.91
  0
LINE
  8
0
 10
79.9125
 20
251.91
 11
79.6169
 21
251.934
  0
LINE
  8
0
 10
129.529
 20
251.934
 11
129.241
 21
252.003
  0
LINE
  8
0
 10
129.241
 20
252.003
 11
128.967
 21
252.116
  0
LINE
  8
0
 10
128.967
 20
252.116
 11
128.714
 21
252.271
  0
LINE
  8
0
 10
128.714
 20
252.271
 11
128.489
 21
252.464
  0
LINE
  8
0
 10
128.489
 20
252.464
 11
128.296
 21
252.689
  0
LINE
  8
0
 10
128.296
 20
252.689
 11
128.141
 21
252.942
  0
LINE
  8
0
 10
128.141
 20
252.942
 11
128.028
 21
253.216
  0
LINE
  8
0
 10
128.028
 20
253.216
 11
127.959
 21
253.504
  0
LINE
  8
0
 10
127.959
 20
253.504
 11
127.935
 21
253.8
  0
LINE
  8
0
 10
127.935
 20
253.8
 11
127.959
 21
254.096
  0
LINE
  8
0
 10
127.959
 20
254.096
 11
128.028
 21
254.384
  0
LINE
  8
0
 10
128.028
 20
254.384
 11
128.141
 21
254.658
  0
LINE
  8
0
 10
128.141
 20
254.658
 11
128.296
 21
254.911
  0
LINE
  8
0
 10
128.296
 20
254.911
 11
128.489
 21
255.136
  0
LINE
  8
0
 10
128.489
 20
255.136
 11
128.714
 21
255.329
  0
LINE
  8
0
 10
128.714
 20
255.329
 11
128.967
 21
255.484
  0
LINE
  8
0
 10
128.967
 20
255.484
 11
129.241
 21
255.597
  0
LINE
  8
0
 10
129.241
 20
255.597
 11
129.529
 21
255.666
  0
LINE
  8
0
 10
129.529
 20
255.666
 11
129.825
 21
255.69
  0
LINE
  8
0
 10
129.825
 20
255.69
 11
130.121
 21
255.666
  0
LINE
  8
0
 10
130.121
 20
255.666
 11
130.409
 21
255.597
  0
LINE
  8
0
 10
130.409
 20
255.597
 11
130.683
 21
255.484
  0
LINE
  8
0
 10
130.683
 20
255.484
 11
130.936
 21
255.329
  0
LINE
  8
0
 10
130.936
 20
255.329
 11
131.161
 21
255.136
  0
LINE
  8
0
 10
131.161
 20
255.136
 11
131.354
 21
254.911
  0
LINE
  8
0
 10
131.354
 20
254.911
 11
131.509
 21
254.658
  0
LINE
  8
0
 10
131.509
 20
254.658
 11
131.622
 21
254.384
  0
LINE
  8
0
 10
131.622
 20
254.384
 11
131.691
 21
254.096
  0
LINE
  8
0
 10
131.691
 20
254.096
 11
131.715
 21
253.8
  0
LINE
  8
0
 10
131.715
 20
253.8
 11
131.691
 21
253.504
  0
LINE
  8
0
 10
131.691
 20
253.504
 11
131.622
 21
253.216
  0
LINE
  8
0
 10
131.622
 20
253.216
 11
131.509
 21
252.942
  0
LINE
  8
0
 10
131.509
 20
252.942
 11
131.354
 21
252.689
  0
LINE
  8
0
 10
131.354
 20
252.689
 11
131.161
 21
252.464
  0
LINE
  8
0
 10
131.161
 20
252.464
 11
130.936
 21
252.271
  0
LINE
  8
0
 10
130.936
 20
252.271
 11
130.683
 21
252.116
  0
LINE
  8
0
 10
130.683
 20
252.116
 11
130.409
 21
252.003
  0
LINE
  8
0
 10
130.409
 20
252.003
 11
130.121
 21
251.934
  0
LINE
  8
0
 10
130.121
 20
251.934
 11
129.825
 21
251.91
  0
LINE
  8
0
 10
129.825
 20
251.91
 11
129.529
 21
251.934
  0
LINE
  8
0
 10
179.442
 20
251.934
 11
179.154
 21
252.003
  0
LINE
  8
0
 10
179.154
 20
252.003
 11
178.88
 21
252.116
  0
LINE
  8
0
 10
178.88
 20
252.116
 11
178.627
 21
252.271
  0
LINE
  8
0
 10
178.627
 20
252.271
 11
178.401
 21
252.464
  0
LINE
  8
0
 10
178.401
 20
252.464
 11
178.209
 21
252.689
  0
LINE
  8
0
 10
178.209
 20
252.689
 11
178.054
 21
252.942
  0
LINE
  8
0
 10
178.054
 20
252.942
 11
177.94
 21
253.216
  0
LINE
  8
0
 10
177.94
 20
253.216
 11
177.871
 21
253.504
  0
LINE
  8
0
 10
177.871
 20
253.504
 11
177.848
 21
253.8
  0
LINE
  8
0
 10
177.848
 20
253.8
 11
177.871
 21
254.096
  0
LINE
  8
0
 10
177.871
 20
254.096
 11
177.94
 21
254.384
  0
LINE
  8
0
 10
177.94
 20
254.384
 11
178.054
 21
254.658
  0
LINE
  8
0
 10
178.054
 20
254.658
 11
178.209
 21
254.911
  0
LINE
  8
0
 10
178.209
 20
254.911
 11
178.401
 21
255.136
  0
LINE
  8
0
 10
178.401
 20
255.136
 11
178.627
 21
255.329
  0
LINE
  8
0
 10
178.627
 20
255.329
 11
178.88
 21
255.484
  0
LINE
  8
0
 10
178.88
 20
255.484
 11
179.154
 21
255.597
  0
LINE
  8
0
 10
179.154
 20
255.597
 11
179.442
 21
255.666
  0
LINE
  8
0
 10
179.442
 20
255.666
 11
179.737
 21
255.69
  0
LINE
  8
0
 10
179.737
 20
255.69
 11
180.033
 21
255.666
  0
LINE
  8
0
 10
180.033
 20
255.666
 11
180.321
 21
255.597
  0
LINE
  8
0
 10
180.321
 20
255.597
 11
180.595
 21
255.484
  0
LINE
  8
0
 10
180.595
 20
255.484
 11
180.848
 21
255.329
  0
LINE
  8
0
 10
180.848
 20
255.329
 11
181.074
 21
255.136
  0
LINE
  8
0
 10
181.074
 20
255.136
 11
181.266
 21
254.911
  0
LINE
  8
0
 10
181.266
 20
254.911
 11
181.421
 21
254.658
  0
LINE
  8
0
 10
181.421
 20
254.658
 11
181.535
 21
254.384
  0
LINE
  8
0
 10
181.535
 20
254.384
 11
181.604
 21
254.096
  0
LINE
  8
0
 10
181.604
 20
254.096
 11
181.627
 21
253.8
  0
LINE
  8
0
 10
181.627
 20
253.8
 11
181.604
 21
253.504
  0
LINE
  8
0
 10
181.604
 20
253.504
 11
181.535
 21
253.216
  0
LINE
  8
0
 10
181.535
 20
253.216
 11
181.421
 21
252.942
  0
LINE
  8
0
 10
181.421
 20
252.942
 11
181.266
 21
252.689
  0
LINE
  8
0
 10
181.266
 20
252.689
 11
181.074
 21
252.464
  0
LINE
  8
0
 10
181.074
 20
252.464
 11
180.848
 21
252.271
  0
LINE
  8
0
 10
180.848
 20
252.271
 11
180.595
 21
252.116
  0
LINE
  8
0
 10
180.595
 20
252.116
 11
180.321
 21
252.003
  0
LINE
  8
0
 10
180.321
 20
252.003
 11
180.033
 21
251.934
  0
LINE
  8
0
 10
180.033
 20
251.934
 11
179.737
 21
251.91
  0
LINE
  8
0
 10
179.737
 20
251.91
 11
179.442
 21
251.934
  0
LINE
  8
0
 10
229.354
 20
251.934
 11
229.066
 21
252.003
  0
LINE
  8
0
 10
229.066
 20
252.003
 11
228.792
 21
252.116
  0
LINE
  8
0
 10
228.792
 20
252.116
 11
228.539
 21
252.271
  0
LINE
  8
0
 10
228.539
 20
252.271
 11
228.314
 21
252.464
  0
LINE
  8
0
 10
228.314
 20
252.464
 11
228.121
 21
252.689
  0
LINE
  8
0
 10
228.121
 20
252.689
 11
227.966
 21
252.942
  0
LINE
  8
0
 10
227.966
 20
252.942
 11
227.853
 21
253.216
  0
LINE
  8
0
 10
227.853
 20
253.216
 11
227.784
 21
253.504
  0
LINE
  8
0
 10
227.784
 20
253.504
 11
227.76
 21
253.8
  0
LINE
  8
0
 10
227.76
 20
253.8
 11
227.784
 21
254.096
  0
LINE
  8
0
 10
227.784
 20
254.096
 11
227.853
 21
254.384
  0
LINE
  8
0
 10
227.853
 20
254.384
 11
227.966
 21
254.658
  0
LINE
  8
0
 10
227.966
 20
254.658
 11
228.121
 21
254.911
  0
LINE
  8
0
 10
228.121
 20
254.911
 11
228.314
 21
255.136
  0
LINE
  8
0
 10
228.314
 20
255.136
 11
228.539
 21
255.329
  0
LINE
  8
0
 10
228.539
 20
255.329
 11
228.792
 21
255.484
  0
LINE
  8
0
 10
228.792
 20
255.484
 11
229.066
 21
255.597
  0
LINE
  8
0
 10
229.066
 20
255.597
 11
229.354
 21
255.666
  0
LINE
  8
0
 10
229.354
 20
255.666
 11
229.65
 21
255.69
  0
LINE
  8
0
 10
229.65
 20
255.69
 11
229.946
 21
255.666
  0
LINE
  8
0
 10
229.946
 20
255.666
 11
230.234
 21
255.597
  0
LINE
  8
0
 10
230.234
 20
255.597
 11
230.508
 21
255.484
  0
LINE
  8
0
 10
230.508
 20
255.484
 11
230.761
 21
255.329
  0
LINE
  8
0
 10
230.761
 20
255.329
 11
230.986
 21
255.136
  0
LINE
  8
0
 10
230.986
 20
255.136
 11
231.179
 21
254.911
  0
LINE
  8
0
 10
231.179
 20
254.911
 11
231.334
 21
254.658
  0
LINE
  8
0
 10
231.334
 20
254.658
 11
231.447
 21
254.384
  0
LINE
  8
0
 10
231.447
 20
254.384
 11
231.516
 21
254.096
  0
LINE
  8
0
 10
231.516
 20
254.096
 11
231.54
 21
253.8
  0
LINE
  8
0
 10
231.54
 20
253.8
 11
231.516
 21
253.504
  0
LINE
  8
0
 10
231.516
 20
253.504
 11
231.447
 21
253.216
  0
LINE
  8
0
 10
231.447
 20
253.216
 11
231.334
 21
252.942
  0
LINE
  8
0
 10
231.334
 20
252.942
 11
231.179
 21
252.689
  0
LINE
  8
0
 10
231.179
 20
252.689
 11
230.986
 21
252.464
  0
LINE
  8
0
 10
230.986
 20
252.464
 11
230.761
 21
252.271
  0
LINE
  8
0
 10
230.761
 20
252.271
 11
230.508
 21
252.116
  0
LINE
  8
0
 10
230.508
 20
252.116
 11
230.234
 21
252.003
  0
LINE
  8
0
 10
230.234
 20
252.003
 11
229.946
 21
251.934
  0
LINE
  8
0
 10
229.946
 20
251.934
 11
229.65
 21
251.91
  0
LINE
  8
0
 10
229.65
 20
251.91
 11
229.354
 21
251.934
  0
LINE
  8
0
 10
329.179
 20
251.934
 11
328.891
 21
252.003
  0
LINE
  8
0
 10
328.891
 20
252.003
 11
328.617
 21
252.116
  0
LINE
  8
0
 10
328.617
 20
252.116
 11
328.364
 21
252.271
  0
LINE
  8
0
 10
328.364
 20
252.271
 11
328.139
 21
252.464
  0
LINE
  8
0
 10
328.139
 20
252.464
 11
327.946
 21
252.689
  0
LINE
  8
0
 10
327.946
 20
252.689
 11
327.791
 21
252.942
  0
LINE
  8
0
 10
327.791
 20
252.942
 11
327.678
 21
253.216
  0
LINE
  8
0
 10
327.678
 20
253.216
 11
327.609
 21
253.504
  0
LINE
  8
0
 10
327.609
 20
253.504
 11
327.585
 21
253.8
  0
LINE
  8
0
 10
327.585
 20
253.8
 11
327.609
 21
254.096
  0
LINE
  8
0
 10
327.609
 20
254.096
 11
327.678
 21
254.384
  0
LINE
  8
0
 10
327.678
 20
254.384
 11
327.791
 21
254.658
  0
LINE
  8
0
 10
327.791
 20
254.658
 11
327.946
 21
254.911
  0
LINE
  8
0
 10
327.946
 20
254.911
 11
328.139
 21
255.136
  0
LINE
  8
0
 10
328.139
 20
255.136
 11
328.364
 21
255.329
  0
LINE
  8
0
 10
328.364
 20
255.329
 11
328.617
 21
255.484
  0
LINE
  8
0
 10
328.617
 20
255.484
 11
328.891
 21
255.597
  0
LINE
  8
0
 10
328.891
 20
255.597
 11
329.179
 21
255.666
  0
LINE
  8
0
 10
329.179
 20
255.666
 11
329.475
 21
255.69
  0
LINE
  8
0
 10
329.475
 20
255.69
 11
329.771
 21
255.666
  0
LINE
  8
0
 10
329.771
 20
255.666
 11
330.059
 21
255.597
  0
LINE
  8
0
 10
330.059
 20
255.597
 11
330.333
 21
255.484
  0
LINE
  8
0
 10
330.333
 20
255.484
 11
330.586
 21
255.329
  0
LINE
  8
0
 10
330.586
 20
255.329
 11
330.811
 21
255.136
  0
LINE
  8
0
 10
330.811
 20
255.136
 11
331.004
 21
254.911
  0
LINE
  8
0
 10
331.004
 20
254.911
 11
331.159
 21
254.658
  0
LINE
  8
0
 10
331.159
 20
254.658
 11
331.272
 21
254.384
  0
LINE
  8
0
 10
331.272
 20
254.384
 11
331.341
 21
254.096
  0
LINE
  8
0
 10
331.341
 20
254.096
 11
331.365
 21
253.8
  0
LINE
  8
0
 10
331.365
 20
253.8
 11
331.341
 21
253.504
  0
LINE
  8
0
 10
331.341
 20
253.504
 11
331.272
 21
253.216
  0
LINE
  8
0
 10
331.272
 20
253.216
 11
331.159
 21
252.942
  0
LINE
  8
0
 10
331.159
 20
252.942
 11
331.004
 21
252.689
  0
LINE
  8
0
 10
331.004
 20
252.689
 11
330.811
 21
252.464
  0
LINE
  8
0
 10
330.811
 20
252.464
 11
330.586
 21
252.271
  0
LINE
  8
0
 10
330.586
 20
252.271
 11
330.333
 21
252.116
  0
LINE
  8
0
 10
330.333
 20
252.116
 11
330.059
 21
252.003
  0
LINE
  8
0
 10
330.059
 20
252.003
 11
329.771
 21
251.934
  0
LINE
  8
0
 10
329.771
 20
251.934
 11
329.475
 21
251.91
  0
LINE
  8
0
 10
329.475
 20
251.91
 11
329.179
 21
251.934
  0
LINE
  8
0
 10
22.2044
 20
168.134
 11
21.9161
 21
168.203
  0
LINE
  8
0
 10
21.9161
 20
168.203
 11
21.6422
 21
168.316
  0
LINE
  8
0
 10
21.6422
 20
168.316
 11
21.3893
 21
168.471
  0
LINE
  8
0
 10
21.3893
 20
168.471
 11
21.1639
 21
168.664
  0
LINE
  8
0
 10
21.1639
 20
168.664
 11
20.9713
 21
168.889
  0
LINE
  8
0
 10
20.9713
 20
168.889
 11
20.8164
 21
169.142
  0
LINE
  8
0
 10
20.8164
 20
169.142
 11
20.7029
 21
169.416
  0
LINE
  8
0
 10
20.7029
 20
169.416
 11
20.6337
 21
169.704
  0
LINE
  8
0
 10
20.6337
 20
169.704
 11
20.6104
 21
170
  0
LINE
  8
0
 10
20.6104
 20
170
 11
20.6337
 21
170.296
  0
LINE
  8
0
 10
20.6337
 20
170.296
 11
20.7029
 21
170.584
  0
LINE
  8
0
 10
20.7029
 20
170.584
 11
20.8164
 21
170.858
  0
LINE
  8
0
 10
20.8164
 20
170.858
 11
20.9713
 21
171.111
  0
LINE
  8
0
 10
20.9713
 20
171.111
 11
21.1639
 21
171.336
  0
LINE
  8
0
 10
21.1639
 20
171.336
 11
21.3893
 21
171.529
  0
LINE
  8
0
 10
21.3893
 20
171.529
 11
21.6422
 21
171.684
  0
LINE
  8
0
 10
21.6422
 20
171.684
 11
21.9161
 21
171.797
  0
LINE
  8
0
 10
21.9161
 20
171.797
 11
22.2044
 21
171.866
  0
LINE
  8
0
 10
22.2044
 20
171.866
 11
22.5
 21
171.89
  0
LINE
  8
0
 10
22.5
 20
171.89
 11
22.7956
 21
171.866
  0
LINE
  8
0
 10
22.7956
 20
171.866
 11
23.0839
 21
171.797
  0
LINE
  8
0
 10
23.0839
 20
171.797
 11
23.3579
 21
171.684
  0
LINE
  8
0
 10
23.3579
 20
171.684
 11
23.6107
 21
171.529
  0
LINE
  8
0
 10
23.6107
 20
171.529
 11
23.8362
 21
171.336
  0
LINE
  8
0
 10
23.8362
 20
171.336
 11
24.0287
 21
171.111
  0
LINE
  8
0
 10
24.0287
 20
171.111
 11
24.1836
 21
170.858
  0
LINE
  8
0
 10
24.1836
 20
170.858
 11
24.2971
 21
170.584
  0
LINE
  8
0
 10
24.2971
 20
170.584
 11
24.3663
 21
170.296
  0
LINE
  8
0
 10
24.3663
 20
170.296
 11
24.3896
 21
170
  0
LINE
  8
0
 10
24.3896
 20
170
 11
24.3663
 21
169.704
  0
LINE
  8
0
 10
24.3663
 20
169.704
 11
24.2971
 21
169.416
  0
LINE
  8
0
 10
24.2971
 20
169.416
 11
24.1836
 21
169.142
  0
LINE
  8
0
 10
24.1836
 20
169.142
 11
24.0287
 21
168.889
  0
LINE
  8
0
 10
24.0287
 20
168.889
 11
23.8362
 21
168.664
  0
LINE
  8
0
 10
23.8362
 20
168.664
 11
23.6107
 21
168.471
  0
LINE
  8
0
 10
23.6107
 20
168.471
 11
23.3579
 21
168.316
  0
LINE
  8
0
 10
23.3579
 20
168.316
 11
23.0839
 21
168.203
  0
LINE
  8
0
 10
23.0839
 20
168.203
 11
22.7956
 21
168.134
  0
LINE
  8
0
 10
22.7956
 20
168.134
 11
22.5
 21
168.11
  0
LINE
  8
0
 10
22.5
 20
168.11
 11
22.2044
 21
168.134
  0
LINE
  8
0
 10
37.2044
 20
168.134
 11
36.9161
 21
168.203
  0
LINE
  8
0
 10
36.9161
 20
168.203
 11
36.6421
 21
168.316
  0
LINE
  8
0
 10
36.6421
 20
168.316
 11
36.3893
 21
168.471
  0
LINE
  8
0
 10
36.3893
 20
168.471
 11
36.1638
 21
168.664
  0
LINE
  8
0
 10
36.1638
 20
168.664
 11
35.9713
 21
168.889
  0
LINE
  8
0
 10
35.9713
 20
168.889
 11
35.8164
 21
169.142
  0
LINE
  8
0
 10
35.8164
 20
169.142
 11
35.7029
 21
169.416
  0
LINE
  8
0
 10
35.7029
 20
169.416
 11
35.6337
 21
169.704
  0
LINE
  8
0
 10
35.6337
 20
169.704
 11
35.6104
 21
170
  0
LINE
  8
0
 10
35.6104
 20
170
 11
35.6337
 21
170.296
  0
LINE
  8
0
 10
35.6337
 20
170.296
 11
35.7029
 21
170.584
  0
LINE
  8
0
 10
35.7029
 20
170.584
 11
35.8164
 21
170.858
  0
LINE
  8
0
 10
35.8164
 20
170.858
 11
35.9713
 21
171.111
  0
LINE
  8
0
 10
35.9713
 20
171.111
 11
36.1638
 21
171.336
  0
LINE
  8
0
 10
36.1638
 20
171.336
 11
36.3893
 21
171.529
  0
LINE
  8
0
 10
36.3893
 20
171.529
 11
36.6421
 21
171.684
  0
LINE
  8
0
 10
36.6421
 20
171.684
 11
36.9161
 21
171.797
  0
LINE
  8
0
 10
36.9161
 20
171.797
 11
37.2044
 21
171.866
  0
LINE
  8
0
 10
37.2044
 20
171.866
 11
37.5
 21
171.89
  0
LINE
  8
0
 10
37.5
 20
171.89
 11
37.7956
 21
171.866
  0
LINE
  8
0
 10
37.7956
 20
171.866
 11
38.0839
 21
171.797
  0
LINE
  8
0
 10
38.0839
 20
171.797
 11
38.3578
 21
171.684
  0
LINE
  8
0
 10
38.3578
 20
171.684
 11
38.6107
 21
171.529
  0
LINE
  8
0
 10
38.6107
 20
171.529
 11
38.8361
 21
171.336
  0
LINE
  8
0
 10
38.8361
 20
171.336
 11
39.0287
 21
171.111
  0
LINE
  8
0
 10
39.0287
 20
171.111
 11
39.1836
 21
170.858
  0
LINE
  8
0
 10
39.1836
 20
170.858
 11
39.2971
 21
170.584
  0
LINE
  8
0
 10
39.2971
 20
170.584
 11
39.3663
 21
170.296
  0
LINE
  8
0
 10
39.3663
 20
170.296
 11
39.3896
 21
170
  0
LINE
  8
0
 10
39.3896
 20
170
 11
39.3663
 21
169.704
  0
LINE
  8
0
 10
39.3663
 20
169.704
 11
39.2971
 21
169.416
  0
LINE
  8
0
 10
39.2971
 20
169.416
 11
39.1836
 21
169.142
  0
LINE
  8
0
 10
39.1836
 20
169.142
 11
39.0287
 21
168.889
  0
LINE
  8
0
 10
39.0287
 20
168.889
 11
38.8361
 21
168.664
  0
LINE
  8
0
 10
38.8361
 20
168.664
 11
38.6107
 21
168.471
  0
LINE
  8
0
 10
38.6107
 20
168.471
 11
38.3578
 21
168.316
  0
LINE
  8
0
 10
38.3578
 20
168.316
 11
38.0839
 21
168.203
  0
LINE
  8
0
 10
38.0839
 20
168.203
 11
37.7956
 21
168.134
  0
LINE
  8
0
 10
37.7956
 20
168.134
 11
37.5
 21
168.11
  0
LINE
  8
0
 10
37.5
 20
168.11
 11
37.2044
 21
168.134
  0
LINE
  8
0
 10
285.234
 20
164.574
 11
284.946
 21
164.643
  0
LINE
  8
0
 10
284.946
 20
164.643
 11
284.672
 21
164.756
  0
LINE
  8
0
 10
284.672
 20
164.756
 11
284.419
 21
164.911
  0
LINE
  8
0
 10
284.419
 20
164.911
 11
284.194
 21
165.104
  0
LINE
  8
0
 10
284.194
 20
165.104
 11
284.001
 21
165.329
  0
LINE
  8
0
 10
284.001
 20
165.329
 11
283.846
 21
165.582
  0
LINE
  8
0
 10
283.846
 20
165.582
 11
283.733
 21
165.856
  0
LINE
  8
0
 10
283.733
 20
165.856
 11
283.664
 21
166.144
  0
LINE
  8
0
 10
283.664
 20
166.144
 11
283.64
 21
166.44
  0
LINE
  8
0
 10
283.64
 20
166.44
 11
283.664
 21
166.736
  0
LINE
  8
0
 10
283.664
 20
166.736
 11
283.733
 21
167.024
  0
LINE
  8
0
 10
283.733
 20
167.024
 11
283.846
 21
167.298
  0
LINE
  8
0
 10
283.846
 20
167.298
 11
284.001
 21
167.551
  0
LINE
  8
0
 10
284.001
 20
167.551
 11
284.194
 21
167.776
  0
LINE
  8
0
 10
284.194
 20
167.776
 11
284.419
 21
167.969
  0
LINE
  8
0
 10
284.419
 20
167.969
 11
284.672
 21
168.124
  0
LINE
  8
0
 10
284.672
 20
168.124
 11
284.946
 21
168.237
  0
LINE
  8
0
 10
284.946
 20
168.237
 11
285.234
 21
168.306
  0
LINE
  8
0
 10
285.234
 20
168.306
 11
285.53
 21
168.33
  0
LINE
  8
0
 10
285.53
 20
168.33
 11
285.826
 21
168.306
  0
LINE
  8
0
 10
285.826
 20
168.306
 11
286.114
 21
168.237
  0
LINE
  8
0
 10
286.114
 20
168.237
 11
286.388
 21
168.124
  0
LINE
  8
0
 10
286.388
 20
168.124
 11
286.641
 21
167.969
  0
LINE
  8
0
 10
286.641
 20
167.969
 11
286.866
 21
167.776
  0
LINE
  8
0
 10
286.866
 20
167.776
 11
287.059
 21
167.551
  0
LINE
  8
0
 10
287.059
 20
167.551
 11
287.214
 21
167.298
  0
LINE
  8
0
 10
287.214
 20
167.298
 11
287.327
 21
167.024
  0
LINE
  8
0
 10
287.327
 20
167.024
 11
287.396
 21
166.736
  0
LINE
  8
0
 10
287.396
 20
166.736
 11
287.42
 21
166.44
  0
LINE
  8
0
 10
287.42
 20
166.44
 11
287.396
 21
166.144
  0
LINE
  8
0
 10
287.396
 20
166.144
 11
287.327
 21
165.856
  0
LINE
  8
0
 10
287.327
 20
165.856
 11
287.214
 21
165.582
  0
LINE
  8
0
 10
287.214
 20
165.582
 11
287.059
 21
165.329
  0
LINE
  8
0
 10
287.059
 20
165.329
 11
286.866
 21
165.104
  0
LINE
  8
0
 10
286.866
 20
165.104
 11
286.641
 21
164.911
  0
LINE
  8
0
 10
286.641
 20
164.911
 11
286.388
 21
164.756
  0
LINE
  8
0
 10
286.388
 20
164.756
 11
286.114
 21
164.643
  0
LINE
  8
0
 10
286.114
 20
164.643
 11
285.826
 21
164.574
  0
LINE
  8
0
 10
285.826
 20
164.574
 11
285.53
 21
164.55
  0
LINE
  8
0
 10
285.53
 20
164.55
 11
285.234
 21
164.574
  0
LINE
  8
0
 10
248.404
 20
164.574
 11
248.116
 21
164.643
  0
LINE
  8
0
 10
248.116
 20
164.643
 11
247.842
 21
164.756
  0
LINE
  8
0
 10
247.842
 20
164.756
 11
247.589
 21
164.911
  0
LINE
  8
0
 10
247.589
 20
164.911
 11
247.364
 21
165.104
  0
LINE
  8
0
 10
247.364
 20
165.104
 11
247.171
 21
165.329
  0
LINE
  8
0
 10
247.171
 20
165.329
 11
247.016
 21
165.582
  0
LINE
  8
0
 10
247.016
 20
165.582
 11
246.903
 21
165.856
  0
LINE
  8
0
 10
246.903
 20
165.856
 11
246.834
 21
166.144
  0
LINE
  8
0
 10
246.834
 20
166.144
 11
246.81
 21
166.44
  0
LINE
  8
0
 10
246.81
 20
166.44
 11
246.834
 21
166.736
  0
LINE
  8
0
 10
246.834
 20
166.736
 11
246.903
 21
167.024
  0
LINE
  8
0
 10
246.903
 20
167.024
 11
247.016
 21
167.298
  0
LINE
  8
0
 10
247.016
 20
167.298
 11
247.171
 21
167.551
  0
LINE
  8
0
 10
247.171
 20
167.551
 11
247.364
 21
167.776
  0
LINE
  8
0
 10
247.364
 20
167.776
 11
247.589
 21
167.969
  0
LINE
  8
0
 10
247.589
 20
167.969
 11
247.842
 21
168.124
  0
LINE
  8
0
 10
247.842
 20
168.124
 11
248.116
 21
168.237
  0
LINE
  8
0
 10
248.116
 20
168.237
 11
248.404
 21
168.306
  0
LINE
  8
0
 10
248.404
 20
168.306
 11
248.7
 21
168.33
  0
LINE
  8
0
 10
248.7
 20
168.33
 11
248.996
 21
168.306
  0
LINE
  8
0
 10
248.996
 20
168.306
 11
249.284
 21
168.237
  0
LINE
  8
0
 10
249.284
 20
168.237
 11
249.558
 21
168.124
  0
LINE
  8
0
 10
249.558
 20
168.124
 11
249.811
 21
167.969
  0
LINE
  8
0
 10
249.811
 20
167.969
 11
250.036
 21
167.776
  0
LINE
  8
0
 10
250.036
 20
167.776
 11
250.229
 21
167.551
  0
LINE
  8
0
 10
250.229
 20
167.551
 11
250.384
 21
167.298
  0
LINE
  8
0
 10
250.384
 20
167.298
 11
250.497
 21
167.024
  0
LINE
  8
0
 10
250.497
 20
167.024
 11
250.566
 21
166.736
  0
LINE
  8
0
 10
250.566
 20
166.736
 11
250.59
 21
166.44
  0
LINE
  8
0
 10
250.59
 20
166.44
 11
250.566
 21
166.144
  0
LINE
  8
0
 10
250.566
 20
166.144
 11
250.497
 21
165.856
  0
LINE
  8
0
 10
250.497
 20
165.856
 11
250.384
 21
165.582
  0
LINE
  8
0
 10
250.384
 20
165.582
 11
250.229
 21
165.329
  0
LINE
  8
0
 10
250.229
 20
165.329
 11
250.036
 21
165.104
  0
LINE
  8
0
 10
250.036
 20
165.104
 11
249.811
 21
164.911
  0
LINE
  8
0
 10
249.811
 20
164.911
 11
249.558
 21
164.756
  0
LINE
  8
0
 10
249.558
 20
164.756
 11
249.284
 21
164.643
  0
LINE
  8
0
 10
249.284
 20
164.643
 11
248.996
 21
164.574
  0
LINE
  8
0
 10
248.996
 20
164.574
 11
248.7
 21
164.55
  0
LINE
  8
0
 10
248.7
 20
164.55
 11
248.404
 21
164.574
  0
LINE
  8
0
 10
22.2044
 20
158.134
 11
21.9161
 21
158.203
  0
LINE
  8
0
 10
21.9161
 20
158.203
 11
21.6422
 21
158.316
  0
LINE
  8
0
 10
21.6422
 20
158.316
 11
21.3893
 21
158.471
  0
LINE
  8
0
 10
21.3893
 20
158.471
 11
21.1639
 21
158.664
  0
LINE
  8
0
 10
21.1639
 20
158.664
 11
20.9713
 21
158.889
  0
LINE
  8
0
 10
20.9713
 20
158.889
 11
20.8164
 21
159.142
  0
LINE
  8
0
 10
20.8164
 20
159.142
 11
20.7029
 21
159.416
  0
LINE
  8
0
 10
20.7029
 20
159.416
 11
20.6337
 21
159.704
  0
LINE
  8
0
 10
20.6337
 20
159.704
 11
20.6104
 21
160
  0
LINE
  8
0
 10
20.6104
 20
160
 11
20.6337
 21
160.296
  0
LINE
  8
0
 10
20.6337
 20
160.296
 11
20.7029
 21
160.584
  0
LINE
  8
0
 10
20.7029
 20
160.584
 11
20.8164
 21
160.858
  0
LINE
  8
0
 10
20.8164
 20
160.858
 11
20.9713
 21
161.111
  0
LINE
  8
0
 10
20.9713
 20
161.111
 11
21.1639
 21
161.336
  0
LINE
  8
0
 10
21.1639
 20
161.336
 11
21.3893
 21
161.529
  0
LINE
  8
0
 10
21.3893
 20
161.529
 11
21.6422
 21
161.684
  0
LINE
  8
0
 10
21.6422
 20
161.684
 11
21.9161
 21
161.797
  0
LINE
  8
0
 10
21.9161
 20
161.797
 11
22.2044
 21
161.866
  0
LINE
  8
0
 10
22.2044
 20
161.866
 11
22.5
 21
161.89
  0
LINE
  8
0
 10
22.5
 20
161.89
 11
22.7956
 21
161.866
  0
LINE
  8
0
 10
22.7956
 20
161.866
 11
23.0839
 21
161.797
  0
LINE
  8
0
 10
23.0839
 20
161.797
 11
23.3579
 21
161.684
  0
LINE
  8
0
 10
23.3579
 20
161.684
 11
23.6107
 21
161.529
  0
LINE
  8
0
 10
23.6107
 20
161.529
 11
23.8362
 21
161.336
  0
LINE
  8
0
 10
23.8362
 20
161.336
 11
24.0287
 21
161.111
  0
LINE
  8
0
 10
24.0287
 20
161.111
 11
24.1836
 21
160.858
  0
LINE
  8
0
 10
24.1836
 20
160.858
 11
24.2971
 21
160.584
  0
LINE
  8
0
 10
24.2971
 20
160.584
 11
24.3663
 21
160.296
  0
LINE
  8
0
 10
24.3663
 20
160.296
 11
24.3896
 21
160
  0
LINE
  8
0
 10
24.3896
 20
160
 11
24.3663
 21
159.704
  0
LINE
  8
0
 10
24.3663
 20
159.704
 11
24.2971
 21
159.416
  0
LINE
  8
0
 10
24.2971
 20
159.416
 11
24.1836
 21
159.142
  0
LINE
  8
0
 10
24.1836
 20
159.142
 11
24.0287
 21
158.889
  0
LINE
  8
0
 10
24.0287
 20
158.889
 11
23.8362
 21
158.664
  0
LINE
  8
0
 10
23.8362
 20
158.664
 11
23.6107
 21
158.471
  0
LINE
  8
0
 10
23.6107
 20
158.471
 11
23.3579
 21
158.316
  0
LINE
  8
0
 10
23.3579
 20
158.316
 11
23.0839
 21
158.203
  0
LINE
  8
0
 10
23.0839
 20
158.203
 11
22.7956
 21
158.134
  0
LINE
  8
0
 10
22.7956
 20
158.134
 11
22.5
 21
158.11
  0
LINE
  8
0
 10
22.5
 20
158.11
 11
22.2044
 21
158.134
  0
LINE
  8
0
 10
37.2044
 20
158.134
 11
36.9161
 21
158.203
  0
LINE
  8
0
 10
36.9161
 20
158.203
 11
36.6421
 21
158.316
  0
LINE
  8
0
 10
36.6421
 20
158.316
 11
36.3893
 21
158.471
  0
LINE
  8
0
 10
36.3893
 20
158.471
 11
36.1638
 21
158.664
  0
LINE
  8
0
 10
36.1638
 20
158.664
 11
35.9713
 21
158.889
  0
LINE
  8
0
 10
35.9713
 20
158.889
 11
35.8164
 21
159.142
  0
LINE
  8
0
 10
35.8164
 20
159.142
 11
35.7029
 21
159.416
  0
LINE
  8
0
 10
35.7029
 20
159.416
 11
35.6337
 21
159.704
  0
LINE
  8
0
 10
35.6337
 20
159.704
 11
35.6104
 21
160
  0
LINE
  8
0
 10
35.6104
 20
160
 11
35.6337
 21
160.296
  0
LINE
  8
0
 10
35.6337
 20
160.296
 11
35.7029
 21
160.584
  0
LINE
  8
0
 10
35.7029
 20
160.584
 11
35.8164
 21
160.858
  0
LINE
  8
0
 10
35.8164
 20
160.858
 11
35.9713
 21
161.111
  0
LINE
  8
0
 10
35.9713
 20
161.111
 11
36.1638
 21
161.336
  0
LINE
  8
0
 10
36.1638
 20
161.336
 11
36.3893
 21
161.529
  0
LINE
  8
0
 10
36.3893
 20
161.529
 11
36.6421
 21
161.684
  0
LINE
  8
0
 10
36.6421
 20
161.684
 11
36.9161
 21
161.797
  0
LINE
  8
0
 10
36.9161
 20
161.797
 11
37.2044
 21
161.866
  0
LINE
  8
0
 10
37.2044
 20
161.866
 11
37.5
 21
161.89
  0
LINE
  8
0
 10
37.5
 20
161.89
 11
37.7956
 21
161.866
  0
LINE
  8
0
 10
37.7956
 20
161.866
 11
38.0839
 21
161.797
  0
LINE
  8
0
 10
38.0839
 20
161.797
 11
38.3578
 21
161.684
  0
LINE
  8
0
 10
38.3578
 20
161.684
 11
38.6107
 21
161.529
  0
LINE
  8
0
 10
38.6107
 20
161.529
 11
38.8361
 21
161.336
  0
LINE
  8
0
 10
38.8361
 20
161.336
 11
39.0287
 21
161.111
  0
LINE
  8
0
 10
39.0287
 20
161.111
 11
39.1836
 21
160.858
  0
LINE
  8
0
 10
39.1836
 20
160.858
 11
39.2971
 21
160.584
  0
LINE
  8
0
 10
39.2971
 20
160.584
 11
39.3663
 21
160.296
  0
LINE
  8
0
 10
39.3663
 20
160.296
 11
39.3896
 21
160
  0
LINE
  8
0
 10
39.3896
 20
160
 11
39.3663
 21
159.704
  0
LINE
  8
0
 10
39.3663
 20
159.704
 11
39.2971
 21
159.416
  0
LINE
  8
0
 10
39.2971
 20
159.416
 11
39.1836
 21
159.142
  0
LINE
  8
0
 10
39.1836
 20
159.142
 11
39.0287
 21
158.889
  0
LINE
  8
0
 10
39.0287
 20
158.889
 11
38.8361
 21
158.664
  0
LINE
  8
0
 10
38.8361
 20
158.664
 11
38.6107
 21
158.471
  0
LINE
  8
0
 10
38.6107
 20
158.471
 11
38.3578
 21
158.316
  0
LINE
  8
0
 10
38.3578
 20
158.316
 11
38.0839
 21
158.203
  0
LINE
  8
0
 10
38.0839
 20
158.203
 11
37.7956
 21
158.134
  0
LINE
  8
0
 10
37.7956
 20
158.134
 11
37.5
 21
158.11
  0
LINE
  8
0
 10
37.5
 20
158.11
 11
37.2044
 21
158.134
  0
LINE
  8
0
 10
248.404
 20
148.064
 11
248.116
 21
148.133
  0
LINE
  8
0
 10
248.116
 20
148.133
 11
247.842
 21
148.246
  0
LINE
  8
0
 10
247.842
 20
148.246
 11
247.589
 21
148.401
  0
LINE
  8
0
 10
247.589
 20
148.401
 11
247.364
 21
148.594
  0
LINE
  8
0
 10
247.364
 20
148.594
 11
247.171
 21
148.819
  0
LINE
  8
0
 10
247.171
 20
148.819
 11
247.016
 21
149.072
  0
LINE
  8
0
 10
247.016
 20
149.072
 11
246.903
 21
149.346
  0
LINE
  8
0
 10
246.903
 20
149.346
 11
246.834
 21
149.634
  0
LINE
  8
0
 10
246.834
 20
149.634
 11
246.81
 21
149.93
  0
LINE
  8
0
 10
246.81
 20
149.93
 11
246.834
 21
150.226
  0
LINE
  8
0
 10
246.834
 20
150.226
 11
246.903
 21
150.514
  0
LINE
  8
0
 10
246.903
 20
150.514
 11
247.016
 21
150.788
  0
LINE
  8
0
 10
247.016
 20
150.788
 11
247.171
 21
151.041
  0
LINE
  8
0
 10
247.171
 20
151.041
 11
247.364
 21
151.266
  0
LINE
  8
0
 10
247.364
 20
151.266
 11
247.589
 21
151.459
  0
LINE
  8
0
 10
247.589
 20
151.459
 11
247.842
 21
151.614
  0
LINE
  8
0
 10
247.842
 20
151.614
 11
248.116
 21
151.727
  0
LINE
  8
0
 10
248.116
 20
151.727
 11
248.404
 21
151.796
  0
LINE
  8
0
 10
248.404
 20
151.796
 11
248.7
 21
151.82
  0
LINE
  8
0
 10
248.7
 20
151.82
 11
248.996
 21
151.796
  0
LINE
  8
0
 10
248.996
 20
151.796
 11
249.284
 21
151.727
  0
LINE
  8
0
 10
249.284
 20
151.727
 11
249.558
 21
151.614
  0
LINE
  8
0
 10
249.558
 20
151.614
 11
249.811
 21
151.459
  0
LINE
  8
0
 10
249.811
 20
151.459
 11
250.036
 21
151.266
  0
LINE
  8
0
 10
250.036
 20
151.266
 11
250.229
 21
151.041
  0
LINE
  8
0
 10
250.229
 20
151.041
 11
250.384
 21
150.788
  0
LINE
  8
0
 10
250.384
 20
150.788
 11
250.497
 21
150.514
  0
LINE
  8
0
 10
250.497
 20
150.514
 11
250.566
 21
150.226
  0
LINE
  8
0
 10
250.566
 20
150.226
 11
250.59
 21
149.93
  0
LINE
  8
0
 10
250.59
 20
149.93
 11
250.566
 21
149.634
  0
LINE
  8
0
 10
250.566
 20
149.634
 11
250.497
 21
149.346
  0
LINE
  8
0
 10
250.497
 20
149.346
 11
250.384
 21
149.072
  0
LINE
  8
0
 10
250.384
 20
149.072
 11
250.229
 21
148.819
  0
LINE
  8
0
 10
250.229
 20
148.819
 11
250.036
 21
148.594
  0
LINE
  8
0
 10
250.036
 20
148.594
 11
249.811
 21
148.401
  0
LINE
  8
0
 10
249.811
 20
148.401
 11
249.558
 21
148.246
  0
LINE
  8
0
 10
249.558
 20
148.246
 11
249.284
 21
148.133
  0
LINE
  8
0
 10
249.284
 20
148.133
 11
248.996
 21
148.064
  0
LINE
  8
0
 10
248.996
 20
148.064
 11
248.7
 21
148.04
  0
LINE
  8
0
 10
248.7
 20
148.04
 11
248.404
 21
148.064
  0
LINE
  8
0
 10
285.234
 20
148.064
 11
284.946
 21
148.133
  0
LINE
  8
0
 10
284.946
 20
148.133
 11
284.672
 21
148.246
  0
LINE
  8
0
 10
284.672
 20
148.246
 11
284.419
 21
148.401
  0
LINE
  8
0
 10
284.419
 20
148.401
 11
284.194
 21
148.594
  0
LINE
  8
0
 10
284.194
 20
148.594
 11
284.001
 21
148.819
  0
LINE
  8
0
 10
284.001
 20
148.819
 11
283.846
 21
149.072
  0
LINE
  8
0
 10
283.846
 20
149.072
 11
283.733
 21
149.346
  0
LINE
  8
0
 10
283.733
 20
149.346
 11
283.664
 21
149.634
  0
LINE
  8
0
 10
283.664
 20
149.634
 11
283.64
 21
149.93
  0
LINE
  8
0
 10
283.64
 20
149.93
 11
283.664
 21
150.226
  0
LINE
  8
0
 10
283.664
 20
150.226
 11
283.733
 21
150.514
  0
LINE
  8
0
 10
283.733
 20
150.514
 11
283.846
 21
150.788
  0
LINE
  8
0
 10
283.846
 20
150.788
 11
284.001
 21
151.041
  0
LINE
  8
0
 10
284.001
 20
151.041
 11
284.194
 21
151.266
  0
LINE
  8
0
 10
284.194
 20
151.266
 11
284.419
 21
151.459
  0
LINE
  8
0
 10
284.419
 20
151.459
 11
284.672
 21
151.614
  0
LINE
  8
0
 10
284.672
 20
151.614
 11
284.946
 21
151.727
  0
LINE
  8
0
 10
284.946
 20
151.727
 11
285.234
 21
151.796
  0
LINE
  8
0
 10
285.234
 20
151.796
 11
285.53
 21
151.82
  0
LINE
  8
0
 10
285.53
 20
151.82
 11
285.826
 21
151.796
  0
LINE
  8
0
 10
285.826
 20
151.796
 11
286.114
 21
151.727
  0
LINE
  8
0
 10
286.114
 20
151.727
 11
286.388
 21
151.614
  0
LINE
  8
0
 10
286.388
 20
151.614
 11
286.641
 21
151.459
  0
LINE
  8
0
 10
286.641
 20
151.459
 11
286.866
 21
151.266
  0
LINE
  8
0
 10
286.866
 20
151.266
 11
287.059
 21
151.041
  0
LINE
  8
0
 10
287.059
 20
151.041
 11
287.214
 21
150.788
  0
LINE
  8
0
 10
287.214
 20
150.788
 11
287.327
 21
150.514
  0
LINE
  8
0
 10
287.327
 20
150.514
 11
287.396
 21
150.226
  0
LINE
  8
0
 10
287.396
 20
150.226
 11
287.42
 21
149.93
  0
LINE
  8
0
 10
287.42
 20
149.93
 11
287.396
 21
149.634
  0
LINE
  8
0
 10
287.396
 20
149.634
 11
287.327
 21
149.346
  0
LINE
  8
0
 10
287.327
 20
149.346
 11
287.214
 21
149.072
  0
LINE
  8
0
 10
287.214
 20
149.072
 11
287.059
 21
148.819
  0
LINE
  8
0
 10
287.059
 20
148.819
 11
286.866
 21
148.594
  0
LINE
  8
0
 10
286.866
 20
148.594
 11
286.641
 21
148.401
  0
LINE
  8
0
 10
286.641
 20
148.401
 11
286.388
 21
148.246
  0
LINE
  8
0
 10
286.388
 20
148.246
 11
286.114
 21
148.133
  0
LINE
  8
0
 10
286.114
 20
148.133
 11
285.826
 21
148.064
  0
LINE
  8
0
 10
285.826
 20
148.064
 11
285.53
 21
148.04
  0
LINE
  8
0
 10
285.53
 20
148.04
 11
285.234
 21
148.064
  0
LINE
  8
0
 10
248.404
 20
88.3737
 11
248.116
 21
88.4429
  0
LINE
  8
0
 10
248.116
 20
88.4429
 11
247.842
 21
88.5564
  0
LINE
  8
0
 10
247.842
 20
88.5564
 11
247.589
 21
88.7113
  0
LINE
  8
0
 10
247.589
 20
88.7113
 11
247.364
 21
88.9039
  0
LINE
  8
0
 10
247.364
 20
88.9039
 11
247.171
 21
89.1293
  0
LINE
  8
0
 10
247.171
 20
89.1293
 11
247.016
 21
89.3821
  0
LINE
  8
0
 10
247.016
 20
89.3821
 11
246.903
 21
89.6561
  0
LINE
  8
0
 10
246.903
 20
89.6561
 11
246.834
 21
89.9444
  0
LINE
  8
0
 10
246.834
 20
89.9444
 11
246.81
 21
90.24
  0
LINE
  8
0
 10
246.81
 20
90.24
 11
246.834
 21
90.5356
  0
LINE
  8
0
 10
246.834
 20
90.5356
 11
246.903
 21
90.8239
  0
LINE
  8
0
 10
246.903
 20
90.8239
 11
247.016
 21
91.0979
  0
LINE
  8
0
 10
247.016
 20
91.0979
 11
247.171
 21
91.3507
  0
LINE
  8
0
 10
247.171
 20
91.3507
 11
247.364
 21
91.5761
  0
LINE
  8
0
 10
247.364
 20
91.5761
 11
247.589
 21
91.7687
  0
LINE
  8
0
 10
247.589
 20
91.7687
 11
247.842
 21
91.9236
  0
LINE
  8
0
 10
247.842
 20
91.9236
 11
248.116
 21
92.0371
  0
LINE
  8
0
 10
248.116
 20
92.0371
 11
248.404
 21
92.1063
  0
LINE
  8
0
 10
248.404
 20
92.1063
 11
248.7
 21
92.1296
  0
LINE
  8
0
 10
248.7
 20
92.1296
 11
248.996
 21
92.1063
  0
LINE
  8
0
 10
248.996
 20
92.1063
 11
249.284
 21
92.0371
  0
LINE
  8
0
 10
249.284
 20
92.0371
 11
249.558
 21
91.9236
  0
LINE
  8
0
 10
249.558
 20
91.9236
 11
249.811
 21
91.7687
  0
LINE
  8
0
 10
249.811
 20
91.7687
 11
250.036
 21
91.5761
  0
LINE
  8
0
 10
250.036
 20
91.5761
 11
250.229
 21
91.3507
  0
LINE
  8
0
 10
250.229
 20
91.3507
 11
250.384
 21
91.0979
  0
LINE
  8
0
 10
250.384
 20
91.0979
 11
250.497
 21
90.8239
  0
LINE
  8
0
 10
250.497
 20
90.8239
 11
250.566
 21
90.5356
  0
LINE
  8
0
 10
250.566
 20
90.5356
 11
250.59
 21
90.24
  0
LINE
  8
0
 10
250.59
 20
90.24
 11
250.566
 21
89.9444
  0
LINE
  8
0
 10
250.566
 20
89.9444
 11
250.497
 21
89.6561
  0
LINE
  8
0
 10
250.497
 20
89.6561
 11
250.384
 21
89.3821
  0
LINE
  8
0
 10
250.384
 20
89.3821
 11
250.229
 21
89.1293
  0
LINE
  8
0
 10
250.229
 20
89.1293
 11
250.036
 21
88.9039
  0
LINE
  8
0
 10
250.036
 20
88.9039
 11
249.811
 21
88.7113
  0
LINE
  8
0
 10
249.811
 20
88.7113
 11
249.558
 21
88.5564
  0
LINE
  8
0
 10
249.558
 20
88.5564
 11
249.284
 21
88.4429
  0
LINE
  8
0
 10
249.284
 20
88.4429
 11
248.996
 21
88.3737
  0
LINE
  8
0
 10
248.996
 20
88.3737
 11
248.7
 21
88.3504
  0
LINE
  8
0
 10
248.7
 20
88.3504
 11
248.404
 21
88.3737
  0
LINE
  8
0
 10
285.234
 20
88.3737
 11
284.946
 21
88.4429
  0
LINE
  8
0
 10
284.946
 20
88.4429
 11
284.672
 21
88.5564
  0
LINE
  8
0
 10
284.672
 20
88.5564
 11
284.419
 21
88.7113
  0
LINE
  8
0
 10
284.419
 20
88.7113
 11
284.194
 21
88.9039
  0
LINE
  8
0
 10
284.194
 20
88.9039
 11
284.001
 21
89.1293
  0
LINE
  8
0
 10
284.001
 20
89.1293
 11
283.846
 21
89.3821
  0
LINE
  8
0
 10
283.846
 20
89.3821
 11
283.733
 21
89.6561
  0
LINE
  8
0
 10
283.733
 20
89.6561
 11
283.664
 21
89.9444
  0
LINE
  8
0
 10
283.664
 20
89.9444
 11
283.64
 21
90.24
  0
LINE
  8
0
 10
283.64
 20
90.24
 11
283.664
 21
90.5356
  0
LINE
  8
0
 10
283.664
 20
90.5356
 11
283.733
 21
90.8239
  0
LINE
  8
0
 10
283.733
 20
90.8239
 11
283.846
 21
91.0979
  0
LINE
  8
0
 10
283.846
 20
91.0979
 11
284.001
 21
91.3507
  0
LINE
  8
0
 10
284.001
 20
91.3507
 11
284.194
 21
91.5761
  0
LINE
  8
0
 10
284.194
 20
91.5761
 11
284.419
 21
91.7687
  0
LINE
  8
0
 10
284.419
 20
91.7687
 11
284.672
 21
91.9236
  0
LINE
  8
0
 10
284.672
 20
91.9236
 11
284.946
 21
92.0371
  0
LINE
  8
0
 10
284.946
 20
92.0371
 11
285.234
 21
92.1063
  0
LINE
  8
0
 10
285.234
 20
92.1063
 11
285.53
 21
92.1296
  0
LINE
  8
0
 10
285.53
 20
92.1296
 11
285.826
 21
92.1063
  0
LINE
  8
0
 10
285.826
 20
92.1063
 11
286.114
 21
92.0371
  0
LINE
  8
0
 10
286.114
 20
92.0371
 11
286.388
 21
91.9236
  0
LINE
  8
0
 10
286.388
 20
91.9236
 11
286.641
 21
91.7687
  0
LINE
  8
0
 10
286.641
 20
91.7687
 11
286.866
 21
91.5761
  0
LINE
  8
0
 10
286.866
 20
91.5761
 11
287.059
 21
91.3507
  0
LINE
  8
0
 10
287.059
 20
91.3507
 11
287.214
 21
91.0979
  0
LINE
  8
0
 10
287.214
 20
91.0979
 11
287.327
 21
90.8239
  0
LINE
  8
0
 10
287.327
 20
90.8239
 11
287.396
 21
90.5356
  0
LINE
  8
0
 10
287.396
 20
90.5356
 11
287.42
 21
90.24
  0
LINE
  8
0
 10
287.42
 20
90.24
 11
287.396
 21
89.9444
  0
LINE
  8
0
 10
287.396
 20
89.9444
 11
287.327
 21
89.6561
  0
LINE
  8
0
 10
287.327
 20
89.6561
 11
287.214
 21
89.3821
  0
LINE
  8
0
 10
287.214
 20
89.3821
 11
287.059
 21
89.1293
  0
LINE
  8
0
 10
287.059
 20
89.1293
 11
286.866
 21
88.9039
  0
LINE
  8
0
 10
286.866
 20
88.9039
 11
286.641
 21
88.7113
  0
LINE
  8
0
 10
286.641
 20
88.7113
 11
286.388
 21
88.5564
  0
LINE
  8
0
 10
286.388
 20
88.5564
 11
286.114
 21
88.4429
  0
LINE
  8
0
 10
286.114
 20
88.4429
 11
285.826
 21
88.3737
  0
LINE
  8
0
 10
285.826
 20
88.3737
 11
285.53
 21
88.3504
  0
LINE
  8
0
 10
285.53
 20
88.3504
 11
285.234
 21
88.3737
  0
LINE
  8
0
 10
29.7044
 20
88.1337
 11
29.4161
 21
88.2029
  0
LINE
  8
0
 10
29.4161
 20
88.2029
 11
29.1422
 21
88.3164
  0
LINE
  8
0
 10
29.1422
 20
88.3164
 11
28.8893
 21
88.4713
  0
LINE
  8
0
 10
28.8893
 20
88.4713
 11
28.6639
 21
88.6638
  0
LINE
  8
0
 10
28.6639
 20
88.6638
 11
28.4713
 21
88.8893
  0
LINE
  8
0
 10
28.4713
 20
88.8893
 11
28.3164
 21
89.1421
  0
LINE
  8
0
 10
28.3164
 20
89.1421
 11
28.2029
 21
89.4161
  0
LINE
  8
0
 10
28.2029
 20
89.4161
 11
28.1337
 21
89.7044
  0
LINE
  8
0
 10
28.1337
 20
89.7044
 11
28.1104
 21
90
  0
LINE
  8
0
 10
28.1104
 20
90
 11
28.1337
 21
90.2956
  0
LINE
  8
0
 10
28.1337
 20
90.2956
 11
28.2029
 21
90.5839
  0
LINE
  8
0
 10
28.2029
 20
90.5839
 11
28.3164
 21
90.8578
  0
LINE
  8
0
 10
28.3164
 20
90.8578
 11
28.4713
 21
91.1107
  0
LINE
  8
0
 10
28.4713
 20
91.1107
 11
28.6639
 21
91.3361
  0
LINE
  8
0
 10
28.6639
 20
91.3361
 11
28.8893
 21
91.5287
  0
LINE
  8
0
 10
28.8893
 20
91.5287
 11
29.1422
 21
91.6836
  0
LINE
  8
0
 10
29.1422
 20
91.6836
 11
29.4161
 21
91.7971
  0
LINE
  8
0
 10
29.4161
 20
91.7971
 11
29.7044
 21
91.8663
  0
LINE
  8
0
 10
29.7044
 20
91.8663
 11
30
 21
91.8896
  0
LINE
  8
0
 10
30
 20
91.8896
 11
30.2956
 21
91.8663
  0
LINE
  8
0
 10
30.2956
 20
91.8663
 11
30.5839
 21
91.7971
  0
LINE
  8
0
 10
30.5839
 20
91.7971
 11
30.8578
 21
91.6836
  0
LINE
  8
0
 10
30.8578
 20
91.6836
 11
31.1107
 21
91.5287
  0
LINE
  8
0
 10
31.1107
 20
91.5287
 11
31.3361
 21
91.3361
  0
LINE
  8
0
 10
31.3361
 20
91.3361
 11
31.5287
 21
91.1107
  0
LINE
  8
0
 10
31.5287
 20
91.1107
 11
31.6836
 21
90.8578
  0
LINE
  8
0
 10
31.6836
 20
90.8578
 11
31.7971
 21
90.5839
  0
LINE
  8
0
 10
31.7971
 20
90.5839
 11
31.8663
 21
90.2956
  0
LINE
  8
0
 10
31.8663
 20
90.2956
 11
31.8896
 21
90
  0
LINE
  8
0
 10
31.8896
 20
90
 11
31.8663
 21
89.7044
  0
LINE
  8
0
 10
31.8663
 20
89.7044
 11
31.7971
 21
89.4161
  0
LINE
  8
0
 10
31.7971
 20
89.4161
 11
31.6836
 21
89.1421
  0
LINE
  8
0
 10
31.6836
 20
89.1421
 11
31.5287
 21
88.8893
  0
LINE
  8
0
 10
31.5287
 20
88.8893
 11
31.3361
 21
88.6638
  0
LINE
  8
0
 10
31.3361
 20
88.6638
 11
31.1107
 21
88.4713
  0
LINE
  8
0
 10
31.1107
 20
88.4713
 11
30.8578
 21
88.3164
  0
LINE
  8
0
 10
30.8578
 20
88.3164
 11
30.5839
 21
88.2029
  0
LINE
  8
0
 10
30.5839
 20
88.2029
 11
30.2956
 21
88.1337
  0
LINE
  8
0
 10
30.2956
 20
88.1337
 11
30
 21
88.1104
  0
LINE
  8
0
 10
30
 20
88.1104
 11
29.7044
 21
88.1337
  0
LINE
  8
0
 10
285.234
 20
71.8637
 11
284.946
 21
71.9329
  0
LINE
  8
0
 10
284.946
 20
71.9329
 11
284.672
 21
72.0464
  0
LINE
  8
0
 10
284.672
 20
72.0464
 11
284.419
 21
72.2013
  0
LINE
  8
0
 10
284.419
 20
72.2013
 11
284.194
 21
72.3939
  0
LINE
  8
0
 10
284.194
 20
72.3939
 11
284.001
 21
72.6194
  0
LINE
  8
0
 10
284.001
 20
72.6194
 11
283.846
 21
72.8722
  0
LINE
  8
0
 10
283.846
 20
72.8722
 11
283.733
 21
73.1461
  0
LINE
  8
0
 10
283.733
 20
73.1461
 11
283.664
 21
73.4344
  0
LINE
  8
0
 10
283.664
 20
73.4344
 11
283.64
 21
73.73
  0
LINE
  8
0
 10
283.64
 20
73.73
 11
283.664
 21
74.0256
  0
LINE
  8
0
 10
283.664
 20
74.0256
 11
283.733
 21
74.3139
  0
LINE
  8
0
 10
283.733
 20
74.3139
 11
283.846
 21
74.5879
  0
LINE
  8
0
 10
283.846
 20
74.5879
 11
284.001
 21
74.8407
  0
LINE
  8
0
 10
284.001
 20
74.8407
 11
284.194
 21
75.0661
  0
LINE
  8
0
 10
284.194
 20
75.0661
 11
284.419
 21
75.2587
  0
LINE
  8
0
 10
284.419
 20
75.2587
 11
284.672
 21
75.4136
  0
LINE
  8
0
 10
284.672
 20
75.4136
 11
284.946
 21
75.5271
  0
LINE
  8
0
 10
284.946
 20
75.5271
 11
285.234
 21
75.5963
  0
LINE
  8
0
 10
285.234
 20
75.5963
 11
285.53
 21
75.6196
  0
LINE
  8
0
 10
285.53
 20
75.6196
 11
285.826
 21
75.5963
  0
LINE
  8
0
 10
285.826
 20
75.5963
 11
286.114
 21
75.5271
  0
LINE
  8
0
 10
286.114
 20
75.5271
 11
286.388
 21
75.4136
  0
LINE
  8
0
 10
286.388
 20
75.4136
 11
286.641
 21
75.2587
  0
LINE
  8
0
 10
286.641
 20
75.2587
 11
286.866
 21
75.0661
  0
LINE
  8
0
 10
286.866
 20
75.0661
 11
287.059
 21
74.8407
  0
LINE
  8
0
 10
287.059
 20
74.8407
 11
287.214
 21
74.5879
  0
LINE
  8
0
 10
287.214
 20
74.5879
 11
287.327
 21
74.3139
  0
LINE
  8
0
 10
287.327
 20
74.3139
 11
287.396
 21
74.0256
  0
LINE
  8
0
 10
287.396
 20
74.0256
 11
287.42
 21
73.73
  0
LINE
  8
0
 10
287.42
 20
73.73
 11
287.396
 21
73.4344
  0
LINE
  8
0
 10
287.396
 20
73.4344
 11
287.327
 21
73.1461
  0
LINE
  8
0
 10
287.327
 20
73.1461
 11
287.214
 21
72.8722
  0
LINE
  8
0
 10
287.214
 20
72.8722
 11
287.059
 21
72.6194
  0
LINE
  8
0
 10
287.059
 20
72.6194
 11
286.866
 21
72.3939
  0
LINE
  8
0
 10
286.866
 20
72.3939
 11
286.641
 21
72.2013
  0
LINE
  8
0
 10
286.641
 20
72.2013
 11
286.388
 21
72.0464
  0
LINE
  8
0
 10
286.388
 20
72.0464
 11
286.114
 21
71.9329
  0
LINE
  8
0
 10
286.114
 20
71.9329
 11
285.826
 21
71.8637
  0
LINE
  8
0
 10
285.826
 20
71.8637
 11
285.53
 21
71.8404
  0
LINE
  8
0
 10
285.53
 20
71.8404
 11
285.234
 21
71.8637
  0
LINE
  8
0
 10
248.404
 20
71.8637
 11
248.116
 21
71.9329
  0
LINE
  8
0
 10
248.116
 20
71.9329
 11
247.842
 21
72.0464
  0
LINE
  8
0
 10
247.842
 20
72.0464
 11
247.589
 21
72.2013
  0
LINE
  8
0
 10
247.589
 20
72.2013
 11
247.364
 21
72.3939
  0
LINE
  8
0
 10
247.364
 20
72.3939
 11
247.171
 21
72.6194
  0
LINE
  8
0
 10
247.171
 20
72.6194
 11
247.016
 21
72.8722
  0
LINE
  8
0
 10
247.016
 20
72.8722
 11
246.903
 21
73.1461
  0
LINE
  8
0
 10
246.903
 20
73.1461
 11
246.834
 21
73.4344
  0
LINE
  8
0
 10
246.834
 20
73.4344
 11
246.81
 21
73.73
  0
LINE
  8
0
 10
246.81
 20
73.73
 11
246.834
 21
74.0256
  0
LINE
  8
0
 10
246.834
 20
74.0256
 11
246.903
 21
74.3139
  0
LINE
  8
0
 10
246.903
 20
74.3139
 11
247.016
 21
74.5879
  0
LINE
  8
0
 10
247.016
 20
74.5879
 11
247.171
 21
74.8407
  0
LINE
  8
0
 10
247.171
 20
74.8407
 11
247.364
 21
75.0661
  0
LINE
  8
0
 10
247.364
 20
75.0661
 11
247.589
 21
75.2587
  0
LINE
  8
0
 10
247.589
 20
75.2587
 11
247.842
 21
75.4136
  0
LINE
  8
0
 10
247.842
 20
75.4136
 11
248.116
 21
75.5271
  0
LINE
  8
0
 10
248.116
 20
75.5271
 11
248.404
 21
75.5963
  0
LINE
  8
0
 10
248.404
 20
75.5963
 11
248.7
 21
75.6196
  0
LINE
  8
0
 10
248.7
 20
75.6196
 11
248.996
 21
75.5963
  0
LINE
  8
0
 10
248.996
 20
75.5963
 11
249.284
 21
75.5271
  0
LINE
  8
0
 10
249.284
 20
75.5271
 11
249.558
 21
75.4136
  0
LINE
  8
0
 10
249.558
 20
75.4136
 11
249.811
 21
75.2587
  0
LINE
  8
0
 10
249.811
 20
75.2587
 11
250.036
 21
75.0661
  0
LINE
  8
0
 10
250.036
 20
75.0661
 11
250.229
 21
74.8407
  0
LINE
  8
0
 10
250.229
 20
74.8407
 11
250.384
 21
74.5879
  0
LINE
  8
0
 10
250.384
 20
74.5879
 11
250.497
 21
74.3139
  0
LINE
  8
0
 10
250.497
 20
74.3139
 11
250.566
 21
74.0256
  0
LINE
  8
0
 10
250.566
 20
74.0256
 11
250.59
 21
73.73
  0
LINE
  8
0
 10
250.59
 20
73.73
 11
250.566
 21
73.4344
  0
LINE
  8
0
 10
250.566
 20
73.4344
 11
250.497
 21
73.1461
  0
LINE
  8
0
 10
250.497
 20
73.1461
 11
250.384
 21
72.8722
  0
LINE
  8
0
 10
250.384
 20
72.8722
 11
250.229
 21
72.6194
  0
LINE
  8
0
 10
250.229
 20
72.6194
 11
250.036
 21
72.3939
  0
LINE
  8
0
 10
250.036
 20
72.3939
 11
249.811
 21
72.2013
  0
LINE
  8
0
 10
249.811
 20
72.2013
 11
249.558
 21
72.0464
  0
LINE
  8
0
 10
249.558
 20
72.0464
 11
249.284
 21
71.9329
  0
LINE
  8
0
 10
249.284
 20
71.9329
 11
248.996
 21
71.8637
  0
LINE
  8
0
 10
248.996
 20
71.8637
 11
248.7
 21
71.8404
  0
LINE
  8
0
 10
248.7
 20
71.8404
 11
248.404
 21
71.8637
  0
LINE
  8
0
 10
29.7044
 20
68.1337
 11
29.4161
 21
68.2029
  0
LINE
  8
0
 10
29.4161
 20
68.2029
 11
29.1422
 21
68.3164
  0
LINE
  8
0
 10
29.1422
 20
68.3164
 11
28.8893
 21
68.4713
  0
LINE
  8
0
 10
28.8893
 20
68.4713
 11
28.6639
 21
68.6638
  0
LINE
  8
0
 10
28.6639
 20
68.6638
 11
28.4713
 21
68.8893
  0
LINE
  8
0
 10
28.4713
 20
68.8893
 11
28.3164
 21
69.1421
  0
LINE
  8
0
 10
28.3164
 20
69.1421
 11
28.2029
 21
69.4161
  0
LINE
  8
0
 10
28.2029
 20
69.4161
 11
28.1337
 21
69.7044
  0
LINE
  8
0
 10
28.1337
 20
69.7044
 11
28.1104
 21
70
  0
LINE
  8
0
 10
28.1104
 20
70
 11
28.1337
 21
70.2956
  0
LINE
  8
0
 10
28.1337
 20
70.2956
 11
28.2029
 21
70.5839
  0
LINE
  8
0
 10
28.2029
 20
70.5839
 11
28.3164
 21
70.8578
  0
LINE
  8
0
 10
28.3164
 20
70.8578
 11
28.4713
 21
71.1107
  0
LINE
  8
0
 10
28.4713
 20
71.1107
 11
28.6639
 21
71.3361
  0
LINE
  8
0
 10
28.6639
 20
71.3361
 11
28.8893
 21
71.5287
  0
LINE
  8
0
 10
28.8893
 20
71.5287
 11
29.1422
 21
71.6836
  0
LINE
  8
0
 10
29.1422
 20
71.6836
 11
29.4161
 21
71.7971
  0
LINE
  8
0
 10
29.4161
 20
71.7971
 11
29.7044
 21
71.8663
  0
LINE
  8
0
 10
29.7044
 20
71.8663
 11
30
 21
71.8896
  0
LINE
  8
0
 10
30
 20
71.8896
 11
30.2956
 21
71.8663
  0
LINE
  8
0
 10
30.2956
 20
71.8663
 11
30.5839
 21
71.7971
  0
LINE
  8
0
 10
30.5839
 20
71.7971
 11
30.8578
 21
71.6836
  0
LINE
  8
0
 10
30.8578
 20
71.6836
 11
31.1107
 21
71.5287
  0
LINE
  8
0
 10
31.1107
 20
71.5287
 11
31.3361
 21
71.3361
  0
LINE
  8
0
 10
31.3361
 20
71.3361
 11
31.5287
 21
71.1107
  0
LINE
  8
0
 10
31.5287
 20
71.1107
 11
31.6836
 21
70.8578
  0
LINE
  8
0
 10
31.6836
 20
70.8578
 11
31.7971
 21
70.5839
  0
LINE
  8
0
 10
31.7971
 20
70.5839
 11
31.8663
 21
70.2956
  0
LINE
  8
0
 10
31.8663
 20
70.2956
 11
31.8896
 21
70
  0
LINE
  8
0
 10
31.8896
 20
70
 11
31.8663
 21
69.7044
  0
LINE
  8
0
 10
31.8663
 20
69.7044
 11
31.7971
 21
69.4161
  0
LINE
  8
0
 10
31.7971
 20
69.4161
 11
31.6836
 21
69.1421
  0
LINE
  8
0
 10
31.6836
 20
69.1421
 11
31.5287
 21
68.8893
  0
LINE
  8
0
 10
31.5287
 20
68.8893
 11
31.3361
 21
68.6638
  0
LINE
  8
0
 10
31.3361
 20
68.6638
 11
31.1107
 21
68.4713
  0
LINE
  8
0
 10
31.1107
 20
68.4713
 11
30.8578
 21
68.3164
  0
LINE
  8
0
 10
30.8578
 20
68.3164
 11
30.5839
 21
68.2029
  0
LINE
  8
0
 10
30.5839
 20
68.2029
 11
30.2956
 21
68.1337
  0
LINE
  8
0
 10
30.2956
 20
68.1337
 11
30
 21
68.1104
  0
LINE
  8
0
 10
30
 20
68.1104
 11
29.7044
 21
68.1337
  0
LINE
  8
0
 10
29.7044
 20
48.1337
 11
29.4161
 21
48.2029
  0
LINE
  8
0
 10
29.4161
 20
48.2029
 11
29.1422
 21
48.3164
  0
LINE
  8
0
 10
29.1422
 20
48.3164
 11
28.8893
 21
48.4713
  0
LINE
  8
0
 10
28.8893
 20
48.4713
 11
28.6639
 21
48.6639
  0
LINE
  8
0
 10
28.6639
 20
48.6639
 11
28.4713
 21
48.8893
  0
LINE
  8
0
 10
28.4713
 20
48.8893
 11
28.3164
 21
49.1422
  0
LINE
  8
0
 10
28.3164
 20
49.1422
 11
28.2029
 21
49.4161
  0
LINE
  8
0
 10
28.2029
 20
49.4161
 11
28.1337
 21
49.7044
  0
LINE
  8
0
 10
28.1337
 20
49.7044
 11
28.1104
 21
50
  0
LINE
  8
0
 10
28.1104
 20
50
 11
28.1337
 21
50.2956
  0
LINE
  8
0
 10
28.1337
 20
50.2956
 11
28.2029
 21
50.5839
  0
LINE
  8
0
 10
28.2029
 20
50.5839
 11
28.3164
 21
50.8578
  0
LINE
  8
0
 10
28.3164
 20
50.8578
 11
28.4713
 21
51.1107
  0
LINE
  8
0
 10
28.4713
 20
51.1107
 11
28.6639
 21
51.3361
  0
LINE
  8
0
 10
28.6639
 20
51.3361
 11
28.8893
 21
51.5287
  0
LINE
  8
0
 10
28.8893
 20
51.5287
 11
29.1422
 21
51.6836
  0
LINE
  8
0
 10
29.1422
 20
51.6836
 11
29.4161
 21
51.7971
  0
LINE
  8
0
 10
29.4161
 20
51.7971
 11
29.7044
 21
51.8663
  0
LINE
  8
0
 10
29.7044
 20
51.8663
 11
30
 21
51.8896
  0
LINE
  8
0
 10
30
 20
51.8896
 11
30.2956
 21
51.8663
  0
LINE
  8
0
 10
30.2956
 20
51.8663
 11
30.5839
 21
51.7971
  0
LINE
  8
0
 10
30.5839
 20
51.7971
 11
30.8578
 21
51.6836
  0
LINE
  8
0
 10
30.8578
 20
51.6836
 11
31.1107
 21
51.5287
  0
LINE
  8
0
 10
31.1107
 20
51.5287
 11
31.3361
 21
51.3361
  0
LINE
  8
0
 10
31.3361
 20
51.3361
 11
31.5287
 21
51.1107
  0
LINE
  8
0
 10
31.5287
 20
51.1107
 11
31.6836
 21
50.8578
  0
LINE
  8
0
 10
31.6836
 20
50.8578
 11
31.7971
 21
50.5839
  0
LINE
  8
0
 10
31.7971
 20
50.5839
 11
31.8663
 21
50.2956
  0
LINE
  8
0
 10
31.8663
 20
50.2956
 11
31.8896
 21
50
  0
LINE
  8
0
 10
31.8896
 20
50
 11
31.8663
 21
49.7044
  0
LINE
  8
0
 10
31.8663
 20
49.7044
 11
31.7971
 21
49.4161
  0
LINE
  8
0
 10
31.7971
 20
49.4161
 11
31.6836
 21
49.1422
  0
LINE
  8
0
 10
31.6836
 20
49.1422
 11
31.5287
 21
48.8893
  0
LINE
  8
0
 10
31.5287
 20
48.8893
 11
31.3361
 21
48.6639
  0
LINE
  8
0
 10
31.3361
 20
48.6639
 11
31.1107
 21
48.4713
  0
LINE
  8
0
 10
31.1107
 20
48.4713
 11
30.8578
 21
48.3164
  0
LINE
  8
0
 10
30.8578
 20
48.3164
 11
30.5839
 21
48.2029
  0
LINE
  8
0
 10
30.5839
 20
48.2029
 11
30.2956
 21
48.1337
  0
LINE
  8
0
 10
30.2956
 20
48.1337
 11
30
 21
48.1104
  0
LINE
  8
0
 10
30
 20
48.1104
 11
29.7044
 21
48.1337
  0
ENDSEC
  0
SECTION
  2
OBJECTS
  0
DICTIONARY
  0
ENDSEC
  0
EOF
