G75*
%MOIN*%
%OFA0B0*%
%FSLAX24Y24*%
%IPPOS*%
%LPD*%
%AMOC8*
5,1,8,0,0,1.08239X$1,22.5*
%
%ADD10C,0.0000*%
%ADD11C,0.0080*%
%ADD12C,0.0120*%
%ADD13C,0.0160*%
%ADD14C,0.0050*%
%ADD15C,0.0070*%
%ADD16C,0.0060*%
%ADD17C,0.0100*%
%ADD18C,0.0040*%
%ADD19C,0.0030*%
D10*
X002304Y000981D02*
X002304Y018851D01*
X031796Y018851D01*
X031796Y000981D01*
X002304Y000981D01*
X009557Y013481D02*
X009559Y013536D01*
X009565Y013590D01*
X009575Y013643D01*
X009589Y013696D01*
X009606Y013748D01*
X009628Y013798D01*
X009653Y013847D01*
X009681Y013893D01*
X009713Y013938D01*
X009748Y013979D01*
X009786Y014019D01*
X009826Y014055D01*
X009869Y014089D01*
X009915Y014119D01*
X009962Y014145D01*
X010012Y014168D01*
X010063Y014188D01*
X010115Y014204D01*
X010168Y014216D01*
X010222Y014224D01*
X010277Y014228D01*
X010331Y014228D01*
X010386Y014224D01*
X010440Y014216D01*
X010493Y014204D01*
X010545Y014188D01*
X010596Y014168D01*
X010646Y014145D01*
X010693Y014119D01*
X010739Y014089D01*
X010782Y014055D01*
X010822Y014019D01*
X010860Y013979D01*
X010895Y013938D01*
X010927Y013893D01*
X010955Y013847D01*
X010980Y013798D01*
X011002Y013748D01*
X011019Y013696D01*
X011033Y013643D01*
X011043Y013590D01*
X011049Y013536D01*
X011051Y013481D01*
X011049Y013426D01*
X011043Y013372D01*
X011033Y013319D01*
X011019Y013266D01*
X011002Y013214D01*
X010980Y013164D01*
X010955Y013115D01*
X010927Y013069D01*
X010895Y013024D01*
X010860Y012983D01*
X010822Y012943D01*
X010782Y012907D01*
X010739Y012873D01*
X010693Y012843D01*
X010646Y012817D01*
X010596Y012794D01*
X010545Y012774D01*
X010493Y012758D01*
X010440Y012746D01*
X010386Y012738D01*
X010331Y012734D01*
X010277Y012734D01*
X010222Y012738D01*
X010168Y012746D01*
X010115Y012758D01*
X010063Y012774D01*
X010012Y012794D01*
X009962Y012817D01*
X009915Y012843D01*
X009869Y012873D01*
X009826Y012907D01*
X009786Y012943D01*
X009748Y012983D01*
X009713Y013024D01*
X009681Y013069D01*
X009653Y013115D01*
X009628Y013164D01*
X009606Y013214D01*
X009589Y013266D01*
X009575Y013319D01*
X009565Y013372D01*
X009559Y013426D01*
X009557Y013481D01*
X029557Y012981D02*
X029559Y013036D01*
X029565Y013090D01*
X029575Y013143D01*
X029589Y013196D01*
X029606Y013248D01*
X029628Y013298D01*
X029653Y013347D01*
X029681Y013393D01*
X029713Y013438D01*
X029748Y013479D01*
X029786Y013519D01*
X029826Y013555D01*
X029869Y013589D01*
X029915Y013619D01*
X029962Y013645D01*
X030012Y013668D01*
X030063Y013688D01*
X030115Y013704D01*
X030168Y013716D01*
X030222Y013724D01*
X030277Y013728D01*
X030331Y013728D01*
X030386Y013724D01*
X030440Y013716D01*
X030493Y013704D01*
X030545Y013688D01*
X030596Y013668D01*
X030646Y013645D01*
X030693Y013619D01*
X030739Y013589D01*
X030782Y013555D01*
X030822Y013519D01*
X030860Y013479D01*
X030895Y013438D01*
X030927Y013393D01*
X030955Y013347D01*
X030980Y013298D01*
X031002Y013248D01*
X031019Y013196D01*
X031033Y013143D01*
X031043Y013090D01*
X031049Y013036D01*
X031051Y012981D01*
X031049Y012926D01*
X031043Y012872D01*
X031033Y012819D01*
X031019Y012766D01*
X031002Y012714D01*
X030980Y012664D01*
X030955Y012615D01*
X030927Y012569D01*
X030895Y012524D01*
X030860Y012483D01*
X030822Y012443D01*
X030782Y012407D01*
X030739Y012373D01*
X030693Y012343D01*
X030646Y012317D01*
X030596Y012294D01*
X030545Y012274D01*
X030493Y012258D01*
X030440Y012246D01*
X030386Y012238D01*
X030331Y012234D01*
X030277Y012234D01*
X030222Y012238D01*
X030168Y012246D01*
X030115Y012258D01*
X030063Y012274D01*
X030012Y012294D01*
X029962Y012317D01*
X029915Y012343D01*
X029869Y012373D01*
X029826Y012407D01*
X029786Y012443D01*
X029748Y012483D01*
X029713Y012524D01*
X029681Y012569D01*
X029653Y012615D01*
X029628Y012664D01*
X029606Y012714D01*
X029589Y012766D01*
X029575Y012819D01*
X029565Y012872D01*
X029559Y012926D01*
X029557Y012981D01*
X029557Y006981D02*
X029559Y007036D01*
X029565Y007090D01*
X029575Y007143D01*
X029589Y007196D01*
X029606Y007248D01*
X029628Y007298D01*
X029653Y007347D01*
X029681Y007393D01*
X029713Y007438D01*
X029748Y007479D01*
X029786Y007519D01*
X029826Y007555D01*
X029869Y007589D01*
X029915Y007619D01*
X029962Y007645D01*
X030012Y007668D01*
X030063Y007688D01*
X030115Y007704D01*
X030168Y007716D01*
X030222Y007724D01*
X030277Y007728D01*
X030331Y007728D01*
X030386Y007724D01*
X030440Y007716D01*
X030493Y007704D01*
X030545Y007688D01*
X030596Y007668D01*
X030646Y007645D01*
X030693Y007619D01*
X030739Y007589D01*
X030782Y007555D01*
X030822Y007519D01*
X030860Y007479D01*
X030895Y007438D01*
X030927Y007393D01*
X030955Y007347D01*
X030980Y007298D01*
X031002Y007248D01*
X031019Y007196D01*
X031033Y007143D01*
X031043Y007090D01*
X031049Y007036D01*
X031051Y006981D01*
X031049Y006926D01*
X031043Y006872D01*
X031033Y006819D01*
X031019Y006766D01*
X031002Y006714D01*
X030980Y006664D01*
X030955Y006615D01*
X030927Y006569D01*
X030895Y006524D01*
X030860Y006483D01*
X030822Y006443D01*
X030782Y006407D01*
X030739Y006373D01*
X030693Y006343D01*
X030646Y006317D01*
X030596Y006294D01*
X030545Y006274D01*
X030493Y006258D01*
X030440Y006246D01*
X030386Y006238D01*
X030331Y006234D01*
X030277Y006234D01*
X030222Y006238D01*
X030168Y006246D01*
X030115Y006258D01*
X030063Y006274D01*
X030012Y006294D01*
X029962Y006317D01*
X029915Y006343D01*
X029869Y006373D01*
X029826Y006407D01*
X029786Y006443D01*
X029748Y006483D01*
X029713Y006524D01*
X029681Y006569D01*
X029653Y006615D01*
X029628Y006664D01*
X029606Y006714D01*
X029589Y006766D01*
X029575Y006819D01*
X029565Y006872D01*
X029559Y006926D01*
X029557Y006981D01*
D11*
X029341Y004591D02*
X029181Y004591D01*
X029181Y004271D01*
X029341Y004271D01*
X029394Y004324D01*
X029394Y004538D01*
X029341Y004591D01*
X029026Y004591D02*
X029026Y004271D01*
X028812Y004591D01*
X028812Y004271D01*
X028658Y004324D02*
X028658Y004431D01*
X028551Y004431D01*
X028658Y004324D02*
X028604Y004271D01*
X028497Y004271D01*
X028444Y004324D01*
X028444Y004538D01*
X028497Y004591D01*
X028604Y004591D01*
X028658Y004538D01*
X028604Y003701D02*
X029341Y003701D01*
X029119Y003541D02*
X029119Y003221D01*
X029012Y003221D02*
X029226Y003221D01*
X029012Y003434D02*
X029119Y003541D01*
X028858Y003488D02*
X028858Y003434D01*
X028804Y003381D01*
X028644Y003381D01*
X028644Y003221D02*
X028804Y003221D01*
X028858Y003274D01*
X028858Y003328D01*
X028804Y003381D01*
X028858Y003488D02*
X028804Y003541D01*
X028644Y003541D01*
X028644Y003221D01*
X028604Y002701D02*
X029341Y002701D01*
X029172Y002541D02*
X029066Y002541D01*
X029012Y002488D01*
X028858Y002488D02*
X028858Y002434D01*
X028804Y002381D01*
X028644Y002381D01*
X028644Y002221D02*
X028804Y002221D01*
X028858Y002274D01*
X028858Y002328D01*
X028804Y002381D01*
X028858Y002488D02*
X028804Y002541D01*
X028644Y002541D01*
X028644Y002221D01*
X029012Y002221D02*
X029226Y002434D01*
X029226Y002488D01*
X029172Y002541D01*
X029226Y002221D02*
X029012Y002221D01*
X030844Y001841D02*
X030844Y001628D01*
X030951Y001521D01*
X031058Y001628D01*
X031058Y001841D01*
X031212Y001734D02*
X031266Y001734D01*
X031319Y001681D01*
X031372Y001734D01*
X031426Y001681D01*
X031426Y001521D01*
X031319Y001521D02*
X031319Y001681D01*
X031212Y001734D02*
X031212Y001521D01*
X021489Y002731D02*
X021436Y002678D01*
X021276Y002678D01*
X021276Y002571D02*
X021276Y002891D01*
X021436Y002891D01*
X021489Y002838D01*
X021489Y002731D01*
X021121Y002678D02*
X021121Y002624D01*
X021067Y002571D01*
X020961Y002571D01*
X020907Y002624D01*
X020961Y002731D02*
X021067Y002731D01*
X021121Y002678D01*
X021121Y002838D02*
X021067Y002891D01*
X020961Y002891D01*
X020907Y002838D01*
X020907Y002784D01*
X020961Y002731D01*
X020769Y002571D02*
X020662Y002571D01*
X020715Y002571D02*
X020715Y002891D01*
X020662Y002891D02*
X020769Y002891D01*
X019619Y015641D02*
X019299Y015641D01*
X019103Y015721D02*
X018783Y015721D01*
X019103Y016041D01*
X019103Y016121D01*
X019023Y016201D01*
X018863Y016201D01*
X018783Y016121D01*
X018330Y016121D02*
X018250Y016201D01*
X018090Y016201D01*
X018010Y016121D01*
X017814Y016201D02*
X017814Y015881D01*
X017654Y015721D01*
X017494Y015881D01*
X017494Y016201D01*
X018170Y015961D02*
X018250Y015961D01*
X018330Y015881D01*
X018330Y015801D01*
X018250Y015721D01*
X018090Y015721D01*
X018010Y015801D01*
X018250Y015961D02*
X018330Y016041D01*
X018330Y016121D01*
X018525Y015801D02*
X018605Y015801D01*
X018605Y015721D01*
X018525Y015721D01*
X018525Y015801D01*
X019814Y015881D02*
X019975Y016041D01*
X020055Y016041D01*
X020244Y015961D02*
X020564Y015961D01*
X020484Y015721D02*
X020484Y016201D01*
X020244Y015961D01*
X019814Y016041D02*
X019814Y015721D01*
D12*
X009004Y013481D02*
X009006Y013553D01*
X009012Y013624D01*
X009022Y013695D01*
X009035Y013765D01*
X009053Y013835D01*
X009074Y013903D01*
X009100Y013970D01*
X009128Y014036D01*
X009161Y014100D01*
X009197Y014162D01*
X009236Y014222D01*
X009278Y014279D01*
X009324Y014335D01*
X009372Y014387D01*
X009424Y014437D01*
X009478Y014484D01*
X009534Y014528D01*
X009593Y014569D01*
X009654Y014607D01*
X009717Y014641D01*
X009782Y014672D01*
X009848Y014698D01*
X009916Y014722D01*
X009985Y014741D01*
X010055Y014757D01*
X010125Y014769D01*
X010197Y014777D01*
X010268Y014781D01*
X010340Y014781D01*
X010411Y014777D01*
X010483Y014769D01*
X010553Y014757D01*
X010623Y014741D01*
X010692Y014722D01*
X010760Y014698D01*
X010826Y014672D01*
X010891Y014641D01*
X010954Y014607D01*
X011015Y014569D01*
X011074Y014528D01*
X011130Y014484D01*
X011184Y014437D01*
X011236Y014387D01*
X011284Y014335D01*
X011330Y014279D01*
X011372Y014222D01*
X011411Y014162D01*
X011447Y014100D01*
X011480Y014036D01*
X011508Y013970D01*
X011534Y013903D01*
X011555Y013835D01*
X011573Y013765D01*
X011586Y013695D01*
X011596Y013624D01*
X011602Y013553D01*
X011604Y013481D01*
X011602Y013409D01*
X011596Y013338D01*
X011586Y013267D01*
X011573Y013197D01*
X011555Y013127D01*
X011534Y013059D01*
X011508Y012992D01*
X011480Y012926D01*
X011447Y012862D01*
X011411Y012800D01*
X011372Y012740D01*
X011330Y012683D01*
X011284Y012627D01*
X011236Y012575D01*
X011184Y012525D01*
X011130Y012478D01*
X011074Y012434D01*
X011015Y012393D01*
X010954Y012355D01*
X010891Y012321D01*
X010826Y012290D01*
X010760Y012264D01*
X010692Y012240D01*
X010623Y012221D01*
X010553Y012205D01*
X010483Y012193D01*
X010411Y012185D01*
X010340Y012181D01*
X010268Y012181D01*
X010197Y012185D01*
X010125Y012193D01*
X010055Y012205D01*
X009985Y012221D01*
X009916Y012240D01*
X009848Y012264D01*
X009782Y012290D01*
X009717Y012321D01*
X009654Y012355D01*
X009593Y012393D01*
X009534Y012434D01*
X009478Y012478D01*
X009424Y012525D01*
X009372Y012575D01*
X009324Y012627D01*
X009278Y012683D01*
X009236Y012740D01*
X009197Y012800D01*
X009161Y012862D01*
X009128Y012926D01*
X009100Y012992D01*
X009074Y013059D01*
X009053Y013127D01*
X009035Y013197D01*
X009022Y013267D01*
X009012Y013338D01*
X009006Y013409D01*
X009004Y013481D01*
X029004Y012981D02*
X029006Y013053D01*
X029012Y013124D01*
X029022Y013195D01*
X029035Y013265D01*
X029053Y013335D01*
X029074Y013403D01*
X029100Y013470D01*
X029128Y013536D01*
X029161Y013600D01*
X029197Y013662D01*
X029236Y013722D01*
X029278Y013779D01*
X029324Y013835D01*
X029372Y013887D01*
X029424Y013937D01*
X029478Y013984D01*
X029534Y014028D01*
X029593Y014069D01*
X029654Y014107D01*
X029717Y014141D01*
X029782Y014172D01*
X029848Y014198D01*
X029916Y014222D01*
X029985Y014241D01*
X030055Y014257D01*
X030125Y014269D01*
X030197Y014277D01*
X030268Y014281D01*
X030340Y014281D01*
X030411Y014277D01*
X030483Y014269D01*
X030553Y014257D01*
X030623Y014241D01*
X030692Y014222D01*
X030760Y014198D01*
X030826Y014172D01*
X030891Y014141D01*
X030954Y014107D01*
X031015Y014069D01*
X031074Y014028D01*
X031130Y013984D01*
X031184Y013937D01*
X031236Y013887D01*
X031284Y013835D01*
X031330Y013779D01*
X031372Y013722D01*
X031411Y013662D01*
X031447Y013600D01*
X031480Y013536D01*
X031508Y013470D01*
X031534Y013403D01*
X031555Y013335D01*
X031573Y013265D01*
X031586Y013195D01*
X031596Y013124D01*
X031602Y013053D01*
X031604Y012981D01*
X031602Y012909D01*
X031596Y012838D01*
X031586Y012767D01*
X031573Y012697D01*
X031555Y012627D01*
X031534Y012559D01*
X031508Y012492D01*
X031480Y012426D01*
X031447Y012362D01*
X031411Y012300D01*
X031372Y012240D01*
X031330Y012183D01*
X031284Y012127D01*
X031236Y012075D01*
X031184Y012025D01*
X031130Y011978D01*
X031074Y011934D01*
X031015Y011893D01*
X030954Y011855D01*
X030891Y011821D01*
X030826Y011790D01*
X030760Y011764D01*
X030692Y011740D01*
X030623Y011721D01*
X030553Y011705D01*
X030483Y011693D01*
X030411Y011685D01*
X030340Y011681D01*
X030268Y011681D01*
X030197Y011685D01*
X030125Y011693D01*
X030055Y011705D01*
X029985Y011721D01*
X029916Y011740D01*
X029848Y011764D01*
X029782Y011790D01*
X029717Y011821D01*
X029654Y011855D01*
X029593Y011893D01*
X029534Y011934D01*
X029478Y011978D01*
X029424Y012025D01*
X029372Y012075D01*
X029324Y012127D01*
X029278Y012183D01*
X029236Y012240D01*
X029197Y012300D01*
X029161Y012362D01*
X029128Y012426D01*
X029100Y012492D01*
X029074Y012559D01*
X029053Y012627D01*
X029035Y012697D01*
X029022Y012767D01*
X029012Y012838D01*
X029006Y012909D01*
X029004Y012981D01*
X029004Y006981D02*
X029006Y007053D01*
X029012Y007124D01*
X029022Y007195D01*
X029035Y007265D01*
X029053Y007335D01*
X029074Y007403D01*
X029100Y007470D01*
X029128Y007536D01*
X029161Y007600D01*
X029197Y007662D01*
X029236Y007722D01*
X029278Y007779D01*
X029324Y007835D01*
X029372Y007887D01*
X029424Y007937D01*
X029478Y007984D01*
X029534Y008028D01*
X029593Y008069D01*
X029654Y008107D01*
X029717Y008141D01*
X029782Y008172D01*
X029848Y008198D01*
X029916Y008222D01*
X029985Y008241D01*
X030055Y008257D01*
X030125Y008269D01*
X030197Y008277D01*
X030268Y008281D01*
X030340Y008281D01*
X030411Y008277D01*
X030483Y008269D01*
X030553Y008257D01*
X030623Y008241D01*
X030692Y008222D01*
X030760Y008198D01*
X030826Y008172D01*
X030891Y008141D01*
X030954Y008107D01*
X031015Y008069D01*
X031074Y008028D01*
X031130Y007984D01*
X031184Y007937D01*
X031236Y007887D01*
X031284Y007835D01*
X031330Y007779D01*
X031372Y007722D01*
X031411Y007662D01*
X031447Y007600D01*
X031480Y007536D01*
X031508Y007470D01*
X031534Y007403D01*
X031555Y007335D01*
X031573Y007265D01*
X031586Y007195D01*
X031596Y007124D01*
X031602Y007053D01*
X031604Y006981D01*
X031602Y006909D01*
X031596Y006838D01*
X031586Y006767D01*
X031573Y006697D01*
X031555Y006627D01*
X031534Y006559D01*
X031508Y006492D01*
X031480Y006426D01*
X031447Y006362D01*
X031411Y006300D01*
X031372Y006240D01*
X031330Y006183D01*
X031284Y006127D01*
X031236Y006075D01*
X031184Y006025D01*
X031130Y005978D01*
X031074Y005934D01*
X031015Y005893D01*
X030954Y005855D01*
X030891Y005821D01*
X030826Y005790D01*
X030760Y005764D01*
X030692Y005740D01*
X030623Y005721D01*
X030553Y005705D01*
X030483Y005693D01*
X030411Y005685D01*
X030340Y005681D01*
X030268Y005681D01*
X030197Y005685D01*
X030125Y005693D01*
X030055Y005705D01*
X029985Y005721D01*
X029916Y005740D01*
X029848Y005764D01*
X029782Y005790D01*
X029717Y005821D01*
X029654Y005855D01*
X029593Y005893D01*
X029534Y005934D01*
X029478Y005978D01*
X029424Y006025D01*
X029372Y006075D01*
X029324Y006127D01*
X029278Y006183D01*
X029236Y006240D01*
X029197Y006300D01*
X029161Y006362D01*
X029128Y006426D01*
X029100Y006492D01*
X029074Y006559D01*
X029053Y006627D01*
X029035Y006697D01*
X029022Y006767D01*
X029012Y006838D01*
X029006Y006909D01*
X029004Y006981D01*
D13*
X029113Y005131D02*
X029115Y005154D01*
X029121Y005177D01*
X029130Y005198D01*
X029143Y005218D01*
X029159Y005235D01*
X029177Y005249D01*
X029197Y005260D01*
X029219Y005268D01*
X029242Y005272D01*
X029266Y005272D01*
X029289Y005268D01*
X029311Y005260D01*
X029331Y005249D01*
X029349Y005235D01*
X029365Y005218D01*
X029378Y005198D01*
X029387Y005177D01*
X029393Y005154D01*
X029395Y005131D01*
X029393Y005108D01*
X029387Y005085D01*
X029378Y005064D01*
X029365Y005044D01*
X029349Y005027D01*
X029331Y005013D01*
X029311Y005002D01*
X029289Y004994D01*
X029266Y004990D01*
X029242Y004990D01*
X029219Y004994D01*
X029197Y005002D01*
X029177Y005013D01*
X029159Y005027D01*
X029143Y005044D01*
X029130Y005064D01*
X029121Y005085D01*
X029115Y005108D01*
X029113Y005131D01*
X021463Y001281D02*
X021465Y001304D01*
X021471Y001327D01*
X021480Y001348D01*
X021493Y001368D01*
X021509Y001385D01*
X021527Y001399D01*
X021547Y001410D01*
X021569Y001418D01*
X021592Y001422D01*
X021616Y001422D01*
X021639Y001418D01*
X021661Y001410D01*
X021681Y001399D01*
X021699Y001385D01*
X021715Y001368D01*
X021728Y001348D01*
X021737Y001327D01*
X021743Y001304D01*
X021745Y001281D01*
X021743Y001258D01*
X021737Y001235D01*
X021728Y001214D01*
X021715Y001194D01*
X021699Y001177D01*
X021681Y001163D01*
X021661Y001152D01*
X021639Y001144D01*
X021616Y001140D01*
X021592Y001140D01*
X021569Y001144D01*
X021547Y001152D01*
X021527Y001163D01*
X021509Y001177D01*
X021493Y001194D01*
X021480Y001214D01*
X021471Y001235D01*
X021465Y001258D01*
X021463Y001281D01*
D14*
X021904Y001231D02*
X024904Y001231D01*
X024904Y002231D01*
X021904Y002231D01*
X021904Y003231D01*
X024904Y003231D01*
X024904Y002231D01*
X025229Y002731D02*
X025529Y002731D01*
X025229Y002731D02*
X025229Y003081D01*
X025729Y003231D02*
X025879Y003231D01*
X026379Y003081D02*
X026379Y002731D01*
X026079Y002731D01*
X027229Y002731D02*
X027529Y002731D01*
X027229Y002731D02*
X027229Y003081D01*
X027729Y003231D02*
X027879Y003231D01*
X028379Y003081D02*
X028379Y002731D01*
X028079Y002731D01*
X029454Y001931D02*
X029454Y004931D01*
X030454Y004931D01*
X030454Y001931D01*
X029454Y001931D01*
X030454Y001931D02*
X031454Y001931D01*
X031454Y004931D01*
X030454Y004931D01*
X021904Y002231D02*
X021904Y001231D01*
X020854Y001231D02*
X020854Y001731D01*
X019754Y001731D01*
X019754Y001231D01*
X020854Y001231D01*
X012554Y002181D02*
X012054Y002181D01*
X012054Y003281D01*
X012554Y003281D01*
X012554Y002181D01*
X012154Y003306D02*
X011804Y003306D01*
X012154Y003306D02*
X012154Y003606D01*
X011654Y003806D02*
X011654Y003956D01*
X011804Y004456D02*
X012154Y004456D01*
X012154Y004156D01*
X009454Y001351D02*
X009454Y007611D01*
X005634Y007611D01*
X005154Y007131D01*
X005154Y001351D01*
X009454Y001351D01*
X003879Y003081D02*
X003879Y003431D01*
X003879Y003081D02*
X003579Y003081D01*
X003029Y003081D02*
X002729Y003081D01*
X002729Y003431D01*
X003229Y003581D02*
X003379Y003581D01*
X003434Y004156D02*
X003384Y004206D01*
X003384Y004406D01*
X003434Y004456D01*
X003535Y004456D01*
X003585Y004406D01*
X003585Y004206D01*
X003535Y004156D01*
X003434Y004156D01*
X003485Y004256D02*
X003585Y004156D01*
X003707Y004156D02*
X003907Y004156D01*
X003807Y004156D02*
X003807Y004456D01*
X003707Y004356D01*
X003554Y002381D02*
X003054Y002381D01*
X003054Y001281D01*
X003554Y001281D01*
X003554Y002381D01*
X013754Y009331D02*
X014854Y009331D01*
X014854Y012031D01*
X013754Y012031D01*
X013754Y009331D01*
X015154Y009331D02*
X016254Y009331D01*
X016254Y012031D01*
X015154Y012031D01*
X015154Y009331D01*
X015454Y010531D02*
X015704Y010831D01*
X015954Y010531D01*
X015454Y010531D01*
X015458Y010535D02*
X015950Y010535D01*
X015910Y010584D02*
X015498Y010584D01*
X015539Y010632D02*
X015869Y010632D01*
X015829Y010681D02*
X015579Y010681D01*
X015619Y010729D02*
X015789Y010729D01*
X015748Y010778D02*
X015660Y010778D01*
X015700Y010826D02*
X015708Y010826D01*
X014554Y010531D02*
X014304Y010831D01*
X014054Y010531D01*
X014554Y010531D01*
X014550Y010535D02*
X014058Y010535D01*
X014098Y010584D02*
X014510Y010584D01*
X014469Y010632D02*
X014139Y010632D01*
X014179Y010681D02*
X014429Y010681D01*
X014389Y010729D02*
X014219Y010729D01*
X014260Y010778D02*
X014348Y010778D01*
X014308Y010826D02*
X014300Y010826D01*
X008004Y013881D02*
X007504Y013631D01*
X007504Y011281D01*
X006904Y011281D01*
X006904Y017681D01*
X007504Y017681D01*
X007504Y015331D01*
X008004Y015081D01*
X008004Y013881D01*
X005804Y012356D02*
X005554Y012356D01*
X005554Y012731D01*
X005554Y012356D02*
X005304Y012356D01*
X005554Y012106D01*
X005554Y011731D01*
X005554Y012106D02*
X005304Y012106D01*
X005554Y012106D02*
X005804Y012106D01*
X005804Y012356D02*
X005554Y012106D01*
X006904Y011281D02*
X003704Y011281D01*
X003704Y010831D01*
X002004Y010831D01*
X002004Y011281D01*
X001104Y011281D01*
X001104Y017681D01*
X002004Y017681D01*
X002004Y018131D01*
X003704Y018131D01*
X003704Y017681D01*
X006904Y017681D01*
X007804Y017481D02*
X010804Y017481D01*
X010804Y018481D01*
X007804Y018481D01*
X007804Y017481D01*
X008454Y017381D02*
X008454Y016281D01*
X011154Y016281D01*
X011154Y017381D01*
X008454Y017381D01*
X009654Y017081D02*
X009954Y016831D01*
X009654Y016581D01*
X009654Y017081D01*
X009654Y017034D02*
X009710Y017034D01*
X009654Y016986D02*
X009768Y016986D01*
X009826Y016937D02*
X009654Y016937D01*
X009654Y016889D02*
X009884Y016889D01*
X009942Y016840D02*
X009654Y016840D01*
X009654Y016792D02*
X009907Y016792D01*
X009849Y016743D02*
X009654Y016743D01*
X009654Y016695D02*
X009791Y016695D01*
X009733Y016646D02*
X009654Y016646D01*
X009654Y016598D02*
X009674Y016598D01*
X012254Y017331D02*
X013354Y017331D01*
X013354Y014631D01*
X012254Y014631D01*
X012254Y017331D01*
X013454Y017331D02*
X014554Y017331D01*
X014554Y014631D01*
X013454Y014631D01*
X013454Y017331D01*
X014654Y017331D02*
X015754Y017331D01*
X015754Y014631D01*
X014654Y014631D01*
X014654Y017331D01*
X015854Y017331D02*
X016954Y017331D01*
X016954Y014631D01*
X015854Y014631D01*
X015854Y017331D01*
X016154Y016131D02*
X016404Y015831D01*
X016654Y016131D01*
X016154Y016131D01*
X016169Y016113D02*
X016639Y016113D01*
X016599Y016064D02*
X016209Y016064D01*
X016250Y016016D02*
X016558Y016016D01*
X016518Y015967D02*
X016290Y015967D01*
X016331Y015919D02*
X016477Y015919D01*
X016437Y015870D02*
X016371Y015870D01*
X015454Y016131D02*
X015204Y015831D01*
X014954Y016131D01*
X015454Y016131D01*
X015439Y016113D02*
X014969Y016113D01*
X015009Y016064D02*
X015399Y016064D01*
X015358Y016016D02*
X015050Y016016D01*
X015090Y015967D02*
X015318Y015967D01*
X015277Y015919D02*
X015131Y015919D01*
X015171Y015870D02*
X015237Y015870D01*
X014254Y016131D02*
X014004Y015831D01*
X013754Y016131D01*
X014254Y016131D01*
X014239Y016113D02*
X013769Y016113D01*
X013809Y016064D02*
X014199Y016064D01*
X014158Y016016D02*
X013850Y016016D01*
X013890Y015967D02*
X014118Y015967D01*
X014077Y015919D02*
X013931Y015919D01*
X013971Y015870D02*
X014037Y015870D01*
X013054Y016131D02*
X012804Y015831D01*
X012554Y016131D01*
X013054Y016131D01*
X013039Y016113D02*
X012569Y016113D01*
X012609Y016064D02*
X012999Y016064D01*
X012958Y016016D02*
X012650Y016016D01*
X012690Y015967D02*
X012918Y015967D01*
X012877Y015919D02*
X012731Y015919D01*
X012771Y015870D02*
X012837Y015870D01*
X018254Y017431D02*
X018254Y018531D01*
X020954Y018531D01*
X020954Y017431D01*
X018254Y017431D01*
X019454Y017981D02*
X019754Y018231D01*
X019754Y017731D01*
X019454Y017981D01*
X019482Y018004D02*
X019754Y018004D01*
X019754Y017956D02*
X019484Y017956D01*
X019542Y017907D02*
X019754Y017907D01*
X019754Y017859D02*
X019600Y017859D01*
X019658Y017810D02*
X019754Y017810D01*
X019754Y017762D02*
X019717Y017762D01*
X019754Y018053D02*
X019540Y018053D01*
X019599Y018101D02*
X019754Y018101D01*
X019754Y018150D02*
X019657Y018150D01*
X019715Y018198D02*
X019754Y018198D01*
X021954Y017631D02*
X021954Y016331D01*
X022654Y016331D01*
X022654Y017631D01*
X021954Y017631D01*
X005804Y016856D02*
X005554Y016606D01*
X005554Y016231D01*
X005554Y016606D02*
X005304Y016606D01*
X005304Y016856D02*
X005554Y016606D01*
X005804Y016606D01*
X005804Y016856D02*
X005554Y016856D01*
X005554Y017231D01*
X005554Y016856D02*
X005304Y016856D01*
X003704Y017681D02*
X002004Y017681D01*
X002004Y011281D02*
X003704Y011281D01*
D15*
X009589Y015916D02*
X009729Y015916D01*
X009776Y015963D01*
X009776Y016149D01*
X009729Y016196D01*
X009589Y016196D01*
X009589Y015916D01*
X009911Y015916D02*
X010098Y016103D01*
X010098Y016149D01*
X010051Y016196D01*
X009958Y016196D01*
X009911Y016149D01*
X009911Y015916D02*
X010098Y015916D01*
X012589Y014496D02*
X012729Y014496D01*
X012776Y014449D01*
X012776Y014263D01*
X012729Y014216D01*
X012589Y014216D01*
X012589Y014496D01*
X012911Y014403D02*
X013005Y014496D01*
X013005Y014216D01*
X013098Y014216D02*
X012911Y014216D01*
X013739Y014216D02*
X013739Y014496D01*
X013879Y014496D01*
X013926Y014449D01*
X013926Y014263D01*
X013879Y014216D01*
X013739Y014216D01*
X014061Y014216D02*
X014061Y014263D01*
X014248Y014449D01*
X014248Y014496D01*
X014061Y014496D01*
X014939Y014496D02*
X014939Y014216D01*
X015079Y014216D01*
X015126Y014263D01*
X015126Y014449D01*
X015079Y014496D01*
X014939Y014496D01*
X015261Y014496D02*
X015261Y014356D01*
X015355Y014403D01*
X015401Y014403D01*
X015448Y014356D01*
X015448Y014263D01*
X015401Y014216D01*
X015308Y014216D01*
X015261Y014263D01*
X015261Y014496D02*
X015448Y014496D01*
X016239Y014496D02*
X016239Y014216D01*
X016379Y014216D01*
X016426Y014263D01*
X016426Y014449D01*
X016379Y014496D01*
X016239Y014496D01*
X016561Y014449D02*
X016608Y014496D01*
X016701Y014496D01*
X016748Y014449D01*
X016748Y014403D01*
X016701Y014356D01*
X016748Y014309D01*
X016748Y014263D01*
X016701Y014216D01*
X016608Y014216D01*
X016561Y014263D01*
X016655Y014356D02*
X016701Y014356D01*
X019294Y016966D02*
X019435Y016966D01*
X019481Y017013D01*
X019481Y017199D01*
X019435Y017246D01*
X019294Y017246D01*
X019294Y016966D01*
X019617Y017106D02*
X019804Y017106D01*
X019757Y016966D02*
X019757Y017246D01*
X019617Y017106D01*
X022044Y017813D02*
X022091Y017766D01*
X022185Y017766D01*
X022231Y017813D01*
X022367Y017766D02*
X022554Y017766D01*
X022460Y017766D02*
X022460Y018046D01*
X022367Y017953D01*
X022231Y017999D02*
X022185Y018046D01*
X022091Y018046D01*
X022044Y017999D01*
X022044Y017813D01*
X007698Y018406D02*
X007511Y018406D01*
X007651Y018546D01*
X007651Y018266D01*
X007329Y018313D02*
X007329Y018546D01*
X007282Y018546D02*
X007376Y018546D01*
X007329Y018313D02*
X007282Y018266D01*
X007236Y018266D01*
X007189Y018313D01*
X014039Y009146D02*
X014179Y009146D01*
X014226Y009099D01*
X014226Y008913D01*
X014179Y008866D01*
X014039Y008866D01*
X014039Y009146D01*
X014361Y009099D02*
X014361Y009053D01*
X014408Y009006D01*
X014501Y009006D01*
X014548Y008959D01*
X014548Y008913D01*
X014501Y008866D01*
X014408Y008866D01*
X014361Y008913D01*
X014361Y008959D01*
X014408Y009006D01*
X014501Y009006D02*
X014548Y009053D01*
X014548Y009099D01*
X014501Y009146D01*
X014408Y009146D01*
X014361Y009099D01*
X015389Y009146D02*
X015389Y008866D01*
X015529Y008866D01*
X015576Y008913D01*
X015576Y009099D01*
X015529Y009146D01*
X015389Y009146D01*
X015711Y009006D02*
X015711Y008913D01*
X015758Y008866D01*
X015851Y008866D01*
X015898Y008913D01*
X015898Y008959D01*
X015851Y009006D01*
X015711Y009006D01*
X015805Y009099D01*
X015898Y009146D01*
X012251Y004846D02*
X012158Y004846D01*
X012111Y004799D01*
X011976Y004799D02*
X011976Y004613D01*
X011929Y004566D01*
X011836Y004566D01*
X011789Y004613D01*
X011789Y004799D01*
X011836Y004846D01*
X011929Y004846D01*
X011976Y004799D01*
X011882Y004659D02*
X011976Y004566D01*
X012111Y004566D02*
X012298Y004753D01*
X012298Y004799D01*
X012251Y004846D01*
X012298Y004566D02*
X012111Y004566D01*
X012129Y002046D02*
X012176Y001999D01*
X012176Y001906D01*
X012129Y001859D01*
X011989Y001859D01*
X011989Y001766D02*
X011989Y002046D01*
X012129Y002046D01*
X012082Y001859D02*
X012176Y001766D01*
X012311Y001906D02*
X012498Y001906D01*
X012451Y001766D02*
X012451Y002046D01*
X012311Y001906D01*
X018944Y001596D02*
X018944Y001316D01*
X018944Y001409D02*
X019085Y001409D01*
X019131Y001456D01*
X019131Y001549D01*
X019085Y001596D01*
X018944Y001596D01*
X019038Y001409D02*
X019131Y001316D01*
X019267Y001363D02*
X019313Y001316D01*
X019407Y001316D01*
X019454Y001363D01*
X019454Y001409D01*
X019407Y001456D01*
X019360Y001456D01*
X019407Y001456D02*
X019454Y001503D01*
X019454Y001549D01*
X019407Y001596D01*
X019313Y001596D01*
X019267Y001549D01*
X025544Y003863D02*
X025591Y003816D01*
X025685Y003816D01*
X025731Y003863D01*
X025731Y004049D01*
X025685Y004096D01*
X025591Y004096D01*
X025544Y004049D01*
X025544Y003863D01*
X025638Y003909D02*
X025731Y003816D01*
X025867Y003956D02*
X026054Y003956D01*
X026007Y003816D02*
X026007Y004096D01*
X025867Y003956D01*
X027144Y003863D02*
X027191Y003816D01*
X027285Y003816D01*
X027331Y003863D01*
X027331Y004049D01*
X027285Y004096D01*
X027191Y004096D01*
X027144Y004049D01*
X027144Y003863D01*
X027238Y003909D02*
X027331Y003816D01*
X027467Y003863D02*
X027513Y003816D01*
X027607Y003816D01*
X027654Y003863D01*
X027654Y003909D01*
X027607Y003956D01*
X027560Y003956D01*
X027607Y003956D02*
X027654Y004003D01*
X027654Y004049D01*
X027607Y004096D01*
X027513Y004096D01*
X027467Y004049D01*
X004204Y001549D02*
X004157Y001596D01*
X004063Y001596D01*
X004017Y001549D01*
X003881Y001549D02*
X003881Y001456D01*
X003835Y001409D01*
X003694Y001409D01*
X003694Y001316D02*
X003694Y001596D01*
X003835Y001596D01*
X003881Y001549D01*
X003788Y001409D02*
X003881Y001316D01*
X004017Y001316D02*
X004204Y001503D01*
X004204Y001549D01*
X004204Y001316D02*
X004017Y001316D01*
D16*
X013352Y004481D02*
X015205Y006334D01*
X015403Y006334D01*
X017255Y004481D01*
X015304Y002529D01*
X013352Y004481D01*
X007088Y007761D02*
X006794Y007761D01*
X007088Y008054D01*
X007088Y008128D01*
X007015Y008201D01*
X006868Y008201D01*
X006794Y008128D01*
X006628Y008201D02*
X006628Y007834D01*
X006554Y007761D01*
X006407Y007761D01*
X006334Y007834D01*
X006334Y008201D01*
X008451Y014840D02*
X008524Y014914D01*
X008524Y014987D01*
X008451Y015060D01*
X008084Y015060D01*
X008084Y014987D02*
X008084Y015134D01*
X008230Y015301D02*
X008084Y015447D01*
X008524Y015447D01*
X008524Y015301D02*
X008524Y015594D01*
D17*
X005004Y007581D02*
X005006Y007605D01*
X005012Y007629D01*
X005021Y007651D01*
X005034Y007671D01*
X005050Y007689D01*
X005069Y007704D01*
X005090Y007717D01*
X005112Y007725D01*
X005136Y007730D01*
X005160Y007731D01*
X005184Y007728D01*
X005207Y007721D01*
X005229Y007711D01*
X005249Y007697D01*
X005266Y007680D01*
X005281Y007661D01*
X005292Y007640D01*
X005300Y007617D01*
X005304Y007593D01*
X005304Y007569D01*
X005300Y007545D01*
X005292Y007522D01*
X005281Y007501D01*
X005266Y007482D01*
X005249Y007465D01*
X005229Y007451D01*
X005207Y007441D01*
X005184Y007434D01*
X005160Y007431D01*
X005136Y007432D01*
X005112Y007437D01*
X005090Y007445D01*
X005069Y007458D01*
X005050Y007473D01*
X005034Y007491D01*
X005021Y007511D01*
X005012Y007533D01*
X005006Y007557D01*
X005004Y007581D01*
X015154Y006645D02*
X015156Y006669D01*
X015162Y006693D01*
X015171Y006715D01*
X015184Y006735D01*
X015200Y006753D01*
X015219Y006768D01*
X015240Y006781D01*
X015262Y006789D01*
X015286Y006794D01*
X015310Y006795D01*
X015334Y006792D01*
X015357Y006785D01*
X015379Y006775D01*
X015399Y006761D01*
X015416Y006744D01*
X015431Y006725D01*
X015442Y006704D01*
X015450Y006681D01*
X015454Y006657D01*
X015454Y006633D01*
X015450Y006609D01*
X015442Y006586D01*
X015431Y006565D01*
X015416Y006546D01*
X015399Y006529D01*
X015379Y006515D01*
X015357Y006505D01*
X015334Y006498D01*
X015310Y006495D01*
X015286Y006496D01*
X015262Y006501D01*
X015240Y006509D01*
X015219Y006522D01*
X015200Y006537D01*
X015184Y006555D01*
X015171Y006575D01*
X015162Y006597D01*
X015156Y006621D01*
X015154Y006645D01*
X029704Y005098D02*
X029771Y005031D01*
X029837Y005031D01*
X029904Y005098D01*
X029904Y005431D01*
X029837Y005431D02*
X029971Y005431D01*
X030164Y005431D02*
X030164Y005231D01*
X030298Y005298D01*
X030365Y005298D01*
X030431Y005231D01*
X030431Y005098D01*
X030365Y005031D01*
X030231Y005031D01*
X030164Y005098D01*
X030164Y005431D02*
X030431Y005431D01*
D18*
X016666Y006415D02*
X016446Y006195D01*
X016373Y006268D02*
X016520Y006122D01*
X016520Y006415D02*
X016666Y006415D01*
X016511Y006569D02*
X016328Y006386D01*
X016255Y006386D01*
X016182Y006460D01*
X016182Y006533D01*
X016365Y006716D01*
D19*
X007109Y011500D02*
X007109Y011596D01*
X007061Y011645D01*
X006867Y011645D01*
X006819Y011596D01*
X006819Y011500D01*
X006867Y011451D01*
X006915Y011451D01*
X006964Y011500D01*
X006964Y011645D01*
X007109Y011500D02*
X007061Y011451D01*
X007109Y012157D02*
X007109Y012350D01*
X007109Y012253D02*
X006819Y012253D01*
X006915Y012157D01*
X006867Y012451D02*
X006819Y012500D01*
X006819Y012596D01*
X006867Y012645D01*
X007061Y012451D01*
X007109Y012500D01*
X007109Y012596D01*
X007061Y012645D01*
X006867Y012645D01*
X006867Y012451D02*
X007061Y012451D01*
X006359Y013201D02*
X006165Y013395D01*
X006117Y013395D01*
X006069Y013346D01*
X006069Y013250D01*
X006117Y013201D01*
X006359Y013201D02*
X006359Y013395D01*
X006311Y014951D02*
X006359Y015000D01*
X006359Y015096D01*
X006311Y015145D01*
X006262Y015145D01*
X006214Y015096D01*
X006214Y014951D01*
X006311Y014951D01*
X006214Y014951D02*
X006117Y015048D01*
X006069Y015145D01*
X006915Y016157D02*
X006819Y016253D01*
X007109Y016253D01*
X007109Y016157D02*
X007109Y016350D01*
X007109Y016451D02*
X007109Y016645D01*
X007109Y016548D02*
X006819Y016548D01*
X006915Y016451D01*
X006915Y016907D02*
X006819Y017003D01*
X007109Y017003D01*
X007109Y016907D02*
X007109Y017100D01*
X007109Y017201D02*
X006915Y017395D01*
X006867Y017395D01*
X006819Y017346D01*
X006819Y017250D01*
X006867Y017201D01*
X007109Y017201D02*
X007109Y017395D01*
M02*
